<?xml version="1.0" encoding="UTF-8"?>
<!DOCTYPE svg PUBLIC "-//W3C//DTD SVG 1.1//EN" "http://www.w3.org/Graphics/SVG/1.1/DTD/svg11.dtd">
<svg width="178mm" height="128mm" viewBox="0 0 17800 12800" version="1.1" xmlns="http://www.w3.org/2000/svg" stroke-width="28.222" stroke-linejoin="round" xml:space="preserve">
 <path fill="rgb(255,255,255)" stroke="none" d="M 8894,12829 L 0,12829 0,0 17787,0 17787,12829 8894,12829 Z"/>
 <path fill="none" stroke="rgb(179,179,179)" stroke-linejoin="round" d="M 8296,10945 L 2728,10945 2728,2565 13864,2565 13864,10945 8296,10945 Z"/>
 <path fill="none" stroke="rgb(179,179,179)" stroke-linejoin="round" d="M 13864,10944 L 2728,10944"/>
 <path fill="none" stroke="rgb(179,179,179)" stroke-linejoin="round" d="M 13864,9896 L 2728,9896"/>
 <path fill="none" stroke="rgb(179,179,179)" stroke-linejoin="round" d="M 13864,8848 L 2728,8848"/>
 <path fill="none" stroke="rgb(179,179,179)" stroke-linejoin="round" d="M 13864,7801 L 2728,7801"/>
 <path fill="none" stroke="rgb(179,179,179)" stroke-linejoin="round" d="M 13864,6753 L 2728,6753"/>
 <path fill="none" stroke="rgb(179,179,179)" stroke-linejoin="round" d="M 13864,5706 L 2728,5706"/>
 <path fill="none" stroke="rgb(179,179,179)" stroke-linejoin="round" d="M 13864,4659 L 2728,4659"/>
 <path fill="none" stroke="rgb(179,179,179)" stroke-linejoin="round" d="M 13864,3611 L 2728,3611"/>
 <path fill="none" stroke="rgb(179,179,179)" stroke-linejoin="round" d="M 13864,2564 L 2728,2564"/>
 <path fill="none" stroke="rgb(179,179,179)" stroke-linejoin="round" d="M 2728,11094 L 2728,10944"/>
 <path fill="none" stroke="rgb(179,179,179)" stroke-linejoin="round" d="M 2728,11094 L 2728,10944"/>
 <path fill="none" stroke="rgb(179,179,179)" stroke-linejoin="round" d="M 5512,11094 L 5512,10944"/>
 <path fill="none" stroke="rgb(179,179,179)" stroke-linejoin="round" d="M 5512,11094 L 5512,10944"/>
 <path fill="none" stroke="rgb(179,179,179)" stroke-linejoin="round" d="M 8296,11094 L 8296,10944"/>
 <path fill="none" stroke="rgb(179,179,179)" stroke-linejoin="round" d="M 8296,11094 L 8296,10944"/>
 <path fill="none" stroke="rgb(179,179,179)" stroke-linejoin="round" d="M 11079,11094 L 11079,10944"/>
 <path fill="none" stroke="rgb(179,179,179)" stroke-linejoin="round" d="M 11079,11094 L 11079,10944"/>
 <path fill="none" stroke="rgb(179,179,179)" stroke-linejoin="round" d="M 13864,11094 L 13864,10944"/>
 <path fill="none" stroke="rgb(179,179,179)" stroke-linejoin="round" d="M 13864,11094 L 13864,10944"/>
 <path fill="none" stroke="rgb(179,179,179)" stroke-linejoin="round" d="M 2728,10944 L 13864,10944"/>
 <path fill="none" stroke="rgb(179,179,179)" stroke-linejoin="round" d="M 2578,10944 L 2728,10944"/>
 <path fill="none" stroke="rgb(179,179,179)" stroke-linejoin="round" d="M 2578,10944 L 2728,10944"/>
 <path fill="none" stroke="rgb(179,179,179)" stroke-linejoin="round" d="M 2578,9896 L 2728,9896"/>
 <path fill="none" stroke="rgb(179,179,179)" stroke-linejoin="round" d="M 2578,9896 L 2728,9896"/>
 <path fill="none" stroke="rgb(179,179,179)" stroke-linejoin="round" d="M 2578,8848 L 2728,8848"/>
 <path fill="none" stroke="rgb(179,179,179)" stroke-linejoin="round" d="M 2578,8848 L 2728,8848"/>
 <path fill="none" stroke="rgb(179,179,179)" stroke-linejoin="round" d="M 2578,7801 L 2728,7801"/>
 <path fill="none" stroke="rgb(179,179,179)" stroke-linejoin="round" d="M 2578,7801 L 2728,7801"/>
 <path fill="none" stroke="rgb(179,179,179)" stroke-linejoin="round" d="M 2578,6753 L 2728,6753"/>
 <path fill="none" stroke="rgb(179,179,179)" stroke-linejoin="round" d="M 2578,6753 L 2728,6753"/>
 <path fill="none" stroke="rgb(179,179,179)" stroke-linejoin="round" d="M 2578,5706 L 2728,5706"/>
 <path fill="none" stroke="rgb(179,179,179)" stroke-linejoin="round" d="M 2578,5706 L 2728,5706"/>
 <path fill="none" stroke="rgb(179,179,179)" stroke-linejoin="round" d="M 2578,4659 L 2728,4659"/>
 <path fill="none" stroke="rgb(179,179,179)" stroke-linejoin="round" d="M 2578,4659 L 2728,4659"/>
 <path fill="none" stroke="rgb(179,179,179)" stroke-linejoin="round" d="M 2578,3611 L 2728,3611"/>
 <path fill="none" stroke="rgb(179,179,179)" stroke-linejoin="round" d="M 2578,3611 L 2728,3611"/>
 <path fill="none" stroke="rgb(179,179,179)" stroke-linejoin="round" d="M 2578,2564 L 2728,2564"/>
 <path fill="none" stroke="rgb(179,179,179)" stroke-linejoin="round" d="M 2578,2564 L 2728,2564"/>
 <path fill="none" stroke="rgb(179,179,179)" stroke-linejoin="round" d="M 2728,10944 L 2728,2564"/>
 <path fill="none" stroke="rgb(0,69,134)" stroke-width="80" stroke-linejoin="round" d="M 2728,10943 L 5512,10943 8296,10940 11079,10902 13864,10351"/>
 <path fill="rgb(0,69,134)" stroke="none" d="M 2603,10818 L 2603,11068 2853,11068 2853,10818 2603,10818 Z"/>
 <path fill="none" stroke="rgb(0,69,134)" stroke-linejoin="round" d="M 2603,10818 L 2603,11068 2853,11068 2853,10818 2603,10818 Z"/>
 <path fill="rgb(0,69,134)" stroke="none" d="M 5387,10818 L 5387,11068 5637,11068 5637,10818 5387,10818 Z"/>
 <path fill="none" stroke="rgb(0,69,134)" stroke-linejoin="round" d="M 5387,10818 L 5387,11068 5637,11068 5637,10818 5387,10818 Z"/>
 <path fill="rgb(0,69,134)" stroke="none" d="M 8171,10815 L 8171,11065 8421,11065 8421,10815 8171,10815 Z"/>
 <path fill="none" stroke="rgb(0,69,134)" stroke-linejoin="round" d="M 8171,10815 L 8171,11065 8421,11065 8421,10815 8171,10815 Z"/>
 <path fill="rgb(0,69,134)" stroke="none" d="M 10954,10777 L 10954,11027 11204,11027 11204,10777 10954,10777 Z"/>
 <path fill="none" stroke="rgb(0,69,134)" stroke-linejoin="round" d="M 10954,10777 L 10954,11027 11204,11027 11204,10777 10954,10777 Z"/>
 <path fill="rgb(0,69,134)" stroke="none" d="M 13739,10226 L 13739,10476 13989,10476 13989,10226 13739,10226 Z"/>
 <path fill="none" stroke="rgb(0,69,134)" stroke-linejoin="round" d="M 13739,10226 L 13739,10476 13989,10476 13989,10226 13739,10226 Z"/>
 <path fill="none" stroke="rgb(255,66,14)" stroke-width="80" stroke-linejoin="round" d="M 2728,10943 L 5512,10943 8296,10939 11079,10876 13864,9664"/>
 <path fill="rgb(255,66,14)" stroke="none" d="M 2603,10943 L 2728,11068 2853,10943 2728,10818 2603,10943 Z"/>
 <path fill="none" stroke="rgb(255,66,14)" stroke-linejoin="round" d="M 2603,10943 L 2728,11068 2853,10943 2728,10818 2603,10943 Z"/>
 <path fill="rgb(255,66,14)" stroke="none" d="M 5387,10943 L 5512,11068 5637,10943 5512,10818 5387,10943 Z"/>
 <path fill="none" stroke="rgb(255,66,14)" stroke-linejoin="round" d="M 5387,10943 L 5512,11068 5637,10943 5512,10818 5387,10943 Z"/>
 <path fill="rgb(255,66,14)" stroke="none" d="M 8171,10939 L 8296,11064 8421,10939 8296,10814 8171,10939 Z"/>
 <path fill="none" stroke="rgb(255,66,14)" stroke-linejoin="round" d="M 8171,10939 L 8296,11064 8421,10939 8296,10814 8171,10939 Z"/>
 <path fill="rgb(255,66,14)" stroke="none" d="M 10954,10876 L 11079,11001 11204,10876 11079,10751 10954,10876 Z"/>
 <path fill="none" stroke="rgb(255,66,14)" stroke-linejoin="round" d="M 10954,10876 L 11079,11001 11204,10876 11079,10751 10954,10876 Z"/>
 <path fill="rgb(255,66,14)" stroke="none" d="M 13739,9664 L 13864,9789 13989,9664 13864,9539 13739,9664 Z"/>
 <path fill="none" stroke="rgb(255,66,14)" stroke-linejoin="round" d="M 13739,9664 L 13864,9789 13989,9664 13864,9539 13739,9664 Z"/>
 <path fill="none" stroke="rgb(255,211,32)" stroke-width="80" stroke-linejoin="round" d="M 2728,10943 L 5512,10943 8296,10943 11079,10943 13864,10937"/>
 <path fill="rgb(255,211,32)" stroke="none" d="M 2603,10818 L 2728,11068 2853,10818 2603,10818 Z"/>
 <path fill="none" stroke="rgb(255,211,32)" stroke-linejoin="round" d="M 2603,10818 L 2728,11068 2853,10818 2603,10818 Z"/>
 <path fill="rgb(255,211,32)" stroke="none" d="M 5387,10818 L 5512,11068 5637,10818 5387,10818 Z"/>
 <path fill="none" stroke="rgb(255,211,32)" stroke-linejoin="round" d="M 5387,10818 L 5512,11068 5637,10818 5387,10818 Z"/>
 <path fill="rgb(255,211,32)" stroke="none" d="M 8171,10818 L 8296,11068 8421,10818 8171,10818 Z"/>
 <path fill="none" stroke="rgb(255,211,32)" stroke-linejoin="round" d="M 8171,10818 L 8296,11068 8421,10818 8171,10818 Z"/>
 <path fill="rgb(255,211,32)" stroke="none" d="M 10954,10818 L 11079,11068 11204,10818 10954,10818 Z"/>
 <path fill="none" stroke="rgb(255,211,32)" stroke-linejoin="round" d="M 10954,10818 L 11079,11068 11204,10818 10954,10818 Z"/>
 <path fill="rgb(255,211,32)" stroke="none" d="M 13739,10812 L 13864,11062 13989,10812 13739,10812 Z"/>
 <path fill="none" stroke="rgb(255,211,32)" stroke-linejoin="round" d="M 13739,10812 L 13864,11062 13989,10812 13739,10812 Z"/>
 <path fill="none" stroke="rgb(87,157,28)" stroke-width="80" stroke-linejoin="round" d="M 2728,10943 L 5512,10943 8296,10939 11079,10774 13864,3923"/>
 <path fill="rgb(87,157,28)" stroke="none" d="M 2603,11068 L 2853,11068 2728,10818 2603,11068 Z"/>
 <path fill="none" stroke="rgb(87,157,28)" stroke-linejoin="round" d="M 2603,11068 L 2853,11068 2728,10818 2603,11068 Z"/>
 <path fill="rgb(87,157,28)" stroke="none" d="M 5387,11068 L 5637,11068 5512,10818 5387,11068 Z"/>
 <path fill="none" stroke="rgb(87,157,28)" stroke-linejoin="round" d="M 5387,11068 L 5637,11068 5512,10818 5387,11068 Z"/>
 <path fill="rgb(87,157,28)" stroke="none" d="M 8171,11064 L 8421,11064 8296,10814 8171,11064 Z"/>
 <path fill="none" stroke="rgb(87,157,28)" stroke-linejoin="round" d="M 8171,11064 L 8421,11064 8296,10814 8171,11064 Z"/>
 <path fill="rgb(87,157,28)" stroke="none" d="M 10954,10899 L 11204,10899 11079,10649 10954,10899 Z"/>
 <path fill="none" stroke="rgb(87,157,28)" stroke-linejoin="round" d="M 10954,10899 L 11204,10899 11079,10649 10954,10899 Z"/>
 <path fill="rgb(87,157,28)" stroke="none" d="M 13739,4048 L 13989,4048 13864,3798 13739,4048 Z"/>
 <path fill="none" stroke="rgb(87,157,28)" stroke-linejoin="round" d="M 13739,4048 L 13989,4048 13864,3798 13739,4048 Z"/>
 <text class="TextShape"><tspan class="TextParagraph" font-family="Liberation Sans" font-size="353px" font-weight="400"><tspan class="TextPosition" x="2635" y="11512"><tspan fill="rgb(0,0,0)" stroke="none">4</tspan></tspan></tspan></text>
 <text class="TextShape"><tspan class="TextParagraph" font-family="Liberation Sans" font-size="353px" font-weight="400"><tspan class="TextPosition" x="5419" y="11512"><tspan fill="rgb(0,0,0)" stroke="none">8</tspan></tspan></tspan></text>
 <text class="TextShape"><tspan class="TextParagraph" font-family="Liberation Sans" font-size="353px" font-weight="400"><tspan class="TextPosition" x="8111" y="11512"><tspan fill="rgb(0,0,0)" stroke="none">16</tspan></tspan></tspan></text>
 <text class="TextShape"><tspan class="TextParagraph" font-family="Liberation Sans" font-size="353px" font-weight="400"><tspan class="TextPosition" x="10895" y="11512"><tspan fill="rgb(0,0,0)" stroke="none">32</tspan></tspan></tspan></text>
 <text class="TextShape"><tspan class="TextParagraph" font-family="Liberation Sans" font-size="353px" font-weight="400"><tspan class="TextPosition" x="13680" y="11512"><tspan fill="rgb(0,0,0)" stroke="none">64</tspan></tspan></tspan></text>
 <text class="TextShape"><tspan class="TextParagraph" font-family="Liberation Sans" font-size="353px" font-weight="400"><tspan class="TextPosition" x="2293" y="11065"><tspan fill="rgb(0,0,0)" stroke="none">0</tspan></tspan></tspan></text>
 <text class="TextShape"><tspan class="TextParagraph" font-family="Liberation Sans" font-size="353px" font-weight="400"><tspan class="TextPosition" x="1367" y="10017"><tspan fill="rgb(0,0,0)" stroke="none">100000</tspan></tspan></tspan></text>
 <text class="TextShape"><tspan class="TextParagraph" font-family="Liberation Sans" font-size="353px" font-weight="400"><tspan class="TextPosition" x="1367" y="8969"><tspan fill="rgb(0,0,0)" stroke="none">200000</tspan></tspan></tspan></text>
 <text class="TextShape"><tspan class="TextParagraph" font-family="Liberation Sans" font-size="353px" font-weight="400"><tspan class="TextPosition" x="1367" y="7922"><tspan fill="rgb(0,0,0)" stroke="none">300000</tspan></tspan></tspan></text>
 <text class="TextShape"><tspan class="TextParagraph" font-family="Liberation Sans" font-size="353px" font-weight="400"><tspan class="TextPosition" x="1367" y="6874"><tspan fill="rgb(0,0,0)" stroke="none">400000</tspan></tspan></tspan></text>
 <text class="TextShape"><tspan class="TextParagraph" font-family="Liberation Sans" font-size="353px" font-weight="400"><tspan class="TextPosition" x="1367" y="5826"><tspan fill="rgb(0,0,0)" stroke="none">500000</tspan></tspan></tspan></text>
 <text class="TextShape"><tspan class="TextParagraph" font-family="Liberation Sans" font-size="353px" font-weight="400"><tspan class="TextPosition" x="1367" y="4779"><tspan fill="rgb(0,0,0)" stroke="none">600000</tspan></tspan></tspan></text>
 <text class="TextShape"><tspan class="TextParagraph" font-family="Liberation Sans" font-size="353px" font-weight="400"><tspan class="TextPosition" x="1367" y="3731"><tspan fill="rgb(0,0,0)" stroke="none">700000</tspan></tspan></tspan></text>
 <text class="TextShape"><tspan class="TextParagraph" font-family="Liberation Sans" font-size="353px" font-weight="400"><tspan class="TextPosition" x="1367" y="2684"><tspan fill="rgb(0,0,0)" stroke="none">800000</tspan></tspan></tspan></text>
 <text class="TextShape"><tspan class="TextParagraph" font-family="Liberation Sans" font-size="459px" font-weight="400"><tspan class="TextPosition" x="6102" y="927"><tspan fill="rgb(0,0,0)" stroke="none">Minimalne drzewo spinające</tspan></tspan></tspan></text>
 <text class="TextShape"><tspan class="TextParagraph" font-family="Liberation Sans" font-size="388px" font-weight="400"><tspan class="TextPosition" x="5176" y="1913"><tspan fill="rgb(0,0,0)" stroke="none">Gęstość 75%, podział według reprezentacji</tspan></tspan></tspan></text>
 <path fill="none" stroke="rgb(0,69,134)" stroke-width="80" stroke-linejoin="round" d="M 14522,5667 L 15322,5667"/>
 <path fill="rgb(0,69,134)" stroke="none" d="M 14816,5562 L 14816,5773 15027,5773 15027,5562 14816,5562 Z"/>
 <path fill="none" stroke="rgb(0,69,134)" stroke-linejoin="round" d="M 14816,5562 L 14816,5773 15027,5773 15027,5562 14816,5562 Z"/>
 <path fill="none" stroke="rgb(255,66,14)" stroke-width="80" stroke-linejoin="round" d="M 14522,6165 L 15322,6165"/>
 <path fill="rgb(255,66,14)" stroke="none" d="M 14816,6165 L 14922,6271 15027,6165 14922,6060 14816,6165 Z"/>
 <path fill="none" stroke="rgb(255,66,14)" stroke-linejoin="round" d="M 14816,6165 L 14922,6271 15027,6165 14922,6060 14816,6165 Z"/>
 <path fill="none" stroke="rgb(255,211,32)" stroke-width="80" stroke-linejoin="round" d="M 14522,6662 L 15322,6662"/>
 <path fill="rgb(255,211,32)" stroke="none" d="M 14816,6557 L 14922,6768 15027,6557 14816,6557 Z"/>
 <path fill="none" stroke="rgb(255,211,32)" stroke-linejoin="round" d="M 14816,6557 L 14922,6768 15027,6557 14816,6557 Z"/>
 <path fill="none" stroke="rgb(87,157,28)" stroke-width="80" stroke-linejoin="round" d="M 14522,7160 L 15322,7160"/>
 <path fill="rgb(87,157,28)" stroke="none" d="M 14816,7266 L 15027,7266 14922,7055 14816,7266 Z"/>
 <path fill="none" stroke="rgb(87,157,28)" stroke-linejoin="round" d="M 14816,7266 L 15027,7266 14922,7055 14816,7266 Z"/>
 <text class="TextShape"><tspan class="TextParagraph" font-family="Liberation Sans" font-size="353px" font-weight="400"><tspan class="TextPosition" x="15422" y="5787"><tspan fill="rgb(0,0,0)" stroke="none">im_prim75</tspan></tspan></tspan></text>
 <text class="TextShape"><tspan class="TextParagraph" font-family="Liberation Sans" font-size="353px" font-weight="400"><tspan class="TextPosition" x="15422" y="6285"><tspan fill="rgb(0,0,0)" stroke="none">im_kruskal75</tspan></tspan></tspan></text>
 <text class="TextShape"><tspan class="TextParagraph" font-family="Liberation Sans" font-size="353px" font-weight="400"><tspan class="TextPosition" x="15422" y="6782"><tspan fill="rgb(0,0,0)" stroke="none">al_prim75</tspan></tspan></tspan></text>
 <text class="TextShape"><tspan class="TextParagraph" font-family="Liberation Sans" font-size="353px" font-weight="400"><tspan class="TextPosition" x="15422" y="7280"><tspan fill="rgb(0,0,0)" stroke="none">al_kruskal75</tspan></tspan></tspan></text>
 <text class="TextShape"><tspan class="TextParagraph" font-family="Liberation Sans" font-size="318px" font-weight="400"><tspan class="TextPosition" x="6359" y="12235"><tspan fill="rgb(0,0,0)" stroke="none">Ilość wierzchołków</tspan></tspan></tspan></text>
 <text class="TextShape" transform="translate(837,8658) rotate(-90) translate(-837,-8658)"><tspan class="TextParagraph" font-family="Liberation Sans" font-size="318px" font-weight="400"><tspan class="TextPosition" x="837" y="8658"><tspan fill="rgb(0,0,0)" stroke="none">Czas wykonywania [µs]</tspan></tspan></tspan></text>
</svg>