<?xml version="1.0" encoding="UTF-8"?>
<!DOCTYPE svg PUBLIC "-//W3C//DTD SVG 1.1//EN" "http://www.w3.org/Graphics/SVG/1.1/DTD/svg11.dtd">
<svg width="178mm" height="128mm" viewBox="0 0 17800 12800" version="1.1" xmlns="http://www.w3.org/2000/svg" stroke-width="28.222" stroke-linejoin="round" xml:space="preserve">
 <path fill="rgb(255,255,255)" stroke="none" d="M 8894,12829 L 0,12829 0,0 17787,0 17787,12829 8894,12829 Z"/>
 <path fill="none" stroke="rgb(179,179,179)" stroke-linejoin="round" d="M 8111,10945 L 2543,10945 2543,2565 13679,2565 13679,10945 8111,10945 Z"/>
 <path fill="none" stroke="rgb(179,179,179)" stroke-linejoin="round" d="M 13679,10944 L 2543,10944"/>
 <path fill="none" stroke="rgb(179,179,179)" stroke-linejoin="round" d="M 13679,9896 L 2543,9896"/>
 <path fill="none" stroke="rgb(179,179,179)" stroke-linejoin="round" d="M 13679,8848 L 2543,8848"/>
 <path fill="none" stroke="rgb(179,179,179)" stroke-linejoin="round" d="M 13679,7801 L 2543,7801"/>
 <path fill="none" stroke="rgb(179,179,179)" stroke-linejoin="round" d="M 13679,6753 L 2543,6753"/>
 <path fill="none" stroke="rgb(179,179,179)" stroke-linejoin="round" d="M 13679,5706 L 2543,5706"/>
 <path fill="none" stroke="rgb(179,179,179)" stroke-linejoin="round" d="M 13679,4659 L 2543,4659"/>
 <path fill="none" stroke="rgb(179,179,179)" stroke-linejoin="round" d="M 13679,3611 L 2543,3611"/>
 <path fill="none" stroke="rgb(179,179,179)" stroke-linejoin="round" d="M 13679,2564 L 2543,2564"/>
 <path fill="none" stroke="rgb(179,179,179)" stroke-linejoin="round" d="M 2543,11094 L 2543,10944"/>
 <path fill="none" stroke="rgb(179,179,179)" stroke-linejoin="round" d="M 2543,11094 L 2543,10944"/>
 <path fill="none" stroke="rgb(179,179,179)" stroke-linejoin="round" d="M 5327,11094 L 5327,10944"/>
 <path fill="none" stroke="rgb(179,179,179)" stroke-linejoin="round" d="M 5327,11094 L 5327,10944"/>
 <path fill="none" stroke="rgb(179,179,179)" stroke-linejoin="round" d="M 8111,11094 L 8111,10944"/>
 <path fill="none" stroke="rgb(179,179,179)" stroke-linejoin="round" d="M 8111,11094 L 8111,10944"/>
 <path fill="none" stroke="rgb(179,179,179)" stroke-linejoin="round" d="M 10894,11094 L 10894,10944"/>
 <path fill="none" stroke="rgb(179,179,179)" stroke-linejoin="round" d="M 10894,11094 L 10894,10944"/>
 <path fill="none" stroke="rgb(179,179,179)" stroke-linejoin="round" d="M 13679,11094 L 13679,10944"/>
 <path fill="none" stroke="rgb(179,179,179)" stroke-linejoin="round" d="M 13679,11094 L 13679,10944"/>
 <path fill="none" stroke="rgb(179,179,179)" stroke-linejoin="round" d="M 2543,10944 L 13679,10944"/>
 <path fill="none" stroke="rgb(179,179,179)" stroke-linejoin="round" d="M 2393,10944 L 2543,10944"/>
 <path fill="none" stroke="rgb(179,179,179)" stroke-linejoin="round" d="M 2393,10944 L 2543,10944"/>
 <path fill="none" stroke="rgb(179,179,179)" stroke-linejoin="round" d="M 2393,9896 L 2543,9896"/>
 <path fill="none" stroke="rgb(179,179,179)" stroke-linejoin="round" d="M 2393,9896 L 2543,9896"/>
 <path fill="none" stroke="rgb(179,179,179)" stroke-linejoin="round" d="M 2393,8848 L 2543,8848"/>
 <path fill="none" stroke="rgb(179,179,179)" stroke-linejoin="round" d="M 2393,8848 L 2543,8848"/>
 <path fill="none" stroke="rgb(179,179,179)" stroke-linejoin="round" d="M 2393,7801 L 2543,7801"/>
 <path fill="none" stroke="rgb(179,179,179)" stroke-linejoin="round" d="M 2393,7801 L 2543,7801"/>
 <path fill="none" stroke="rgb(179,179,179)" stroke-linejoin="round" d="M 2393,6753 L 2543,6753"/>
 <path fill="none" stroke="rgb(179,179,179)" stroke-linejoin="round" d="M 2393,6753 L 2543,6753"/>
 <path fill="none" stroke="rgb(179,179,179)" stroke-linejoin="round" d="M 2393,5706 L 2543,5706"/>
 <path fill="none" stroke="rgb(179,179,179)" stroke-linejoin="round" d="M 2393,5706 L 2543,5706"/>
 <path fill="none" stroke="rgb(179,179,179)" stroke-linejoin="round" d="M 2393,4659 L 2543,4659"/>
 <path fill="none" stroke="rgb(179,179,179)" stroke-linejoin="round" d="M 2393,4659 L 2543,4659"/>
 <path fill="none" stroke="rgb(179,179,179)" stroke-linejoin="round" d="M 2393,3611 L 2543,3611"/>
 <path fill="none" stroke="rgb(179,179,179)" stroke-linejoin="round" d="M 2393,3611 L 2543,3611"/>
 <path fill="none" stroke="rgb(179,179,179)" stroke-linejoin="round" d="M 2393,2564 L 2543,2564"/>
 <path fill="none" stroke="rgb(179,179,179)" stroke-linejoin="round" d="M 2393,2564 L 2543,2564"/>
 <path fill="none" stroke="rgb(179,179,179)" stroke-linejoin="round" d="M 2543,10944 L 2543,2564"/>
 <path fill="none" stroke="rgb(0,69,134)" stroke-width="80" stroke-linejoin="round" d="M 2543,10943 L 5327,10943 8111,10935 10894,10844 13679,9553"/>
 <path fill="rgb(0,69,134)" stroke="none" d="M 2418,10818 L 2418,11068 2668,11068 2668,10818 2418,10818 Z"/>
 <path fill="none" stroke="rgb(0,69,134)" stroke-linejoin="round" d="M 2418,10818 L 2418,11068 2668,11068 2668,10818 2418,10818 Z"/>
 <path fill="rgb(0,69,134)" stroke="none" d="M 5202,10818 L 5202,11068 5452,11068 5452,10818 5202,10818 Z"/>
 <path fill="none" stroke="rgb(0,69,134)" stroke-linejoin="round" d="M 5202,10818 L 5202,11068 5452,11068 5452,10818 5202,10818 Z"/>
 <path fill="rgb(0,69,134)" stroke="none" d="M 7986,10810 L 7986,11060 8236,11060 8236,10810 7986,10810 Z"/>
 <path fill="none" stroke="rgb(0,69,134)" stroke-linejoin="round" d="M 7986,10810 L 7986,11060 8236,11060 8236,10810 7986,10810 Z"/>
 <path fill="rgb(0,69,134)" stroke="none" d="M 10769,10719 L 10769,10969 11019,10969 11019,10719 10769,10719 Z"/>
 <path fill="none" stroke="rgb(0,69,134)" stroke-linejoin="round" d="M 10769,10719 L 10769,10969 11019,10969 11019,10719 10769,10719 Z"/>
 <path fill="rgb(0,69,134)" stroke="none" d="M 13554,9428 L 13554,9678 13804,9678 13804,9428 13554,9428 Z"/>
 <path fill="none" stroke="rgb(0,69,134)" stroke-linejoin="round" d="M 13554,9428 L 13554,9678 13804,9678 13804,9428 13554,9428 Z"/>
 <path fill="none" stroke="rgb(255,66,14)" stroke-width="80" stroke-linejoin="round" d="M 2543,10943 L 5327,10943 8111,10934 10894,10784 13679,8020"/>
 <path fill="rgb(255,66,14)" stroke="none" d="M 2418,10943 L 2543,11068 2668,10943 2543,10818 2418,10943 Z"/>
 <path fill="none" stroke="rgb(255,66,14)" stroke-linejoin="round" d="M 2418,10943 L 2543,11068 2668,10943 2543,10818 2418,10943 Z"/>
 <path fill="rgb(255,66,14)" stroke="none" d="M 5202,10943 L 5327,11068 5452,10943 5327,10818 5202,10943 Z"/>
 <path fill="none" stroke="rgb(255,66,14)" stroke-linejoin="round" d="M 5202,10943 L 5327,11068 5452,10943 5327,10818 5202,10943 Z"/>
 <path fill="rgb(255,66,14)" stroke="none" d="M 7986,10934 L 8111,11059 8236,10934 8111,10809 7986,10934 Z"/>
 <path fill="none" stroke="rgb(255,66,14)" stroke-linejoin="round" d="M 7986,10934 L 8111,11059 8236,10934 8111,10809 7986,10934 Z"/>
 <path fill="rgb(255,66,14)" stroke="none" d="M 10769,10784 L 10894,10909 11019,10784 10894,10659 10769,10784 Z"/>
 <path fill="none" stroke="rgb(255,66,14)" stroke-linejoin="round" d="M 10769,10784 L 10894,10909 11019,10784 10894,10659 10769,10784 Z"/>
 <path fill="rgb(255,66,14)" stroke="none" d="M 13554,8020 L 13679,8145 13804,8020 13679,7895 13554,8020 Z"/>
 <path fill="none" stroke="rgb(255,66,14)" stroke-linejoin="round" d="M 13554,8020 L 13679,8145 13804,8020 13679,7895 13554,8020 Z"/>
 <path fill="none" stroke="rgb(255,211,32)" stroke-width="80" stroke-linejoin="round" d="M 2543,10943 L 5327,10942 8111,10930 10894,10778 13679,8571"/>
 <path fill="rgb(255,211,32)" stroke="none" d="M 2418,10818 L 2543,11068 2668,10818 2418,10818 Z"/>
 <path fill="none" stroke="rgb(255,211,32)" stroke-linejoin="round" d="M 2418,10818 L 2543,11068 2668,10818 2418,10818 Z"/>
 <path fill="rgb(255,211,32)" stroke="none" d="M 5202,10817 L 5327,11067 5452,10817 5202,10817 Z"/>
 <path fill="none" stroke="rgb(255,211,32)" stroke-linejoin="round" d="M 5202,10817 L 5327,11067 5452,10817 5202,10817 Z"/>
 <path fill="rgb(255,211,32)" stroke="none" d="M 7986,10805 L 8111,11055 8236,10805 7986,10805 Z"/>
 <path fill="none" stroke="rgb(255,211,32)" stroke-linejoin="round" d="M 7986,10805 L 8111,11055 8236,10805 7986,10805 Z"/>
 <path fill="rgb(255,211,32)" stroke="none" d="M 10769,10653 L 10894,10903 11019,10653 10769,10653 Z"/>
 <path fill="none" stroke="rgb(255,211,32)" stroke-linejoin="round" d="M 10769,10653 L 10894,10903 11019,10653 10769,10653 Z"/>
 <path fill="rgb(255,211,32)" stroke="none" d="M 13554,8446 L 13679,8696 13804,8446 13554,8446 Z"/>
 <path fill="none" stroke="rgb(255,211,32)" stroke-linejoin="round" d="M 13554,8446 L 13679,8696 13804,8446 13554,8446 Z"/>
 <path fill="none" stroke="rgb(87,157,28)" stroke-width="80" stroke-linejoin="round" d="M 2543,10943 L 5327,10942 8111,10926 10894,10647 13679,5669"/>
 <path fill="rgb(87,157,28)" stroke="none" d="M 2418,11068 L 2668,11068 2543,10818 2418,11068 Z"/>
 <path fill="none" stroke="rgb(87,157,28)" stroke-linejoin="round" d="M 2418,11068 L 2668,11068 2543,10818 2418,11068 Z"/>
 <path fill="rgb(87,157,28)" stroke="none" d="M 5202,11067 L 5452,11067 5327,10817 5202,11067 Z"/>
 <path fill="none" stroke="rgb(87,157,28)" stroke-linejoin="round" d="M 5202,11067 L 5452,11067 5327,10817 5202,11067 Z"/>
 <path fill="rgb(87,157,28)" stroke="none" d="M 7986,11051 L 8236,11051 8111,10801 7986,11051 Z"/>
 <path fill="none" stroke="rgb(87,157,28)" stroke-linejoin="round" d="M 7986,11051 L 8236,11051 8111,10801 7986,11051 Z"/>
 <path fill="rgb(87,157,28)" stroke="none" d="M 10769,10772 L 11019,10772 10894,10522 10769,10772 Z"/>
 <path fill="none" stroke="rgb(87,157,28)" stroke-linejoin="round" d="M 10769,10772 L 11019,10772 10894,10522 10769,10772 Z"/>
 <path fill="rgb(87,157,28)" stroke="none" d="M 13554,5794 L 13804,5794 13679,5544 13554,5794 Z"/>
 <path fill="none" stroke="rgb(87,157,28)" stroke-linejoin="round" d="M 13554,5794 L 13804,5794 13679,5544 13554,5794 Z"/>
 <path fill="none" stroke="rgb(126,0,33)" stroke-width="80" stroke-linejoin="round" d="M 2543,10943 L 5327,10942 8111,10927 10894,10738 13679,7982"/>
 <path fill="rgb(126,0,33)" stroke="none" d="M 2418,10818 L 2418,11068 2668,10943 2418,10818 Z"/>
 <path fill="none" stroke="rgb(126,0,33)" stroke-linejoin="round" d="M 2418,10818 L 2418,11068 2668,10943 2418,10818 Z"/>
 <path fill="rgb(126,0,33)" stroke="none" d="M 5202,10817 L 5202,11067 5452,10942 5202,10817 Z"/>
 <path fill="none" stroke="rgb(126,0,33)" stroke-linejoin="round" d="M 5202,10817 L 5202,11067 5452,10942 5202,10817 Z"/>
 <path fill="rgb(126,0,33)" stroke="none" d="M 7986,10802 L 7986,11052 8236,10927 7986,10802 Z"/>
 <path fill="none" stroke="rgb(126,0,33)" stroke-linejoin="round" d="M 7986,10802 L 7986,11052 8236,10927 7986,10802 Z"/>
 <path fill="rgb(126,0,33)" stroke="none" d="M 10769,10613 L 10769,10863 11019,10738 10769,10613 Z"/>
 <path fill="none" stroke="rgb(126,0,33)" stroke-linejoin="round" d="M 10769,10613 L 10769,10863 11019,10738 10769,10613 Z"/>
 <path fill="rgb(126,0,33)" stroke="none" d="M 13554,7857 L 13554,8107 13804,7982 13554,7857 Z"/>
 <path fill="none" stroke="rgb(126,0,33)" stroke-linejoin="round" d="M 13554,7857 L 13554,8107 13804,7982 13554,7857 Z"/>
 <path fill="none" stroke="rgb(131,202,255)" stroke-width="80" stroke-linejoin="round" d="M 2543,10943 L 5327,10942 8111,10922 10894,10608 13679,4547"/>
 <path fill="rgb(131,202,255)" stroke="none" d="M 2418,10943 L 2668,11068 2668,10818 2418,10943 Z"/>
 <path fill="none" stroke="rgb(131,202,255)" stroke-linejoin="round" d="M 2418,10943 L 2668,11068 2668,10818 2418,10943 Z"/>
 <path fill="rgb(131,202,255)" stroke="none" d="M 5202,10942 L 5452,11067 5452,10817 5202,10942 Z"/>
 <path fill="none" stroke="rgb(131,202,255)" stroke-linejoin="round" d="M 5202,10942 L 5452,11067 5452,10817 5202,10942 Z"/>
 <path fill="rgb(131,202,255)" stroke="none" d="M 7986,10922 L 8236,11047 8236,10797 7986,10922 Z"/>
 <path fill="none" stroke="rgb(131,202,255)" stroke-linejoin="round" d="M 7986,10922 L 8236,11047 8236,10797 7986,10922 Z"/>
 <path fill="rgb(131,202,255)" stroke="none" d="M 10769,10608 L 11019,10733 11019,10483 10769,10608 Z"/>
 <path fill="none" stroke="rgb(131,202,255)" stroke-linejoin="round" d="M 10769,10608 L 11019,10733 11019,10483 10769,10608 Z"/>
 <path fill="rgb(131,202,255)" stroke="none" d="M 13554,4547 L 13804,4672 13804,4422 13554,4547 Z"/>
 <path fill="none" stroke="rgb(131,202,255)" stroke-linejoin="round" d="M 13554,4547 L 13804,4672 13804,4422 13554,4547 Z"/>
 <path fill="none" stroke="rgb(49,64,4)" stroke-width="80" stroke-linejoin="round" d="M 2543,10943 L 5327,10942 8111,10926 10894,10727 13679,7782"/>
 <path fill="rgb(49,64,4)" stroke="none" d="M 2418,10818 L 2418,11068 2668,10818 2668,11068 2418,10818 Z"/>
 <path fill="none" stroke="rgb(49,64,4)" stroke-linejoin="round" d="M 2418,10818 L 2418,11068 2668,10818 2668,11068 2418,10818 Z"/>
 <path fill="rgb(49,64,4)" stroke="none" d="M 5202,10817 L 5202,11067 5452,10817 5452,11067 5202,10817 Z"/>
 <path fill="none" stroke="rgb(49,64,4)" stroke-linejoin="round" d="M 5202,10817 L 5202,11067 5452,10817 5452,11067 5202,10817 Z"/>
 <path fill="rgb(49,64,4)" stroke="none" d="M 7986,10801 L 7986,11051 8236,10801 8236,11051 7986,10801 Z"/>
 <path fill="none" stroke="rgb(49,64,4)" stroke-linejoin="round" d="M 7986,10801 L 7986,11051 8236,10801 8236,11051 7986,10801 Z"/>
 <path fill="rgb(49,64,4)" stroke="none" d="M 10769,10602 L 10769,10852 11019,10602 11019,10852 10769,10602 Z"/>
 <path fill="none" stroke="rgb(49,64,4)" stroke-linejoin="round" d="M 10769,10602 L 10769,10852 11019,10602 11019,10852 10769,10602 Z"/>
 <path fill="rgb(49,64,4)" stroke="none" d="M 13554,7657 L 13554,7907 13804,7657 13804,7907 13554,7657 Z"/>
 <path fill="none" stroke="rgb(49,64,4)" stroke-linejoin="round" d="M 13554,7657 L 13554,7907 13804,7657 13804,7907 13554,7657 Z"/>
 <path fill="none" stroke="rgb(174,207,0)" stroke-width="80" stroke-linejoin="round" d="M 2543,10943 L 5327,10942 8111,10919 10894,10575 13679,3813"/>
 <path fill="rgb(174,207,0)" stroke="none" d="M 2418,11068 L 2668,11068 2418,10818 2668,10818 2418,11068 Z"/>
 <path fill="none" stroke="rgb(174,207,0)" stroke-linejoin="round" d="M 2418,11068 L 2668,11068 2418,10818 2668,10818 2418,11068 Z"/>
 <path fill="rgb(174,207,0)" stroke="none" d="M 5202,11067 L 5452,11067 5202,10817 5452,10817 5202,11067 Z"/>
 <path fill="none" stroke="rgb(174,207,0)" stroke-linejoin="round" d="M 5202,11067 L 5452,11067 5202,10817 5452,10817 5202,11067 Z"/>
 <path fill="rgb(174,207,0)" stroke="none" d="M 7986,11044 L 8236,11044 7986,10794 8236,10794 7986,11044 Z"/>
 <path fill="none" stroke="rgb(174,207,0)" stroke-linejoin="round" d="M 7986,11044 L 8236,11044 7986,10794 8236,10794 7986,11044 Z"/>
 <path fill="rgb(174,207,0)" stroke="none" d="M 10769,10700 L 11019,10700 10769,10450 11019,10450 10769,10700 Z"/>
 <path fill="none" stroke="rgb(174,207,0)" stroke-linejoin="round" d="M 10769,10700 L 11019,10700 10769,10450 11019,10450 10769,10700 Z"/>
 <path fill="rgb(174,207,0)" stroke="none" d="M 13554,3938 L 13804,3938 13554,3688 13804,3688 13554,3938 Z"/>
 <path fill="none" stroke="rgb(174,207,0)" stroke-linejoin="round" d="M 13554,3938 L 13804,3938 13554,3688 13804,3688 13554,3938 Z"/>
 <text class="TextShape"><tspan class="TextParagraph" font-family="Liberation Sans, sans-serif" font-size="353px" font-weight="400"><tspan class="TextPosition" x="2450" y="11512"><tspan fill="rgb(0,0,0)" stroke="none">4</tspan></tspan></tspan></text>
 <text class="TextShape"><tspan class="TextParagraph" font-family="Liberation Sans, sans-serif" font-size="353px" font-weight="400"><tspan class="TextPosition" x="5234" y="11512"><tspan fill="rgb(0,0,0)" stroke="none">8</tspan></tspan></tspan></text>
 <text class="TextShape"><tspan class="TextParagraph" font-family="Liberation Sans, sans-serif" font-size="353px" font-weight="400"><tspan class="TextPosition" x="7926" y="11512"><tspan fill="rgb(0,0,0)" stroke="none">16</tspan></tspan></tspan></text>
 <text class="TextShape"><tspan class="TextParagraph" font-family="Liberation Sans, sans-serif" font-size="353px" font-weight="400"><tspan class="TextPosition" x="10710" y="11512"><tspan fill="rgb(0,0,0)" stroke="none">32</tspan></tspan></tspan></text>
 <text class="TextShape"><tspan class="TextParagraph" font-family="Liberation Sans, sans-serif" font-size="353px" font-weight="400"><tspan class="TextPosition" x="13495" y="11512"><tspan fill="rgb(0,0,0)" stroke="none">64</tspan></tspan></tspan></text>
 <text class="TextShape"><tspan class="TextParagraph" font-family="Liberation Sans, sans-serif" font-size="353px" font-weight="400"><tspan class="TextPosition" x="2108" y="11065"><tspan fill="rgb(0,0,0)" stroke="none">0</tspan></tspan></tspan></text>
 <text class="TextShape"><tspan class="TextParagraph" font-family="Liberation Sans, sans-serif" font-size="353px" font-weight="400"><tspan class="TextPosition" x="1367" y="10017"><tspan fill="rgb(0,0,0)" stroke="none">20000</tspan></tspan></tspan></text>
 <text class="TextShape"><tspan class="TextParagraph" font-family="Liberation Sans, sans-serif" font-size="353px" font-weight="400"><tspan class="TextPosition" x="1367" y="8969"><tspan fill="rgb(0,0,0)" stroke="none">40000</tspan></tspan></tspan></text>
 <text class="TextShape"><tspan class="TextParagraph" font-family="Liberation Sans, sans-serif" font-size="353px" font-weight="400"><tspan class="TextPosition" x="1367" y="7922"><tspan fill="rgb(0,0,0)" stroke="none">60000</tspan></tspan></tspan></text>
 <text class="TextShape"><tspan class="TextParagraph" font-family="Liberation Sans, sans-serif" font-size="353px" font-weight="400"><tspan class="TextPosition" x="1367" y="6874"><tspan fill="rgb(0,0,0)" stroke="none">80000</tspan></tspan></tspan></text>
 <text class="TextShape"><tspan class="TextParagraph" font-family="Liberation Sans, sans-serif" font-size="353px" font-weight="400"><tspan class="TextPosition" x="1182" y="5826"><tspan fill="rgb(0,0,0)" stroke="none">100000</tspan></tspan></tspan></text>
 <text class="TextShape"><tspan class="TextParagraph" font-family="Liberation Sans, sans-serif" font-size="353px" font-weight="400"><tspan class="TextPosition" x="1182" y="4779"><tspan fill="rgb(0,0,0)" stroke="none">120000</tspan></tspan></tspan></text>
 <text class="TextShape"><tspan class="TextParagraph" font-family="Liberation Sans, sans-serif" font-size="353px" font-weight="400"><tspan class="TextPosition" x="1182" y="3731"><tspan fill="rgb(0,0,0)" stroke="none">140000</tspan></tspan></tspan></text>
 <text class="TextShape"><tspan class="TextParagraph" font-family="Liberation Sans, sans-serif" font-size="353px" font-weight="400"><tspan class="TextPosition" x="1182" y="2684"><tspan fill="rgb(0,0,0)" stroke="none">160000</tspan></tspan></tspan></text>
 <text class="TextShape"><tspan class="TextParagraph" font-family="Liberation Sans, sans-serif" font-size="459px" font-weight="400"><tspan class="TextPosition" x="6102" y="927"><tspan fill="rgb(0,0,0)" stroke="none">Minimalne drzewo spinające</tspan></tspan></tspan></text>
 <text class="TextShape"><tspan class="TextParagraph" font-family="Liberation Sans, sans-serif" font-size="388px" font-weight="400"><tspan class="TextPosition" x="5123" y="1913"><tspan fill="rgb(0,0,0)" stroke="none">Macierz incydencji, podział według gęstości</tspan></tspan></tspan></text>
 <path fill="none" stroke="rgb(0,69,134)" stroke-width="80" stroke-linejoin="round" d="M 14522,4671 L 15322,4671"/>
 <path fill="rgb(0,69,134)" stroke="none" d="M 14816,4566 L 14816,4777 15027,4777 15027,4566 14816,4566 Z"/>
 <path fill="none" stroke="rgb(0,69,134)" stroke-linejoin="round" d="M 14816,4566 L 14816,4777 15027,4777 15027,4566 14816,4566 Z"/>
 <path fill="none" stroke="rgb(255,66,14)" stroke-width="80" stroke-linejoin="round" d="M 14522,5169 L 15322,5169"/>
 <path fill="rgb(255,66,14)" stroke="none" d="M 14816,5169 L 14922,5275 15027,5169 14922,5064 14816,5169 Z"/>
 <path fill="none" stroke="rgb(255,66,14)" stroke-linejoin="round" d="M 14816,5169 L 14922,5275 15027,5169 14922,5064 14816,5169 Z"/>
 <path fill="none" stroke="rgb(255,211,32)" stroke-width="80" stroke-linejoin="round" d="M 14522,5667 L 15322,5667"/>
 <path fill="rgb(255,211,32)" stroke="none" d="M 14816,5562 L 14922,5773 15027,5562 14816,5562 Z"/>
 <path fill="none" stroke="rgb(255,211,32)" stroke-linejoin="round" d="M 14816,5562 L 14922,5773 15027,5562 14816,5562 Z"/>
 <path fill="none" stroke="rgb(87,157,28)" stroke-width="80" stroke-linejoin="round" d="M 14522,6165 L 15322,6165"/>
 <path fill="rgb(87,157,28)" stroke="none" d="M 14816,6271 L 15027,6271 14922,6060 14816,6271 Z"/>
 <path fill="none" stroke="rgb(87,157,28)" stroke-linejoin="round" d="M 14816,6271 L 15027,6271 14922,6060 14816,6271 Z"/>
 <path fill="none" stroke="rgb(126,0,33)" stroke-width="80" stroke-linejoin="round" d="M 14522,6662 L 15322,6662"/>
 <path fill="rgb(126,0,33)" stroke="none" d="M 14816,6557 L 14816,6768 15027,6662 14816,6557 Z"/>
 <path fill="none" stroke="rgb(126,0,33)" stroke-linejoin="round" d="M 14816,6557 L 14816,6768 15027,6662 14816,6557 Z"/>
 <path fill="none" stroke="rgb(131,202,255)" stroke-width="80" stroke-linejoin="round" d="M 14522,7160 L 15322,7160"/>
 <path fill="rgb(131,202,255)" stroke="none" d="M 14816,7160 L 15027,7266 15027,7055 14816,7160 Z"/>
 <path fill="none" stroke="rgb(131,202,255)" stroke-linejoin="round" d="M 14816,7160 L 15027,7266 15027,7055 14816,7160 Z"/>
 <path fill="none" stroke="rgb(49,64,4)" stroke-width="80" stroke-linejoin="round" d="M 14522,7658 L 15322,7658"/>
 <path fill="rgb(49,64,4)" stroke="none" d="M 14816,7553 L 14816,7764 15027,7553 15027,7764 14816,7553 Z"/>
 <path fill="none" stroke="rgb(49,64,4)" stroke-linejoin="round" d="M 14816,7553 L 14816,7764 15027,7553 15027,7764 14816,7553 Z"/>
 <path fill="none" stroke="rgb(174,207,0)" stroke-width="80" stroke-linejoin="round" d="M 14522,8156 L 15322,8156"/>
 <path fill="rgb(174,207,0)" stroke="none" d="M 14816,8262 L 15027,8262 14816,8051 15027,8051 14816,8262 Z"/>
 <path fill="none" stroke="rgb(174,207,0)" stroke-linejoin="round" d="M 14816,8262 L 15027,8262 14816,8051 15027,8051 14816,8262 Z"/>
 <text class="TextShape"><tspan class="TextParagraph" font-family="Liberation Sans, sans-serif" font-size="353px" font-weight="400"><tspan class="TextPosition" x="15422" y="4791"><tspan fill="rgb(0,0,0)" stroke="none">im_prim25</tspan></tspan></tspan></text>
 <text class="TextShape"><tspan class="TextParagraph" font-family="Liberation Sans, sans-serif" font-size="353px" font-weight="400"><tspan class="TextPosition" x="15422" y="5289"><tspan fill="rgb(0,0,0)" stroke="none">im_kruskal25</tspan></tspan></tspan></text>
 <text class="TextShape"><tspan class="TextParagraph" font-family="Liberation Sans, sans-serif" font-size="353px" font-weight="400"><tspan class="TextPosition" x="15422" y="5787"><tspan fill="rgb(0,0,0)" stroke="none">im_prim50</tspan></tspan></tspan></text>
 <text class="TextShape"><tspan class="TextParagraph" font-family="Liberation Sans, sans-serif" font-size="353px" font-weight="400"><tspan class="TextPosition" x="15422" y="6285"><tspan fill="rgb(0,0,0)" stroke="none">im_kruskal50</tspan></tspan></tspan></text>
 <text class="TextShape"><tspan class="TextParagraph" font-family="Liberation Sans, sans-serif" font-size="353px" font-weight="400"><tspan class="TextPosition" x="15422" y="6782"><tspan fill="rgb(0,0,0)" stroke="none">im_prim75</tspan></tspan></tspan></text>
 <text class="TextShape"><tspan class="TextParagraph" font-family="Liberation Sans, sans-serif" font-size="353px" font-weight="400"><tspan class="TextPosition" x="15422" y="7280"><tspan fill="rgb(0,0,0)" stroke="none">im_kruskal75</tspan></tspan></tspan></text>
 <text class="TextShape"><tspan class="TextParagraph" font-family="Liberation Sans, sans-serif" font-size="353px" font-weight="400"><tspan class="TextPosition" x="15422" y="7778"><tspan fill="rgb(0,0,0)" stroke="none">im_prim99</tspan></tspan></tspan></text>
 <text class="TextShape"><tspan class="TextParagraph" font-family="Liberation Sans, sans-serif" font-size="353px" font-weight="400"><tspan class="TextPosition" x="15422" y="8276"><tspan fill="rgb(0,0,0)" stroke="none">im_kruskal99</tspan></tspan></tspan></text>
 <text class="TextShape"><tspan class="TextParagraph" font-family="Liberation Sans, sans-serif" font-size="318px" font-weight="400"><tspan class="TextPosition" x="6359" y="12235"><tspan fill="rgb(0,0,0)" stroke="none">Ilość wierzchołków</tspan></tspan></tspan></text>
 <text class="TextShape" transform="translate(837,8658) rotate(-90) translate(-837,-8658)"><tspan class="TextParagraph" font-family="Liberation Sans, sans-serif" font-size="318px" font-weight="400"><tspan class="TextPosition" x="837" y="8658"><tspan fill="rgb(0,0,0)" stroke="none">Czas wykonywania [µs]</tspan></tspan></tspan></text>
</svg>