<?xml version="1.0" encoding="UTF-8"?>
<!DOCTYPE svg PUBLIC "-//W3C//DTD SVG 1.1//EN" "http://www.w3.org/Graphics/SVG/1.1/DTD/svg11.dtd">
<svg width="178mm" height="128mm" viewBox="0 0 17800 12800" version="1.1" xmlns="http://www.w3.org/2000/svg" stroke-width="28.222" stroke-linejoin="round" xml:space="preserve">
 <path fill="rgb(255,255,255)" stroke="none" d="M 8894,12829 L 0,12829 0,0 17787,0 17787,12829 8894,12829 Z"/>
 <path fill="none" stroke="rgb(179,179,179)" stroke-linejoin="round" d="M 8349,10945 L 2728,10945 2728,2565 13970,2565 13970,10945 8349,10945 Z"/>
 <path fill="none" stroke="rgb(179,179,179)" stroke-linejoin="round" d="M 13970,10944 L 2728,10944"/>
 <path fill="none" stroke="rgb(179,179,179)" stroke-linejoin="round" d="M 13970,10012 L 2728,10012"/>
 <path fill="none" stroke="rgb(179,179,179)" stroke-linejoin="round" d="M 13970,9081 L 2728,9081"/>
 <path fill="none" stroke="rgb(179,179,179)" stroke-linejoin="round" d="M 13970,8150 L 2728,8150"/>
 <path fill="none" stroke="rgb(179,179,179)" stroke-linejoin="round" d="M 13970,7219 L 2728,7219"/>
 <path fill="none" stroke="rgb(179,179,179)" stroke-linejoin="round" d="M 13970,6288 L 2728,6288"/>
 <path fill="none" stroke="rgb(179,179,179)" stroke-linejoin="round" d="M 13970,5357 L 2728,5357"/>
 <path fill="none" stroke="rgb(179,179,179)" stroke-linejoin="round" d="M 13970,4426 L 2728,4426"/>
 <path fill="none" stroke="rgb(179,179,179)" stroke-linejoin="round" d="M 13970,3495 L 2728,3495"/>
 <path fill="none" stroke="rgb(179,179,179)" stroke-linejoin="round" d="M 13970,2564 L 2728,2564"/>
 <path fill="none" stroke="rgb(179,179,179)" stroke-linejoin="round" d="M 2728,11094 L 2728,10944"/>
 <path fill="none" stroke="rgb(179,179,179)" stroke-linejoin="round" d="M 2728,11094 L 2728,10944"/>
 <path fill="none" stroke="rgb(179,179,179)" stroke-linejoin="round" d="M 5538,11094 L 5538,10944"/>
 <path fill="none" stroke="rgb(179,179,179)" stroke-linejoin="round" d="M 5538,11094 L 5538,10944"/>
 <path fill="none" stroke="rgb(179,179,179)" stroke-linejoin="round" d="M 8349,11094 L 8349,10944"/>
 <path fill="none" stroke="rgb(179,179,179)" stroke-linejoin="round" d="M 8349,11094 L 8349,10944"/>
 <path fill="none" stroke="rgb(179,179,179)" stroke-linejoin="round" d="M 11159,11094 L 11159,10944"/>
 <path fill="none" stroke="rgb(179,179,179)" stroke-linejoin="round" d="M 11159,11094 L 11159,10944"/>
 <path fill="none" stroke="rgb(179,179,179)" stroke-linejoin="round" d="M 13970,11094 L 13970,10944"/>
 <path fill="none" stroke="rgb(179,179,179)" stroke-linejoin="round" d="M 13970,11094 L 13970,10944"/>
 <path fill="none" stroke="rgb(179,179,179)" stroke-linejoin="round" d="M 2728,10944 L 13970,10944"/>
 <path fill="none" stroke="rgb(179,179,179)" stroke-linejoin="round" d="M 2578,10944 L 2728,10944"/>
 <path fill="none" stroke="rgb(179,179,179)" stroke-linejoin="round" d="M 2578,10944 L 2728,10944"/>
 <path fill="none" stroke="rgb(179,179,179)" stroke-linejoin="round" d="M 2578,10012 L 2728,10012"/>
 <path fill="none" stroke="rgb(179,179,179)" stroke-linejoin="round" d="M 2578,10012 L 2728,10012"/>
 <path fill="none" stroke="rgb(179,179,179)" stroke-linejoin="round" d="M 2578,9081 L 2728,9081"/>
 <path fill="none" stroke="rgb(179,179,179)" stroke-linejoin="round" d="M 2578,9081 L 2728,9081"/>
 <path fill="none" stroke="rgb(179,179,179)" stroke-linejoin="round" d="M 2578,8150 L 2728,8150"/>
 <path fill="none" stroke="rgb(179,179,179)" stroke-linejoin="round" d="M 2578,8150 L 2728,8150"/>
 <path fill="none" stroke="rgb(179,179,179)" stroke-linejoin="round" d="M 2578,7219 L 2728,7219"/>
 <path fill="none" stroke="rgb(179,179,179)" stroke-linejoin="round" d="M 2578,7219 L 2728,7219"/>
 <path fill="none" stroke="rgb(179,179,179)" stroke-linejoin="round" d="M 2578,6288 L 2728,6288"/>
 <path fill="none" stroke="rgb(179,179,179)" stroke-linejoin="round" d="M 2578,6288 L 2728,6288"/>
 <path fill="none" stroke="rgb(179,179,179)" stroke-linejoin="round" d="M 2578,5357 L 2728,5357"/>
 <path fill="none" stroke="rgb(179,179,179)" stroke-linejoin="round" d="M 2578,5357 L 2728,5357"/>
 <path fill="none" stroke="rgb(179,179,179)" stroke-linejoin="round" d="M 2578,4426 L 2728,4426"/>
 <path fill="none" stroke="rgb(179,179,179)" stroke-linejoin="round" d="M 2578,4426 L 2728,4426"/>
 <path fill="none" stroke="rgb(179,179,179)" stroke-linejoin="round" d="M 2578,3495 L 2728,3495"/>
 <path fill="none" stroke="rgb(179,179,179)" stroke-linejoin="round" d="M 2578,3495 L 2728,3495"/>
 <path fill="none" stroke="rgb(179,179,179)" stroke-linejoin="round" d="M 2578,2564 L 2728,2564"/>
 <path fill="none" stroke="rgb(179,179,179)" stroke-linejoin="round" d="M 2578,2564 L 2728,2564"/>
 <path fill="none" stroke="rgb(179,179,179)" stroke-linejoin="round" d="M 2728,10944 L 2728,2564"/>
 <path fill="none" stroke="rgb(0,69,134)" stroke-width="80" stroke-linejoin="round" d="M 2728,10943 L 5538,10943 8349,10943 11159,10943 13970,10942"/>
 <path fill="rgb(0,69,134)" stroke="none" d="M 2603,10818 L 2603,11068 2853,11068 2853,10818 2603,10818 Z"/>
 <path fill="none" stroke="rgb(0,69,134)" stroke-linejoin="round" d="M 2603,10818 L 2603,11068 2853,11068 2853,10818 2603,10818 Z"/>
 <path fill="rgb(0,69,134)" stroke="none" d="M 5413,10818 L 5413,11068 5663,11068 5663,10818 5413,10818 Z"/>
 <path fill="none" stroke="rgb(0,69,134)" stroke-linejoin="round" d="M 5413,10818 L 5413,11068 5663,11068 5663,10818 5413,10818 Z"/>
 <path fill="rgb(0,69,134)" stroke="none" d="M 8224,10818 L 8224,11068 8474,11068 8474,10818 8224,10818 Z"/>
 <path fill="none" stroke="rgb(0,69,134)" stroke-linejoin="round" d="M 8224,10818 L 8224,11068 8474,11068 8474,10818 8224,10818 Z"/>
 <path fill="rgb(0,69,134)" stroke="none" d="M 11034,10818 L 11034,11068 11284,11068 11284,10818 11034,10818 Z"/>
 <path fill="none" stroke="rgb(0,69,134)" stroke-linejoin="round" d="M 11034,10818 L 11034,11068 11284,11068 11284,10818 11034,10818 Z"/>
 <path fill="rgb(0,69,134)" stroke="none" d="M 13845,10817 L 13845,11067 14095,11067 14095,10817 13845,10817 Z"/>
 <path fill="none" stroke="rgb(0,69,134)" stroke-linejoin="round" d="M 13845,10817 L 13845,11067 14095,11067 14095,10817 13845,10817 Z"/>
 <path fill="none" stroke="rgb(255,66,14)" stroke-width="80" stroke-linejoin="round" d="M 2728,10943 L 5538,10943 8349,10943 11159,10913 13970,9661"/>
 <path fill="rgb(255,66,14)" stroke="none" d="M 2603,10943 L 2728,11068 2853,10943 2728,10818 2603,10943 Z"/>
 <path fill="none" stroke="rgb(255,66,14)" stroke-linejoin="round" d="M 2603,10943 L 2728,11068 2853,10943 2728,10818 2603,10943 Z"/>
 <path fill="rgb(255,66,14)" stroke="none" d="M 5413,10943 L 5538,11068 5663,10943 5538,10818 5413,10943 Z"/>
 <path fill="none" stroke="rgb(255,66,14)" stroke-linejoin="round" d="M 5413,10943 L 5538,11068 5663,10943 5538,10818 5413,10943 Z"/>
 <path fill="rgb(255,66,14)" stroke="none" d="M 8224,10943 L 8349,11068 8474,10943 8349,10818 8224,10943 Z"/>
 <path fill="none" stroke="rgb(255,66,14)" stroke-linejoin="round" d="M 8224,10943 L 8349,11068 8474,10943 8349,10818 8224,10943 Z"/>
 <path fill="rgb(255,66,14)" stroke="none" d="M 11034,10913 L 11159,11038 11284,10913 11159,10788 11034,10913 Z"/>
 <path fill="none" stroke="rgb(255,66,14)" stroke-linejoin="round" d="M 11034,10913 L 11159,11038 11284,10913 11159,10788 11034,10913 Z"/>
 <path fill="rgb(255,66,14)" stroke="none" d="M 13845,9661 L 13970,9786 14095,9661 13970,9536 13845,9661 Z"/>
 <path fill="none" stroke="rgb(255,66,14)" stroke-linejoin="round" d="M 13845,9661 L 13970,9786 14095,9661 13970,9536 13845,9661 Z"/>
 <path fill="none" stroke="rgb(255,211,32)" stroke-width="80" stroke-linejoin="round" d="M 2728,10943 L 5538,10943 8349,10943 11159,10943 13970,10940"/>
 <path fill="rgb(255,211,32)" stroke="none" d="M 2603,10818 L 2728,11068 2853,10818 2603,10818 Z"/>
 <path fill="none" stroke="rgb(255,211,32)" stroke-linejoin="round" d="M 2603,10818 L 2728,11068 2853,10818 2603,10818 Z"/>
 <path fill="rgb(255,211,32)" stroke="none" d="M 5413,10818 L 5538,11068 5663,10818 5413,10818 Z"/>
 <path fill="none" stroke="rgb(255,211,32)" stroke-linejoin="round" d="M 5413,10818 L 5538,11068 5663,10818 5413,10818 Z"/>
 <path fill="rgb(255,211,32)" stroke="none" d="M 8224,10818 L 8349,11068 8474,10818 8224,10818 Z"/>
 <path fill="none" stroke="rgb(255,211,32)" stroke-linejoin="round" d="M 8224,10818 L 8349,11068 8474,10818 8224,10818 Z"/>
 <path fill="rgb(255,211,32)" stroke="none" d="M 11034,10818 L 11159,11068 11284,10818 11034,10818 Z"/>
 <path fill="none" stroke="rgb(255,211,32)" stroke-linejoin="round" d="M 11034,10818 L 11159,11068 11284,10818 11034,10818 Z"/>
 <path fill="rgb(255,211,32)" stroke="none" d="M 13845,10815 L 13970,11065 14095,10815 13845,10815 Z"/>
 <path fill="none" stroke="rgb(255,211,32)" stroke-linejoin="round" d="M 13845,10815 L 13970,11065 14095,10815 13845,10815 Z"/>
 <path fill="none" stroke="rgb(87,157,28)" stroke-width="80" stroke-linejoin="round" d="M 2728,10943 L 5538,10943 8349,10941 11159,10841 13970,6892"/>
 <path fill="rgb(87,157,28)" stroke="none" d="M 2603,11068 L 2853,11068 2728,10818 2603,11068 Z"/>
 <path fill="none" stroke="rgb(87,157,28)" stroke-linejoin="round" d="M 2603,11068 L 2853,11068 2728,10818 2603,11068 Z"/>
 <path fill="rgb(87,157,28)" stroke="none" d="M 5413,11068 L 5663,11068 5538,10818 5413,11068 Z"/>
 <path fill="none" stroke="rgb(87,157,28)" stroke-linejoin="round" d="M 5413,11068 L 5663,11068 5538,10818 5413,11068 Z"/>
 <path fill="rgb(87,157,28)" stroke="none" d="M 8224,11066 L 8474,11066 8349,10816 8224,11066 Z"/>
 <path fill="none" stroke="rgb(87,157,28)" stroke-linejoin="round" d="M 8224,11066 L 8474,11066 8349,10816 8224,11066 Z"/>
 <path fill="rgb(87,157,28)" stroke="none" d="M 11034,10966 L 11284,10966 11159,10716 11034,10966 Z"/>
 <path fill="none" stroke="rgb(87,157,28)" stroke-linejoin="round" d="M 11034,10966 L 11284,10966 11159,10716 11034,10966 Z"/>
 <path fill="rgb(87,157,28)" stroke="none" d="M 13845,7017 L 14095,7017 13970,6767 13845,7017 Z"/>
 <path fill="none" stroke="rgb(87,157,28)" stroke-linejoin="round" d="M 13845,7017 L 14095,7017 13970,6767 13845,7017 Z"/>
 <path fill="none" stroke="rgb(126,0,33)" stroke-width="80" stroke-linejoin="round" d="M 2728,10943 L 5538,10943 8349,10943 11159,10943 13970,10938"/>
 <path fill="rgb(126,0,33)" stroke="none" d="M 2603,10818 L 2603,11068 2853,10943 2603,10818 Z"/>
 <path fill="none" stroke="rgb(126,0,33)" stroke-linejoin="round" d="M 2603,10818 L 2603,11068 2853,10943 2603,10818 Z"/>
 <path fill="rgb(126,0,33)" stroke="none" d="M 5413,10818 L 5413,11068 5663,10943 5413,10818 Z"/>
 <path fill="none" stroke="rgb(126,0,33)" stroke-linejoin="round" d="M 5413,10818 L 5413,11068 5663,10943 5413,10818 Z"/>
 <path fill="rgb(126,0,33)" stroke="none" d="M 8224,10818 L 8224,11068 8474,10943 8224,10818 Z"/>
 <path fill="none" stroke="rgb(126,0,33)" stroke-linejoin="round" d="M 8224,10818 L 8224,11068 8474,10943 8224,10818 Z"/>
 <path fill="rgb(126,0,33)" stroke="none" d="M 11034,10818 L 11034,11068 11284,10943 11034,10818 Z"/>
 <path fill="none" stroke="rgb(126,0,33)" stroke-linejoin="round" d="M 11034,10818 L 11034,11068 11284,10943 11034,10818 Z"/>
 <path fill="rgb(126,0,33)" stroke="none" d="M 13845,10813 L 13845,11063 14095,10938 13845,10813 Z"/>
 <path fill="none" stroke="rgb(126,0,33)" stroke-linejoin="round" d="M 13845,10813 L 13845,11063 14095,10938 13845,10813 Z"/>
 <path fill="none" stroke="rgb(131,202,255)" stroke-width="80" stroke-linejoin="round" d="M 2728,10943 L 5538,10943 8349,10939 11159,10792 13970,4703"/>
 <path fill="rgb(131,202,255)" stroke="none" d="M 2603,10943 L 2853,11068 2853,10818 2603,10943 Z"/>
 <path fill="none" stroke="rgb(131,202,255)" stroke-linejoin="round" d="M 2603,10943 L 2853,11068 2853,10818 2603,10943 Z"/>
 <path fill="rgb(131,202,255)" stroke="none" d="M 5413,10943 L 5663,11068 5663,10818 5413,10943 Z"/>
 <path fill="none" stroke="rgb(131,202,255)" stroke-linejoin="round" d="M 5413,10943 L 5663,11068 5663,10818 5413,10943 Z"/>
 <path fill="rgb(131,202,255)" stroke="none" d="M 8224,10939 L 8474,11064 8474,10814 8224,10939 Z"/>
 <path fill="none" stroke="rgb(131,202,255)" stroke-linejoin="round" d="M 8224,10939 L 8474,11064 8474,10814 8224,10939 Z"/>
 <path fill="rgb(131,202,255)" stroke="none" d="M 11034,10792 L 11284,10917 11284,10667 11034,10792 Z"/>
 <path fill="none" stroke="rgb(131,202,255)" stroke-linejoin="round" d="M 11034,10792 L 11284,10917 11284,10667 11034,10792 Z"/>
 <path fill="rgb(131,202,255)" stroke="none" d="M 13845,4703 L 14095,4828 14095,4578 13845,4703 Z"/>
 <path fill="none" stroke="rgb(131,202,255)" stroke-linejoin="round" d="M 13845,4703 L 14095,4828 14095,4578 13845,4703 Z"/>
 <path fill="none" stroke="rgb(49,64,4)" stroke-width="80" stroke-linejoin="round" d="M 2728,10943 L 5538,10943 8349,10943 11159,10943 13970,10937"/>
 <path fill="rgb(49,64,4)" stroke="none" d="M 2603,10818 L 2603,11068 2853,10818 2853,11068 2603,10818 Z"/>
 <path fill="none" stroke="rgb(49,64,4)" stroke-linejoin="round" d="M 2603,10818 L 2603,11068 2853,10818 2853,11068 2603,10818 Z"/>
 <path fill="rgb(49,64,4)" stroke="none" d="M 5413,10818 L 5413,11068 5663,10818 5663,11068 5413,10818 Z"/>
 <path fill="none" stroke="rgb(49,64,4)" stroke-linejoin="round" d="M 5413,10818 L 5413,11068 5663,10818 5663,11068 5413,10818 Z"/>
 <path fill="rgb(49,64,4)" stroke="none" d="M 8224,10818 L 8224,11068 8474,10818 8474,11068 8224,10818 Z"/>
 <path fill="none" stroke="rgb(49,64,4)" stroke-linejoin="round" d="M 8224,10818 L 8224,11068 8474,10818 8474,11068 8224,10818 Z"/>
 <path fill="rgb(49,64,4)" stroke="none" d="M 11034,10818 L 11034,11068 11284,10818 11284,11068 11034,10818 Z"/>
 <path fill="none" stroke="rgb(49,64,4)" stroke-linejoin="round" d="M 11034,10818 L 11034,11068 11284,10818 11284,11068 11034,10818 Z"/>
 <path fill="rgb(49,64,4)" stroke="none" d="M 13845,10812 L 13845,11062 14095,10812 14095,11062 13845,10812 Z"/>
 <path fill="none" stroke="rgb(49,64,4)" stroke-linejoin="round" d="M 13845,10812 L 13845,11062 14095,10812 14095,11062 13845,10812 Z"/>
 <path fill="none" stroke="rgb(174,207,0)" stroke-width="80" stroke-linejoin="round" d="M 2728,10943 L 5538,10943 8349,10938 11159,10766 13970,3555"/>
 <path fill="rgb(174,207,0)" stroke="none" d="M 2603,11068 L 2853,11068 2603,10818 2853,10818 2603,11068 Z"/>
 <path fill="none" stroke="rgb(174,207,0)" stroke-linejoin="round" d="M 2603,11068 L 2853,11068 2603,10818 2853,10818 2603,11068 Z"/>
 <path fill="rgb(174,207,0)" stroke="none" d="M 5413,11068 L 5663,11068 5413,10818 5663,10818 5413,11068 Z"/>
 <path fill="none" stroke="rgb(174,207,0)" stroke-linejoin="round" d="M 5413,11068 L 5663,11068 5413,10818 5663,10818 5413,11068 Z"/>
 <path fill="rgb(174,207,0)" stroke="none" d="M 8224,11063 L 8474,11063 8224,10813 8474,10813 8224,11063 Z"/>
 <path fill="none" stroke="rgb(174,207,0)" stroke-linejoin="round" d="M 8224,11063 L 8474,11063 8224,10813 8474,10813 8224,11063 Z"/>
 <path fill="rgb(174,207,0)" stroke="none" d="M 11034,10891 L 11284,10891 11034,10641 11284,10641 11034,10891 Z"/>
 <path fill="none" stroke="rgb(174,207,0)" stroke-linejoin="round" d="M 11034,10891 L 11284,10891 11034,10641 11284,10641 11034,10891 Z"/>
 <path fill="rgb(174,207,0)" stroke="none" d="M 13845,3680 L 14095,3680 13845,3430 14095,3430 13845,3680 Z"/>
 <path fill="none" stroke="rgb(174,207,0)" stroke-linejoin="round" d="M 13845,3680 L 14095,3680 13845,3430 14095,3430 13845,3680 Z"/>
 <text class="TextShape"><tspan class="TextParagraph" font-family="Liberation Sans" font-size="353px" font-weight="400"><tspan class="TextPosition" x="2635" y="11512"><tspan fill="rgb(0,0,0)" stroke="none">4</tspan></tspan></tspan></text>
 <text class="TextShape"><tspan class="TextParagraph" font-family="Liberation Sans" font-size="353px" font-weight="400"><tspan class="TextPosition" x="5445" y="11512"><tspan fill="rgb(0,0,0)" stroke="none">8</tspan></tspan></tspan></text>
 <text class="TextShape"><tspan class="TextParagraph" font-family="Liberation Sans" font-size="353px" font-weight="400"><tspan class="TextPosition" x="8164" y="11512"><tspan fill="rgb(0,0,0)" stroke="none">16</tspan></tspan></tspan></text>
 <text class="TextShape"><tspan class="TextParagraph" font-family="Liberation Sans" font-size="353px" font-weight="400"><tspan class="TextPosition" x="10975" y="11512"><tspan fill="rgb(0,0,0)" stroke="none">32</tspan></tspan></tspan></text>
 <text class="TextShape"><tspan class="TextParagraph" font-family="Liberation Sans" font-size="353px" font-weight="400"><tspan class="TextPosition" x="13786" y="11512"><tspan fill="rgb(0,0,0)" stroke="none">64</tspan></tspan></tspan></text>
 <text class="TextShape"><tspan class="TextParagraph" font-family="Liberation Sans" font-size="353px" font-weight="400"><tspan class="TextPosition" x="2293" y="11065"><tspan fill="rgb(0,0,0)" stroke="none">0</tspan></tspan></tspan></text>
 <text class="TextShape"><tspan class="TextParagraph" font-family="Liberation Sans" font-size="353px" font-weight="400"><tspan class="TextPosition" x="1367" y="10133"><tspan fill="rgb(0,0,0)" stroke="none">100000</tspan></tspan></tspan></text>
 <text class="TextShape"><tspan class="TextParagraph" font-family="Liberation Sans" font-size="353px" font-weight="400"><tspan class="TextPosition" x="1367" y="9202"><tspan fill="rgb(0,0,0)" stroke="none">200000</tspan></tspan></tspan></text>
 <text class="TextShape"><tspan class="TextParagraph" font-family="Liberation Sans" font-size="353px" font-weight="400"><tspan class="TextPosition" x="1367" y="8271"><tspan fill="rgb(0,0,0)" stroke="none">300000</tspan></tspan></tspan></text>
 <text class="TextShape"><tspan class="TextParagraph" font-family="Liberation Sans" font-size="353px" font-weight="400"><tspan class="TextPosition" x="1367" y="7340"><tspan fill="rgb(0,0,0)" stroke="none">400000</tspan></tspan></tspan></text>
 <text class="TextShape"><tspan class="TextParagraph" font-family="Liberation Sans" font-size="353px" font-weight="400"><tspan class="TextPosition" x="1367" y="6408"><tspan fill="rgb(0,0,0)" stroke="none">500000</tspan></tspan></tspan></text>
 <text class="TextShape"><tspan class="TextParagraph" font-family="Liberation Sans" font-size="353px" font-weight="400"><tspan class="TextPosition" x="1367" y="5477"><tspan fill="rgb(0,0,0)" stroke="none">600000</tspan></tspan></tspan></text>
 <text class="TextShape"><tspan class="TextParagraph" font-family="Liberation Sans" font-size="353px" font-weight="400"><tspan class="TextPosition" x="1367" y="4546"><tspan fill="rgb(0,0,0)" stroke="none">700000</tspan></tspan></tspan></text>
 <text class="TextShape"><tspan class="TextParagraph" font-family="Liberation Sans" font-size="353px" font-weight="400"><tspan class="TextPosition" x="1367" y="3615"><tspan fill="rgb(0,0,0)" stroke="none">800000</tspan></tspan></tspan></text>
 <text class="TextShape"><tspan class="TextParagraph" font-family="Liberation Sans" font-size="353px" font-weight="400"><tspan class="TextPosition" x="1367" y="2684"><tspan fill="rgb(0,0,0)" stroke="none">900000</tspan></tspan></tspan></text>
 <text class="TextShape"><tspan class="TextParagraph" font-family="Liberation Sans" font-size="459px" font-weight="400"><tspan class="TextPosition" x="6102" y="927"><tspan fill="rgb(0,0,0)" stroke="none">Minimalne drzewo spinające</tspan></tspan></tspan></text>
 <text class="TextShape"><tspan class="TextParagraph" font-family="Liberation Sans" font-size="388px" font-weight="400"><tspan class="TextPosition" x="5295" y="1913"><tspan fill="rgb(0,0,0)" stroke="none">Lista sąsiedztwa, podział według gęstości</tspan></tspan></tspan></text>
 <path fill="none" stroke="rgb(0,69,134)" stroke-width="80" stroke-linejoin="round" d="M 14628,4671 L 15428,4671"/>
 <path fill="rgb(0,69,134)" stroke="none" d="M 14922,4566 L 14922,4777 15133,4777 15133,4566 14922,4566 Z"/>
 <path fill="none" stroke="rgb(0,69,134)" stroke-linejoin="round" d="M 14922,4566 L 14922,4777 15133,4777 15133,4566 14922,4566 Z"/>
 <path fill="none" stroke="rgb(255,66,14)" stroke-width="80" stroke-linejoin="round" d="M 14628,5169 L 15428,5169"/>
 <path fill="rgb(255,66,14)" stroke="none" d="M 14922,5169 L 15028,5275 15133,5169 15028,5064 14922,5169 Z"/>
 <path fill="none" stroke="rgb(255,66,14)" stroke-linejoin="round" d="M 14922,5169 L 15028,5275 15133,5169 15028,5064 14922,5169 Z"/>
 <path fill="none" stroke="rgb(255,211,32)" stroke-width="80" stroke-linejoin="round" d="M 14628,5667 L 15428,5667"/>
 <path fill="rgb(255,211,32)" stroke="none" d="M 14922,5562 L 15028,5773 15133,5562 14922,5562 Z"/>
 <path fill="none" stroke="rgb(255,211,32)" stroke-linejoin="round" d="M 14922,5562 L 15028,5773 15133,5562 14922,5562 Z"/>
 <path fill="none" stroke="rgb(87,157,28)" stroke-width="80" stroke-linejoin="round" d="M 14628,6165 L 15428,6165"/>
 <path fill="rgb(87,157,28)" stroke="none" d="M 14922,6271 L 15133,6271 15028,6060 14922,6271 Z"/>
 <path fill="none" stroke="rgb(87,157,28)" stroke-linejoin="round" d="M 14922,6271 L 15133,6271 15028,6060 14922,6271 Z"/>
 <path fill="none" stroke="rgb(126,0,33)" stroke-width="80" stroke-linejoin="round" d="M 14628,6662 L 15428,6662"/>
 <path fill="rgb(126,0,33)" stroke="none" d="M 14922,6557 L 14922,6768 15133,6662 14922,6557 Z"/>
 <path fill="none" stroke="rgb(126,0,33)" stroke-linejoin="round" d="M 14922,6557 L 14922,6768 15133,6662 14922,6557 Z"/>
 <path fill="none" stroke="rgb(131,202,255)" stroke-width="80" stroke-linejoin="round" d="M 14628,7160 L 15428,7160"/>
 <path fill="rgb(131,202,255)" stroke="none" d="M 14922,7160 L 15133,7266 15133,7055 14922,7160 Z"/>
 <path fill="none" stroke="rgb(131,202,255)" stroke-linejoin="round" d="M 14922,7160 L 15133,7266 15133,7055 14922,7160 Z"/>
 <path fill="none" stroke="rgb(49,64,4)" stroke-width="80" stroke-linejoin="round" d="M 14628,7658 L 15428,7658"/>
 <path fill="rgb(49,64,4)" stroke="none" d="M 14922,7553 L 14922,7764 15133,7553 15133,7764 14922,7553 Z"/>
 <path fill="none" stroke="rgb(49,64,4)" stroke-linejoin="round" d="M 14922,7553 L 14922,7764 15133,7553 15133,7764 14922,7553 Z"/>
 <path fill="none" stroke="rgb(174,207,0)" stroke-width="80" stroke-linejoin="round" d="M 14628,8156 L 15428,8156"/>
 <path fill="rgb(174,207,0)" stroke="none" d="M 14922,8262 L 15133,8262 14922,8051 15133,8051 14922,8262 Z"/>
 <path fill="none" stroke="rgb(174,207,0)" stroke-linejoin="round" d="M 14922,8262 L 15133,8262 14922,8051 15133,8051 14922,8262 Z"/>
 <text class="TextShape"><tspan class="TextParagraph" font-family="Liberation Sans" font-size="353px" font-weight="400"><tspan class="TextPosition" x="15528" y="4791"><tspan fill="rgb(0,0,0)" stroke="none">al_prim25</tspan></tspan></tspan></text>
 <text class="TextShape"><tspan class="TextParagraph" font-family="Liberation Sans" font-size="353px" font-weight="400"><tspan class="TextPosition" x="15528" y="5289"><tspan fill="rgb(0,0,0)" stroke="none">al_kruskal25</tspan></tspan></tspan></text>
 <text class="TextShape"><tspan class="TextParagraph" font-family="Liberation Sans" font-size="353px" font-weight="400"><tspan class="TextPosition" x="15528" y="5787"><tspan fill="rgb(0,0,0)" stroke="none">al_prim50</tspan></tspan></tspan></text>
 <text class="TextShape"><tspan class="TextParagraph" font-family="Liberation Sans" font-size="353px" font-weight="400"><tspan class="TextPosition" x="15528" y="6285"><tspan fill="rgb(0,0,0)" stroke="none">al_kruskal50</tspan></tspan></tspan></text>
 <text class="TextShape"><tspan class="TextParagraph" font-family="Liberation Sans" font-size="353px" font-weight="400"><tspan class="TextPosition" x="15528" y="6782"><tspan fill="rgb(0,0,0)" stroke="none">al_prim75</tspan></tspan></tspan></text>
 <text class="TextShape"><tspan class="TextParagraph" font-family="Liberation Sans" font-size="353px" font-weight="400"><tspan class="TextPosition" x="15528" y="7280"><tspan fill="rgb(0,0,0)" stroke="none">al_kruskal75</tspan></tspan></tspan></text>
 <text class="TextShape"><tspan class="TextParagraph" font-family="Liberation Sans" font-size="353px" font-weight="400"><tspan class="TextPosition" x="15528" y="7778"><tspan fill="rgb(0,0,0)" stroke="none">al_prim99</tspan></tspan></tspan></text>
 <text class="TextShape"><tspan class="TextParagraph" font-family="Liberation Sans" font-size="353px" font-weight="400"><tspan class="TextPosition" x="15528" y="8276"><tspan fill="rgb(0,0,0)" stroke="none">al_kruskal99</tspan></tspan></tspan></text>
 <text class="TextShape"><tspan class="TextParagraph" font-family="Liberation Sans" font-size="318px" font-weight="400"><tspan class="TextPosition" x="6412" y="12235"><tspan fill="rgb(0,0,0)" stroke="none">Ilość wierzchołków</tspan></tspan></tspan></text>
 <text class="TextShape" transform="translate(837,8658) rotate(-90) translate(-837,-8658)"><tspan class="TextParagraph" font-family="Liberation Sans" font-size="318px" font-weight="400"><tspan class="TextPosition" x="837" y="8658"><tspan fill="rgb(0,0,0)" stroke="none">Czas wykonywania [µs]</tspan></tspan></tspan></text>
</svg>