<?xml version="1.0" encoding="UTF-8"?>
<!DOCTYPE svg PUBLIC "-//W3C//DTD SVG 1.1//EN" "http://www.w3.org/Graphics/SVG/1.1/DTD/svg11.dtd">
<svg width="178mm" height="128mm" viewBox="0 0 17800 12800" version="1.1" xmlns="http://www.w3.org/2000/svg" stroke-width="28.222" stroke-linejoin="round" xml:space="preserve">
 <path fill="rgb(255,255,255)" stroke="none" d="M 8894,12829 L 0,12829 0,0 17787,0 17787,12829 8894,12829 Z"/>
 <path fill="none" stroke="rgb(179,179,179)" stroke-linejoin="round" d="M 8217,10945 L 2543,10945 2543,2565 13890,2565 13890,10945 8217,10945 Z"/>
 <path fill="none" stroke="rgb(179,179,179)" stroke-linejoin="round" d="M 13890,10944 L 2543,10944"/>
 <path fill="none" stroke="rgb(179,179,179)" stroke-linejoin="round" d="M 13890,9547 L 2543,9547"/>
 <path fill="none" stroke="rgb(179,179,179)" stroke-linejoin="round" d="M 13890,8150 L 2543,8150"/>
 <path fill="none" stroke="rgb(179,179,179)" stroke-linejoin="round" d="M 13890,6753 L 2543,6753"/>
 <path fill="none" stroke="rgb(179,179,179)" stroke-linejoin="round" d="M 13890,5357 L 2543,5357"/>
 <path fill="none" stroke="rgb(179,179,179)" stroke-linejoin="round" d="M 13890,3960 L 2543,3960"/>
 <path fill="none" stroke="rgb(179,179,179)" stroke-linejoin="round" d="M 13890,2564 L 2543,2564"/>
 <path fill="none" stroke="rgb(179,179,179)" stroke-linejoin="round" d="M 2543,11094 L 2543,10944"/>
 <path fill="none" stroke="rgb(179,179,179)" stroke-linejoin="round" d="M 2543,11094 L 2543,10944"/>
 <path fill="none" stroke="rgb(179,179,179)" stroke-linejoin="round" d="M 5380,11094 L 5380,10944"/>
 <path fill="none" stroke="rgb(179,179,179)" stroke-linejoin="round" d="M 5380,11094 L 5380,10944"/>
 <path fill="none" stroke="rgb(179,179,179)" stroke-linejoin="round" d="M 8217,11094 L 8217,10944"/>
 <path fill="none" stroke="rgb(179,179,179)" stroke-linejoin="round" d="M 8217,11094 L 8217,10944"/>
 <path fill="none" stroke="rgb(179,179,179)" stroke-linejoin="round" d="M 11053,11094 L 11053,10944"/>
 <path fill="none" stroke="rgb(179,179,179)" stroke-linejoin="round" d="M 11053,11094 L 11053,10944"/>
 <path fill="none" stroke="rgb(179,179,179)" stroke-linejoin="round" d="M 13890,11094 L 13890,10944"/>
 <path fill="none" stroke="rgb(179,179,179)" stroke-linejoin="round" d="M 13890,11094 L 13890,10944"/>
 <path fill="none" stroke="rgb(179,179,179)" stroke-linejoin="round" d="M 2543,10944 L 13890,10944"/>
 <path fill="none" stroke="rgb(179,179,179)" stroke-linejoin="round" d="M 2393,10944 L 2543,10944"/>
 <path fill="none" stroke="rgb(179,179,179)" stroke-linejoin="round" d="M 2393,10944 L 2543,10944"/>
 <path fill="none" stroke="rgb(179,179,179)" stroke-linejoin="round" d="M 2393,9547 L 2543,9547"/>
 <path fill="none" stroke="rgb(179,179,179)" stroke-linejoin="round" d="M 2393,9547 L 2543,9547"/>
 <path fill="none" stroke="rgb(179,179,179)" stroke-linejoin="round" d="M 2393,8150 L 2543,8150"/>
 <path fill="none" stroke="rgb(179,179,179)" stroke-linejoin="round" d="M 2393,8150 L 2543,8150"/>
 <path fill="none" stroke="rgb(179,179,179)" stroke-linejoin="round" d="M 2393,6753 L 2543,6753"/>
 <path fill="none" stroke="rgb(179,179,179)" stroke-linejoin="round" d="M 2393,6753 L 2543,6753"/>
 <path fill="none" stroke="rgb(179,179,179)" stroke-linejoin="round" d="M 2393,5357 L 2543,5357"/>
 <path fill="none" stroke="rgb(179,179,179)" stroke-linejoin="round" d="M 2393,5357 L 2543,5357"/>
 <path fill="none" stroke="rgb(179,179,179)" stroke-linejoin="round" d="M 2393,3960 L 2543,3960"/>
 <path fill="none" stroke="rgb(179,179,179)" stroke-linejoin="round" d="M 2393,3960 L 2543,3960"/>
 <path fill="none" stroke="rgb(179,179,179)" stroke-linejoin="round" d="M 2393,2564 L 2543,2564"/>
 <path fill="none" stroke="rgb(179,179,179)" stroke-linejoin="round" d="M 2393,2564 L 2543,2564"/>
 <path fill="none" stroke="rgb(179,179,179)" stroke-linejoin="round" d="M 2543,10944 L 2543,2564"/>
 <path fill="none" stroke="rgb(0,69,134)" stroke-width="80" stroke-linejoin="round" d="M 2543,10943 L 5380,10943 8217,10942 11053,10939 13890,10923"/>
 <path fill="rgb(0,69,134)" stroke="none" d="M 2418,10818 L 2418,11068 2668,11068 2668,10818 2418,10818 Z"/>
 <path fill="none" stroke="rgb(0,69,134)" stroke-linejoin="round" d="M 2418,10818 L 2418,11068 2668,11068 2668,10818 2418,10818 Z"/>
 <path fill="rgb(0,69,134)" stroke="none" d="M 5255,10818 L 5255,11068 5505,11068 5505,10818 5255,10818 Z"/>
 <path fill="none" stroke="rgb(0,69,134)" stroke-linejoin="round" d="M 5255,10818 L 5255,11068 5505,11068 5505,10818 5255,10818 Z"/>
 <path fill="rgb(0,69,134)" stroke="none" d="M 8092,10817 L 8092,11067 8342,11067 8342,10817 8092,10817 Z"/>
 <path fill="none" stroke="rgb(0,69,134)" stroke-linejoin="round" d="M 8092,10817 L 8092,11067 8342,11067 8342,10817 8092,10817 Z"/>
 <path fill="rgb(0,69,134)" stroke="none" d="M 10928,10814 L 10928,11064 11178,11064 11178,10814 10928,10814 Z"/>
 <path fill="none" stroke="rgb(0,69,134)" stroke-linejoin="round" d="M 10928,10814 L 10928,11064 11178,11064 11178,10814 10928,10814 Z"/>
 <path fill="rgb(0,69,134)" stroke="none" d="M 13765,10798 L 13765,11048 14015,11048 14015,10798 13765,10798 Z"/>
 <path fill="none" stroke="rgb(0,69,134)" stroke-linejoin="round" d="M 13765,10798 L 13765,11048 14015,11048 14015,10798 13765,10798 Z"/>
 <path fill="none" stroke="rgb(255,66,14)" stroke-width="80" stroke-linejoin="round" d="M 2543,10943 L 5380,10940 8217,10924 11053,10777 13890,9089"/>
 <path fill="rgb(255,66,14)" stroke="none" d="M 2418,10943 L 2543,11068 2668,10943 2543,10818 2418,10943 Z"/>
 <path fill="none" stroke="rgb(255,66,14)" stroke-linejoin="round" d="M 2418,10943 L 2543,11068 2668,10943 2543,10818 2418,10943 Z"/>
 <path fill="rgb(255,66,14)" stroke="none" d="M 5255,10940 L 5380,11065 5505,10940 5380,10815 5255,10940 Z"/>
 <path fill="none" stroke="rgb(255,66,14)" stroke-linejoin="round" d="M 5255,10940 L 5380,11065 5505,10940 5380,10815 5255,10940 Z"/>
 <path fill="rgb(255,66,14)" stroke="none" d="M 8092,10924 L 8217,11049 8342,10924 8217,10799 8092,10924 Z"/>
 <path fill="none" stroke="rgb(255,66,14)" stroke-linejoin="round" d="M 8092,10924 L 8217,11049 8342,10924 8217,10799 8092,10924 Z"/>
 <path fill="rgb(255,66,14)" stroke="none" d="M 10928,10777 L 11053,10902 11178,10777 11053,10652 10928,10777 Z"/>
 <path fill="none" stroke="rgb(255,66,14)" stroke-linejoin="round" d="M 10928,10777 L 11053,10902 11178,10777 11053,10652 10928,10777 Z"/>
 <path fill="rgb(255,66,14)" stroke="none" d="M 13765,9089 L 13890,9214 14015,9089 13890,8964 13765,9089 Z"/>
 <path fill="none" stroke="rgb(255,66,14)" stroke-linejoin="round" d="M 13765,9089 L 13890,9214 14015,9089 13890,8964 13765,9089 Z"/>
 <path fill="none" stroke="rgb(255,211,32)" stroke-width="80" stroke-linejoin="round" d="M 2543,10943 L 5380,10943 8217,10942 11053,10937 13890,10899"/>
 <path fill="rgb(255,211,32)" stroke="none" d="M 2418,10818 L 2543,11068 2668,10818 2418,10818 Z"/>
 <path fill="none" stroke="rgb(255,211,32)" stroke-linejoin="round" d="M 2418,10818 L 2543,11068 2668,10818 2418,10818 Z"/>
 <path fill="rgb(255,211,32)" stroke="none" d="M 5255,10818 L 5380,11068 5505,10818 5255,10818 Z"/>
 <path fill="none" stroke="rgb(255,211,32)" stroke-linejoin="round" d="M 5255,10818 L 5380,11068 5505,10818 5255,10818 Z"/>
 <path fill="rgb(255,211,32)" stroke="none" d="M 8092,10817 L 8217,11067 8342,10817 8092,10817 Z"/>
 <path fill="none" stroke="rgb(255,211,32)" stroke-linejoin="round" d="M 8092,10817 L 8217,11067 8342,10817 8092,10817 Z"/>
 <path fill="rgb(255,211,32)" stroke="none" d="M 10928,10812 L 11053,11062 11178,10812 10928,10812 Z"/>
 <path fill="none" stroke="rgb(255,211,32)" stroke-linejoin="round" d="M 10928,10812 L 11053,11062 11178,10812 10928,10812 Z"/>
 <path fill="rgb(255,211,32)" stroke="none" d="M 13765,10774 L 13890,11024 14015,10774 13765,10774 Z"/>
 <path fill="none" stroke="rgb(255,211,32)" stroke-linejoin="round" d="M 13765,10774 L 13890,11024 14015,10774 13765,10774 Z"/>
 <path fill="none" stroke="rgb(87,157,28)" stroke-width="80" stroke-linejoin="round" d="M 2543,10943 L 5380,10939 8217,10909 11053,10588 13890,6320"/>
 <path fill="rgb(87,157,28)" stroke="none" d="M 2418,11068 L 2668,11068 2543,10818 2418,11068 Z"/>
 <path fill="none" stroke="rgb(87,157,28)" stroke-linejoin="round" d="M 2418,11068 L 2668,11068 2543,10818 2418,11068 Z"/>
 <path fill="rgb(87,157,28)" stroke="none" d="M 5255,11064 L 5505,11064 5380,10814 5255,11064 Z"/>
 <path fill="none" stroke="rgb(87,157,28)" stroke-linejoin="round" d="M 5255,11064 L 5505,11064 5380,10814 5255,11064 Z"/>
 <path fill="rgb(87,157,28)" stroke="none" d="M 8092,11034 L 8342,11034 8217,10784 8092,11034 Z"/>
 <path fill="none" stroke="rgb(87,157,28)" stroke-linejoin="round" d="M 8092,11034 L 8342,11034 8217,10784 8092,11034 Z"/>
 <path fill="rgb(87,157,28)" stroke="none" d="M 10928,10713 L 11178,10713 11053,10463 10928,10713 Z"/>
 <path fill="none" stroke="rgb(87,157,28)" stroke-linejoin="round" d="M 10928,10713 L 11178,10713 11053,10463 10928,10713 Z"/>
 <path fill="rgb(87,157,28)" stroke="none" d="M 13765,6444 L 14015,6444 13890,6195 13765,6444 Z"/>
 <path fill="none" stroke="rgb(87,157,28)" stroke-linejoin="round" d="M 13765,6444 L 14015,6444 13890,6195 13765,6444 Z"/>
 <path fill="none" stroke="rgb(126,0,33)" stroke-width="80" stroke-linejoin="round" d="M 2543,10943 L 5380,10943 8217,10941 11053,10934 13890,10883"/>
 <path fill="rgb(126,0,33)" stroke="none" d="M 2418,10818 L 2418,11068 2668,10943 2418,10818 Z"/>
 <path fill="none" stroke="rgb(126,0,33)" stroke-linejoin="round" d="M 2418,10818 L 2418,11068 2668,10943 2418,10818 Z"/>
 <path fill="rgb(126,0,33)" stroke="none" d="M 5255,10818 L 5255,11068 5505,10943 5255,10818 Z"/>
 <path fill="none" stroke="rgb(126,0,33)" stroke-linejoin="round" d="M 5255,10818 L 5255,11068 5505,10943 5255,10818 Z"/>
 <path fill="rgb(126,0,33)" stroke="none" d="M 8092,10816 L 8092,11066 8342,10941 8092,10816 Z"/>
 <path fill="none" stroke="rgb(126,0,33)" stroke-linejoin="round" d="M 8092,10816 L 8092,11066 8342,10941 8092,10816 Z"/>
 <path fill="rgb(126,0,33)" stroke="none" d="M 10928,10809 L 10928,11059 11178,10934 10928,10809 Z"/>
 <path fill="none" stroke="rgb(126,0,33)" stroke-linejoin="round" d="M 10928,10809 L 10928,11059 11178,10934 10928,10809 Z"/>
 <path fill="rgb(126,0,33)" stroke="none" d="M 13765,10758 L 13765,11008 14015,10883 13765,10758 Z"/>
 <path fill="none" stroke="rgb(126,0,33)" stroke-linejoin="round" d="M 13765,10758 L 13765,11008 14015,10883 13765,10758 Z"/>
 <path fill="none" stroke="rgb(131,202,255)" stroke-width="80" stroke-linejoin="round" d="M 2543,10943 L 5380,10938 8217,10897 11053,10436 13890,4036"/>
 <path fill="rgb(131,202,255)" stroke="none" d="M 2418,10943 L 2668,11068 2668,10818 2418,10943 Z"/>
 <path fill="none" stroke="rgb(131,202,255)" stroke-linejoin="round" d="M 2418,10943 L 2668,11068 2668,10818 2418,10943 Z"/>
 <path fill="rgb(131,202,255)" stroke="none" d="M 5255,10938 L 5505,11063 5505,10813 5255,10938 Z"/>
 <path fill="none" stroke="rgb(131,202,255)" stroke-linejoin="round" d="M 5255,10938 L 5505,11063 5505,10813 5255,10938 Z"/>
 <path fill="rgb(131,202,255)" stroke="none" d="M 8092,10897 L 8342,11022 8342,10772 8092,10897 Z"/>
 <path fill="none" stroke="rgb(131,202,255)" stroke-linejoin="round" d="M 8092,10897 L 8342,11022 8342,10772 8092,10897 Z"/>
 <path fill="rgb(131,202,255)" stroke="none" d="M 10928,10436 L 11178,10561 11178,10311 10928,10436 Z"/>
 <path fill="none" stroke="rgb(131,202,255)" stroke-linejoin="round" d="M 10928,10436 L 11178,10561 11178,10311 10928,10436 Z"/>
 <path fill="rgb(131,202,255)" stroke="none" d="M 13765,4036 L 14015,4161 14015,3911 13765,4036 Z"/>
 <path fill="none" stroke="rgb(131,202,255)" stroke-linejoin="round" d="M 13765,4036 L 14015,4161 14015,3911 13765,4036 Z"/>
 <path fill="none" stroke="rgb(49,64,4)" stroke-width="80" stroke-linejoin="round" d="M 2543,10943 L 5380,10943 8217,10941 11053,10934 13890,10865"/>
 <path fill="rgb(49,64,4)" stroke="none" d="M 2418,10818 L 2418,11068 2668,10818 2668,11068 2418,10818 Z"/>
 <path fill="none" stroke="rgb(49,64,4)" stroke-linejoin="round" d="M 2418,10818 L 2418,11068 2668,10818 2668,11068 2418,10818 Z"/>
 <path fill="rgb(49,64,4)" stroke="none" d="M 5255,10818 L 5255,11068 5505,10818 5505,11068 5255,10818 Z"/>
 <path fill="none" stroke="rgb(49,64,4)" stroke-linejoin="round" d="M 5255,10818 L 5255,11068 5505,10818 5505,11068 5255,10818 Z"/>
 <path fill="rgb(49,64,4)" stroke="none" d="M 8092,10816 L 8092,11066 8342,10816 8342,11066 8092,10816 Z"/>
 <path fill="none" stroke="rgb(49,64,4)" stroke-linejoin="round" d="M 8092,10816 L 8092,11066 8342,10816 8342,11066 8092,10816 Z"/>
 <path fill="rgb(49,64,4)" stroke="none" d="M 10928,10809 L 10928,11059 11178,10809 11178,11059 10928,10809 Z"/>
 <path fill="none" stroke="rgb(49,64,4)" stroke-linejoin="round" d="M 10928,10809 L 10928,11059 11178,10809 11178,11059 10928,10809 Z"/>
 <path fill="rgb(49,64,4)" stroke="none" d="M 13765,10740 L 13765,10990 14015,10740 14015,10990 13765,10740 Z"/>
 <path fill="none" stroke="rgb(49,64,4)" stroke-linejoin="round" d="M 13765,10740 L 13765,10990 14015,10740 14015,10990 13765,10740 Z"/>
 <path fill="none" stroke="rgb(174,207,0)" stroke-width="80" stroke-linejoin="round" d="M 2543,10943 L 5380,10938 8217,10893 11053,10382 13890,3170"/>
 <path fill="rgb(174,207,0)" stroke="none" d="M 2418,11068 L 2668,11068 2418,10818 2668,10818 2418,11068 Z"/>
 <path fill="none" stroke="rgb(174,207,0)" stroke-linejoin="round" d="M 2418,11068 L 2668,11068 2418,10818 2668,10818 2418,11068 Z"/>
 <path fill="rgb(174,207,0)" stroke="none" d="M 5255,11063 L 5505,11063 5255,10813 5505,10813 5255,11063 Z"/>
 <path fill="none" stroke="rgb(174,207,0)" stroke-linejoin="round" d="M 5255,11063 L 5505,11063 5255,10813 5505,10813 5255,11063 Z"/>
 <path fill="rgb(174,207,0)" stroke="none" d="M 8092,11018 L 8342,11018 8092,10768 8342,10768 8092,11018 Z"/>
 <path fill="none" stroke="rgb(174,207,0)" stroke-linejoin="round" d="M 8092,11018 L 8342,11018 8092,10768 8342,10768 8092,11018 Z"/>
 <path fill="rgb(174,207,0)" stroke="none" d="M 10928,10507 L 11178,10507 10928,10257 11178,10257 10928,10507 Z"/>
 <path fill="none" stroke="rgb(174,207,0)" stroke-linejoin="round" d="M 10928,10507 L 11178,10507 10928,10257 11178,10257 10928,10507 Z"/>
 <path fill="rgb(174,207,0)" stroke="none" d="M 13765,3295 L 14015,3295 13765,3045 14015,3045 13765,3295 Z"/>
 <path fill="none" stroke="rgb(174,207,0)" stroke-linejoin="round" d="M 13765,3295 L 14015,3295 13765,3045 14015,3045 13765,3295 Z"/>
 <text class="TextShape"><tspan class="TextParagraph" font-family="Liberation Sans" font-size="353px" font-weight="400"><tspan class="TextPosition" x="2450" y="11512"><tspan fill="rgb(0,0,0)" stroke="none">4</tspan></tspan></tspan></text>
 <text class="TextShape"><tspan class="TextParagraph" font-family="Liberation Sans" font-size="353px" font-weight="400"><tspan class="TextPosition" x="5287" y="11512"><tspan fill="rgb(0,0,0)" stroke="none">8</tspan></tspan></tspan></text>
 <text class="TextShape"><tspan class="TextParagraph" font-family="Liberation Sans" font-size="353px" font-weight="400"><tspan class="TextPosition" x="8032" y="11512"><tspan fill="rgb(0,0,0)" stroke="none">16</tspan></tspan></tspan></text>
 <text class="TextShape"><tspan class="TextParagraph" font-family="Liberation Sans" font-size="353px" font-weight="400"><tspan class="TextPosition" x="10869" y="11512"><tspan fill="rgb(0,0,0)" stroke="none">32</tspan></tspan></tspan></text>
 <text class="TextShape"><tspan class="TextParagraph" font-family="Liberation Sans" font-size="353px" font-weight="400"><tspan class="TextPosition" x="13706" y="11512"><tspan fill="rgb(0,0,0)" stroke="none">64</tspan></tspan></tspan></text>
 <text class="TextShape"><tspan class="TextParagraph" font-family="Liberation Sans" font-size="353px" font-weight="400"><tspan class="TextPosition" x="2108" y="11065"><tspan fill="rgb(0,0,0)" stroke="none">0</tspan></tspan></tspan></text>
 <text class="TextShape"><tspan class="TextParagraph" font-family="Liberation Sans" font-size="353px" font-weight="400"><tspan class="TextPosition" x="1552" y="9668"><tspan fill="rgb(0,0,0)" stroke="none">5000</tspan></tspan></tspan></text>
 <text class="TextShape"><tspan class="TextParagraph" font-family="Liberation Sans" font-size="353px" font-weight="400"><tspan class="TextPosition" x="1367" y="8271"><tspan fill="rgb(0,0,0)" stroke="none">10000</tspan></tspan></tspan></text>
 <text class="TextShape"><tspan class="TextParagraph" font-family="Liberation Sans" font-size="353px" font-weight="400"><tspan class="TextPosition" x="1367" y="6874"><tspan fill="rgb(0,0,0)" stroke="none">15000</tspan></tspan></tspan></text>
 <text class="TextShape"><tspan class="TextParagraph" font-family="Liberation Sans" font-size="353px" font-weight="400"><tspan class="TextPosition" x="1367" y="5477"><tspan fill="rgb(0,0,0)" stroke="none">20000</tspan></tspan></tspan></text>
 <text class="TextShape"><tspan class="TextParagraph" font-family="Liberation Sans" font-size="353px" font-weight="400"><tspan class="TextPosition" x="1367" y="4080"><tspan fill="rgb(0,0,0)" stroke="none">25000</tspan></tspan></tspan></text>
 <text class="TextShape"><tspan class="TextParagraph" font-family="Liberation Sans" font-size="353px" font-weight="400"><tspan class="TextPosition" x="1367" y="2684"><tspan fill="rgb(0,0,0)" stroke="none">30000</tspan></tspan></tspan></text>
 <text class="TextShape"><tspan class="TextParagraph" font-family="Liberation Sans" font-size="459px" font-weight="400"><tspan class="TextPosition" x="6142" y="927"><tspan fill="rgb(0,0,0)" stroke="none">Najkrótsza ścieżka w grafie</tspan></tspan></tspan></text>
 <text class="TextShape"><tspan class="TextParagraph" font-family="Liberation Sans" font-size="388px" font-weight="400"><tspan class="TextPosition" x="5295" y="1913"><tspan fill="rgb(0,0,0)" stroke="none">Lista sąsiedztwa, podział według gęstości</tspan></tspan></tspan></text>
 <path fill="none" stroke="rgb(0,69,134)" stroke-width="80" stroke-linejoin="round" d="M 14548,4671 L 15348,4671"/>
 <path fill="rgb(0,69,134)" stroke="none" d="M 14842,4566 L 14842,4777 15053,4777 15053,4566 14842,4566 Z"/>
 <path fill="none" stroke="rgb(0,69,134)" stroke-linejoin="round" d="M 14842,4566 L 14842,4777 15053,4777 15053,4566 14842,4566 Z"/>
 <path fill="none" stroke="rgb(255,66,14)" stroke-width="80" stroke-linejoin="round" d="M 14548,5169 L 15348,5169"/>
 <path fill="rgb(255,66,14)" stroke="none" d="M 14842,5169 L 14948,5275 15053,5169 14948,5064 14842,5169 Z"/>
 <path fill="none" stroke="rgb(255,66,14)" stroke-linejoin="round" d="M 14842,5169 L 14948,5275 15053,5169 14948,5064 14842,5169 Z"/>
 <path fill="none" stroke="rgb(255,211,32)" stroke-width="80" stroke-linejoin="round" d="M 14548,5667 L 15348,5667"/>
 <path fill="rgb(255,211,32)" stroke="none" d="M 14842,5562 L 14948,5773 15053,5562 14842,5562 Z"/>
 <path fill="none" stroke="rgb(255,211,32)" stroke-linejoin="round" d="M 14842,5562 L 14948,5773 15053,5562 14842,5562 Z"/>
 <path fill="none" stroke="rgb(87,157,28)" stroke-width="80" stroke-linejoin="round" d="M 14548,6165 L 15348,6165"/>
 <path fill="rgb(87,157,28)" stroke="none" d="M 14842,6271 L 15053,6271 14948,6060 14842,6271 Z"/>
 <path fill="none" stroke="rgb(87,157,28)" stroke-linejoin="round" d="M 14842,6271 L 15053,6271 14948,6060 14842,6271 Z"/>
 <path fill="none" stroke="rgb(126,0,33)" stroke-width="80" stroke-linejoin="round" d="M 14548,6662 L 15348,6662"/>
 <path fill="rgb(126,0,33)" stroke="none" d="M 14842,6557 L 14842,6768 15053,6662 14842,6557 Z"/>
 <path fill="none" stroke="rgb(126,0,33)" stroke-linejoin="round" d="M 14842,6557 L 14842,6768 15053,6662 14842,6557 Z"/>
 <path fill="none" stroke="rgb(131,202,255)" stroke-width="80" stroke-linejoin="round" d="M 14548,7160 L 15348,7160"/>
 <path fill="rgb(131,202,255)" stroke="none" d="M 14842,7160 L 15053,7266 15053,7055 14842,7160 Z"/>
 <path fill="none" stroke="rgb(131,202,255)" stroke-linejoin="round" d="M 14842,7160 L 15053,7266 15053,7055 14842,7160 Z"/>
 <path fill="none" stroke="rgb(49,64,4)" stroke-width="80" stroke-linejoin="round" d="M 14548,7658 L 15348,7658"/>
 <path fill="rgb(49,64,4)" stroke="none" d="M 14842,7553 L 14842,7764 15053,7553 15053,7764 14842,7553 Z"/>
 <path fill="none" stroke="rgb(49,64,4)" stroke-linejoin="round" d="M 14842,7553 L 14842,7764 15053,7553 15053,7764 14842,7553 Z"/>
 <path fill="none" stroke="rgb(174,207,0)" stroke-width="80" stroke-linejoin="round" d="M 14548,8156 L 15348,8156"/>
 <path fill="rgb(174,207,0)" stroke="none" d="M 14842,8262 L 15053,8262 14842,8051 15053,8051 14842,8262 Z"/>
 <path fill="none" stroke="rgb(174,207,0)" stroke-linejoin="round" d="M 14842,8262 L 15053,8262 14842,8051 15053,8051 14842,8262 Z"/>
 <text class="TextShape"><tspan class="TextParagraph" font-family="Liberation Sans" font-size="353px" font-weight="400"><tspan class="TextPosition" x="15448" y="4791"><tspan fill="rgb(0,0,0)" stroke="none">al_dijkstra25</tspan></tspan></tspan></text>
 <text class="TextShape"><tspan class="TextParagraph" font-family="Liberation Sans" font-size="353px" font-weight="400"><tspan class="TextPosition" x="15448" y="5289"><tspan fill="rgb(0,0,0)" stroke="none">al_bellman25</tspan></tspan></tspan></text>
 <text class="TextShape"><tspan class="TextParagraph" font-family="Liberation Sans" font-size="353px" font-weight="400"><tspan class="TextPosition" x="15448" y="5787"><tspan fill="rgb(0,0,0)" stroke="none">al_dijkstra50</tspan></tspan></tspan></text>
 <text class="TextShape"><tspan class="TextParagraph" font-family="Liberation Sans" font-size="353px" font-weight="400"><tspan class="TextPosition" x="15448" y="6285"><tspan fill="rgb(0,0,0)" stroke="none">al_bellman50</tspan></tspan></tspan></text>
 <text class="TextShape"><tspan class="TextParagraph" font-family="Liberation Sans" font-size="353px" font-weight="400"><tspan class="TextPosition" x="15448" y="6782"><tspan fill="rgb(0,0,0)" stroke="none">al_dijkstra75</tspan></tspan></tspan></text>
 <text class="TextShape"><tspan class="TextParagraph" font-family="Liberation Sans" font-size="353px" font-weight="400"><tspan class="TextPosition" x="15448" y="7280"><tspan fill="rgb(0,0,0)" stroke="none">al_bellman75</tspan></tspan></tspan></text>
 <text class="TextShape"><tspan class="TextParagraph" font-family="Liberation Sans" font-size="353px" font-weight="400"><tspan class="TextPosition" x="15448" y="7778"><tspan fill="rgb(0,0,0)" stroke="none">al_dijkstra99</tspan></tspan></tspan></text>
 <text class="TextShape"><tspan class="TextParagraph" font-family="Liberation Sans" font-size="353px" font-weight="400"><tspan class="TextPosition" x="15448" y="8276"><tspan fill="rgb(0,0,0)" stroke="none">al_bellman99</tspan></tspan></tspan></text>
 <text class="TextShape"><tspan class="TextParagraph" font-family="Liberation Sans" font-size="318px" font-weight="400"><tspan class="TextPosition" x="6372" y="12235"><tspan fill="rgb(0,0,0)" stroke="none">Ilość wierzchołków</tspan></tspan></tspan></text>
 <text class="TextShape" transform="translate(837,8658) rotate(-90) translate(-837,-8658)"><tspan class="TextParagraph" font-family="Liberation Sans" font-size="318px" font-weight="400"><tspan class="TextPosition" x="837" y="8658"><tspan fill="rgb(0,0,0)" stroke="none">Czas wykonywania [µs]</tspan></tspan></tspan></text>
</svg>