<?xml version="1.0" encoding="UTF-8"?>
<!DOCTYPE svg PUBLIC "-//W3C//DTD SVG 1.1//EN" "http://www.w3.org/Graphics/SVG/1.1/DTD/svg11.dtd">
<svg width="178mm" height="128mm" viewBox="0 0 17800 12800" version="1.1" xmlns="http://www.w3.org/2000/svg" stroke-width="28.222" stroke-linejoin="round" xml:space="preserve">
 <path fill="rgb(255,255,255)" stroke="none" d="M 8894,12829 L 0,12829 0,0 17787,0 17787,12829 8894,12829 Z"/>
 <path fill="none" stroke="rgb(179,179,179)" stroke-linejoin="round" d="M 8164,10945 L 2543,10945 2543,2565 13784,2565 13784,10945 8164,10945 Z"/>
 <path fill="none" stroke="rgb(179,179,179)" stroke-linejoin="round" d="M 13784,10944 L 2543,10944"/>
 <path fill="none" stroke="rgb(179,179,179)" stroke-linejoin="round" d="M 13784,9547 L 2543,9547"/>
 <path fill="none" stroke="rgb(179,179,179)" stroke-linejoin="round" d="M 13784,8150 L 2543,8150"/>
 <path fill="none" stroke="rgb(179,179,179)" stroke-linejoin="round" d="M 13784,6753 L 2543,6753"/>
 <path fill="none" stroke="rgb(179,179,179)" stroke-linejoin="round" d="M 13784,5357 L 2543,5357"/>
 <path fill="none" stroke="rgb(179,179,179)" stroke-linejoin="round" d="M 13784,3960 L 2543,3960"/>
 <path fill="none" stroke="rgb(179,179,179)" stroke-linejoin="round" d="M 13784,2564 L 2543,2564"/>
 <path fill="none" stroke="rgb(179,179,179)" stroke-linejoin="round" d="M 2543,11094 L 2543,10944"/>
 <path fill="none" stroke="rgb(179,179,179)" stroke-linejoin="round" d="M 2543,11094 L 2543,10944"/>
 <path fill="none" stroke="rgb(179,179,179)" stroke-linejoin="round" d="M 5353,11094 L 5353,10944"/>
 <path fill="none" stroke="rgb(179,179,179)" stroke-linejoin="round" d="M 5353,11094 L 5353,10944"/>
 <path fill="none" stroke="rgb(179,179,179)" stroke-linejoin="round" d="M 8164,11094 L 8164,10944"/>
 <path fill="none" stroke="rgb(179,179,179)" stroke-linejoin="round" d="M 8164,11094 L 8164,10944"/>
 <path fill="none" stroke="rgb(179,179,179)" stroke-linejoin="round" d="M 10973,11094 L 10973,10944"/>
 <path fill="none" stroke="rgb(179,179,179)" stroke-linejoin="round" d="M 10973,11094 L 10973,10944"/>
 <path fill="none" stroke="rgb(179,179,179)" stroke-linejoin="round" d="M 13784,11094 L 13784,10944"/>
 <path fill="none" stroke="rgb(179,179,179)" stroke-linejoin="round" d="M 13784,11094 L 13784,10944"/>
 <path fill="none" stroke="rgb(179,179,179)" stroke-linejoin="round" d="M 2543,10944 L 13784,10944"/>
 <path fill="none" stroke="rgb(179,179,179)" stroke-linejoin="round" d="M 2393,10944 L 2543,10944"/>
 <path fill="none" stroke="rgb(179,179,179)" stroke-linejoin="round" d="M 2393,10944 L 2543,10944"/>
 <path fill="none" stroke="rgb(179,179,179)" stroke-linejoin="round" d="M 2393,9547 L 2543,9547"/>
 <path fill="none" stroke="rgb(179,179,179)" stroke-linejoin="round" d="M 2393,9547 L 2543,9547"/>
 <path fill="none" stroke="rgb(179,179,179)" stroke-linejoin="round" d="M 2393,8150 L 2543,8150"/>
 <path fill="none" stroke="rgb(179,179,179)" stroke-linejoin="round" d="M 2393,8150 L 2543,8150"/>
 <path fill="none" stroke="rgb(179,179,179)" stroke-linejoin="round" d="M 2393,6753 L 2543,6753"/>
 <path fill="none" stroke="rgb(179,179,179)" stroke-linejoin="round" d="M 2393,6753 L 2543,6753"/>
 <path fill="none" stroke="rgb(179,179,179)" stroke-linejoin="round" d="M 2393,5357 L 2543,5357"/>
 <path fill="none" stroke="rgb(179,179,179)" stroke-linejoin="round" d="M 2393,5357 L 2543,5357"/>
 <path fill="none" stroke="rgb(179,179,179)" stroke-linejoin="round" d="M 2393,3960 L 2543,3960"/>
 <path fill="none" stroke="rgb(179,179,179)" stroke-linejoin="round" d="M 2393,3960 L 2543,3960"/>
 <path fill="none" stroke="rgb(179,179,179)" stroke-linejoin="round" d="M 2393,2564 L 2543,2564"/>
 <path fill="none" stroke="rgb(179,179,179)" stroke-linejoin="round" d="M 2393,2564 L 2543,2564"/>
 <path fill="none" stroke="rgb(179,179,179)" stroke-linejoin="round" d="M 2543,10944 L 2543,2564"/>
 <path fill="none" stroke="rgb(0,69,134)" stroke-width="80" stroke-linejoin="round" d="M 2543,10943 L 5353,10943 8164,10942 10973,10936 13784,10892"/>
 <path fill="rgb(0,69,134)" stroke="none" d="M 2418,10818 L 2418,11068 2668,11068 2668,10818 2418,10818 Z"/>
 <path fill="none" stroke="rgb(0,69,134)" stroke-linejoin="round" d="M 2418,10818 L 2418,11068 2668,11068 2668,10818 2418,10818 Z"/>
 <path fill="rgb(0,69,134)" stroke="none" d="M 5228,10818 L 5228,11068 5478,11068 5478,10818 5228,10818 Z"/>
 <path fill="none" stroke="rgb(0,69,134)" stroke-linejoin="round" d="M 5228,10818 L 5228,11068 5478,11068 5478,10818 5228,10818 Z"/>
 <path fill="rgb(0,69,134)" stroke="none" d="M 8039,10817 L 8039,11067 8289,11067 8289,10817 8039,10817 Z"/>
 <path fill="none" stroke="rgb(0,69,134)" stroke-linejoin="round" d="M 8039,10817 L 8039,11067 8289,11067 8289,10817 8039,10817 Z"/>
 <path fill="rgb(0,69,134)" stroke="none" d="M 10848,10811 L 10848,11061 11098,11061 11098,10811 10848,10811 Z"/>
 <path fill="none" stroke="rgb(0,69,134)" stroke-linejoin="round" d="M 10848,10811 L 10848,11061 11098,11061 11098,10811 10848,10811 Z"/>
 <path fill="rgb(0,69,134)" stroke="none" d="M 13659,10767 L 13659,11017 13909,11017 13909,10767 13659,10767 Z"/>
 <path fill="none" stroke="rgb(0,69,134)" stroke-linejoin="round" d="M 13659,10767 L 13659,11017 13909,11017 13909,10767 13659,10767 Z"/>
 <path fill="none" stroke="rgb(255,66,14)" stroke-width="80" stroke-linejoin="round" d="M 2543,10943 L 5353,10940 8164,10903 10973,10442 13784,3617"/>
 <path fill="rgb(255,66,14)" stroke="none" d="M 2418,10943 L 2543,11068 2668,10943 2543,10818 2418,10943 Z"/>
 <path fill="none" stroke="rgb(255,66,14)" stroke-linejoin="round" d="M 2418,10943 L 2543,11068 2668,10943 2543,10818 2418,10943 Z"/>
 <path fill="rgb(255,66,14)" stroke="none" d="M 5228,10940 L 5353,11065 5478,10940 5353,10815 5228,10940 Z"/>
 <path fill="none" stroke="rgb(255,66,14)" stroke-linejoin="round" d="M 5228,10940 L 5353,11065 5478,10940 5353,10815 5228,10940 Z"/>
 <path fill="rgb(255,66,14)" stroke="none" d="M 8039,10903 L 8164,11028 8289,10903 8164,10778 8039,10903 Z"/>
 <path fill="none" stroke="rgb(255,66,14)" stroke-linejoin="round" d="M 8039,10903 L 8164,11028 8289,10903 8164,10778 8039,10903 Z"/>
 <path fill="rgb(255,66,14)" stroke="none" d="M 10848,10442 L 10973,10567 11098,10442 10973,10317 10848,10442 Z"/>
 <path fill="none" stroke="rgb(255,66,14)" stroke-linejoin="round" d="M 10848,10442 L 10973,10567 11098,10442 10973,10317 10848,10442 Z"/>
 <path fill="rgb(255,66,14)" stroke="none" d="M 13659,3617 L 13784,3742 13909,3617 13784,3492 13659,3617 Z"/>
 <path fill="none" stroke="rgb(255,66,14)" stroke-linejoin="round" d="M 13659,3617 L 13784,3742 13909,3617 13784,3492 13659,3617 Z"/>
 <path fill="none" stroke="rgb(255,211,32)" stroke-width="80" stroke-linejoin="round" d="M 2543,10943 L 5353,10943 8164,10942 10973,10939 13784,10923"/>
 <path fill="rgb(255,211,32)" stroke="none" d="M 2418,10818 L 2543,11068 2668,10818 2418,10818 Z"/>
 <path fill="none" stroke="rgb(255,211,32)" stroke-linejoin="round" d="M 2418,10818 L 2543,11068 2668,10818 2418,10818 Z"/>
 <path fill="rgb(255,211,32)" stroke="none" d="M 5228,10818 L 5353,11068 5478,10818 5228,10818 Z"/>
 <path fill="none" stroke="rgb(255,211,32)" stroke-linejoin="round" d="M 5228,10818 L 5353,11068 5478,10818 5228,10818 Z"/>
 <path fill="rgb(255,211,32)" stroke="none" d="M 8039,10817 L 8164,11067 8289,10817 8039,10817 Z"/>
 <path fill="none" stroke="rgb(255,211,32)" stroke-linejoin="round" d="M 8039,10817 L 8164,11067 8289,10817 8039,10817 Z"/>
 <path fill="rgb(255,211,32)" stroke="none" d="M 10848,10814 L 10973,11064 11098,10814 10848,10814 Z"/>
 <path fill="none" stroke="rgb(255,211,32)" stroke-linejoin="round" d="M 10848,10814 L 10973,11064 11098,10814 10848,10814 Z"/>
 <path fill="rgb(255,211,32)" stroke="none" d="M 13659,10798 L 13784,11048 13909,10798 13659,10798 Z"/>
 <path fill="none" stroke="rgb(255,211,32)" stroke-linejoin="round" d="M 13659,10798 L 13784,11048 13909,10798 13659,10798 Z"/>
 <path fill="none" stroke="rgb(87,157,28)" stroke-width="80" stroke-linejoin="round" d="M 2543,10943 L 5353,10940 8164,10924 10973,10777 13784,9089"/>
 <path fill="rgb(87,157,28)" stroke="none" d="M 2418,11068 L 2668,11068 2543,10818 2418,11068 Z"/>
 <path fill="none" stroke="rgb(87,157,28)" stroke-linejoin="round" d="M 2418,11068 L 2668,11068 2543,10818 2418,11068 Z"/>
 <path fill="rgb(87,157,28)" stroke="none" d="M 5228,11065 L 5478,11065 5353,10815 5228,11065 Z"/>
 <path fill="none" stroke="rgb(87,157,28)" stroke-linejoin="round" d="M 5228,11065 L 5478,11065 5353,10815 5228,11065 Z"/>
 <path fill="rgb(87,157,28)" stroke="none" d="M 8039,11049 L 8289,11049 8164,10799 8039,11049 Z"/>
 <path fill="none" stroke="rgb(87,157,28)" stroke-linejoin="round" d="M 8039,11049 L 8289,11049 8164,10799 8039,11049 Z"/>
 <path fill="rgb(87,157,28)" stroke="none" d="M 10848,10902 L 11098,10902 10973,10652 10848,10902 Z"/>
 <path fill="none" stroke="rgb(87,157,28)" stroke-linejoin="round" d="M 10848,10902 L 11098,10902 10973,10652 10848,10902 Z"/>
 <path fill="rgb(87,157,28)" stroke="none" d="M 13659,9214 L 13909,9214 13784,8964 13659,9214 Z"/>
 <path fill="none" stroke="rgb(87,157,28)" stroke-linejoin="round" d="M 13659,9214 L 13909,9214 13784,8964 13659,9214 Z"/>
 <text class="TextShape"><tspan class="TextParagraph" font-family="Liberation Sans" font-size="353px" font-weight="400"><tspan class="TextPosition" x="2450" y="11512"><tspan fill="rgb(0,0,0)" stroke="none">4</tspan></tspan></tspan></text>
 <text class="TextShape"><tspan class="TextParagraph" font-family="Liberation Sans" font-size="353px" font-weight="400"><tspan class="TextPosition" x="5260" y="11512"><tspan fill="rgb(0,0,0)" stroke="none">8</tspan></tspan></tspan></text>
 <text class="TextShape"><tspan class="TextParagraph" font-family="Liberation Sans" font-size="353px" font-weight="400"><tspan class="TextPosition" x="7979" y="11512"><tspan fill="rgb(0,0,0)" stroke="none">16</tspan></tspan></tspan></text>
 <text class="TextShape"><tspan class="TextParagraph" font-family="Liberation Sans" font-size="353px" font-weight="400"><tspan class="TextPosition" x="10789" y="11512"><tspan fill="rgb(0,0,0)" stroke="none">32</tspan></tspan></tspan></text>
 <text class="TextShape"><tspan class="TextParagraph" font-family="Liberation Sans" font-size="353px" font-weight="400"><tspan class="TextPosition" x="13600" y="11512"><tspan fill="rgb(0,0,0)" stroke="none">64</tspan></tspan></tspan></text>
 <text class="TextShape"><tspan class="TextParagraph" font-family="Liberation Sans" font-size="353px" font-weight="400"><tspan class="TextPosition" x="2108" y="11065"><tspan fill="rgb(0,0,0)" stroke="none">0</tspan></tspan></tspan></text>
 <text class="TextShape"><tspan class="TextParagraph" font-family="Liberation Sans" font-size="353px" font-weight="400"><tspan class="TextPosition" x="1552" y="9668"><tspan fill="rgb(0,0,0)" stroke="none">5000</tspan></tspan></tspan></text>
 <text class="TextShape"><tspan class="TextParagraph" font-family="Liberation Sans" font-size="353px" font-weight="400"><tspan class="TextPosition" x="1367" y="8271"><tspan fill="rgb(0,0,0)" stroke="none">10000</tspan></tspan></tspan></text>
 <text class="TextShape"><tspan class="TextParagraph" font-family="Liberation Sans" font-size="353px" font-weight="400"><tspan class="TextPosition" x="1367" y="6874"><tspan fill="rgb(0,0,0)" stroke="none">15000</tspan></tspan></tspan></text>
 <text class="TextShape"><tspan class="TextParagraph" font-family="Liberation Sans" font-size="353px" font-weight="400"><tspan class="TextPosition" x="1367" y="5477"><tspan fill="rgb(0,0,0)" stroke="none">20000</tspan></tspan></tspan></text>
 <text class="TextShape"><tspan class="TextParagraph" font-family="Liberation Sans" font-size="353px" font-weight="400"><tspan class="TextPosition" x="1367" y="4080"><tspan fill="rgb(0,0,0)" stroke="none">25000</tspan></tspan></tspan></text>
 <text class="TextShape"><tspan class="TextParagraph" font-family="Liberation Sans" font-size="353px" font-weight="400"><tspan class="TextPosition" x="1367" y="2684"><tspan fill="rgb(0,0,0)" stroke="none">30000</tspan></tspan></tspan></text>
 <text class="TextShape"><tspan class="TextParagraph" font-family="Liberation Sans" font-size="459px" font-weight="400"><tspan class="TextPosition" x="6142" y="927"><tspan fill="rgb(0,0,0)" stroke="none">Najkrótsza ścieżka w grafie</tspan></tspan></tspan></text>
 <text class="TextShape"><tspan class="TextParagraph" font-family="Liberation Sans" font-size="388px" font-weight="400"><tspan class="TextPosition" x="5176" y="1913"><tspan fill="rgb(0,0,0)" stroke="none">Gęstość 25%, podział według reprezentacji</tspan></tspan></tspan></text>
 <path fill="none" stroke="rgb(0,69,134)" stroke-width="80" stroke-linejoin="round" d="M 14442,5667 L 15242,5667"/>
 <path fill="rgb(0,69,134)" stroke="none" d="M 14736,5562 L 14736,5773 14947,5773 14947,5562 14736,5562 Z"/>
 <path fill="none" stroke="rgb(0,69,134)" stroke-linejoin="round" d="M 14736,5562 L 14736,5773 14947,5773 14947,5562 14736,5562 Z"/>
 <path fill="none" stroke="rgb(255,66,14)" stroke-width="80" stroke-linejoin="round" d="M 14442,6165 L 15242,6165"/>
 <path fill="rgb(255,66,14)" stroke="none" d="M 14736,6165 L 14842,6271 14947,6165 14842,6060 14736,6165 Z"/>
 <path fill="none" stroke="rgb(255,66,14)" stroke-linejoin="round" d="M 14736,6165 L 14842,6271 14947,6165 14842,6060 14736,6165 Z"/>
 <path fill="none" stroke="rgb(255,211,32)" stroke-width="80" stroke-linejoin="round" d="M 14442,6662 L 15242,6662"/>
 <path fill="rgb(255,211,32)" stroke="none" d="M 14736,6557 L 14842,6768 14947,6557 14736,6557 Z"/>
 <path fill="none" stroke="rgb(255,211,32)" stroke-linejoin="round" d="M 14736,6557 L 14842,6768 14947,6557 14736,6557 Z"/>
 <path fill="none" stroke="rgb(87,157,28)" stroke-width="80" stroke-linejoin="round" d="M 14442,7160 L 15242,7160"/>
 <path fill="rgb(87,157,28)" stroke="none" d="M 14736,7266 L 14947,7266 14842,7055 14736,7266 Z"/>
 <path fill="none" stroke="rgb(87,157,28)" stroke-linejoin="round" d="M 14736,7266 L 14947,7266 14842,7055 14736,7266 Z"/>
 <text class="TextShape"><tspan class="TextParagraph" font-family="Liberation Sans" font-size="353px" font-weight="400"><tspan class="TextPosition" x="15342" y="5787"><tspan fill="rgb(0,0,0)" stroke="none">im_dijkstra25</tspan></tspan></tspan></text>
 <text class="TextShape"><tspan class="TextParagraph" font-family="Liberation Sans" font-size="353px" font-weight="400"><tspan class="TextPosition" x="15342" y="6285"><tspan fill="rgb(0,0,0)" stroke="none">im_bellman25</tspan></tspan></tspan></text>
 <text class="TextShape"><tspan class="TextParagraph" font-family="Liberation Sans" font-size="353px" font-weight="400"><tspan class="TextPosition" x="15342" y="6782"><tspan fill="rgb(0,0,0)" stroke="none">al_dijkstra25</tspan></tspan></tspan></text>
 <text class="TextShape"><tspan class="TextParagraph" font-family="Liberation Sans" font-size="353px" font-weight="400"><tspan class="TextPosition" x="15342" y="7280"><tspan fill="rgb(0,0,0)" stroke="none">al_bellman25</tspan></tspan></tspan></text>
 <text class="TextShape"><tspan class="TextParagraph" font-family="Liberation Sans" font-size="318px" font-weight="400"><tspan class="TextPosition" x="6319" y="12235"><tspan fill="rgb(0,0,0)" stroke="none">Ilość wierzchołków</tspan></tspan></tspan></text>
 <text class="TextShape" transform="translate(837,8658) rotate(-90) translate(-837,-8658)"><tspan class="TextParagraph" font-family="Liberation Sans" font-size="318px" font-weight="400"><tspan class="TextPosition" x="837" y="8658"><tspan fill="rgb(0,0,0)" stroke="none">Czas wykonywania [µs]</tspan></tspan></tspan></text>
</svg>