<?xml version="1.0" encoding="UTF-8"?>
<!DOCTYPE svg PUBLIC "-//W3C//DTD SVG 1.1//EN" "http://www.w3.org/Graphics/SVG/1.1/DTD/svg11.dtd">
<svg width="178mm" height="128mm" viewBox="0 0 17800 12800" version="1.1" xmlns="http://www.w3.org/2000/svg" stroke-width="28.222" stroke-linejoin="round" xml:space="preserve">
 <path fill="rgb(255,255,255)" stroke="none" d="M 8894,12829 L 0,12829 0,0 17787,0 17787,12829 8894,12829 Z"/>
 <path fill="none" stroke="rgb(179,179,179)" stroke-linejoin="round" d="M 8164,10945 L 2543,10945 2543,2565 13784,2565 13784,10945 8164,10945 Z"/>
 <path fill="none" stroke="rgb(179,179,179)" stroke-linejoin="round" d="M 13784,10944 L 2543,10944"/>
 <path fill="none" stroke="rgb(179,179,179)" stroke-linejoin="round" d="M 13784,9547 L 2543,9547"/>
 <path fill="none" stroke="rgb(179,179,179)" stroke-linejoin="round" d="M 13784,8150 L 2543,8150"/>
 <path fill="none" stroke="rgb(179,179,179)" stroke-linejoin="round" d="M 13784,6753 L 2543,6753"/>
 <path fill="none" stroke="rgb(179,179,179)" stroke-linejoin="round" d="M 13784,5357 L 2543,5357"/>
 <path fill="none" stroke="rgb(179,179,179)" stroke-linejoin="round" d="M 13784,3960 L 2543,3960"/>
 <path fill="none" stroke="rgb(179,179,179)" stroke-linejoin="round" d="M 13784,2564 L 2543,2564"/>
 <path fill="none" stroke="rgb(179,179,179)" stroke-linejoin="round" d="M 2543,11094 L 2543,10944"/>
 <path fill="none" stroke="rgb(179,179,179)" stroke-linejoin="round" d="M 2543,11094 L 2543,10944"/>
 <path fill="none" stroke="rgb(179,179,179)" stroke-linejoin="round" d="M 5353,11094 L 5353,10944"/>
 <path fill="none" stroke="rgb(179,179,179)" stroke-linejoin="round" d="M 5353,11094 L 5353,10944"/>
 <path fill="none" stroke="rgb(179,179,179)" stroke-linejoin="round" d="M 8164,11094 L 8164,10944"/>
 <path fill="none" stroke="rgb(179,179,179)" stroke-linejoin="round" d="M 8164,11094 L 8164,10944"/>
 <path fill="none" stroke="rgb(179,179,179)" stroke-linejoin="round" d="M 10973,11094 L 10973,10944"/>
 <path fill="none" stroke="rgb(179,179,179)" stroke-linejoin="round" d="M 10973,11094 L 10973,10944"/>
 <path fill="none" stroke="rgb(179,179,179)" stroke-linejoin="round" d="M 13784,11094 L 13784,10944"/>
 <path fill="none" stroke="rgb(179,179,179)" stroke-linejoin="round" d="M 13784,11094 L 13784,10944"/>
 <path fill="none" stroke="rgb(179,179,179)" stroke-linejoin="round" d="M 2543,10944 L 13784,10944"/>
 <path fill="none" stroke="rgb(179,179,179)" stroke-linejoin="round" d="M 2393,10944 L 2543,10944"/>
 <path fill="none" stroke="rgb(179,179,179)" stroke-linejoin="round" d="M 2393,10944 L 2543,10944"/>
 <path fill="none" stroke="rgb(179,179,179)" stroke-linejoin="round" d="M 2393,9547 L 2543,9547"/>
 <path fill="none" stroke="rgb(179,179,179)" stroke-linejoin="round" d="M 2393,9547 L 2543,9547"/>
 <path fill="none" stroke="rgb(179,179,179)" stroke-linejoin="round" d="M 2393,8150 L 2543,8150"/>
 <path fill="none" stroke="rgb(179,179,179)" stroke-linejoin="round" d="M 2393,8150 L 2543,8150"/>
 <path fill="none" stroke="rgb(179,179,179)" stroke-linejoin="round" d="M 2393,6753 L 2543,6753"/>
 <path fill="none" stroke="rgb(179,179,179)" stroke-linejoin="round" d="M 2393,6753 L 2543,6753"/>
 <path fill="none" stroke="rgb(179,179,179)" stroke-linejoin="round" d="M 2393,5357 L 2543,5357"/>
 <path fill="none" stroke="rgb(179,179,179)" stroke-linejoin="round" d="M 2393,5357 L 2543,5357"/>
 <path fill="none" stroke="rgb(179,179,179)" stroke-linejoin="round" d="M 2393,3960 L 2543,3960"/>
 <path fill="none" stroke="rgb(179,179,179)" stroke-linejoin="round" d="M 2393,3960 L 2543,3960"/>
 <path fill="none" stroke="rgb(179,179,179)" stroke-linejoin="round" d="M 2393,2564 L 2543,2564"/>
 <path fill="none" stroke="rgb(179,179,179)" stroke-linejoin="round" d="M 2393,2564 L 2543,2564"/>
 <path fill="none" stroke="rgb(179,179,179)" stroke-linejoin="round" d="M 2543,10944 L 2543,2564"/>
 <path fill="none" stroke="rgb(0,69,134)" stroke-width="80" stroke-linejoin="round" d="M 2543,10943 L 5353,10943 8164,10942 10973,10936 13784,10897"/>
 <path fill="rgb(0,69,134)" stroke="none" d="M 2418,10818 L 2418,11068 2668,11068 2668,10818 2418,10818 Z"/>
 <path fill="none" stroke="rgb(0,69,134)" stroke-linejoin="round" d="M 2418,10818 L 2418,11068 2668,11068 2668,10818 2418,10818 Z"/>
 <path fill="rgb(0,69,134)" stroke="none" d="M 5228,10818 L 5228,11068 5478,11068 5478,10818 5228,10818 Z"/>
 <path fill="none" stroke="rgb(0,69,134)" stroke-linejoin="round" d="M 5228,10818 L 5228,11068 5478,11068 5478,10818 5228,10818 Z"/>
 <path fill="rgb(0,69,134)" stroke="none" d="M 8039,10817 L 8039,11067 8289,11067 8289,10817 8039,10817 Z"/>
 <path fill="none" stroke="rgb(0,69,134)" stroke-linejoin="round" d="M 8039,10817 L 8039,11067 8289,11067 8289,10817 8039,10817 Z"/>
 <path fill="rgb(0,69,134)" stroke="none" d="M 10848,10811 L 10848,11061 11098,11061 11098,10811 10848,10811 Z"/>
 <path fill="none" stroke="rgb(0,69,134)" stroke-linejoin="round" d="M 10848,10811 L 10848,11061 11098,11061 11098,10811 10848,10811 Z"/>
 <path fill="rgb(0,69,134)" stroke="none" d="M 13659,10772 L 13659,11022 13909,11022 13909,10772 13659,10772 Z"/>
 <path fill="none" stroke="rgb(0,69,134)" stroke-linejoin="round" d="M 13659,10772 L 13659,11022 13909,11022 13909,10772 13659,10772 Z"/>
 <path fill="none" stroke="rgb(255,66,14)" stroke-width="80" stroke-linejoin="round" d="M 2543,10943 L 5353,10939 8164,10901 10973,10411 13784,3049"/>
 <path fill="rgb(255,66,14)" stroke="none" d="M 2418,10943 L 2543,11068 2668,10943 2543,10818 2418,10943 Z"/>
 <path fill="none" stroke="rgb(255,66,14)" stroke-linejoin="round" d="M 2418,10943 L 2543,11068 2668,10943 2543,10818 2418,10943 Z"/>
 <path fill="rgb(255,66,14)" stroke="none" d="M 5228,10939 L 5353,11064 5478,10939 5353,10814 5228,10939 Z"/>
 <path fill="none" stroke="rgb(255,66,14)" stroke-linejoin="round" d="M 5228,10939 L 5353,11064 5478,10939 5353,10814 5228,10939 Z"/>
 <path fill="rgb(255,66,14)" stroke="none" d="M 8039,10901 L 8164,11026 8289,10901 8164,10776 8039,10901 Z"/>
 <path fill="none" stroke="rgb(255,66,14)" stroke-linejoin="round" d="M 8039,10901 L 8164,11026 8289,10901 8164,10776 8039,10901 Z"/>
 <path fill="rgb(255,66,14)" stroke="none" d="M 10848,10411 L 10973,10536 11098,10411 10973,10286 10848,10411 Z"/>
 <path fill="none" stroke="rgb(255,66,14)" stroke-linejoin="round" d="M 10848,10411 L 10973,10536 11098,10411 10973,10286 10848,10411 Z"/>
 <path fill="rgb(255,66,14)" stroke="none" d="M 13659,3049 L 13784,3174 13909,3049 13784,2924 13659,3049 Z"/>
 <path fill="none" stroke="rgb(255,66,14)" stroke-linejoin="round" d="M 13659,3049 L 13784,3174 13909,3049 13784,2924 13659,3049 Z"/>
 <path fill="none" stroke="rgb(255,211,32)" stroke-width="80" stroke-linejoin="round" d="M 2543,10943 L 5353,10943 8164,10942 10973,10939 13784,10913"/>
 <path fill="rgb(255,211,32)" stroke="none" d="M 2418,10818 L 2543,11068 2668,10818 2418,10818 Z"/>
 <path fill="none" stroke="rgb(255,211,32)" stroke-linejoin="round" d="M 2418,10818 L 2543,11068 2668,10818 2418,10818 Z"/>
 <path fill="rgb(255,211,32)" stroke="none" d="M 5228,10818 L 5353,11068 5478,10818 5228,10818 Z"/>
 <path fill="none" stroke="rgb(255,211,32)" stroke-linejoin="round" d="M 5228,10818 L 5353,11068 5478,10818 5228,10818 Z"/>
 <path fill="rgb(255,211,32)" stroke="none" d="M 8039,10817 L 8164,11067 8289,10817 8039,10817 Z"/>
 <path fill="none" stroke="rgb(255,211,32)" stroke-linejoin="round" d="M 8039,10817 L 8164,11067 8289,10817 8039,10817 Z"/>
 <path fill="rgb(255,211,32)" stroke="none" d="M 10848,10814 L 10973,11064 11098,10814 10848,10814 Z"/>
 <path fill="none" stroke="rgb(255,211,32)" stroke-linejoin="round" d="M 10848,10814 L 10973,11064 11098,10814 10848,10814 Z"/>
 <path fill="rgb(255,211,32)" stroke="none" d="M 13659,10788 L 13784,11038 13909,10788 13659,10788 Z"/>
 <path fill="none" stroke="rgb(255,211,32)" stroke-linejoin="round" d="M 13659,10788 L 13784,11038 13909,10788 13659,10788 Z"/>
 <path fill="none" stroke="rgb(87,157,28)" stroke-width="80" stroke-linejoin="round" d="M 2543,10943 L 5353,10941 8164,10920 10973,10690 13784,7489"/>
 <path fill="rgb(87,157,28)" stroke="none" d="M 2418,11068 L 2668,11068 2543,10818 2418,11068 Z"/>
 <path fill="none" stroke="rgb(87,157,28)" stroke-linejoin="round" d="M 2418,11068 L 2668,11068 2543,10818 2418,11068 Z"/>
 <path fill="rgb(87,157,28)" stroke="none" d="M 5228,11066 L 5478,11066 5353,10816 5228,11066 Z"/>
 <path fill="none" stroke="rgb(87,157,28)" stroke-linejoin="round" d="M 5228,11066 L 5478,11066 5353,10816 5228,11066 Z"/>
 <path fill="rgb(87,157,28)" stroke="none" d="M 8039,11045 L 8289,11045 8164,10795 8039,11045 Z"/>
 <path fill="none" stroke="rgb(87,157,28)" stroke-linejoin="round" d="M 8039,11045 L 8289,11045 8164,10795 8039,11045 Z"/>
 <path fill="rgb(87,157,28)" stroke="none" d="M 10848,10815 L 11098,10815 10973,10565 10848,10815 Z"/>
 <path fill="none" stroke="rgb(87,157,28)" stroke-linejoin="round" d="M 10848,10815 L 11098,10815 10973,10565 10848,10815 Z"/>
 <path fill="rgb(87,157,28)" stroke="none" d="M 13659,7614 L 13909,7614 13784,7364 13659,7614 Z"/>
 <path fill="none" stroke="rgb(87,157,28)" stroke-linejoin="round" d="M 13659,7614 L 13909,7614 13784,7364 13659,7614 Z"/>
 <text class="TextShape"><tspan class="TextParagraph" font-family="Liberation Sans" font-size="353px" font-weight="400"><tspan class="TextPosition" x="2450" y="11512"><tspan fill="rgb(0,0,0)" stroke="none">4</tspan></tspan></tspan></text>
 <text class="TextShape"><tspan class="TextParagraph" font-family="Liberation Sans" font-size="353px" font-weight="400"><tspan class="TextPosition" x="5260" y="11512"><tspan fill="rgb(0,0,0)" stroke="none">8</tspan></tspan></tspan></text>
 <text class="TextShape"><tspan class="TextParagraph" font-family="Liberation Sans" font-size="353px" font-weight="400"><tspan class="TextPosition" x="7979" y="11512"><tspan fill="rgb(0,0,0)" stroke="none">16</tspan></tspan></tspan></text>
 <text class="TextShape"><tspan class="TextParagraph" font-family="Liberation Sans" font-size="353px" font-weight="400"><tspan class="TextPosition" x="10789" y="11512"><tspan fill="rgb(0,0,0)" stroke="none">32</tspan></tspan></tspan></text>
 <text class="TextShape"><tspan class="TextParagraph" font-family="Liberation Sans" font-size="353px" font-weight="400"><tspan class="TextPosition" x="13600" y="11512"><tspan fill="rgb(0,0,0)" stroke="none">64</tspan></tspan></tspan></text>
 <text class="TextShape"><tspan class="TextParagraph" font-family="Liberation Sans" font-size="353px" font-weight="400"><tspan class="TextPosition" x="2108" y="11065"><tspan fill="rgb(0,0,0)" stroke="none">0</tspan></tspan></tspan></text>
 <text class="TextShape"><tspan class="TextParagraph" font-family="Liberation Sans" font-size="353px" font-weight="400"><tspan class="TextPosition" x="1367" y="9668"><tspan fill="rgb(0,0,0)" stroke="none">10000</tspan></tspan></tspan></text>
 <text class="TextShape"><tspan class="TextParagraph" font-family="Liberation Sans" font-size="353px" font-weight="400"><tspan class="TextPosition" x="1367" y="8271"><tspan fill="rgb(0,0,0)" stroke="none">20000</tspan></tspan></tspan></text>
 <text class="TextShape"><tspan class="TextParagraph" font-family="Liberation Sans" font-size="353px" font-weight="400"><tspan class="TextPosition" x="1367" y="6874"><tspan fill="rgb(0,0,0)" stroke="none">30000</tspan></tspan></tspan></text>
 <text class="TextShape"><tspan class="TextParagraph" font-family="Liberation Sans" font-size="353px" font-weight="400"><tspan class="TextPosition" x="1367" y="5477"><tspan fill="rgb(0,0,0)" stroke="none">40000</tspan></tspan></tspan></text>
 <text class="TextShape"><tspan class="TextParagraph" font-family="Liberation Sans" font-size="353px" font-weight="400"><tspan class="TextPosition" x="1367" y="4080"><tspan fill="rgb(0,0,0)" stroke="none">50000</tspan></tspan></tspan></text>
 <text class="TextShape"><tspan class="TextParagraph" font-family="Liberation Sans" font-size="353px" font-weight="400"><tspan class="TextPosition" x="1367" y="2684"><tspan fill="rgb(0,0,0)" stroke="none">60000</tspan></tspan></tspan></text>
 <text class="TextShape"><tspan class="TextParagraph" font-family="Liberation Sans" font-size="459px" font-weight="400"><tspan class="TextPosition" x="6142" y="927"><tspan fill="rgb(0,0,0)" stroke="none">Najkrótsza ścieżka w grafie</tspan></tspan></tspan></text>
 <text class="TextShape"><tspan class="TextParagraph" font-family="Liberation Sans" font-size="388px" font-weight="400"><tspan class="TextPosition" x="5176" y="1913"><tspan fill="rgb(0,0,0)" stroke="none">Gęstość 75%, podział według reprezentacji</tspan></tspan></tspan></text>
 <path fill="none" stroke="rgb(0,69,134)" stroke-width="80" stroke-linejoin="round" d="M 14442,5667 L 15242,5667"/>
 <path fill="rgb(0,69,134)" stroke="none" d="M 14736,5562 L 14736,5773 14947,5773 14947,5562 14736,5562 Z"/>
 <path fill="none" stroke="rgb(0,69,134)" stroke-linejoin="round" d="M 14736,5562 L 14736,5773 14947,5773 14947,5562 14736,5562 Z"/>
 <path fill="none" stroke="rgb(255,66,14)" stroke-width="80" stroke-linejoin="round" d="M 14442,6165 L 15242,6165"/>
 <path fill="rgb(255,66,14)" stroke="none" d="M 14736,6165 L 14842,6271 14947,6165 14842,6060 14736,6165 Z"/>
 <path fill="none" stroke="rgb(255,66,14)" stroke-linejoin="round" d="M 14736,6165 L 14842,6271 14947,6165 14842,6060 14736,6165 Z"/>
 <path fill="none" stroke="rgb(255,211,32)" stroke-width="80" stroke-linejoin="round" d="M 14442,6662 L 15242,6662"/>
 <path fill="rgb(255,211,32)" stroke="none" d="M 14736,6557 L 14842,6768 14947,6557 14736,6557 Z"/>
 <path fill="none" stroke="rgb(255,211,32)" stroke-linejoin="round" d="M 14736,6557 L 14842,6768 14947,6557 14736,6557 Z"/>
 <path fill="none" stroke="rgb(87,157,28)" stroke-width="80" stroke-linejoin="round" d="M 14442,7160 L 15242,7160"/>
 <path fill="rgb(87,157,28)" stroke="none" d="M 14736,7266 L 14947,7266 14842,7055 14736,7266 Z"/>
 <path fill="none" stroke="rgb(87,157,28)" stroke-linejoin="round" d="M 14736,7266 L 14947,7266 14842,7055 14736,7266 Z"/>
 <text class="TextShape"><tspan class="TextParagraph" font-family="Liberation Sans" font-size="353px" font-weight="400"><tspan class="TextPosition" x="15342" y="5787"><tspan fill="rgb(0,0,0)" stroke="none">im_dijkstra75</tspan></tspan></tspan></text>
 <text class="TextShape"><tspan class="TextParagraph" font-family="Liberation Sans" font-size="353px" font-weight="400"><tspan class="TextPosition" x="15342" y="6285"><tspan fill="rgb(0,0,0)" stroke="none">im_bellman75</tspan></tspan></tspan></text>
 <text class="TextShape"><tspan class="TextParagraph" font-family="Liberation Sans" font-size="353px" font-weight="400"><tspan class="TextPosition" x="15342" y="6782"><tspan fill="rgb(0,0,0)" stroke="none">al_dijkstra75</tspan></tspan></tspan></text>
 <text class="TextShape"><tspan class="TextParagraph" font-family="Liberation Sans" font-size="353px" font-weight="400"><tspan class="TextPosition" x="15342" y="7280"><tspan fill="rgb(0,0,0)" stroke="none">al_bellman75</tspan></tspan></tspan></text>
 <text class="TextShape"><tspan class="TextParagraph" font-family="Liberation Sans" font-size="318px" font-weight="400"><tspan class="TextPosition" x="6319" y="12235"><tspan fill="rgb(0,0,0)" stroke="none">Ilość wierzchołków</tspan></tspan></tspan></text>
 <text class="TextShape" transform="translate(837,8658) rotate(-90) translate(-837,-8658)"><tspan class="TextParagraph" font-family="Liberation Sans" font-size="318px" font-weight="400"><tspan class="TextPosition" x="837" y="8658"><tspan fill="rgb(0,0,0)" stroke="none">Czas wykonywania [µs]</tspan></tspan></tspan></text>
</svg>