<?xml version="1.0" encoding="UTF-8"?>
<!DOCTYPE svg PUBLIC "-//W3C//DTD SVG 1.1//EN" "http://www.w3.org/Graphics/SVG/1.1/DTD/svg11.dtd">
<svg width="178mm" height="128mm" viewBox="0 0 17800 12800" version="1.1" xmlns="http://www.w3.org/2000/svg" stroke-width="28.222" stroke-linejoin="round" xml:space="preserve">
 <path fill="rgb(255,255,255)" stroke="none" d="M 8894,12829 L 0,12829 0,0 17787,0 17787,12829 8894,12829 Z"/>
 <path fill="none" stroke="rgb(179,179,179)" stroke-linejoin="round" d="M 8164,10945 L 2543,10945 2543,2565 13784,2565 13784,10945 8164,10945 Z"/>
 <path fill="none" stroke="rgb(179,179,179)" stroke-linejoin="round" d="M 13784,10944 L 2543,10944"/>
 <path fill="none" stroke="rgb(179,179,179)" stroke-linejoin="round" d="M 13784,9746 L 2543,9746"/>
 <path fill="none" stroke="rgb(179,179,179)" stroke-linejoin="round" d="M 13784,8549 L 2543,8549"/>
 <path fill="none" stroke="rgb(179,179,179)" stroke-linejoin="round" d="M 13784,7352 L 2543,7352"/>
 <path fill="none" stroke="rgb(179,179,179)" stroke-linejoin="round" d="M 13784,6155 L 2543,6155"/>
 <path fill="none" stroke="rgb(179,179,179)" stroke-linejoin="round" d="M 13784,4958 L 2543,4958"/>
 <path fill="none" stroke="rgb(179,179,179)" stroke-linejoin="round" d="M 13784,3761 L 2543,3761"/>
 <path fill="none" stroke="rgb(179,179,179)" stroke-linejoin="round" d="M 13784,2564 L 2543,2564"/>
 <path fill="none" stroke="rgb(179,179,179)" stroke-linejoin="round" d="M 2543,11094 L 2543,10944"/>
 <path fill="none" stroke="rgb(179,179,179)" stroke-linejoin="round" d="M 2543,11094 L 2543,10944"/>
 <path fill="none" stroke="rgb(179,179,179)" stroke-linejoin="round" d="M 5353,11094 L 5353,10944"/>
 <path fill="none" stroke="rgb(179,179,179)" stroke-linejoin="round" d="M 5353,11094 L 5353,10944"/>
 <path fill="none" stroke="rgb(179,179,179)" stroke-linejoin="round" d="M 8164,11094 L 8164,10944"/>
 <path fill="none" stroke="rgb(179,179,179)" stroke-linejoin="round" d="M 8164,11094 L 8164,10944"/>
 <path fill="none" stroke="rgb(179,179,179)" stroke-linejoin="round" d="M 10973,11094 L 10973,10944"/>
 <path fill="none" stroke="rgb(179,179,179)" stroke-linejoin="round" d="M 10973,11094 L 10973,10944"/>
 <path fill="none" stroke="rgb(179,179,179)" stroke-linejoin="round" d="M 13784,11094 L 13784,10944"/>
 <path fill="none" stroke="rgb(179,179,179)" stroke-linejoin="round" d="M 13784,11094 L 13784,10944"/>
 <path fill="none" stroke="rgb(179,179,179)" stroke-linejoin="round" d="M 2543,10944 L 13784,10944"/>
 <path fill="none" stroke="rgb(179,179,179)" stroke-linejoin="round" d="M 2393,10944 L 2543,10944"/>
 <path fill="none" stroke="rgb(179,179,179)" stroke-linejoin="round" d="M 2393,10944 L 2543,10944"/>
 <path fill="none" stroke="rgb(179,179,179)" stroke-linejoin="round" d="M 2393,9746 L 2543,9746"/>
 <path fill="none" stroke="rgb(179,179,179)" stroke-linejoin="round" d="M 2393,9746 L 2543,9746"/>
 <path fill="none" stroke="rgb(179,179,179)" stroke-linejoin="round" d="M 2393,8549 L 2543,8549"/>
 <path fill="none" stroke="rgb(179,179,179)" stroke-linejoin="round" d="M 2393,8549 L 2543,8549"/>
 <path fill="none" stroke="rgb(179,179,179)" stroke-linejoin="round" d="M 2393,7352 L 2543,7352"/>
 <path fill="none" stroke="rgb(179,179,179)" stroke-linejoin="round" d="M 2393,7352 L 2543,7352"/>
 <path fill="none" stroke="rgb(179,179,179)" stroke-linejoin="round" d="M 2393,6155 L 2543,6155"/>
 <path fill="none" stroke="rgb(179,179,179)" stroke-linejoin="round" d="M 2393,6155 L 2543,6155"/>
 <path fill="none" stroke="rgb(179,179,179)" stroke-linejoin="round" d="M 2393,4958 L 2543,4958"/>
 <path fill="none" stroke="rgb(179,179,179)" stroke-linejoin="round" d="M 2393,4958 L 2543,4958"/>
 <path fill="none" stroke="rgb(179,179,179)" stroke-linejoin="round" d="M 2393,3761 L 2543,3761"/>
 <path fill="none" stroke="rgb(179,179,179)" stroke-linejoin="round" d="M 2393,3761 L 2543,3761"/>
 <path fill="none" stroke="rgb(179,179,179)" stroke-linejoin="round" d="M 2393,2564 L 2543,2564"/>
 <path fill="none" stroke="rgb(179,179,179)" stroke-linejoin="round" d="M 2393,2564 L 2543,2564"/>
 <path fill="none" stroke="rgb(179,179,179)" stroke-linejoin="round" d="M 2543,10944 L 2543,2564"/>
 <path fill="none" stroke="rgb(0,69,134)" stroke-width="80" stroke-linejoin="round" d="M 2543,10943 L 5353,10943 8164,10943 10973,10940 13784,10921"/>
 <path fill="rgb(0,69,134)" stroke="none" d="M 2418,10818 L 2418,11068 2668,11068 2668,10818 2418,10818 Z"/>
 <path fill="none" stroke="rgb(0,69,134)" stroke-linejoin="round" d="M 2418,10818 L 2418,11068 2668,11068 2668,10818 2418,10818 Z"/>
 <path fill="rgb(0,69,134)" stroke="none" d="M 5228,10818 L 5228,11068 5478,11068 5478,10818 5228,10818 Z"/>
 <path fill="none" stroke="rgb(0,69,134)" stroke-linejoin="round" d="M 5228,10818 L 5228,11068 5478,11068 5478,10818 5228,10818 Z"/>
 <path fill="rgb(0,69,134)" stroke="none" d="M 8039,10818 L 8039,11068 8289,11068 8289,10818 8039,10818 Z"/>
 <path fill="none" stroke="rgb(0,69,134)" stroke-linejoin="round" d="M 8039,10818 L 8039,11068 8289,11068 8289,10818 8039,10818 Z"/>
 <path fill="rgb(0,69,134)" stroke="none" d="M 10848,10815 L 10848,11065 11098,11065 11098,10815 10848,10815 Z"/>
 <path fill="none" stroke="rgb(0,69,134)" stroke-linejoin="round" d="M 10848,10815 L 10848,11065 11098,11065 11098,10815 10848,10815 Z"/>
 <path fill="rgb(0,69,134)" stroke="none" d="M 13659,10796 L 13659,11046 13909,11046 13909,10796 13659,10796 Z"/>
 <path fill="none" stroke="rgb(0,69,134)" stroke-linejoin="round" d="M 13659,10796 L 13659,11046 13909,11046 13909,10796 13659,10796 Z"/>
 <path fill="none" stroke="rgb(255,66,14)" stroke-width="80" stroke-linejoin="round" d="M 2543,10943 L 5353,10942 8164,10926 10973,10729 13784,7803"/>
 <path fill="rgb(255,66,14)" stroke="none" d="M 2418,10943 L 2543,11068 2668,10943 2543,10818 2418,10943 Z"/>
 <path fill="none" stroke="rgb(255,66,14)" stroke-linejoin="round" d="M 2418,10943 L 2543,11068 2668,10943 2543,10818 2418,10943 Z"/>
 <path fill="rgb(255,66,14)" stroke="none" d="M 5228,10942 L 5353,11067 5478,10942 5353,10817 5228,10942 Z"/>
 <path fill="none" stroke="rgb(255,66,14)" stroke-linejoin="round" d="M 5228,10942 L 5353,11067 5478,10942 5353,10817 5228,10942 Z"/>
 <path fill="rgb(255,66,14)" stroke="none" d="M 8039,10926 L 8164,11051 8289,10926 8164,10801 8039,10926 Z"/>
 <path fill="none" stroke="rgb(255,66,14)" stroke-linejoin="round" d="M 8039,10926 L 8164,11051 8289,10926 8164,10801 8039,10926 Z"/>
 <path fill="rgb(255,66,14)" stroke="none" d="M 10848,10729 L 10973,10854 11098,10729 10973,10604 10848,10729 Z"/>
 <path fill="none" stroke="rgb(255,66,14)" stroke-linejoin="round" d="M 10848,10729 L 10973,10854 11098,10729 10973,10604 10848,10729 Z"/>
 <path fill="rgb(255,66,14)" stroke="none" d="M 13659,7803 L 13784,7928 13909,7803 13784,7678 13659,7803 Z"/>
 <path fill="none" stroke="rgb(255,66,14)" stroke-linejoin="round" d="M 13659,7803 L 13784,7928 13909,7803 13784,7678 13659,7803 Z"/>
 <path fill="none" stroke="rgb(255,211,32)" stroke-width="80" stroke-linejoin="round" d="M 2543,10943 L 5353,10943 8164,10943 10973,10939 13784,10905"/>
 <path fill="rgb(255,211,32)" stroke="none" d="M 2418,10818 L 2543,11068 2668,10818 2418,10818 Z"/>
 <path fill="none" stroke="rgb(255,211,32)" stroke-linejoin="round" d="M 2418,10818 L 2543,11068 2668,10818 2418,10818 Z"/>
 <path fill="rgb(255,211,32)" stroke="none" d="M 5228,10818 L 5353,11068 5478,10818 5228,10818 Z"/>
 <path fill="none" stroke="rgb(255,211,32)" stroke-linejoin="round" d="M 5228,10818 L 5353,11068 5478,10818 5228,10818 Z"/>
 <path fill="rgb(255,211,32)" stroke="none" d="M 8039,10818 L 8164,11068 8289,10818 8039,10818 Z"/>
 <path fill="none" stroke="rgb(255,211,32)" stroke-linejoin="round" d="M 8039,10818 L 8164,11068 8289,10818 8039,10818 Z"/>
 <path fill="rgb(255,211,32)" stroke="none" d="M 10848,10814 L 10973,11064 11098,10814 10848,10814 Z"/>
 <path fill="none" stroke="rgb(255,211,32)" stroke-linejoin="round" d="M 10848,10814 L 10973,11064 11098,10814 10848,10814 Z"/>
 <path fill="rgb(255,211,32)" stroke="none" d="M 13659,10780 L 13784,11030 13909,10780 13659,10780 Z"/>
 <path fill="none" stroke="rgb(255,211,32)" stroke-linejoin="round" d="M 13659,10780 L 13784,11030 13909,10780 13659,10780 Z"/>
 <path fill="none" stroke="rgb(87,157,28)" stroke-width="80" stroke-linejoin="round" d="M 2543,10943 L 5353,10941 8164,10914 10973,10571 13784,5512"/>
 <path fill="rgb(87,157,28)" stroke="none" d="M 2418,11068 L 2668,11068 2543,10818 2418,11068 Z"/>
 <path fill="none" stroke="rgb(87,157,28)" stroke-linejoin="round" d="M 2418,11068 L 2668,11068 2543,10818 2418,11068 Z"/>
 <path fill="rgb(87,157,28)" stroke="none" d="M 5228,11066 L 5478,11066 5353,10816 5228,11066 Z"/>
 <path fill="none" stroke="rgb(87,157,28)" stroke-linejoin="round" d="M 5228,11066 L 5478,11066 5353,10816 5228,11066 Z"/>
 <path fill="rgb(87,157,28)" stroke="none" d="M 8039,11039 L 8289,11039 8164,10789 8039,11039 Z"/>
 <path fill="none" stroke="rgb(87,157,28)" stroke-linejoin="round" d="M 8039,11039 L 8289,11039 8164,10789 8039,11039 Z"/>
 <path fill="rgb(87,157,28)" stroke="none" d="M 10848,10696 L 11098,10696 10973,10446 10848,10696 Z"/>
 <path fill="none" stroke="rgb(87,157,28)" stroke-linejoin="round" d="M 10848,10696 L 11098,10696 10973,10446 10848,10696 Z"/>
 <path fill="rgb(87,157,28)" stroke="none" d="M 13659,5637 L 13909,5637 13784,5387 13659,5637 Z"/>
 <path fill="none" stroke="rgb(87,157,28)" stroke-linejoin="round" d="M 13659,5637 L 13909,5637 13784,5387 13659,5637 Z"/>
 <path fill="none" stroke="rgb(126,0,33)" stroke-width="80" stroke-linejoin="round" d="M 2543,10943 L 5353,10943 8164,10942 10973,10937 13784,10904"/>
 <path fill="rgb(126,0,33)" stroke="none" d="M 2418,10818 L 2418,11068 2668,10943 2418,10818 Z"/>
 <path fill="none" stroke="rgb(126,0,33)" stroke-linejoin="round" d="M 2418,10818 L 2418,11068 2668,10943 2418,10818 Z"/>
 <path fill="rgb(126,0,33)" stroke="none" d="M 5228,10818 L 5228,11068 5478,10943 5228,10818 Z"/>
 <path fill="none" stroke="rgb(126,0,33)" stroke-linejoin="round" d="M 5228,10818 L 5228,11068 5478,10943 5228,10818 Z"/>
 <path fill="rgb(126,0,33)" stroke="none" d="M 8039,10817 L 8039,11067 8289,10942 8039,10817 Z"/>
 <path fill="none" stroke="rgb(126,0,33)" stroke-linejoin="round" d="M 8039,10817 L 8039,11067 8289,10942 8039,10817 Z"/>
 <path fill="rgb(126,0,33)" stroke="none" d="M 10848,10812 L 10848,11062 11098,10937 10848,10812 Z"/>
 <path fill="none" stroke="rgb(126,0,33)" stroke-linejoin="round" d="M 10848,10812 L 10848,11062 11098,10937 10848,10812 Z"/>
 <path fill="rgb(126,0,33)" stroke="none" d="M 13659,10779 L 13659,11029 13909,10904 13659,10779 Z"/>
 <path fill="none" stroke="rgb(126,0,33)" stroke-linejoin="round" d="M 13659,10779 L 13659,11029 13909,10904 13659,10779 Z"/>
 <path fill="none" stroke="rgb(131,202,255)" stroke-width="80" stroke-linejoin="round" d="M 2543,10943 L 5353,10940 8164,10907 10973,10487 13784,4177"/>
 <path fill="rgb(131,202,255)" stroke="none" d="M 2418,10943 L 2668,11068 2668,10818 2418,10943 Z"/>
 <path fill="none" stroke="rgb(131,202,255)" stroke-linejoin="round" d="M 2418,10943 L 2668,11068 2668,10818 2418,10943 Z"/>
 <path fill="rgb(131,202,255)" stroke="none" d="M 5228,10940 L 5478,11065 5478,10815 5228,10940 Z"/>
 <path fill="none" stroke="rgb(131,202,255)" stroke-linejoin="round" d="M 5228,10940 L 5478,11065 5478,10815 5228,10940 Z"/>
 <path fill="rgb(131,202,255)" stroke="none" d="M 8039,10907 L 8289,11032 8289,10782 8039,10907 Z"/>
 <path fill="none" stroke="rgb(131,202,255)" stroke-linejoin="round" d="M 8039,10907 L 8289,11032 8289,10782 8039,10907 Z"/>
 <path fill="rgb(131,202,255)" stroke="none" d="M 10848,10487 L 11098,10612 11098,10362 10848,10487 Z"/>
 <path fill="none" stroke="rgb(131,202,255)" stroke-linejoin="round" d="M 10848,10487 L 11098,10612 11098,10362 10848,10487 Z"/>
 <path fill="rgb(131,202,255)" stroke="none" d="M 13659,4177 L 13909,4302 13909,4052 13659,4177 Z"/>
 <path fill="none" stroke="rgb(131,202,255)" stroke-linejoin="round" d="M 13659,4177 L 13909,4302 13909,4052 13659,4177 Z"/>
 <path fill="none" stroke="rgb(49,64,4)" stroke-width="80" stroke-linejoin="round" d="M 2543,10943 L 5353,10943 8164,10942 10973,10938 13784,10893"/>
 <path fill="rgb(49,64,4)" stroke="none" d="M 2418,10818 L 2418,11068 2668,10818 2668,11068 2418,10818 Z"/>
 <path fill="none" stroke="rgb(49,64,4)" stroke-linejoin="round" d="M 2418,10818 L 2418,11068 2668,10818 2668,11068 2418,10818 Z"/>
 <path fill="rgb(49,64,4)" stroke="none" d="M 5228,10818 L 5228,11068 5478,10818 5478,11068 5228,10818 Z"/>
 <path fill="none" stroke="rgb(49,64,4)" stroke-linejoin="round" d="M 5228,10818 L 5228,11068 5478,10818 5478,11068 5228,10818 Z"/>
 <path fill="rgb(49,64,4)" stroke="none" d="M 8039,10817 L 8039,11067 8289,10817 8289,11067 8039,10817 Z"/>
 <path fill="none" stroke="rgb(49,64,4)" stroke-linejoin="round" d="M 8039,10817 L 8039,11067 8289,10817 8289,11067 8039,10817 Z"/>
 <path fill="rgb(49,64,4)" stroke="none" d="M 10848,10813 L 10848,11063 11098,10813 11098,11063 10848,10813 Z"/>
 <path fill="none" stroke="rgb(49,64,4)" stroke-linejoin="round" d="M 10848,10813 L 10848,11063 11098,10813 11098,11063 10848,10813 Z"/>
 <path fill="rgb(49,64,4)" stroke="none" d="M 13659,10768 L 13659,11018 13909,10768 13909,11018 13659,10768 Z"/>
 <path fill="none" stroke="rgb(49,64,4)" stroke-linejoin="round" d="M 13659,10768 L 13659,11018 13909,10768 13909,11018 13659,10768 Z"/>
 <path fill="none" stroke="rgb(174,207,0)" stroke-width="80" stroke-linejoin="round" d="M 2543,10943 L 5353,10940 8164,10903 10973,10454 13784,3687"/>
 <path fill="rgb(174,207,0)" stroke="none" d="M 2418,11068 L 2668,11068 2418,10818 2668,10818 2418,11068 Z"/>
 <path fill="none" stroke="rgb(174,207,0)" stroke-linejoin="round" d="M 2418,11068 L 2668,11068 2418,10818 2668,10818 2418,11068 Z"/>
 <path fill="rgb(174,207,0)" stroke="none" d="M 5228,11065 L 5478,11065 5228,10815 5478,10815 5228,11065 Z"/>
 <path fill="none" stroke="rgb(174,207,0)" stroke-linejoin="round" d="M 5228,11065 L 5478,11065 5228,10815 5478,10815 5228,11065 Z"/>
 <path fill="rgb(174,207,0)" stroke="none" d="M 8039,11028 L 8289,11028 8039,10778 8289,10778 8039,11028 Z"/>
 <path fill="none" stroke="rgb(174,207,0)" stroke-linejoin="round" d="M 8039,11028 L 8289,11028 8039,10778 8289,10778 8039,11028 Z"/>
 <path fill="rgb(174,207,0)" stroke="none" d="M 10848,10579 L 11098,10579 10848,10329 11098,10329 10848,10579 Z"/>
 <path fill="none" stroke="rgb(174,207,0)" stroke-linejoin="round" d="M 10848,10579 L 11098,10579 10848,10329 11098,10329 10848,10579 Z"/>
 <path fill="rgb(174,207,0)" stroke="none" d="M 13659,3812 L 13909,3812 13659,3562 13909,3562 13659,3812 Z"/>
 <path fill="none" stroke="rgb(174,207,0)" stroke-linejoin="round" d="M 13659,3812 L 13909,3812 13659,3562 13909,3562 13659,3812 Z"/>
 <text class="TextShape"><tspan class="TextParagraph" font-family="Liberation Sans" font-size="353px" font-weight="400"><tspan class="TextPosition" x="2450" y="11512"><tspan fill="rgb(0,0,0)" stroke="none">4</tspan></tspan></tspan></text>
 <text class="TextShape"><tspan class="TextParagraph" font-family="Liberation Sans" font-size="353px" font-weight="400"><tspan class="TextPosition" x="5260" y="11512"><tspan fill="rgb(0,0,0)" stroke="none">8</tspan></tspan></tspan></text>
 <text class="TextShape"><tspan class="TextParagraph" font-family="Liberation Sans" font-size="353px" font-weight="400"><tspan class="TextPosition" x="7979" y="11512"><tspan fill="rgb(0,0,0)" stroke="none">16</tspan></tspan></tspan></text>
 <text class="TextShape"><tspan class="TextParagraph" font-family="Liberation Sans" font-size="353px" font-weight="400"><tspan class="TextPosition" x="10789" y="11512"><tspan fill="rgb(0,0,0)" stroke="none">32</tspan></tspan></tspan></text>
 <text class="TextShape"><tspan class="TextParagraph" font-family="Liberation Sans" font-size="353px" font-weight="400"><tspan class="TextPosition" x="13600" y="11512"><tspan fill="rgb(0,0,0)" stroke="none">64</tspan></tspan></tspan></text>
 <text class="TextShape"><tspan class="TextParagraph" font-family="Liberation Sans" font-size="353px" font-weight="400"><tspan class="TextPosition" x="2108" y="11065"><tspan fill="rgb(0,0,0)" stroke="none">0</tspan></tspan></tspan></text>
 <text class="TextShape"><tspan class="TextParagraph" font-family="Liberation Sans" font-size="353px" font-weight="400"><tspan class="TextPosition" x="1367" y="9867"><tspan fill="rgb(0,0,0)" stroke="none">10000</tspan></tspan></tspan></text>
 <text class="TextShape"><tspan class="TextParagraph" font-family="Liberation Sans" font-size="353px" font-weight="400"><tspan class="TextPosition" x="1367" y="8670"><tspan fill="rgb(0,0,0)" stroke="none">20000</tspan></tspan></tspan></text>
 <text class="TextShape"><tspan class="TextParagraph" font-family="Liberation Sans" font-size="353px" font-weight="400"><tspan class="TextPosition" x="1367" y="7473"><tspan fill="rgb(0,0,0)" stroke="none">30000</tspan></tspan></tspan></text>
 <text class="TextShape"><tspan class="TextParagraph" font-family="Liberation Sans" font-size="353px" font-weight="400"><tspan class="TextPosition" x="1367" y="6275"><tspan fill="rgb(0,0,0)" stroke="none">40000</tspan></tspan></tspan></text>
 <text class="TextShape"><tspan class="TextParagraph" font-family="Liberation Sans" font-size="353px" font-weight="400"><tspan class="TextPosition" x="1367" y="5078"><tspan fill="rgb(0,0,0)" stroke="none">50000</tspan></tspan></tspan></text>
 <text class="TextShape"><tspan class="TextParagraph" font-family="Liberation Sans" font-size="353px" font-weight="400"><tspan class="TextPosition" x="1367" y="3881"><tspan fill="rgb(0,0,0)" stroke="none">60000</tspan></tspan></tspan></text>
 <text class="TextShape"><tspan class="TextParagraph" font-family="Liberation Sans" font-size="353px" font-weight="400"><tspan class="TextPosition" x="1367" y="2684"><tspan fill="rgb(0,0,0)" stroke="none">70000</tspan></tspan></tspan></text>
 <text class="TextShape"><tspan class="TextParagraph" font-family="Liberation Sans" font-size="459px" font-weight="400"><tspan class="TextPosition" x="6142" y="927"><tspan fill="rgb(0,0,0)" stroke="none">Najkrótsza ścieżka w grafie</tspan></tspan></tspan></text>
 <text class="TextShape"><tspan class="TextParagraph" font-family="Liberation Sans" font-size="388px" font-weight="400"><tspan class="TextPosition" x="5123" y="1913"><tspan fill="rgb(0,0,0)" stroke="none">Macierz incydencji, podział według gęstości</tspan></tspan></tspan></text>
 <path fill="none" stroke="rgb(0,69,134)" stroke-width="80" stroke-linejoin="round" d="M 14442,4671 L 15242,4671"/>
 <path fill="rgb(0,69,134)" stroke="none" d="M 14736,4566 L 14736,4777 14947,4777 14947,4566 14736,4566 Z"/>
 <path fill="none" stroke="rgb(0,69,134)" stroke-linejoin="round" d="M 14736,4566 L 14736,4777 14947,4777 14947,4566 14736,4566 Z"/>
 <path fill="none" stroke="rgb(255,66,14)" stroke-width="80" stroke-linejoin="round" d="M 14442,5169 L 15242,5169"/>
 <path fill="rgb(255,66,14)" stroke="none" d="M 14736,5169 L 14842,5275 14947,5169 14842,5064 14736,5169 Z"/>
 <path fill="none" stroke="rgb(255,66,14)" stroke-linejoin="round" d="M 14736,5169 L 14842,5275 14947,5169 14842,5064 14736,5169 Z"/>
 <path fill="none" stroke="rgb(255,211,32)" stroke-width="80" stroke-linejoin="round" d="M 14442,5667 L 15242,5667"/>
 <path fill="rgb(255,211,32)" stroke="none" d="M 14736,5562 L 14842,5773 14947,5562 14736,5562 Z"/>
 <path fill="none" stroke="rgb(255,211,32)" stroke-linejoin="round" d="M 14736,5562 L 14842,5773 14947,5562 14736,5562 Z"/>
 <path fill="none" stroke="rgb(87,157,28)" stroke-width="80" stroke-linejoin="round" d="M 14442,6165 L 15242,6165"/>
 <path fill="rgb(87,157,28)" stroke="none" d="M 14736,6271 L 14947,6271 14842,6060 14736,6271 Z"/>
 <path fill="none" stroke="rgb(87,157,28)" stroke-linejoin="round" d="M 14736,6271 L 14947,6271 14842,6060 14736,6271 Z"/>
 <path fill="none" stroke="rgb(126,0,33)" stroke-width="80" stroke-linejoin="round" d="M 14442,6662 L 15242,6662"/>
 <path fill="rgb(126,0,33)" stroke="none" d="M 14736,6557 L 14736,6768 14947,6662 14736,6557 Z"/>
 <path fill="none" stroke="rgb(126,0,33)" stroke-linejoin="round" d="M 14736,6557 L 14736,6768 14947,6662 14736,6557 Z"/>
 <path fill="none" stroke="rgb(131,202,255)" stroke-width="80" stroke-linejoin="round" d="M 14442,7160 L 15242,7160"/>
 <path fill="rgb(131,202,255)" stroke="none" d="M 14736,7160 L 14947,7266 14947,7055 14736,7160 Z"/>
 <path fill="none" stroke="rgb(131,202,255)" stroke-linejoin="round" d="M 14736,7160 L 14947,7266 14947,7055 14736,7160 Z"/>
 <path fill="none" stroke="rgb(49,64,4)" stroke-width="80" stroke-linejoin="round" d="M 14442,7658 L 15242,7658"/>
 <path fill="rgb(49,64,4)" stroke="none" d="M 14736,7553 L 14736,7764 14947,7553 14947,7764 14736,7553 Z"/>
 <path fill="none" stroke="rgb(49,64,4)" stroke-linejoin="round" d="M 14736,7553 L 14736,7764 14947,7553 14947,7764 14736,7553 Z"/>
 <path fill="none" stroke="rgb(174,207,0)" stroke-width="80" stroke-linejoin="round" d="M 14442,8156 L 15242,8156"/>
 <path fill="rgb(174,207,0)" stroke="none" d="M 14736,8262 L 14947,8262 14736,8051 14947,8051 14736,8262 Z"/>
 <path fill="none" stroke="rgb(174,207,0)" stroke-linejoin="round" d="M 14736,8262 L 14947,8262 14736,8051 14947,8051 14736,8262 Z"/>
 <text class="TextShape"><tspan class="TextParagraph" font-family="Liberation Sans" font-size="353px" font-weight="400"><tspan class="TextPosition" x="15342" y="4791"><tspan fill="rgb(0,0,0)" stroke="none">im_dijkstra25</tspan></tspan></tspan></text>
 <text class="TextShape"><tspan class="TextParagraph" font-family="Liberation Sans" font-size="353px" font-weight="400"><tspan class="TextPosition" x="15342" y="5289"><tspan fill="rgb(0,0,0)" stroke="none">im_bellman25</tspan></tspan></tspan></text>
 <text class="TextShape"><tspan class="TextParagraph" font-family="Liberation Sans" font-size="353px" font-weight="400"><tspan class="TextPosition" x="15342" y="5787"><tspan fill="rgb(0,0,0)" stroke="none">im_dijkstra50</tspan></tspan></tspan></text>
 <text class="TextShape"><tspan class="TextParagraph" font-family="Liberation Sans" font-size="353px" font-weight="400"><tspan class="TextPosition" x="15342" y="6285"><tspan fill="rgb(0,0,0)" stroke="none">im_bellman50</tspan></tspan></tspan></text>
 <text class="TextShape"><tspan class="TextParagraph" font-family="Liberation Sans" font-size="353px" font-weight="400"><tspan class="TextPosition" x="15342" y="6782"><tspan fill="rgb(0,0,0)" stroke="none">im_dijkstra75</tspan></tspan></tspan></text>
 <text class="TextShape"><tspan class="TextParagraph" font-family="Liberation Sans" font-size="353px" font-weight="400"><tspan class="TextPosition" x="15342" y="7280"><tspan fill="rgb(0,0,0)" stroke="none">im_bellman75</tspan></tspan></tspan></text>
 <text class="TextShape"><tspan class="TextParagraph" font-family="Liberation Sans" font-size="353px" font-weight="400"><tspan class="TextPosition" x="15342" y="7778"><tspan fill="rgb(0,0,0)" stroke="none">im_dijkstra99</tspan></tspan></tspan></text>
 <text class="TextShape"><tspan class="TextParagraph" font-family="Liberation Sans" font-size="353px" font-weight="400"><tspan class="TextPosition" x="15342" y="8276"><tspan fill="rgb(0,0,0)" stroke="none">im_bellman99</tspan></tspan></tspan></text>
 <text class="TextShape"><tspan class="TextParagraph" font-family="Liberation Sans" font-size="318px" font-weight="400"><tspan class="TextPosition" x="6319" y="12235"><tspan fill="rgb(0,0,0)" stroke="none">Ilość wierzchołków</tspan></tspan></tspan></text>
 <text class="TextShape" transform="translate(837,8658) rotate(-90) translate(-837,-8658)"><tspan class="TextParagraph" font-family="Liberation Sans" font-size="318px" font-weight="400"><tspan class="TextPosition" x="837" y="8658"><tspan fill="rgb(0,0,0)" stroke="none">Czas wykonywania [µs]</tspan></tspan></tspan></text>
</svg>