<svg version="1.1" viewBox="0.0 0.0 933.0 577.0" fill="none" stroke="none" stroke-linecap="square" stroke-miterlimit="10" width="933" height="577" xmlns:xlink="http://www.w3.org/1999/xlink" xmlns="http://www.w3.org/2000/svg"><path fill="#ffffff" d="M0 0L933.0 0L933.0 577.0L0 577.0L0 0Z" fill-rule="nonzero"/><path fill="#ffffff" fill-opacity="0.0" d="M0 0L933.0 0L933.0 577.0L0 577.0L0 0Z" fill-rule="nonzero"/><path stroke="#333333" stroke-width="1.0" stroke-linecap="butt" d="M148.5 481.5L904.5 481.5" fill-rule="nonzero"/><path stroke="#cccccc" stroke-width="1.0" stroke-linecap="butt" d="M148.5 379.5L904.5 379.5" fill-rule="nonzero"/><path stroke="#cccccc" stroke-width="1.0" stroke-linecap="butt" d="M148.5 278.5L904.5 278.5" fill-rule="nonzero"/><path stroke="#cccccc" stroke-width="1.0" stroke-linecap="butt" d="M148.5 176.5L904.5 176.5" fill-rule="nonzero"/><path stroke="#cccccc" stroke-width="1.0" stroke-linecap="butt" d="M148.5 75.5L904.5 75.5" fill-rule="nonzero"/><path stroke="#e6e6e6" stroke-width="1.0" stroke-linecap="butt" d="M148.5 400.5L904.5 400.5" fill-rule="nonzero"/><path stroke="#e6e6e6" stroke-width="1.0" stroke-linecap="butt" d="M148.5 420.5L904.5 420.5" fill-rule="nonzero"/><path stroke="#e6e6e6" stroke-width="1.0" stroke-linecap="butt" d="M148.5 440.5L904.5 440.5" fill-rule="nonzero"/><path stroke="#e6e6e6" stroke-width="1.0" stroke-linecap="butt" d="M148.5 460.5L904.5 460.5" fill-rule="nonzero"/><path stroke="#e6e6e6" stroke-width="1.0" stroke-linecap="butt" d="M148.5 298.5L904.5 298.5" fill-rule="nonzero"/><path stroke="#e6e6e6" stroke-width="1.0" stroke-linecap="butt" d="M148.5 318.5L904.5 318.5" fill-rule="nonzero"/><path stroke="#e6e6e6" stroke-width="1.0" stroke-linecap="butt" d="M148.5 339.5L904.5 339.5" fill-rule="nonzero"/><path stroke="#e6e6e6" stroke-width="1.0" stroke-linecap="butt" d="M148.5 359.5L904.5 359.5" fill-rule="nonzero"/><path stroke="#e6e6e6" stroke-width="1.0" stroke-linecap="butt" d="M148.5 197.5L904.5 197.5" fill-rule="nonzero"/><path stroke="#e6e6e6" stroke-width="1.0" stroke-linecap="butt" d="M148.5 217.5L904.5 217.5" fill-rule="nonzero"/><path stroke="#e6e6e6" stroke-width="1.0" stroke-linecap="butt" d="M148.5 237.5L904.5 237.5" fill-rule="nonzero"/><path stroke="#e6e6e6" stroke-width="1.0" stroke-linecap="butt" d="M148.5 258.5L904.5 258.5" fill-rule="nonzero"/><path stroke="#e6e6e6" stroke-width="1.0" stroke-linecap="butt" d="M148.5 95.5L904.5 95.5" fill-rule="nonzero"/><path stroke="#e6e6e6" stroke-width="1.0" stroke-linecap="butt" d="M148.5 116.5L904.5 116.5" fill-rule="nonzero"/><path stroke="#e6e6e6" stroke-width="1.0" stroke-linecap="butt" d="M148.5 136.5L904.5 136.5" fill-rule="nonzero"/><path stroke="#e6e6e6" stroke-width="1.0" stroke-linecap="butt" d="M148.5 156.5L904.5 156.5" fill-rule="nonzero"/><clipPath id="id_0"><path d="M148.85 75.583336L904.15 75.583336L904.15 481.15L148.85 481.15L148.85 75.583336Z" clip-rule="nonzero"/></clipPath><path stroke="#e69138" stroke-width="4.0" stroke-linecap="butt" clip-path="url(#id_0)" d="M183.18182 450.49377L251.84546 149.68788" fill-rule="nonzero"/><path stroke="#3c78d8" stroke-width="4.0" stroke-linecap="butt" clip-path="url(#id_0)" d="M183.18182 481.1498L251.84546 481.1498L320.5091 481.14978L389.17273 481.1499L457.83636 481.14987L526.5 481.14987L595.16364 481.14984L663.8273 481.1497L732.4909 481.14963L801.15454 481.14957L869.8182 481.10107" fill-rule="nonzero"/><path fill="#e69138" clip-path="url(#id_0)" d="M177.52496 444.8369L188.83867 444.8369L188.83867 456.1506L177.52496 456.1506Z" fill-rule="nonzero"/><path fill="#e69138" clip-path="url(#id_0)" d="M246.1886 144.03104L257.50232 144.03104L257.50232 155.34474L246.1886 155.34474Z" fill-rule="nonzero"/><path fill="#3c78d8" clip-path="url(#id_0)" d="M183.18182 473.1498L190.11002 485.1498L176.25362 485.1498Z" fill-rule="nonzero"/><path fill="#3c78d8" clip-path="url(#id_0)" d="M251.84546 473.1498L258.77365 485.1498L244.91725 485.1498Z" fill-rule="nonzero"/><path fill="#3c78d8" clip-path="url(#id_0)" d="M320.5091 473.14978L327.4373 485.14978L313.5809 485.14978Z" fill-rule="nonzero"/><path fill="#3c78d8" clip-path="url(#id_0)" d="M389.17273 473.1499L396.10092 485.1499L382.24454 485.1499Z" fill-rule="nonzero"/><path fill="#3c78d8" clip-path="url(#id_0)" d="M457.83636 473.14987L464.76456 485.14987L450.90817 485.14987Z" fill-rule="nonzero"/><path fill="#3c78d8" clip-path="url(#id_0)" d="M526.5 473.14987L533.4282 485.14987L519.5718 485.14987Z" fill-rule="nonzero"/><path fill="#3c78d8" clip-path="url(#id_0)" d="M595.16364 473.14984L602.09186 485.14984L588.2354 485.14984Z" fill-rule="nonzero"/><path fill="#3c78d8" clip-path="url(#id_0)" d="M663.8273 473.1497L670.7555 485.1497L656.89905 485.1497Z" fill-rule="nonzero"/><path fill="#3c78d8" clip-path="url(#id_0)" d="M732.4909 473.14963L739.4191 485.14963L725.5627 485.14963Z" fill-rule="nonzero"/><path fill="#3c78d8" clip-path="url(#id_0)" d="M801.15454 473.14957L808.08276 485.14957L794.2263 485.14957Z" fill-rule="nonzero"/><path fill="#3c78d8" clip-path="url(#id_0)" d="M869.8182 473.10107L876.7464 485.10107L862.88995 485.10107Z" fill-rule="nonzero"/><path fill="#424242" d="M470.5 539.54065L467.82812 539.54065L467.82812 544.15L466.3125 544.15L466.3125 532.775L470.07812 532.775Q472.0 532.775 473.03125 533.65Q474.07812 534.525 474.07812 536.1969Q474.07812 537.2594 473.5 538.0563Q472.92188 538.8375 471.90625 539.22815L474.57812 544.0563L474.57812 544.15L472.96875 544.15L470.5 539.54065ZM467.82812 538.3219L470.125 538.3219Q471.25 538.3219 471.90625 537.7438Q472.5625 537.16565 472.5625 536.1969Q472.5625 535.1344 471.9375 534.5719Q471.3125 534.0094 470.125 534.0094L467.82812 534.0094L467.82812 538.3219ZM475.71875 539.8375Q475.71875 538.60315 476.20312 537.6188Q476.6875 536.6188 477.5625 536.0875Q478.4375 535.54065 479.54688 535.54065Q481.28125 535.54065 482.34375 536.7438Q483.40625 537.9313 483.40625 539.91565L483.40625 540.0094Q483.40625 541.2438 482.9375 542.22815Q482.46875 543.2125 481.57812 543.7594Q480.70312 544.3063 479.5625 544.3063Q477.84375 544.3063 476.78125 543.1188Q475.71875 541.91565 475.71875 539.9469L475.71875 539.8375ZM477.17188 540.0094Q477.17188 541.41565 477.8125 542.275Q478.46875 543.1188 479.5625 543.1188Q480.67188 543.1188 481.3125 542.2594Q481.96875 541.4 481.96875 539.8375Q481.96875 538.4469 481.29688 537.5875Q480.64062 536.72815 479.54688 536.72815Q478.48438 536.72815 477.82812 537.5875Q477.17188 538.4313 477.17188 540.0094ZM486.45312 542.9625L491.40625 542.9625L491.40625 544.15L484.6875 544.15L484.6875 543.0875L489.35938 536.8844L484.76562 536.8844L484.76562 535.6969L491.17188 535.6969L491.17188 536.7125L486.45312 542.9625ZM494.45312 535.6969L494.5 536.6344Q495.42188 535.54065 497.0 535.54065Q498.78125 535.54065 499.42188 536.9Q499.84375 536.29065 500.51562 535.91565Q501.1875 535.54065 502.10938 535.54065Q504.89062 535.54065 504.9375 538.47815L504.9375 544.15L503.5 544.15L503.5 538.5719Q503.5 537.66565 503.07812 537.2125Q502.67188 536.7594 501.6875 536.7594Q500.89062 536.7594 500.35938 537.2438Q499.82812 537.72815 499.73438 538.54065L499.73438 544.15L498.28125 544.15L498.28125 538.60315Q498.28125 536.7594 496.48438 536.7594Q495.0625 536.7594 494.53125 537.97815L494.53125 544.15L493.09375 544.15L493.09375 535.6969L494.45312 535.6969ZM508.67188 544.15L507.21875 544.15L507.21875 535.6969L508.67188 535.6969L508.67188 544.15ZM507.10938 533.4469Q507.10938 533.10315 507.3125 532.8688Q507.53125 532.6188 507.95312 532.6188Q508.375 532.6188 508.59375 532.8688Q508.8125 533.10315 508.8125 533.4625Q508.8125 533.8063 508.59375 534.04065Q508.375 534.275 507.95312 534.275Q507.53125 534.275 507.3125 534.04065Q507.10938 533.8063 507.10938 533.4469ZM516.3125 544.15Q516.1875 543.9 516.1094 543.2594Q515.1094 544.3063 513.7031 544.3063Q512.4531 544.3063 511.65625 543.60315Q510.85938 542.8844 510.85938 541.8063Q510.85938 540.47815 511.85938 539.7594Q512.8594 539.025 514.6875 539.025L516.09375 539.025L516.09375 538.35315Q516.09375 537.60315 515.6406 537.15Q515.1875 536.6969 514.2969 536.6969Q513.53125 536.6969 513.0 537.0875Q512.4844 537.47815 512.4844 538.04065L511.03125 538.04065Q511.03125 537.4 511.46875 536.8219Q511.92188 536.22815 512.6875 535.8844Q513.46875 535.54065 514.3906 535.54065Q515.84375 535.54065 516.6719 536.275Q517.5 536.9938 517.53125 538.275L517.53125 542.16565Q517.53125 543.3375 517.8281 544.025L517.8281 544.15L516.3125 544.15ZM513.9219 543.04065Q514.59375 543.04065 515.2031 542.6969Q515.8125 542.3375 516.09375 541.775L516.09375 540.04065L514.9531 540.04065Q512.2969 540.04065 512.2969 541.60315Q512.2969 542.275 512.75 542.66565Q513.2031 543.04065 513.9219 543.04065ZM524.1875 536.9938Q523.8594 536.9313 523.46875 536.9313Q522.0469 536.9313 521.5469 538.15L521.5469 544.15L520.09375 544.15L520.09375 535.6969L521.5 535.6969L521.53125 536.66565Q522.2344 535.54065 523.5469 535.54065Q523.96875 535.54065 524.1875 535.65L524.1875 536.9938ZM530.6719 544.15L529.21875 544.15L529.21875 535.6969L530.6719 535.6969L530.6719 544.15ZM529.1094 533.4469Q529.1094 533.10315 529.3125 532.8688Q529.53125 532.6188 529.9531 532.6188Q530.375 532.6188 530.59375 532.8688Q530.8125 533.10315 530.8125 533.4625Q530.8125 533.8063 530.59375 534.04065Q530.375 534.275 529.9531 534.275Q529.53125 534.275 529.3125 534.04065Q529.1094 533.8063 529.1094 533.4469ZM534.46875 535.6969L534.5156 536.7594Q535.4844 535.54065 537.0469 535.54065Q539.71875 535.54065 539.75 538.5563L539.75 544.15L538.2969 544.15L538.2969 538.5563Q538.2969 537.6344 537.875 537.1969Q537.46875 536.7594 536.6094 536.7594Q535.90625 536.7594 535.375 537.1344Q534.84375 537.5094 534.5469 538.1188L534.5469 544.15L533.09375 544.15L533.09375 535.6969L534.46875 535.6969ZM547.0156 541.9Q547.0156 541.3219 546.5781 540.9938Q546.1406 540.66565 545.03125 540.4313Q543.9375 540.1969 543.2969 539.8688Q542.65625 539.54065 542.34375 539.0875Q542.03125 538.6344 542.03125 538.0094Q542.03125 536.97815 542.90625 536.2594Q543.7969 535.54065 545.15625 535.54065Q546.59375 535.54065 547.4844 536.29065Q548.3906 537.025 548.3906 538.1813L546.9375 538.1813Q546.9375 537.5875 546.4219 537.16565Q545.9219 536.72815 545.15625 536.72815Q544.375 536.72815 543.9219 537.0719Q543.4844 537.41565 543.4844 537.9625Q543.4844 538.4938 543.8906 538.7594Q544.3125 539.025 545.3906 539.275Q546.46875 539.5094 547.1406 539.85315Q547.8125 540.1813 548.1406 540.65Q548.46875 541.1188 548.46875 541.8063Q548.46875 542.9313 547.5625 543.6188Q546.65625 544.3063 545.2031 544.3063Q544.1875 544.3063 543.40625 543.9469Q542.625 543.5875 542.1875 542.9469Q541.75 542.29065 541.75 541.54065L543.1875 541.54065Q543.2344 542.275 543.7656 542.6969Q544.3125 543.1188 545.2031 543.1188Q546.03125 543.1188 546.5156 542.79065Q547.0156 542.4625 547.0156 541.9ZM552.0625 533.65L552.0625 535.6969L553.6406 535.6969L553.6406 536.8063L552.0625 536.8063L552.0625 542.0563Q552.0625 542.5563 552.2656 542.8219Q552.4844 543.0719 552.9844 543.0719Q553.2344 543.0719 553.6719 542.97815L553.6719 544.15Q553.1094 544.3063 552.5625 544.3063Q551.59375 544.3063 551.09375 543.72815Q550.6094 543.1344 550.6094 542.0563L550.6094 536.8063L549.0781 536.8063L549.0781 535.6969L550.6094 535.6969L550.6094 533.65L552.0625 533.65ZM560.3125 544.15Q560.1875 543.9 560.1094 543.2594Q559.1094 544.3063 557.7031 544.3063Q556.4531 544.3063 555.65625 543.60315Q554.8594 542.8844 554.8594 541.8063Q554.8594 540.47815 555.8594 539.7594Q556.8594 539.025 558.6875 539.025L560.09375 539.025L560.09375 538.35315Q560.09375 537.60315 559.6406 537.15Q559.1875 536.6969 558.2969 536.6969Q557.53125 536.6969 557.0 537.0875Q556.4844 537.47815 556.4844 538.04065L555.03125 538.04065Q555.03125 537.4 555.46875 536.8219Q555.9219 536.22815 556.6875 535.8844Q557.46875 535.54065 558.3906 535.54065Q559.84375 535.54065 560.6719 536.275Q561.5 536.9938 561.53125 538.275L561.53125 542.16565Q561.53125 543.3375 561.8281 544.025L561.8281 544.15L560.3125 544.15ZM557.9219 543.04065Q558.59375 543.04065 559.2031 542.6969Q559.8125 542.3375 560.09375 541.775L560.09375 540.04065L558.9531 540.04065Q556.2969 540.04065 556.2969 541.60315Q556.2969 542.275 556.75 542.66565Q557.2031 543.04065 557.9219 543.04065ZM565.46875 535.6969L565.5156 536.7594Q566.4844 535.54065 568.0469 535.54065Q570.71875 535.54065 570.75 538.5563L570.75 544.15L569.2969 544.15L569.2969 538.5563Q569.2969 537.6344 568.875 537.1969Q568.46875 536.7594 567.6094 536.7594Q566.90625 536.7594 566.375 537.1344Q565.84375 537.5094 565.5469 538.1188L565.5469 544.15L564.09375 544.15L564.09375 535.6969L565.46875 535.6969ZM576.4844 543.1188Q577.2656 543.1188 577.84375 542.65Q578.4219 542.1813 578.4844 541.47815L579.84375 541.47815Q579.8125 542.2125 579.34375 542.8688Q578.8906 543.525 578.1094 543.91565Q577.34375 544.3063 576.4844 544.3063Q574.7656 544.3063 573.7344 543.15Q572.71875 541.9938 572.71875 539.9938L572.71875 539.7594Q572.71875 538.525 573.1719 537.5719Q573.625 536.60315 574.46875 536.0719Q575.3281 535.54065 576.4844 535.54065Q577.90625 535.54065 578.84375 536.4Q579.78125 537.2438 579.84375 538.60315L578.4844 538.60315Q578.4219 537.775 577.8594 537.2594Q577.2969 536.72815 576.4844 536.72815Q575.375 536.72815 574.7656 537.525Q574.1719 538.3063 574.1719 539.8063L574.1719 540.0875Q574.1719 541.54065 574.7656 542.3375Q575.375 543.1188 576.4844 543.1188ZM582.59375 535.6969L582.59375 545.1344Q582.59375 547.5719 580.375 547.5719Q579.8906 547.5719 579.4844 547.4313L579.4844 546.275Q579.7344 546.3375 580.15625 546.3375Q580.6406 546.3375 580.8906 546.0719Q581.1406 545.8063 581.1406 545.16565L581.1406 535.6969L582.59375 535.6969ZM581.0 533.4469Q581.0 533.10315 581.2031 532.8688Q581.4219 532.6188 581.84375 532.6188Q582.2656 532.6188 582.4844 532.8688Q582.7031 533.10315 582.7031 533.4625Q582.7031 533.8063 582.4844 534.04065Q582.2656 534.275 581.84375 534.275Q581.4219 534.275 581.2031 534.04065Q581.0 533.8063 581.0 533.4469ZM586.6719 544.15L585.21875 544.15L585.21875 535.6969L586.6719 535.6969L586.6719 544.15ZM585.1094 533.4469Q585.1094 533.10315 585.3125 532.8688Q585.53125 532.6188 585.9531 532.6188Q586.375 532.6188 586.59375 532.8688Q586.8125 533.10315 586.8125 533.4625Q586.8125 533.8063 586.59375 534.04065Q586.375 534.275 585.9531 534.275Q585.53125 534.275 585.3125 534.04065Q585.1094 533.8063 585.1094 533.4469Z" fill-rule="nonzero"/><path fill="#424242" d="M40.24065 358.92917Q42.037525 359.1323 43.0219 360.2573Q44.006275 361.3823 44.006275 363.24167Q44.006275 365.2573 42.568775 366.47604Q41.11565 367.67917 38.693775 367.67917L37.600025 367.67917Q36.006275 367.67917 34.80315 367.11667Q33.600025 366.55417 32.9594 365.52292Q32.318775 364.47604 32.318775 363.10104Q32.318775 361.28854 33.3344 360.1948Q34.3344 359.10104 36.131275 358.92917L36.131275 360.42917Q34.7719 360.6323 34.162525 361.28854Q33.55315 361.92917 33.55315 363.10104Q33.55315 364.53854 34.61565 365.36667Q35.67815 366.17917 37.631275 366.17917L38.74065 366.17917Q40.5844 366.17917 41.67815 365.41354Q42.7719 364.6323 42.7719 363.24167Q42.7719 361.99167 42.2094 361.3198Q41.6469 360.64792 40.24065 360.42917L40.24065 358.92917ZM42.662525 356.16354L42.662525 351.21042L43.850025 351.21042L43.850025 357.92917L42.787525 357.92917L36.5844 353.2573L36.5844 357.85104L35.3969 357.85104L35.3969 351.4448L36.412525 351.4448L42.662525 356.16354ZM43.850025 344.30417Q43.600025 344.42917 42.9594 344.5073Q44.006275 345.5073 44.006275 346.91354Q44.006275 348.16354 43.30315 348.96042Q42.5844 349.7573 41.506275 349.7573Q40.17815 349.7573 39.4594 348.7573Q38.725025 347.7573 38.725025 345.92917L38.725025 344.52292L38.05315 344.52292Q37.30315 344.52292 36.850025 344.97604Q36.3969 345.42917 36.3969 346.3198Q36.3969 347.08542 36.787525 347.61667Q37.17815 348.1323 37.74065 348.1323L37.74065 349.58542Q37.100025 349.58542 36.5219 349.14792Q35.92815 348.6948 35.5844 347.92917Q35.24065 347.14792 35.24065 346.22604Q35.24065 344.77292 35.975025 343.9448Q36.693775 343.11667 37.975025 343.08542L41.86565 343.08542Q43.037525 343.08542 43.725025 342.78854L43.850025 342.78854L43.850025 344.30417ZM42.74065 346.6948Q42.74065 346.02292 42.3969 345.41354Q42.037525 344.80417 41.475025 344.52292L39.74065 344.52292L39.74065 345.66354Q39.74065 348.3198 41.30315 348.3198Q41.975025 348.3198 42.36565 347.86667Q42.74065 347.41354 42.74065 346.6948ZM41.600025 335.60104Q41.0219 335.60104 40.693775 336.03854Q40.36565 336.47604 40.131275 337.58542Q39.8969 338.67917 39.568775 339.3198Q39.24065 339.96042 38.787525 340.27292Q38.3344 340.58542 37.7094 340.58542Q36.67815 340.58542 35.9594 339.71042Q35.24065 338.8198 35.24065 337.46042Q35.24065 336.02292 35.99065 335.1323Q36.725025 334.22604 37.881275 334.22604L37.881275 335.67917Q37.287525 335.67917 36.86565 336.1948Q36.42815 336.6948 36.42815 337.46042Q36.42815 338.24167 36.7719 338.6948Q37.11565 339.1323 37.662525 339.1323Q38.193775 339.1323 38.4594 338.72604Q38.725025 338.30417 38.975025 337.22604Q39.2094 336.14792 39.55315 335.47604Q39.881275 334.80417 40.350025 334.47604Q40.818775 334.14792 41.506275 334.14792Q42.631275 334.14792 43.318775 335.05417Q44.006275 335.96042 44.006275 337.41354Q44.006275 338.42917 43.6469 339.21042Q43.287525 339.99167 42.6469 340.42917Q41.99065 340.86667 41.24065 340.86667L41.24065 339.42917Q41.975025 339.3823 42.3969 338.85104Q42.818775 338.30417 42.818775 337.41354Q42.818775 336.58542 42.49065 336.10104Q42.162525 335.60104 41.600025 335.60104ZM41.850025 321.03854L35.3969 319.41354L35.3969 317.96042L43.850025 320.42917L43.850025 321.60104L37.443775 323.64792L43.850025 325.64792L43.850025 326.8198L35.3969 329.27292L35.3969 327.83542L41.725025 326.17917L35.3969 324.21042L35.3969 323.03854L41.850025 321.03854ZM41.725025 313.7573L35.3969 311.78854L35.3969 310.24167L45.162525 313.6323Q47.2719 314.42917 47.2719 316.14792L47.24065 316.41354L47.1469 316.96042L45.975025 316.96042L46.006275 316.5698Q46.006275 315.83542 45.7094 315.42917Q45.412525 315.0073 44.61565 314.74167L43.756275 314.42917L35.3969 317.4448L35.3969 315.86667L41.725025 313.7573ZM39.92815 306.16354L40.881275 307.0698L43.850025 307.0698L43.850025 308.5073L31.850025 308.5073L31.850025 307.0698L39.100025 307.0698L38.17815 306.28854L35.3969 303.66354L35.3969 301.89792L38.92815 305.1948L43.850025 301.52292L43.850025 303.21042L39.92815 306.16354ZM39.537525 300.89792Q38.30315 300.89792 37.318775 300.41354Q36.318775 299.92917 35.787525 299.05417Q35.24065 298.17917 35.24065 297.0698Q35.24065 295.33542 36.443775 294.27292Q37.631275 293.21042 39.61565 293.21042L39.7094 293.21042Q40.943775 293.21042 41.92815 293.67917Q42.912525 294.14792 43.4594 295.03854Q44.006275 295.91354 44.006275 297.05417Q44.006275 298.77292 42.818775 299.83542Q41.61565 300.89792 39.6469 300.89792L39.537525 300.89792ZM39.7094 299.4448Q41.11565 299.4448 41.975025 298.80417Q42.818775 298.14792 42.818775 297.05417Q42.818775 295.9448 41.9594 295.30417Q41.100025 294.64792 39.537525 294.64792Q38.1469 294.64792 37.287525 295.3198Q36.42815 295.97604 36.42815 297.0698Q36.42815 298.1323 37.287525 298.78854Q38.131275 299.4448 39.7094 299.4448ZM35.3969 290.14792L36.4594 290.10104Q35.24065 289.1323 35.24065 287.5698Q35.24065 284.89792 38.256275 284.86667L43.850025 284.86667L43.850025 286.3198L38.256275 286.3198Q37.3344 286.3198 36.8969 286.74167Q36.4594 287.14792 36.4594 288.0073Q36.4594 288.71042 36.8344 289.24167Q37.2094 289.77292 37.818775 290.0698L43.850025 290.0698L43.850025 291.52292L35.3969 291.52292L35.3969 290.14792ZM41.725025 279.7573L35.3969 277.78854L35.3969 276.24167L45.162525 279.6323Q47.2719 280.42917 47.2719 282.14792L47.24065 282.41354L47.1469 282.96042L45.975025 282.96042L46.006275 282.5698Q46.006275 281.83542 45.7094 281.42917Q45.412525 281.0073 44.61565 280.74167L43.756275 280.42917L35.3969 283.4448L35.3969 281.86667L41.725025 279.7573ZM41.850025 267.03854L35.3969 265.41354L35.3969 263.96042L43.850025 266.42917L43.850025 267.60104L37.443775 269.64792L43.850025 271.64792L43.850025 272.8198L35.3969 275.27292L35.3969 273.83542L41.725025 272.17917L35.3969 270.21042L35.3969 269.03854L41.850025 267.03854ZM43.850025 257.30417Q43.600025 257.42917 42.9594 257.5073Q44.006275 258.5073 44.006275 259.91354Q44.006275 261.16354 43.30315 261.96042Q42.5844 262.7573 41.506275 262.7573Q40.17815 262.7573 39.4594 261.7573Q38.725025 260.7573 38.725025 258.92917L38.725025 257.52292L38.05315 257.52292Q37.30315 257.52292 36.850025 257.97604Q36.3969 258.42917 36.3969 259.3198Q36.3969 260.08542 36.787525 260.61667Q37.17815 261.1323 37.74065 261.1323L37.74065 262.58542Q37.100025 262.58542 36.5219 262.14792Q35.92815 261.6948 35.5844 260.92917Q35.24065 260.14792 35.24065 259.22604Q35.24065 257.77292 35.975025 256.9448Q36.693775 256.11667 37.975025 256.08542L41.86565 256.08542Q43.037525 256.08542 43.725025 255.78854L43.850025 255.78854L43.850025 257.30417ZM42.74065 259.6948Q42.74065 259.02292 42.3969 258.41354Q42.037525 257.80417 41.475025 257.52292L39.74065 257.52292L39.74065 258.66354Q39.74065 261.3198 41.30315 261.3198Q41.975025 261.3198 42.36565 260.86667Q42.74065 260.41354 42.74065 259.6948ZM35.3969 252.14792L36.4594 252.10104Q35.24065 251.1323 35.24065 249.5698Q35.24065 246.89792 38.256275 246.86667L43.850025 246.86667L43.850025 248.3198L38.256275 248.3198Q37.3344 248.3198 36.8969 248.74167Q36.4594 249.14792 36.4594 250.0073Q36.4594 250.71042 36.8344 251.24167Q37.2094 251.77292 37.818775 252.0698L43.850025 252.0698L43.850025 253.52292L35.3969 253.52292L35.3969 252.14792ZM43.850025 242.9448L43.850025 244.39792L35.3969 244.39792L35.3969 242.9448L43.850025 242.9448ZM33.1469 244.5073Q32.80315 244.5073 32.568775 244.30417Q32.318775 244.08542 32.318775 243.66354Q32.318775 243.24167 32.568775 243.02292Q32.80315 242.80417 33.162525 242.80417Q33.506275 242.80417 33.74065 243.02292Q33.975025 243.24167 33.975025 243.66354Q33.975025 244.08542 33.74065 244.30417Q33.506275 244.5073 33.1469 244.5073ZM43.850025 235.30417Q43.600025 235.42917 42.9594 235.5073Q44.006275 236.5073 44.006275 237.91354Q44.006275 239.16354 43.30315 239.96042Q42.5844 240.7573 41.506275 240.7573Q40.17815 240.7573 39.4594 239.7573Q38.725025 238.7573 38.725025 236.92917L38.725025 235.52292L38.05315 235.52292Q37.30315 235.52292 36.850025 235.97604Q36.3969 236.42917 36.3969 237.3198Q36.3969 238.08542 36.787525 238.61667Q37.17815 239.1323 37.74065 239.1323L37.74065 240.58542Q37.100025 240.58542 36.5219 240.14792Q35.92815 239.6948 35.5844 238.92917Q35.24065 238.14792 35.24065 237.22604Q35.24065 235.77292 35.975025 234.9448Q36.693775 234.11667 37.975025 234.08542L41.86565 234.08542Q43.037525 234.08542 43.725025 233.78854L43.850025 233.78854L43.850025 235.30417ZM42.74065 237.6948Q42.74065 237.02292 42.3969 236.41354Q42.037525 235.80417 41.475025 235.52292L39.74065 235.52292L39.74065 236.66354Q39.74065 239.3198 41.30315 239.3198Q41.975025 239.3198 42.36565 238.86667Q42.74065 238.41354 42.74065 237.6948ZM32.037525 224.52292L32.037525 226.02292L45.100025 226.02292L45.100025 224.52292L46.287525 224.52292L46.287525 227.47604L30.850025 227.47604L30.850025 224.52292L32.037525 224.52292ZM35.3969 221.96042L40.3344 221.96042Q41.61565 221.96042 42.225025 221.55417Q42.8344 221.14792 42.8344 220.24167Q42.8344 218.6948 41.6469 218.21042L35.3969 218.21042L35.3969 216.7573L43.850025 216.7573L43.850025 218.05417L42.943775 218.1323Q44.006275 218.85104 44.006275 220.17917Q44.006275 221.33542 43.42815 221.96042L47.100025 221.96042L47.100025 223.41354L35.3969 223.41354L35.3969 221.96042ZM41.600025 209.60104Q41.0219 209.60104 40.693775 210.03854Q40.36565 210.47604 40.131275 211.58542Q39.8969 212.67917 39.568775 213.3198Q39.24065 213.96042 38.787525 214.27292Q38.3344 214.58542 37.7094 214.58542Q36.67815 214.58542 35.9594 213.71042Q35.24065 212.8198 35.24065 211.46042Q35.24065 210.02292 35.99065 209.1323Q36.725025 208.22604 37.881275 208.22604L37.881275 209.67917Q37.287525 209.67917 36.86565 210.1948Q36.42815 210.6948 36.42815 211.46042Q36.42815 212.24167 36.7719 212.6948Q37.11565 213.1323 37.662525 213.1323Q38.193775 213.1323 38.4594 212.72604Q38.725025 212.30417 38.975025 211.22604Q39.2094 210.14792 39.55315 209.47604Q39.881275 208.80417 40.350025 208.47604Q40.818775 208.14792 41.506275 208.14792Q42.631275 208.14792 43.318775 209.05417Q44.006275 209.96042 44.006275 211.41354Q44.006275 212.42917 43.6469 213.21042Q43.287525 213.99167 42.6469 214.42917Q41.99065 214.86667 41.24065 214.86667L41.24065 213.42917Q41.975025 213.3823 42.3969 212.85104Q42.818775 212.30417 42.818775 211.41354Q42.818775 210.58542 42.49065 210.10104Q42.162525 209.60104 41.600025 209.60104ZM30.850025 207.53854L30.850025 204.58542L46.287525 204.58542L46.287525 207.53854L45.100025 207.53854L45.100025 206.03854L32.037525 206.03854L32.037525 207.53854L30.850025 207.53854Z" fill-rule="nonzero"/><path fill="#757575" d="M140.9125 481.4Q140.9125 483.61874 140.14688 484.7125Q139.39688 485.79062 137.7875 485.79062Q136.19376 485.79062 135.42813 484.74374Q134.6625 483.68124 134.63126 481.57187L134.63126 479.88437Q134.63126 477.69687 135.38126 476.63437Q136.14688 475.55624 137.77188 475.55624Q139.38126 475.55624 140.13126 476.5875Q140.89688 477.61874 140.9125 479.75937L140.9125 481.4ZM139.64688 479.68124Q139.64688 478.07187 139.19376 477.3375Q138.75626 476.60312 137.77188 476.60312Q136.80313 476.60312 136.35 477.3375Q135.9125 478.05624 135.89688 479.57187L135.89688 481.60312Q135.89688 483.2125 136.36563 483.99374Q136.83438 484.75937 137.7875 484.75937Q138.725 484.75937 139.17813 484.04062Q139.63126 483.30624 139.64688 481.74374L139.64688 479.68124Z" fill-rule="nonzero"/><path fill="#757575" d="M81.25625 379.27396L81.77187 374.3052L86.86562 374.3052L86.86562 375.47708L82.83437 375.47708L82.5375 378.1802Q83.27187 377.75833 84.19375 377.75833Q85.55312 377.75833 86.35 378.66458Q87.1625 379.5552 87.1625 381.08646Q87.1625 382.6177 86.31875 383.50833Q85.49062 384.39896 84.00625 384.39896Q82.69375 384.39896 81.85 383.66458Q81.02187 382.9302 80.89687 381.63333L82.1 381.63333Q82.20937 382.4927 82.69375 382.9302Q83.19375 383.3677 84.00625 383.3677Q84.88125 383.3677 85.38125 382.77396Q85.89687 382.16458 85.89687 381.10208Q85.89687 380.10208 85.35 379.50833Q84.80312 378.89896 83.89687 378.89896Q83.08437 378.89896 82.6 379.25833L82.27187 379.52396L81.25625 379.27396ZM88.77187 386.2427L88.05312 385.7427Q88.69375 384.85208 88.725 383.89896L88.725 382.75833L89.95937 382.75833L89.95937 383.75833Q89.95937 384.44583 89.61562 385.13333Q89.27187 385.82083 88.77187 386.2427ZM97.9125 380.00833Q97.9125 382.22708 97.14687 383.32083Q96.39687 384.39896 94.7875 384.39896Q93.19375 384.39896 92.42812 383.35208Q91.6625 382.28958 91.63125 380.1802L91.63125 378.4927Q91.63125 376.3052 92.38125 375.2427Q93.14687 374.16458 94.77187 374.16458Q96.38125 374.16458 97.13125 375.19583Q97.89687 376.22708 97.9125 378.3677L97.9125 380.00833ZM96.64687 378.28958Q96.64687 376.6802 96.19375 375.94583Q95.75625 375.21146 94.77187 375.21146Q93.80312 375.21146 93.35 375.94583Q92.9125 376.66458 92.89687 378.1802L92.89687 380.21146Q92.89687 381.82083 93.36562 382.60208Q93.83437 383.3677 94.7875 383.3677Q95.725 383.3677 96.17812 382.64896Q96.63125 381.91458 96.64687 380.35208L96.64687 378.28958ZM105.9125 380.00833Q105.9125 382.22708 105.14687 383.32083Q104.39687 384.39896 102.7875 384.39896Q101.19375 384.39896 100.42812 383.35208Q99.6625 382.28958 99.63125 380.1802L99.63125 378.4927Q99.63125 376.3052 100.38125 375.2427Q101.14687 374.16458 102.77187 374.16458Q104.38125 374.16458 105.13125 375.19583Q105.89687 376.22708 105.9125 378.3677L105.9125 380.00833ZM104.64687 378.28958Q104.64687 376.6802 104.19375 375.94583Q103.75625 375.21146 102.77187 375.21146Q101.80312 375.21146 101.35 375.94583Q100.9125 376.66458 100.89687 378.1802L100.89687 380.21146Q100.89687 381.82083 101.36562 382.60208Q101.83437 383.3677 102.7875 383.3677Q103.725 383.3677 104.17812 382.64896Q104.63125 381.91458 104.64687 380.35208L104.64687 378.28958ZM113.9125 380.00833Q113.9125 382.22708 113.14687 383.32083Q112.39687 384.39896 110.7875 384.39896Q109.19375 384.39896 108.42812 383.35208Q107.6625 382.28958 107.63125 380.1802L107.63125 378.4927Q107.63125 376.3052 108.38125 375.2427Q109.14687 374.16458 110.77187 374.16458Q112.38125 374.16458 113.13125 375.19583Q113.89687 376.22708 113.9125 378.3677L113.9125 380.00833ZM112.64687 378.28958Q112.64687 376.6802 112.19375 375.94583Q111.75625 375.21146 110.77187 375.21146Q109.80312 375.21146 109.35 375.94583Q108.9125 376.66458 108.89687 378.1802L108.89687 380.21146Q108.89687 381.82083 109.36562 382.60208Q109.83437 383.3677 110.7875 383.3677Q111.725 383.3677 112.17812 382.64896Q112.63125 381.91458 112.64687 380.35208L112.64687 378.28958ZM115.77187 386.2427L115.05312 385.7427Q115.69375 384.85208 115.725 383.89896L115.725 382.75833L116.95937 382.75833L116.95937 383.75833Q116.95937 384.44583 116.61562 385.13333Q116.27187 385.82083 115.77187 386.2427ZM124.9125 380.00833Q124.9125 382.22708 124.14687 383.32083Q123.39687 384.39896 121.7875 384.39896Q120.19375 384.39896 119.42812 383.35208Q118.6625 382.28958 118.63125 380.1802L118.63125 378.4927Q118.63125 376.3052 119.38125 375.2427Q120.14687 374.16458 121.77187 374.16458Q123.38125 374.16458 124.13125 375.19583Q124.89687 376.22708 124.9125 378.3677L124.9125 380.00833ZM123.64687 378.28958Q123.64687 376.6802 123.19375 375.94583Q122.75625 375.21146 121.77187 375.21146Q120.80312 375.21146 120.35 375.94583Q119.9125 376.66458 119.89687 378.1802L119.89687 380.21146Q119.89687 381.82083 120.36562 382.60208Q120.83437 383.3677 121.7875 383.3677Q122.725 383.3677 123.17812 382.64896Q123.63125 381.91458 123.64687 380.35208L123.64687 378.28958ZM132.9125 380.00833Q132.9125 382.22708 132.14688 383.32083Q131.39688 384.39896 129.7875 384.39896Q128.19376 384.39896 127.42812 383.35208Q126.6625 382.28958 126.63125 380.1802L126.63125 378.4927Q126.63125 376.3052 127.38125 375.2427Q128.14688 374.16458 129.77188 374.16458Q131.38126 374.16458 132.13126 375.19583Q132.89688 376.22708 132.9125 378.3677L132.9125 380.00833ZM131.64688 378.28958Q131.64688 376.6802 131.19376 375.94583Q130.75626 375.21146 129.77188 375.21146Q128.80313 375.21146 128.35 375.94583Q127.9125 376.66458 127.89687 378.1802L127.89687 380.21146Q127.89687 381.82083 128.36563 382.60208Q128.83438 383.3677 129.7875 383.3677Q130.725 383.3677 131.17813 382.64896Q131.63126 381.91458 131.64688 380.35208L131.64688 378.28958ZM140.9125 380.00833Q140.9125 382.22708 140.14688 383.32083Q139.39688 384.39896 137.7875 384.39896Q136.19376 384.39896 135.42813 383.35208Q134.6625 382.28958 134.63126 380.1802L134.63126 378.4927Q134.63126 376.3052 135.38126 375.2427Q136.14688 374.16458 137.77188 374.16458Q139.38126 374.16458 140.13126 375.19583Q140.89688 376.22708 140.9125 378.3677L140.9125 380.00833ZM139.64688 378.28958Q139.64688 376.6802 139.19376 375.94583Q138.75626 375.21146 137.77188 375.21146Q136.80313 375.21146 136.35 375.94583Q135.9125 376.66458 135.89688 378.1802L135.89688 380.21146Q135.89688 381.82083 136.36563 382.60208Q136.83438 383.3677 137.7875 383.3677Q138.725 383.3677 139.17813 382.64896Q139.63126 381.91458 139.64688 380.35208L139.64688 378.28958Z" fill-rule="nonzero"/><path fill="#757575" d="M76.83437 282.86667L75.56875 282.86667L75.56875 274.4448L73.00625 275.36667L73.00625 274.22604L76.63125 272.86667L76.83437 272.86667L76.83437 282.86667ZM86.9125 278.61667Q86.9125 280.83542 86.14687 281.92917Q85.39687 283.0073 83.7875 283.0073Q82.19375 283.0073 81.42812 281.96042Q80.6625 280.89792 80.63125 278.78854L80.63125 277.10104Q80.63125 274.91354 81.38125 273.85104Q82.14687 272.77292 83.77187 272.77292Q85.38125 272.77292 86.13125 273.80417Q86.89687 274.83542 86.9125 276.97604L86.9125 278.61667ZM85.64687 276.89792Q85.64687 275.28854 85.19375 274.55417Q84.75625 273.8198 83.77187 273.8198Q82.80312 273.8198 82.35 274.55417Q81.9125 275.27292 81.89687 276.78854L81.89687 278.8198Q81.89687 280.42917 82.36562 281.21042Q82.83437 281.97604 83.7875 281.97604Q84.725 281.97604 85.17812 281.2573Q85.63125 280.52292 85.64687 278.96042L85.64687 276.89792ZM88.77187 284.85104L88.05312 284.35104Q88.69375 283.46042 88.725 282.5073L88.725 281.36667L89.95937 281.36667L89.95937 282.36667Q89.95937 283.05417 89.61562 283.74167Q89.27187 284.42917 88.77187 284.85104ZM97.9125 278.61667Q97.9125 280.83542 97.14687 281.92917Q96.39687 283.0073 94.7875 283.0073Q93.19375 283.0073 92.42812 281.96042Q91.6625 280.89792 91.63125 278.78854L91.63125 277.10104Q91.63125 274.91354 92.38125 273.85104Q93.14687 272.77292 94.77187 272.77292Q96.38125 272.77292 97.13125 273.80417Q97.89687 274.83542 97.9125 276.97604L97.9125 278.61667ZM96.64687 276.89792Q96.64687 275.28854 96.19375 274.55417Q95.75625 273.8198 94.77187 273.8198Q93.80312 273.8198 93.35 274.55417Q92.9125 275.27292 92.89687 276.78854L92.89687 278.8198Q92.89687 280.42917 93.36562 281.21042Q93.83437 281.97604 94.7875 281.97604Q95.725 281.97604 96.17812 281.2573Q96.63125 280.52292 96.64687 278.96042L96.64687 276.89792ZM105.9125 278.61667Q105.9125 280.83542 105.14687 281.92917Q104.39687 283.0073 102.7875 283.0073Q101.19375 283.0073 100.42812 281.96042Q99.6625 280.89792 99.63125 278.78854L99.63125 277.10104Q99.63125 274.91354 100.38125 273.85104Q101.14687 272.77292 102.77187 272.77292Q104.38125 272.77292 105.13125 273.80417Q105.89687 274.83542 105.9125 276.97604L105.9125 278.61667ZM104.64687 276.89792Q104.64687 275.28854 104.19375 274.55417Q103.75625 273.8198 102.77187 273.8198Q101.80312 273.8198 101.35 274.55417Q100.9125 275.27292 100.89687 276.78854L100.89687 278.8198Q100.89687 280.42917 101.36562 281.21042Q101.83437 281.97604 102.7875 281.97604Q103.725 281.97604 104.17812 281.2573Q104.63125 280.52292 104.64687 278.96042L104.64687 276.89792ZM113.9125 278.61667Q113.9125 280.83542 113.14687 281.92917Q112.39687 283.0073 110.7875 283.0073Q109.19375 283.0073 108.42812 281.96042Q107.6625 280.89792 107.63125 278.78854L107.63125 277.10104Q107.63125 274.91354 108.38125 273.85104Q109.14687 272.77292 110.77187 272.77292Q112.38125 272.77292 113.13125 273.80417Q113.89687 274.83542 113.9125 276.97604L113.9125 278.61667ZM112.64687 276.89792Q112.64687 275.28854 112.19375 274.55417Q111.75625 273.8198 110.77187 273.8198Q109.80312 273.8198 109.35 274.55417Q108.9125 275.27292 108.89687 276.78854L108.89687 278.8198Q108.89687 280.42917 109.36562 281.21042Q109.83437 281.97604 110.7875 281.97604Q111.725 281.97604 112.17812 281.2573Q112.63125 280.52292 112.64687 278.96042L112.64687 276.89792ZM115.77187 284.85104L115.05312 284.35104Q115.69375 283.46042 115.725 282.5073L115.725 281.36667L116.95937 281.36667L116.95937 282.36667Q116.95937 283.05417 116.61562 283.74167Q116.27187 284.42917 115.77187 284.85104ZM124.9125 278.61667Q124.9125 280.83542 124.14687 281.92917Q123.39687 283.0073 121.7875 283.0073Q120.19375 283.0073 119.42812 281.96042Q118.6625 280.89792 118.63125 278.78854L118.63125 277.10104Q118.63125 274.91354 119.38125 273.85104Q120.14687 272.77292 121.77187 272.77292Q123.38125 272.77292 124.13125 273.80417Q124.89687 274.83542 124.9125 276.97604L124.9125 278.61667ZM123.64687 276.89792Q123.64687 275.28854 123.19375 274.55417Q122.75625 273.8198 121.77187 273.8198Q120.80312 273.8198 120.35 274.55417Q119.9125 275.27292 119.89687 276.78854L119.89687 278.8198Q119.89687 280.42917 120.36562 281.21042Q120.83437 281.97604 121.7875 281.97604Q122.725 281.97604 123.17812 281.2573Q123.63125 280.52292 123.64687 278.96042L123.64687 276.89792ZM132.9125 278.61667Q132.9125 280.83542 132.14688 281.92917Q131.39688 283.0073 129.7875 283.0073Q128.19376 283.0073 127.42812 281.96042Q126.6625 280.89792 126.63125 278.78854L126.63125 277.10104Q126.63125 274.91354 127.38125 273.85104Q128.14688 272.77292 129.77188 272.77292Q131.38126 272.77292 132.13126 273.80417Q132.89688 274.83542 132.9125 276.97604L132.9125 278.61667ZM131.64688 276.89792Q131.64688 275.28854 131.19376 274.55417Q130.75626 273.8198 129.77188 273.8198Q128.80313 273.8198 128.35 274.55417Q127.9125 275.27292 127.89687 276.78854L127.89687 278.8198Q127.89687 280.42917 128.36563 281.21042Q128.83438 281.97604 129.7875 281.97604Q130.725 281.97604 131.17813 281.2573Q131.63126 280.52292 131.64688 278.96042L131.64688 276.89792ZM140.9125 278.61667Q140.9125 280.83542 140.14688 281.92917Q139.39688 283.0073 137.7875 283.0073Q136.19376 283.0073 135.42813 281.96042Q134.6625 280.89792 134.63126 278.78854L134.63126 277.10104Q134.63126 274.91354 135.38126 273.85104Q136.14688 272.77292 137.77188 272.77292Q139.38126 272.77292 140.13126 273.80417Q140.89688 274.83542 140.9125 276.97604L140.9125 278.61667ZM139.64688 276.89792Q139.64688 275.28854 139.19376 274.55417Q138.75626 273.8198 137.77188 273.8198Q136.80313 273.8198 136.35 274.55417Q135.9125 275.27292 135.89688 276.78854L135.89688 278.8198Q135.89688 280.42917 136.36563 281.21042Q136.83438 281.97604 137.7875 281.97604Q138.725 281.97604 139.17813 281.2573Q139.63126 280.52292 139.64688 278.96042L139.64688 276.89792Z" fill-rule="nonzero"/><path fill="#757575" d="M76.83437 181.475L75.56875 181.475L75.56875 173.05313L73.00625 173.975L73.00625 172.83438L76.63125 171.475L76.83437 171.475L76.83437 181.475ZM81.25625 176.49063L81.77187 171.52188L86.86562 171.52188L86.86562 172.69376L82.83437 172.69376L82.5375 175.39688Q83.27187 174.975 84.19375 174.975Q85.55312 174.975 86.35 175.88126Q87.1625 176.77188 87.1625 178.30313Q87.1625 179.83438 86.31875 180.725Q85.49062 181.61563 84.00625 181.61563Q82.69375 181.61563 81.85 180.88126Q81.02187 180.14688 80.89687 178.85L82.1 178.85Q82.20937 179.70938 82.69375 180.14688Q83.19375 180.58438 84.00625 180.58438Q84.88125 180.58438 85.38125 179.99063Q85.89687 179.38126 85.89687 178.31876Q85.89687 177.31876 85.35 176.725Q84.80312 176.11563 83.89687 176.11563Q83.08437 176.11563 82.6 176.475L82.27187 176.74063L81.25625 176.49063ZM88.77187 183.45938L88.05312 182.95938Q88.69375 182.06876 88.725 181.11563L88.725 179.975L89.95937 179.975L89.95937 180.975Q89.95937 181.6625 89.61562 182.35Q89.27187 183.0375 88.77187 183.45938ZM97.9125 177.225Q97.9125 179.44376 97.14687 180.5375Q96.39687 181.61563 94.7875 181.61563Q93.19375 181.61563 92.42812 180.56876Q91.6625 179.50626 91.63125 177.39688L91.63125 175.70938Q91.63125 173.52188 92.38125 172.45938Q93.14687 171.38126 94.77187 171.38126Q96.38125 171.38126 97.13125 172.4125Q97.89687 173.44376 97.9125 175.58438L97.9125 177.225ZM96.64687 175.50626Q96.64687 173.89688 96.19375 173.1625Q95.75625 172.42813 94.77187 172.42813Q93.80312 172.42813 93.35 173.1625Q92.9125 173.88126 92.89687 175.39688L92.89687 177.42813Q92.89687 179.0375 93.36562 179.81876Q93.83437 180.58438 94.7875 180.58438Q95.725 180.58438 96.17812 179.86563Q96.63125 179.13126 96.64687 177.56876L96.64687 175.50626ZM105.9125 177.225Q105.9125 179.44376 105.14687 180.5375Q104.39687 181.61563 102.7875 181.61563Q101.19375 181.61563 100.42812 180.56876Q99.6625 179.50626 99.63125 177.39688L99.63125 175.70938Q99.63125 173.52188 100.38125 172.45938Q101.14687 171.38126 102.77187 171.38126Q104.38125 171.38126 105.13125 172.4125Q105.89687 173.44376 105.9125 175.58438L105.9125 177.225ZM104.64687 175.50626Q104.64687 173.89688 104.19375 173.1625Q103.75625 172.42813 102.77187 172.42813Q101.80312 172.42813 101.35 173.1625Q100.9125 173.88126 100.89687 175.39688L100.89687 177.42813Q100.89687 179.0375 101.36562 179.81876Q101.83437 180.58438 102.7875 180.58438Q103.725 180.58438 104.17812 179.86563Q104.63125 179.13126 104.64687 177.56876L104.64687 175.50626ZM113.9125 177.225Q113.9125 179.44376 113.14687 180.5375Q112.39687 181.61563 110.7875 181.61563Q109.19375 181.61563 108.42812 180.56876Q107.6625 179.50626 107.63125 177.39688L107.63125 175.70938Q107.63125 173.52188 108.38125 172.45938Q109.14687 171.38126 110.77187 171.38126Q112.38125 171.38126 113.13125 172.4125Q113.89687 173.44376 113.9125 175.58438L113.9125 177.225ZM112.64687 175.50626Q112.64687 173.89688 112.19375 173.1625Q111.75625 172.42813 110.77187 172.42813Q109.80312 172.42813 109.35 173.1625Q108.9125 173.88126 108.89687 175.39688L108.89687 177.42813Q108.89687 179.0375 109.36562 179.81876Q109.83437 180.58438 110.7875 180.58438Q111.725 180.58438 112.17812 179.86563Q112.63125 179.13126 112.64687 177.56876L112.64687 175.50626ZM115.77187 183.45938L115.05312 182.95938Q115.69375 182.06876 115.725 181.11563L115.725 179.975L116.95937 179.975L116.95937 180.975Q116.95937 181.6625 116.61562 182.35Q116.27187 183.0375 115.77187 183.45938ZM124.9125 177.225Q124.9125 179.44376 124.14687 180.5375Q123.39687 181.61563 121.7875 181.61563Q120.19375 181.61563 119.42812 180.56876Q118.6625 179.50626 118.63125 177.39688L118.63125 175.70938Q118.63125 173.52188 119.38125 172.45938Q120.14687 171.38126 121.77187 171.38126Q123.38125 171.38126 124.13125 172.4125Q124.89687 173.44376 124.9125 175.58438L124.9125 177.225ZM123.64687 175.50626Q123.64687 173.89688 123.19375 173.1625Q122.75625 172.42813 121.77187 172.42813Q120.80312 172.42813 120.35 173.1625Q119.9125 173.88126 119.89687 175.39688L119.89687 177.42813Q119.89687 179.0375 120.36562 179.81876Q120.83437 180.58438 121.7875 180.58438Q122.725 180.58438 123.17812 179.86563Q123.63125 179.13126 123.64687 177.56876L123.64687 175.50626ZM132.9125 177.225Q132.9125 179.44376 132.14688 180.5375Q131.39688 181.61563 129.7875 181.61563Q128.19376 181.61563 127.42812 180.56876Q126.6625 179.50626 126.63125 177.39688L126.63125 175.70938Q126.63125 173.52188 127.38125 172.45938Q128.14688 171.38126 129.77188 171.38126Q131.38126 171.38126 132.13126 172.4125Q132.89688 173.44376 132.9125 175.58438L132.9125 177.225ZM131.64688 175.50626Q131.64688 173.89688 131.19376 173.1625Q130.75626 172.42813 129.77188 172.42813Q128.80313 172.42813 128.35 173.1625Q127.9125 173.88126 127.89687 175.39688L127.89687 177.42813Q127.89687 179.0375 128.36563 179.81876Q128.83438 180.58438 129.7875 180.58438Q130.725 180.58438 131.17813 179.86563Q131.63126 179.13126 131.64688 177.56876L131.64688 175.50626ZM140.9125 177.225Q140.9125 179.44376 140.14688 180.5375Q139.39688 181.61563 137.7875 181.61563Q136.19376 181.61563 135.42813 180.56876Q134.6625 179.50626 134.63126 177.39688L134.63126 175.70938Q134.63126 173.52188 135.38126 172.45938Q136.14688 171.38126 137.77188 171.38126Q139.38126 171.38126 140.13126 172.4125Q140.89688 173.44376 140.9125 175.58438L140.9125 177.225ZM139.64688 175.50626Q139.64688 173.89688 139.19376 173.1625Q138.75626 172.42813 137.77188 172.42813Q136.80313 172.42813 136.35 173.1625Q135.9125 173.88126 135.89688 175.39688L135.89688 177.42813Q135.89688 179.0375 136.36563 179.81876Q136.83438 180.58438 137.7875 180.58438Q138.725 180.58438 139.17813 179.86563Q139.63126 179.13126 139.64688 177.56876L139.64688 175.50626Z" fill-rule="nonzero"/><path fill="#757575" d="M79.19375 80.083336L72.67812 80.083336L72.67812 79.177086L76.11562 75.34896Q76.88125 74.47396 77.17812 73.94271Q77.475 73.395836 77.475 72.802086Q77.475 72.03646 76.99062 71.53646Q76.52187 71.03646 75.74062 71.03646Q74.80312 71.03646 74.27187 71.56771Q73.75625 72.09896 73.75625 73.06771L72.49062 73.06771Q72.49062 71.69271 73.36562 70.84896Q74.25625 69.989586 75.74062 69.989586Q77.13125 69.989586 77.92812 70.72396Q78.74062 71.44271 78.74062 72.66146Q78.74062 74.13021 76.86562 76.16146L74.20937 79.052086L79.19375 79.052086L79.19375 80.083336ZM86.9125 75.833336Q86.9125 78.052086 86.14687 79.145836Q85.39687 80.22396 83.7875 80.22396Q82.19375 80.22396 81.42812 79.177086Q80.6625 78.114586 80.63125 76.00521L80.63125 74.31771Q80.63125 72.13021 81.38125 71.06771Q82.14687 69.989586 83.77187 69.989586Q85.38125 69.989586 86.13125 71.020836Q86.89687 72.052086 86.9125 74.19271L86.9125 75.833336ZM85.64687 74.114586Q85.64687 72.50521 85.19375 71.770836Q84.75625 71.03646 83.77187 71.03646Q82.80312 71.03646 82.35 71.770836Q81.9125 72.489586 81.89687 74.00521L81.89687 76.03646Q81.89687 77.645836 82.36562 78.427086Q82.83437 79.19271 83.7875 79.19271Q84.725 79.19271 85.17812 78.47396Q85.63125 77.739586 85.64687 76.177086L85.64687 74.114586ZM88.77187 82.06771L88.05312 81.56771Q88.69375 80.677086 88.725 79.72396L88.725 78.583336L89.95937 78.583336L89.95937 79.583336Q89.95937 80.270836 89.61562 80.958336Q89.27187 81.645836 88.77187 82.06771ZM97.9125 75.833336Q97.9125 78.052086 97.14687 79.145836Q96.39687 80.22396 94.7875 80.22396Q93.19375 80.22396 92.42812 79.177086Q91.6625 78.114586 91.63125 76.00521L91.63125 74.31771Q91.63125 72.13021 92.38125 71.06771Q93.14687 69.989586 94.77187 69.989586Q96.38125 69.989586 97.13125 71.020836Q97.89687 72.052086 97.9125 74.19271L97.9125 75.833336ZM96.64687 74.114586Q96.64687 72.50521 96.19375 71.770836Q95.75625 71.03646 94.77187 71.03646Q93.80312 71.03646 93.35 71.770836Q92.9125 72.489586 92.89687 74.00521L92.89687 76.03646Q92.89687 77.645836 93.36562 78.427086Q93.83437 79.19271 94.7875 79.19271Q95.725 79.19271 96.17812 78.47396Q96.63125 77.739586 96.64687 76.177086L96.64687 74.114586ZM105.9125 75.833336Q105.9125 78.052086 105.14687 79.145836Q104.39687 80.22396 102.7875 80.22396Q101.19375 80.22396 100.42812 79.177086Q99.6625 78.114586 99.63125 76.00521L99.63125 74.31771Q99.63125 72.13021 100.38125 71.06771Q101.14687 69.989586 102.77187 69.989586Q104.38125 69.989586 105.13125 71.020836Q105.89687 72.052086 105.9125 74.19271L105.9125 75.833336ZM104.64687 74.114586Q104.64687 72.50521 104.19375 71.770836Q103.75625 71.03646 102.77187 71.03646Q101.80312 71.03646 101.35 71.770836Q100.9125 72.489586 100.89687 74.00521L100.89687 76.03646Q100.89687 77.645836 101.36562 78.427086Q101.83437 79.19271 102.7875 79.19271Q103.725 79.19271 104.17812 78.47396Q104.63125 77.739586 104.64687 76.177086L104.64687 74.114586ZM113.9125 75.833336Q113.9125 78.052086 113.14687 79.145836Q112.39687 80.22396 110.7875 80.22396Q109.19375 80.22396 108.42812 79.177086Q107.6625 78.114586 107.63125 76.00521L107.63125 74.31771Q107.63125 72.13021 108.38125 71.06771Q109.14687 69.989586 110.77187 69.989586Q112.38125 69.989586 113.13125 71.020836Q113.89687 72.052086 113.9125 74.19271L113.9125 75.833336ZM112.64687 74.114586Q112.64687 72.50521 112.19375 71.770836Q111.75625 71.03646 110.77187 71.03646Q109.80312 71.03646 109.35 71.770836Q108.9125 72.489586 108.89687 74.00521L108.89687 76.03646Q108.89687 77.645836 109.36562 78.427086Q109.83437 79.19271 110.7875 79.19271Q111.725 79.19271 112.17812 78.47396Q112.63125 77.739586 112.64687 76.177086L112.64687 74.114586ZM115.77187 82.06771L115.05312 81.56771Q115.69375 80.677086 115.725 79.72396L115.725 78.583336L116.95937 78.583336L116.95937 79.583336Q116.95937 80.270836 116.61562 80.958336Q116.27187 81.645836 115.77187 82.06771ZM124.9125 75.833336Q124.9125 78.052086 124.14687 79.145836Q123.39687 80.22396 121.7875 80.22396Q120.19375 80.22396 119.42812 79.177086Q118.6625 78.114586 118.63125 76.00521L118.63125 74.31771Q118.63125 72.13021 119.38125 71.06771Q120.14687 69.989586 121.77187 69.989586Q123.38125 69.989586 124.13125 71.020836Q124.89687 72.052086 124.9125 74.19271L124.9125 75.833336ZM123.64687 74.114586Q123.64687 72.50521 123.19375 71.770836Q122.75625 71.03646 121.77187 71.03646Q120.80312 71.03646 120.35 71.770836Q119.9125 72.489586 119.89687 74.00521L119.89687 76.03646Q119.89687 77.645836 120.36562 78.427086Q120.83437 79.19271 121.7875 79.19271Q122.725 79.19271 123.17812 78.47396Q123.63125 77.739586 123.64687 76.177086L123.64687 74.114586ZM132.9125 75.833336Q132.9125 78.052086 132.14688 79.145836Q131.39688 80.22396 129.7875 80.22396Q128.19376 80.22396 127.42812 79.177086Q126.6625 78.114586 126.63125 76.00521L126.63125 74.31771Q126.63125 72.13021 127.38125 71.06771Q128.14688 69.989586 129.77188 69.989586Q131.38126 69.989586 132.13126 71.020836Q132.89688 72.052086 132.9125 74.19271L132.9125 75.833336ZM131.64688 74.114586Q131.64688 72.50521 131.19376 71.770836Q130.75626 71.03646 129.77188 71.03646Q128.80313 71.03646 128.35 71.770836Q127.9125 72.489586 127.89687 74.00521L127.89687 76.03646Q127.89687 77.645836 128.36563 78.427086Q128.83438 79.19271 129.7875 79.19271Q130.725 79.19271 131.17813 78.47396Q131.63126 77.739586 131.64688 76.177086L131.64688 74.114586ZM140.9125 75.833336Q140.9125 78.052086 140.14688 79.145836Q139.39688 80.22396 137.7875 80.22396Q136.19376 80.22396 135.42813 79.177086Q134.6625 78.114586 134.63126 76.00521L134.63126 74.31771Q134.63126 72.13021 135.38126 71.06771Q136.14688 69.989586 137.77188 69.989586Q139.38126 69.989586 140.13126 71.020836Q140.89688 72.052086 140.9125 74.19271L140.9125 75.833336ZM139.64688 74.114586Q139.64688 72.50521 139.19376 71.770836Q138.75626 71.03646 137.77188 71.03646Q136.80313 71.03646 136.35 71.770836Q135.9125 72.489586 135.89688 74.00521L135.89688 76.03646Q135.89688 77.645836 136.36563 78.427086Q136.83438 79.19271 137.7875 79.19271Q138.725 79.19271 139.17813 78.47396Q139.63126 77.739586 139.64688 76.177086L139.64688 74.114586Z" fill-rule="nonzero"/><path fill="#757575" d="M180.1662 501.15L178.90057 501.15L178.90057 492.72812L176.33807 493.65L176.33807 492.50937L179.96307 491.15L180.1662 491.15L180.1662 501.15ZM190.24432 496.9Q190.24432 499.11874 189.4787 500.2125Q188.7287 501.29062 187.11932 501.29062Q185.52557 501.29062 184.75995 500.24374Q183.99432 499.18124 183.96307 497.07187L183.96307 495.38437Q183.96307 493.19687 184.71307 492.13437Q185.4787 491.05624 187.1037 491.05624Q188.71307 491.05624 189.46307 492.0875Q190.2287 493.11874 190.24432 495.25937L190.24432 496.9ZM188.9787 495.18124Q188.9787 493.57187 188.52557 492.8375Q188.08807 492.10312 187.1037 492.10312Q186.13495 492.10312 185.68182 492.8375Q185.24432 493.55624 185.2287 495.07187L185.2287 497.10312Q185.2287 498.7125 185.69745 499.49374Q186.1662 500.25937 187.11932 500.25937Q188.05682 500.25937 188.50995 499.54062Q188.96307 498.80624 188.9787 497.24374L188.9787 495.18124Z" fill-rule="nonzero"/><path fill="#757575" d="M248.82983 501.15L247.56421 501.15L247.56421 492.72812L245.00171 493.65L245.00171 492.50937L248.62671 491.15L248.82983 491.15L248.82983 501.15ZM256.82983 501.15L255.56421 501.15L255.56421 492.72812L253.00171 493.65L253.00171 492.50937L256.6267 491.15L256.82983 491.15L256.82983 501.15Z" fill-rule="nonzero"/><path fill="#757575" d="M317.49347 501.15L316.22784 501.15L316.22784 492.72812L313.66534 493.65L313.66534 492.50937L317.29034 491.15L317.49347 491.15L317.49347 501.15ZM327.85284 501.15L321.33722 501.15L321.33722 500.24374L324.77472 496.41562Q325.54034 495.54062 325.83722 495.00937Q326.1341 494.4625 326.1341 493.86874Q326.1341 493.10312 325.64972 492.60312Q325.18097 492.10312 324.39972 492.10312Q323.46222 492.10312 322.93097 492.63437Q322.41534 493.16562 322.41534 494.13437L321.14972 494.13437Q321.14972 492.75937 322.02472 491.91562Q322.91534 491.05624 324.39972 491.05624Q325.79034 491.05624 326.58722 491.79062Q327.39972 492.50937 327.39972 493.72812Q327.39972 495.19687 325.52472 497.22812L322.86847 500.11874L327.85284 500.11874L327.85284 501.15Z" fill-rule="nonzero"/><path fill="#757575" d="M386.1571 501.15L384.89148 501.15L384.89148 492.72812L382.32898 493.65L382.32898 492.50937L385.95398 491.15L386.1571 491.15L386.1571 501.15ZM391.8446 495.55624L392.7821 495.55624Q393.68835 495.54062 394.18835 495.0875Q394.70398 494.63437 394.70398 493.85312Q394.70398 492.10312 392.9696 492.10312Q392.14148 492.10312 391.6571 492.57187Q391.17273 493.04062 391.17273 493.80624L389.9071 493.80624Q389.9071 492.61874 390.76648 491.8375Q391.64148 491.05624 392.9696 491.05624Q394.37585 491.05624 395.17273 491.80624Q395.9696 492.55624 395.9696 493.86874Q395.9696 494.525 395.54773 495.13437Q395.14148 495.74374 394.4071 496.04062Q395.23523 496.30624 395.67273 496.91562Q396.12585 497.50937 396.12585 498.36874Q396.12585 499.7125 395.25085 500.50937Q394.37585 501.29062 392.9696 501.29062Q391.57898 501.29062 390.68835 500.54062Q389.81335 499.775 389.81335 498.525L391.0946 498.525Q391.0946 499.30624 391.5946 499.79062Q392.11023 500.25937 392.9696 500.25937Q393.89148 500.25937 394.37585 499.775Q394.86023 499.29062 394.86023 498.4Q394.86023 497.54062 394.32898 497.07187Q393.79773 496.60312 392.7821 496.5875L391.8446 496.5875L391.8446 495.55624Z" fill-rule="nonzero"/><path fill="#757575" d="M454.82074 501.15L453.5551 501.15L453.5551 492.72812L450.9926 493.65L450.9926 492.50937L454.6176 491.15L454.82074 491.15L454.82074 501.15ZM464.00824 497.80624L465.38324 497.80624L465.38324 498.8375L464.00824 498.8375L464.00824 501.15L462.727 501.15L462.727 498.8375L458.19574 498.8375L458.19574 498.0875L462.64886 491.19687L464.00824 491.19687L464.00824 497.80624ZM459.63324 497.80624L462.727 497.80624L462.727 492.93124L462.58636 493.19687L459.63324 497.80624Z" fill-rule="nonzero"/><path fill="#757575" d="M523.4844 501.15L522.21875 501.15L522.21875 492.72812L519.65625 493.65L519.65625 492.50937L523.28125 491.15L523.4844 491.15L523.4844 501.15ZM527.90625 496.16562L528.4219 491.19687L533.5156 491.19687L533.5156 492.36874L529.4844 492.36874L529.1875 495.07187Q529.9219 494.65 530.84375 494.65Q532.2031 494.65 533.0 495.55624Q533.8125 496.44687 533.8125 497.97812Q533.8125 499.50937 532.96875 500.4Q532.1406 501.29062 530.65625 501.29062Q529.34375 501.29062 528.5 500.55624Q527.6719 499.82187 527.5469 498.525L528.75 498.525Q528.8594 499.38437 529.34375 499.82187Q529.84375 500.25937 530.65625 500.25937Q531.53125 500.25937 532.03125 499.66562Q532.5469 499.05624 532.5469 497.99374Q532.5469 496.99374 532.0 496.4Q531.4531 495.79062 530.5469 495.79062Q529.7344 495.79062 529.25 496.15L528.9219 496.41562L527.90625 496.16562Z" fill-rule="nonzero"/><path fill="#757575" d="M592.148 501.15L590.8824 501.15L590.8824 492.72812L588.3199 493.65L588.3199 492.50937L591.9449 491.15L592.148 491.15L592.148 501.15ZM600.9605 491.19687L600.9605 492.25937L600.72614 492.25937Q599.24176 492.29062 598.36676 493.13437Q597.49176 493.97812 597.35114 495.525Q598.148 494.61874 599.5074 494.61874Q600.80426 494.61874 601.5699 495.54062Q602.35114 496.44687 602.35114 497.9Q602.35114 499.44687 601.5074 500.36874Q600.67926 501.29062 599.273 501.29062Q597.85114 501.29062 596.9605 500.19687Q596.0699 499.0875 596.0699 497.36874L596.0699 496.88437Q596.0699 494.13437 597.24176 492.68124Q598.41364 491.22812 600.72614 491.19687L600.9605 491.19687ZM599.28864 495.68124Q598.648 495.68124 598.10114 496.07187Q597.55426 496.44687 597.3355 497.04062L597.3355 497.50937Q597.3355 498.74374 597.8824 499.49374Q598.4449 500.24374 599.273 500.24374Q600.1324 500.24374 600.61676 499.61874Q601.10114 498.97812 601.10114 497.9625Q601.10114 496.93124 600.60114 496.30624Q600.11676 495.68124 599.28864 495.68124Z" fill-rule="nonzero"/><path fill="#757575" d="M660.81165 501.15L659.546 501.15L659.546 492.72812L656.9835 493.65L656.9835 492.50937L660.6085 491.15L660.81165 491.15L660.81165 501.15ZM671.0773 491.9L666.9523 501.15L665.6398 501.15L669.7335 492.22812L664.3585 492.22812L664.3585 491.19687L671.0773 491.19687L671.0773 491.9Z" fill-rule="nonzero"/><path fill="#757575" d="M729.4753 501.15L728.20966 501.15L728.20966 492.72812L725.64716 493.65L725.64716 492.50937L729.27216 491.15L729.4753 491.15L729.4753 501.15ZM739.3503 493.79062Q739.3503 494.54062 738.95966 495.11874Q738.56903 495.69687 737.89716 496.025Q738.6784 496.36874 739.13153 497.00937Q739.58466 497.65 739.58466 498.4625Q739.58466 499.75937 738.70966 500.525Q737.8503 501.29062 736.4284 501.29062Q734.9909 501.29062 734.1159 500.525Q733.25653 499.74374 733.25653 498.4625Q733.25653 497.65 733.69403 497.00937Q734.13153 496.35312 734.9128 496.025Q734.25653 495.69687 733.8659 495.11874Q733.4909 494.525 733.4909 493.79062Q733.4909 492.54062 734.2878 491.80624Q735.1003 491.05624 736.4284 491.05624Q737.7409 491.05624 738.5378 491.80624Q739.3503 492.54062 739.3503 493.79062ZM738.31903 498.43124Q738.31903 497.60312 737.7878 497.0875Q737.25653 496.55624 736.39716 496.55624Q735.5534 496.55624 735.0378 497.07187Q734.52216 497.5875 734.52216 498.44687Q734.52216 499.29062 735.02216 499.775Q735.52216 500.25937 736.4284 500.25937Q737.3034 500.25937 737.8034 499.775Q738.31903 499.275 738.31903 498.43124ZM736.4284 492.10312Q735.6784 492.10312 735.20966 492.57187Q734.75653 493.025 734.75653 493.82187Q734.75653 494.57187 735.20966 495.04062Q735.6628 495.50937 736.4128 495.50937Q737.1784 495.50937 737.63153 495.04062Q738.08466 494.57187 738.08466 493.82187Q738.08466 493.05624 737.6159 492.5875Q737.14716 492.10312 736.4284 492.10312Z" fill-rule="nonzero"/><path fill="#757575" d="M800.4983 501.15L793.98267 501.15L793.98267 500.24374L797.42017 496.41562Q798.1858 495.54062 798.48267 495.00937Q798.77954 494.4625 798.77954 493.86874Q798.77954 493.10312 798.29517 492.60312Q797.8264 492.10312 797.04517 492.10312Q796.10767 492.10312 795.5764 492.63437Q795.0608 493.16562 795.0608 494.13437L793.79517 494.13437Q793.79517 492.75937 794.67017 491.91562Q795.5608 491.05624 797.04517 491.05624Q798.4358 491.05624 799.23267 491.79062Q800.04517 492.50937 800.04517 493.72812Q800.04517 495.19687 798.17017 497.22812L795.5139 500.11874L800.4983 500.11874L800.4983 501.15ZM808.21704 496.9Q808.21704 499.11874 807.4514 500.2125Q806.7014 501.29062 805.09204 501.29062Q803.4983 501.29062 802.73267 500.24374Q801.96704 499.18124 801.9358 497.07187L801.9358 495.38437Q801.9358 493.19687 802.6858 492.13437Q803.4514 491.05624 805.0764 491.05624Q806.6858 491.05624 807.4358 492.0875Q808.2014 493.11874 808.21704 495.25937L808.21704 496.9ZM806.9514 495.18124Q806.9514 493.57187 806.4983 492.8375Q806.0608 492.10312 805.0764 492.10312Q804.10767 492.10312 803.65454 492.8375Q803.21704 493.55624 803.2014 495.07187L803.2014 497.10312Q803.2014 498.7125 803.67017 499.49374Q804.1389 500.25937 805.09204 500.25937Q806.02954 500.25937 806.48267 499.54062Q806.9358 498.80624 806.9514 497.24374L806.9514 495.18124Z" fill-rule="nonzero"/><path fill="#757575" d="M867.99005 497.80624L869.36505 497.80624L869.36505 498.8375L867.99005 498.8375L867.99005 501.15L866.7088 501.15L866.7088 498.8375L862.17755 498.8375L862.17755 498.0875L866.6307 491.19687L867.99005 491.19687L867.99005 497.80624ZM863.61505 497.80624L866.7088 497.80624L866.7088 492.93124L866.5682 493.19687L863.61505 497.80624ZM876.8807 496.9Q876.8807 499.11874 876.11505 500.2125Q875.36505 501.29062 873.7557 501.29062Q872.1619 501.29062 871.3963 500.24374Q870.6307 499.18124 870.5994 497.07187L870.5994 495.38437Q870.5994 493.19687 871.3494 492.13437Q872.11505 491.05624 873.74005 491.05624Q875.3494 491.05624 876.0994 492.0875Q876.86505 493.11874 876.8807 495.25937L876.8807 496.9ZM875.61505 495.18124Q875.61505 493.57187 875.1619 492.8375Q874.7244 492.10312 873.74005 492.10312Q872.7713 492.10312 872.3182 492.8375Q871.8807 493.55624 871.86505 495.07187L871.86505 497.10312Q871.86505 498.7125 872.3338 499.49374Q872.80255 500.25937 873.7557 500.25937Q874.6932 500.25937 875.1463 499.54062Q875.5994 498.80624 875.61505 497.24374L875.61505 495.18124Z" fill-rule="nonzero"/><path fill="#e69138" d="M344.75735 34.10736L353.24265 34.10736L353.24265 42.59264L344.75735 42.59264Z" fill-rule="nonzero"/><path fill="#757575" d="M364.32812 43.85L364.32812 32.475L368.04688 32.475Q369.89062 32.475 370.82812 33.240623Q371.76562 34.00625 371.76562 35.50625Q371.76562 36.303123 371.3125 36.9125Q370.85938 37.521873 370.07812 37.865623Q371.0 38.115623 371.53125 38.85Q372.0625 39.56875 372.0625 40.56875Q372.0625 42.1 371.0625 42.975Q370.07812 43.85 368.26562 43.85L364.32812 43.85ZM365.82812 38.521873L365.82812 42.615623L368.29688 42.615623Q369.34375 42.615623 369.95312 42.084373Q370.5625 41.5375 370.5625 40.584373Q370.5625 38.521873 368.32812 38.521873L365.82812 38.521873ZM365.82812 37.31875L368.09375 37.31875Q369.07812 37.31875 369.65625 36.834373Q370.25 36.334373 370.25 35.490623Q370.25 34.553123 369.70312 34.13125Q369.15625 33.709373 368.04688 33.709373L365.82812 33.709373L365.82812 37.31875ZM378.1875 36.69375Q377.85938 36.63125 377.46875 36.63125Q376.04688 36.63125 375.54688 37.85L375.54688 43.85L374.09375 43.85L374.09375 35.396873L375.5 35.396873L375.53125 36.365623Q376.23438 35.240623 377.54688 35.240623Q377.96875 35.240623 378.1875 35.35L378.1875 36.69375ZM384.3125 43.00625Q383.46875 44.00625 381.84375 44.00625Q380.48438 44.00625 379.78125 43.225Q379.07812 42.428123 379.0625 40.896873L379.0625 35.396873L380.51562 35.396873L380.51562 40.85Q380.51562 42.771873 382.07812 42.771873Q383.73438 42.771873 384.28125 41.5375L384.28125 35.396873L385.71875 35.396873L385.71875 43.85L384.34375 43.85L384.3125 43.00625ZM390.0625 33.35L390.0625 35.396873L391.64062 35.396873L391.64062 36.50625L390.0625 36.50625L390.0625 41.75625Q390.0625 42.25625 390.26562 42.521873Q390.48438 42.771873 390.98438 42.771873Q391.23438 42.771873 391.67188 42.678123L391.67188 43.85Q391.10938 44.00625 390.5625 44.00625Q389.59375 44.00625 389.09375 43.428123Q388.60938 42.834373 388.60938 41.75625L388.60938 36.50625L387.07812 36.50625L387.07812 35.396873L388.60938 35.396873L388.60938 33.35L390.0625 33.35ZM396.60938 44.00625Q394.89062 44.00625 393.8125 42.88125Q392.73438 41.740623 392.73438 39.85L392.73438 39.584373Q392.73438 38.334373 393.20312 37.35Q393.6875 36.35 394.54688 35.803123Q395.42188 35.240623 396.42188 35.240623Q398.07812 35.240623 398.98438 36.334373Q399.90625 37.4125 399.90625 39.428123L399.90625 40.0375L394.17188 40.0375Q394.20312 41.2875 394.90625 42.053123Q395.60938 42.81875 396.6875 42.81875Q397.45312 42.81875 397.98438 42.50625Q398.51562 42.19375 398.90625 41.678123L399.79688 42.365623Q398.73438 44.00625 396.60938 44.00625ZM396.42188 36.428123Q395.54688 36.428123 394.95312 37.06875Q394.35938 37.69375 394.21875 38.85L398.45312 38.85L398.45312 38.740623Q398.39062 37.63125 397.85938 37.0375Q397.32812 36.428123 396.42188 36.428123ZM405.8125 43.85L405.8125 36.50625L404.46875 36.50625L404.46875 35.396873L405.8125 35.396873L405.8125 34.521873Q405.8125 33.1625 406.53125 32.428123Q407.26562 31.678123 408.59375 31.678123Q409.09375 31.678123 409.57812 31.818748L409.5 32.990623Q409.14062 32.9125 408.71875 32.9125Q408.01562 32.9125 407.625 33.334373Q407.25 33.740623 407.25 34.50625L407.25 35.396873L409.0625 35.396873L409.0625 36.50625L407.25 36.50625L407.25 43.85L405.8125 43.85ZM410.71875 39.5375Q410.71875 38.303123 411.20312 37.31875Q411.6875 36.31875 412.5625 35.7875Q413.4375 35.240623 414.54688 35.240623Q416.28125 35.240623 417.34375 36.44375Q418.40625 37.63125 418.40625 39.615623L418.40625 39.709373Q418.40625 40.94375 417.9375 41.928123Q417.46875 42.9125 416.57812 43.459373Q415.70312 44.00625 414.5625 44.00625Q412.84375 44.00625 411.78125 42.81875Q410.71875 41.615623 410.71875 39.646873L410.71875 39.5375ZM412.17188 39.709373Q412.17188 41.115623 412.8125 41.975Q413.46875 42.81875 414.5625 42.81875Q415.67188 42.81875 416.3125 41.959373Q416.96875 41.1 416.96875 39.5375Q416.96875 38.146873 416.29688 37.2875Q415.64062 36.428123 414.54688 36.428123Q413.48438 36.428123 412.82812 37.2875Q412.17188 38.13125 412.17188 39.709373ZM424.1875 36.69375Q423.85938 36.63125 423.46875 36.63125Q422.04688 36.63125 421.54688 37.85L421.54688 43.85L420.09375 43.85L420.09375 35.396873L421.5 35.396873L421.53125 36.365623Q422.23438 35.240623 423.54688 35.240623Q423.96875 35.240623 424.1875 35.35L424.1875 36.69375ZM428.48438 42.81875Q429.26562 42.81875 429.84375 42.35Q430.42188 41.88125 430.48438 41.178123L431.84375 41.178123Q431.8125 41.9125 431.34375 42.56875Q430.89062 43.225 430.10938 43.615623Q429.34375 44.00625 428.48438 44.00625Q426.76562 44.00625 425.73438 42.85Q424.71875 41.69375 424.71875 39.69375L424.71875 39.459373Q424.71875 38.225 425.17188 37.271873Q425.625 36.303123 426.46875 35.771873Q427.32812 35.240623 428.48438 35.240623Q429.90625 35.240623 430.84375 36.1Q431.78125 36.94375 431.84375 38.303123L430.48438 38.303123Q430.42188 37.475 429.85938 36.959373Q429.29688 36.428123 428.48438 36.428123Q427.375 36.428123 426.76562 37.225Q426.17188 38.00625 426.17188 39.50625L426.17188 39.7875Q426.17188 41.240623 426.76562 42.0375Q427.375 42.81875 428.48438 42.81875ZM436.60938 44.00625Q434.89062 44.00625 433.8125 42.88125Q432.73438 41.740623 432.73438 39.85L432.73438 39.584373Q432.73438 38.334373 433.20312 37.35Q433.6875 36.35 434.54688 35.803123Q435.42188 35.240623 436.42188 35.240623Q438.07812 35.240623 438.98438 36.334373Q439.90625 37.4125 439.90625 39.428123L439.90625 40.0375L434.17188 40.0375Q434.20312 41.2875 434.90625 42.053123Q435.60938 42.81875 436.6875 42.81875Q437.45312 42.81875 437.98438 42.50625Q438.51562 42.19375 438.90625 41.678123L439.79688 42.365623Q438.73438 44.00625 436.60938 44.00625ZM436.42188 36.428123Q435.54688 36.428123 434.95312 37.06875Q434.35938 37.69375 434.21875 38.85L438.45312 38.85L438.45312 38.740623Q438.39062 37.63125 437.85938 37.0375Q437.32812 36.428123 436.42188 36.428123Z" fill-rule="nonzero"/><path fill="#3c78d8" d="M462.0 32.35L467.19617 41.35L456.80383 41.35Z" fill-rule="nonzero"/><path fill="#757575" d="M477.32812 43.85L477.32812 32.475L480.53125 32.475Q482.01562 32.475 483.15625 33.13125Q484.29688 33.7875 484.92188 35.00625Q485.54688 36.209373 485.54688 37.771873L485.54688 38.50625Q485.54688 40.115623 484.92188 41.334373Q484.3125 42.5375 483.15625 43.19375Q482.0 43.834373 480.46875 43.85L477.32812 43.85ZM478.82812 33.709373L478.82812 42.615623L480.40625 42.615623Q482.14062 42.615623 483.09375 41.5375Q484.0625 40.459373 484.0625 38.475L484.0625 37.803123Q484.0625 35.865623 483.15625 34.803123Q482.25 33.725 480.57812 33.709373L478.82812 33.709373ZM490.85938 41.725L492.82812 35.396873L494.375 35.396873L490.98438 45.1625Q490.1875 47.271873 488.46875 47.271873L488.20312 47.240623L487.65625 47.146873L487.65625 45.975L488.04688 46.00625Q488.78125 46.00625 489.1875 45.709373Q489.60938 45.4125 489.875 44.615623L490.1875 43.75625L487.17188 35.396873L488.75 35.396873L490.85938 41.725ZM497.46875 35.396873L497.51562 36.459373Q498.48438 35.240623 500.04688 35.240623Q502.71875 35.240623 502.75 38.25625L502.75 43.85L501.29688 43.85L501.29688 38.25625Q501.29688 37.334373 500.875 36.896873Q500.46875 36.459373 499.60938 36.459373Q498.90625 36.459373 498.375 36.834373Q497.84375 37.209373 497.54688 37.81875L497.54688 43.85L496.09375 43.85L496.09375 35.396873L497.46875 35.396873ZM510.3125 43.85Q510.1875 43.6 510.10938 42.959373Q509.10938 44.00625 507.70312 44.00625Q506.45312 44.00625 505.65625 43.303123Q504.85938 42.584373 504.85938 41.50625Q504.85938 40.178123 505.85938 39.459373Q506.85938 38.725 508.6875 38.725L510.09375 38.725L510.09375 38.053123Q510.09375 37.303123 509.64062 36.85Q509.1875 36.396873 508.29688 36.396873Q507.53125 36.396873 507.0 36.7875Q506.48438 37.178123 506.48438 37.740623L505.03125 37.740623Q505.03125 37.1 505.46875 36.521873Q505.92188 35.928123 506.6875 35.584373Q507.46875 35.240623 508.39062 35.240623Q509.84375 35.240623 510.67188 35.975Q511.5 36.69375 511.53125 37.975L511.53125 41.865623Q511.53125 43.0375 511.82812 43.725L511.82812 43.85L510.3125 43.85ZM507.92188 42.740623Q508.59375 42.740623 509.20312 42.396873Q509.8125 42.0375 510.09375 41.475L510.09375 39.740623L508.95312 39.740623Q506.29688 39.740623 506.29688 41.303123Q506.29688 41.975 506.75 42.365623Q507.20312 42.740623 507.92188 42.740623ZM515.4531 35.396873L515.5 36.334373Q516.4219 35.240623 518.0 35.240623Q519.78125 35.240623 520.4219 36.6Q520.84375 35.990623 521.5156 35.615623Q522.1875 35.240623 523.1094 35.240623Q525.8906 35.240623 525.9375 38.178123L525.9375 43.85L524.5 43.85L524.5 38.271873Q524.5 37.365623 524.0781 36.9125Q523.6719 36.459373 522.6875 36.459373Q521.8906 36.459373 521.3594 36.94375Q520.8281 37.428123 520.7344 38.240623L520.7344 43.85L519.28125 43.85L519.28125 38.303123Q519.28125 36.459373 517.4844 36.459373Q516.0625 36.459373 515.53125 37.678123L515.53125 43.85L514.09375 43.85L514.09375 35.396873L515.4531 35.396873ZM529.6719 43.85L528.21875 43.85L528.21875 35.396873L529.6719 35.396873L529.6719 43.85ZM528.1094 33.146873Q528.1094 32.803123 528.3125 32.56875Q528.53125 32.31875 528.9531 32.31875Q529.375 32.31875 529.59375 32.56875Q529.8125 32.803123 529.8125 33.1625Q529.8125 33.50625 529.59375 33.740623Q529.375 33.975 528.9531 33.975Q528.53125 33.975 528.3125 33.740623Q528.1094 33.50625 528.1094 33.146873ZM535.4844 42.81875Q536.2656 42.81875 536.84375 42.35Q537.4219 41.88125 537.4844 41.178123L538.84375 41.178123Q538.8125 41.9125 538.34375 42.56875Q537.8906 43.225 537.1094 43.615623Q536.34375 44.00625 535.4844 44.00625Q533.7656 44.00625 532.7344 42.85Q531.71875 41.69375 531.71875 39.69375L531.71875 39.459373Q531.71875 38.225 532.1719 37.271873Q532.625 36.303123 533.46875 35.771873Q534.3281 35.240623 535.4844 35.240623Q536.90625 35.240623 537.84375 36.1Q538.78125 36.94375 538.84375 38.303123L537.4844 38.303123Q537.4219 37.475 536.8594 36.959373Q536.2969 36.428123 535.4844 36.428123Q534.375 36.428123 533.7656 37.225Q533.1719 38.00625 533.1719 39.50625L533.1719 39.7875Q533.1719 41.240623 533.7656 42.0375Q534.375 42.81875 535.4844 42.81875ZM549.0156 41.6Q549.0156 41.021873 548.5781 40.69375Q548.1406 40.365623 547.03125 40.13125Q545.9375 39.896873 545.2969 39.56875Q544.65625 39.240623 544.34375 38.7875Q544.03125 38.334373 544.03125 37.709373Q544.03125 36.678123 544.90625 35.959373Q545.7969 35.240623 547.15625 35.240623Q548.59375 35.240623 549.4844 35.990623Q550.3906 36.725 550.3906 37.88125L548.9375 37.88125Q548.9375 37.2875 548.4219 36.865623Q547.9219 36.428123 547.15625 36.428123Q546.375 36.428123 545.9219 36.771873Q545.4844 37.115623 545.4844 37.6625Q545.4844 38.19375 545.8906 38.459373Q546.3125 38.725 547.3906 38.975Q548.46875 39.209373 549.1406 39.553123Q549.8125 39.88125 550.1406 40.35Q550.46875 40.81875 550.46875 41.50625Q550.46875 42.63125 549.5625 43.31875Q548.65625 44.00625 547.2031 44.00625Q546.1875 44.00625 545.40625 43.646873Q544.625 43.2875 544.1875 42.646873Q543.75 41.990623 543.75 41.240623L545.1875 41.240623Q545.2344 41.975 545.7656 42.396873Q546.3125 42.81875 547.2031 42.81875Q548.03125 42.81875 548.5156 42.490623Q549.0156 42.1625 549.0156 41.6ZM555.6094 44.00625Q553.8906 44.00625 552.8125 42.88125Q551.7344 41.740623 551.7344 39.85L551.7344 39.584373Q551.7344 38.334373 552.2031 37.35Q552.6875 36.35 553.5469 35.803123Q554.4219 35.240623 555.4219 35.240623Q557.0781 35.240623 557.9844 36.334373Q558.90625 37.4125 558.90625 39.428123L558.90625 40.0375L553.1719 40.0375Q553.2031 41.2875 553.90625 42.053123Q554.6094 42.81875 555.6875 42.81875Q556.4531 42.81875 556.9844 42.50625Q557.5156 42.19375 557.90625 41.678123L558.7969 42.365623Q557.7344 44.00625 555.6094 44.00625ZM555.4219 36.428123Q554.5469 36.428123 553.9531 37.06875Q553.3594 37.69375 553.21875 38.85L557.4531 38.85L557.4531 38.740623Q557.3906 37.63125 556.8594 37.0375Q556.3281 36.428123 555.4219 36.428123ZM565.3125 43.85Q565.1875 43.6 565.1094 42.959373Q564.1094 44.00625 562.7031 44.00625Q561.4531 44.00625 560.65625 43.303123Q559.8594 42.584373 559.8594 41.50625Q559.8594 40.178123 560.8594 39.459373Q561.8594 38.725 563.6875 38.725L565.09375 38.725L565.09375 38.053123Q565.09375 37.303123 564.6406 36.85Q564.1875 36.396873 563.2969 36.396873Q562.53125 36.396873 562.0 36.7875Q561.4844 37.178123 561.4844 37.740623L560.03125 37.740623Q560.03125 37.1 560.46875 36.521873Q560.9219 35.928123 561.6875 35.584373Q562.46875 35.240623 563.3906 35.240623Q564.84375 35.240623 565.6719 35.975Q566.5 36.69375 566.53125 37.975L566.53125 41.865623Q566.53125 43.0375 566.8281 43.725L566.8281 43.85L565.3125 43.85ZM562.9219 42.740623Q563.59375 42.740623 564.2031 42.396873Q564.8125 42.0375 565.09375 41.475L565.09375 39.740623L563.9531 39.740623Q561.2969 39.740623 561.2969 41.303123Q561.2969 41.975 561.75 42.365623Q562.2031 42.740623 562.9219 42.740623ZM573.1875 36.69375Q572.8594 36.63125 572.46875 36.63125Q571.0469 36.63125 570.5469 37.85L570.5469 43.85L569.09375 43.85L569.09375 35.396873L570.5 35.396873L570.53125 36.365623Q571.2344 35.240623 572.5469 35.240623Q572.96875 35.240623 573.1875 35.35L573.1875 36.69375ZM577.4844 42.81875Q578.2656 42.81875 578.84375 42.35Q579.4219 41.88125 579.4844 41.178123L580.84375 41.178123Q580.8125 41.9125 580.34375 42.56875Q579.8906 43.225 579.1094 43.615623Q578.34375 44.00625 577.4844 44.00625Q575.7656 44.00625 574.7344 42.85Q573.71875 41.69375 573.71875 39.69375L573.71875 39.459373Q573.71875 38.225 574.1719 37.271873Q574.625 36.303123 575.46875 35.771873Q576.3281 35.240623 577.4844 35.240623Q578.90625 35.240623 579.84375 36.1Q580.78125 36.94375 580.84375 38.303123L579.4844 38.303123Q579.4219 37.475 578.8594 36.959373Q578.2969 36.428123 577.4844 36.428123Q576.375 36.428123 575.7656 37.225Q575.1719 38.00625 575.1719 39.50625L575.1719 39.7875Q575.1719 41.240623 575.7656 42.0375Q576.375 42.81875 577.4844 42.81875ZM583.5469 36.4125Q584.5 35.240623 586.0469 35.240623Q588.71875 35.240623 588.75 38.25625L588.75 43.85L587.2969 43.85L587.2969 38.25625Q587.2969 37.334373 586.875 36.896873Q586.46875 36.459373 585.6094 36.459373Q584.90625 36.459373 584.375 36.834373Q583.84375 37.209373 583.5469 37.81875L583.5469 43.85L582.09375 43.85L582.09375 31.849998L583.5469 31.849998L583.5469 36.4125Z" fill-rule="nonzero"/></svg>