<svg version="1.1" viewBox="0.0 0.0 933.0 577.0" fill="none" stroke="none" stroke-linecap="square" stroke-miterlimit="10" width="933" height="577" xmlns:xlink="http://www.w3.org/1999/xlink" xmlns="http://www.w3.org/2000/svg"><path fill="#ffffff" d="M0 0L933.0 0L933.0 577.0L0 577.0L0 0Z" fill-rule="nonzero"/><path fill="#ffffff" fill-opacity="0.0" d="M0 0L933.0 0L933.0 577.0L0 577.0L0 0Z" fill-rule="nonzero"/><path stroke="#cccccc" stroke-width="1.0" stroke-linecap="butt" d="M148.5 428.5L904.5 428.5" fill-rule="nonzero"/><path stroke="#cccccc" stroke-width="1.0" stroke-linecap="butt" d="M148.5 323.5L904.5 323.5" fill-rule="nonzero"/><path stroke="#cccccc" stroke-width="1.0" stroke-linecap="butt" d="M148.5 217.5L904.5 217.5" fill-rule="nonzero"/><path stroke="#cccccc" stroke-width="1.0" stroke-linecap="butt" d="M148.5 112.5L904.5 112.5" fill-rule="nonzero"/><clipPath id="id_0"><path d="M148.85 75.583336L904.15 75.583336L904.15 481.15L148.85 481.15L148.85 75.583336Z" clip-rule="nonzero"/></clipPath><path stroke="#e69138" stroke-width="4.0" stroke-linecap="butt" clip-path="url(#id_0)" d="M183.18182 430.8824L251.84546 430.8824L320.5091 426.29147L389.17273 444.32962L457.83636 440.1585L526.5 436.6319L595.16364 433.577L663.8273 417.71933L732.4909 415.0247L801.15454 410.4338L869.8182 302.973" fill-rule="nonzero"/><path stroke="#3c78d8" stroke-width="4.0" stroke-linecap="butt" clip-path="url(#id_0)" d="M183.18182 365.18472L251.84546 359.70862L320.5091 358.71136L389.17273 354.37817L457.83636 352.2385L526.5 349.98386L595.16364 347.2646L663.8273 344.13583L732.4909 340.38913L801.15454 335.8558L869.8182 283.09805" fill-rule="nonzero"/><path fill="#e69138" clip-path="url(#id_0)" d="M177.52496 425.22552L188.83867 425.22552L188.83867 436.5392L177.52496 436.5392Z" fill-rule="nonzero"/><path fill="#e69138" clip-path="url(#id_0)" d="M246.1886 425.22552L257.50232 425.22552L257.50232 436.5392L246.1886 436.5392Z" fill-rule="nonzero"/><path fill="#e69138" clip-path="url(#id_0)" d="M314.85223 420.6346L326.16595 420.6346L326.16595 431.94833L314.85223 431.94833Z" fill-rule="nonzero"/><path fill="#e69138" clip-path="url(#id_0)" d="M383.51587 438.67276L394.8296 438.67276L394.8296 449.98648L383.51587 449.98648Z" fill-rule="nonzero"/><path fill="#e69138" clip-path="url(#id_0)" d="M452.1795 434.50165L463.49323 434.50165L463.49323 445.81537L452.1795 445.81537Z" fill-rule="nonzero"/><path fill="#e69138" clip-path="url(#id_0)" d="M520.84314 430.97504L532.15686 430.97504L532.15686 442.28876L520.84314 442.28876Z" fill-rule="nonzero"/><path fill="#e69138" clip-path="url(#id_0)" d="M589.5068 427.92014L600.8205 427.92014L600.8205 439.23386L589.5068 439.23386Z" fill-rule="nonzero"/><path fill="#e69138" clip-path="url(#id_0)" d="M658.1704 412.06247L669.48413 412.06247L669.48413 423.37616L658.1704 423.37616Z" fill-rule="nonzero"/><path fill="#e69138" clip-path="url(#id_0)" d="M726.83405 409.36786L738.14777 409.36786L738.14777 420.68155L726.83405 420.68155Z" fill-rule="nonzero"/><path fill="#e69138" clip-path="url(#id_0)" d="M795.4977 404.77695L806.8114 404.77695L806.8114 416.09067L795.4977 416.09067Z" fill-rule="nonzero"/><path fill="#e69138" clip-path="url(#id_0)" d="M864.1613 297.31613L875.47504 297.31613L875.47504 308.62985L864.1613 308.62985Z" fill-rule="nonzero"/><path fill="#3c78d8" clip-path="url(#id_0)" d="M183.18182 357.18472L190.11002 369.18472L176.25362 369.18472Z" fill-rule="nonzero"/><path fill="#3c78d8" clip-path="url(#id_0)" d="M251.84546 351.70862L258.77365 363.70862L244.91725 363.70862Z" fill-rule="nonzero"/><path fill="#3c78d8" clip-path="url(#id_0)" d="M320.5091 350.71136L327.4373 362.71136L313.5809 362.71136Z" fill-rule="nonzero"/><path fill="#3c78d8" clip-path="url(#id_0)" d="M389.17273 346.37817L396.10092 358.37817L382.24454 358.37817Z" fill-rule="nonzero"/><path fill="#3c78d8" clip-path="url(#id_0)" d="M457.83636 344.2385L464.76456 356.2385L450.90817 356.2385Z" fill-rule="nonzero"/><path fill="#3c78d8" clip-path="url(#id_0)" d="M526.5 341.98386L533.4282 353.98386L519.5718 353.98386Z" fill-rule="nonzero"/><path fill="#3c78d8" clip-path="url(#id_0)" d="M595.16364 339.2646L602.09186 351.2646L588.2354 351.2646Z" fill-rule="nonzero"/><path fill="#3c78d8" clip-path="url(#id_0)" d="M663.8273 336.13583L670.7555 348.13583L656.89905 348.13583Z" fill-rule="nonzero"/><path fill="#3c78d8" clip-path="url(#id_0)" d="M732.4909 332.38913L739.4191 344.38913L725.5627 344.38913Z" fill-rule="nonzero"/><path fill="#3c78d8" clip-path="url(#id_0)" d="M801.15454 327.8558L808.08276 339.8558L794.2263 339.8558Z" fill-rule="nonzero"/><path fill="#3c78d8" clip-path="url(#id_0)" d="M869.8182 275.09805L876.7464 287.09805L862.88995 287.09805Z" fill-rule="nonzero"/><path fill="#424242" d="M470.5 539.54065L467.82812 539.54065L467.82812 544.15L466.3125 544.15L466.3125 532.775L470.07812 532.775Q472.0 532.775 473.03125 533.65Q474.07812 534.525 474.07812 536.1969Q474.07812 537.2594 473.5 538.0563Q472.92188 538.8375 471.90625 539.22815L474.57812 544.0563L474.57812 544.15L472.96875 544.15L470.5 539.54065ZM467.82812 538.3219L470.125 538.3219Q471.25 538.3219 471.90625 537.7438Q472.5625 537.16565 472.5625 536.1969Q472.5625 535.1344 471.9375 534.5719Q471.3125 534.0094 470.125 534.0094L467.82812 534.0094L467.82812 538.3219ZM475.71875 539.8375Q475.71875 538.60315 476.20312 537.6188Q476.6875 536.6188 477.5625 536.0875Q478.4375 535.54065 479.54688 535.54065Q481.28125 535.54065 482.34375 536.7438Q483.40625 537.9313 483.40625 539.91565L483.40625 540.0094Q483.40625 541.2438 482.9375 542.22815Q482.46875 543.2125 481.57812 543.7594Q480.70312 544.3063 479.5625 544.3063Q477.84375 544.3063 476.78125 543.1188Q475.71875 541.91565 475.71875 539.9469L475.71875 539.8375ZM477.17188 540.0094Q477.17188 541.41565 477.8125 542.275Q478.46875 543.1188 479.5625 543.1188Q480.67188 543.1188 481.3125 542.2594Q481.96875 541.4 481.96875 539.8375Q481.96875 538.4469 481.29688 537.5875Q480.64062 536.72815 479.54688 536.72815Q478.48438 536.72815 477.82812 537.5875Q477.17188 538.4313 477.17188 540.0094ZM486.45312 542.9625L491.40625 542.9625L491.40625 544.15L484.6875 544.15L484.6875 543.0875L489.35938 536.8844L484.76562 536.8844L484.76562 535.6969L491.17188 535.6969L491.17188 536.7125L486.45312 542.9625ZM494.45312 535.6969L494.5 536.6344Q495.42188 535.54065 497.0 535.54065Q498.78125 535.54065 499.42188 536.9Q499.84375 536.29065 500.51562 535.91565Q501.1875 535.54065 502.10938 535.54065Q504.89062 535.54065 504.9375 538.47815L504.9375 544.15L503.5 544.15L503.5 538.5719Q503.5 537.66565 503.07812 537.2125Q502.67188 536.7594 501.6875 536.7594Q500.89062 536.7594 500.35938 537.2438Q499.82812 537.72815 499.73438 538.54065L499.73438 544.15L498.28125 544.15L498.28125 538.60315Q498.28125 536.7594 496.48438 536.7594Q495.0625 536.7594 494.53125 537.97815L494.53125 544.15L493.09375 544.15L493.09375 535.6969L494.45312 535.6969ZM508.67188 544.15L507.21875 544.15L507.21875 535.6969L508.67188 535.6969L508.67188 544.15ZM507.10938 533.4469Q507.10938 533.10315 507.3125 532.8688Q507.53125 532.6188 507.95312 532.6188Q508.375 532.6188 508.59375 532.8688Q508.8125 533.10315 508.8125 533.4625Q508.8125 533.8063 508.59375 534.04065Q508.375 534.275 507.95312 534.275Q507.53125 534.275 507.3125 534.04065Q507.10938 533.8063 507.10938 533.4469ZM516.3125 544.15Q516.1875 543.9 516.1094 543.2594Q515.1094 544.3063 513.7031 544.3063Q512.4531 544.3063 511.65625 543.60315Q510.85938 542.8844 510.85938 541.8063Q510.85938 540.47815 511.85938 539.7594Q512.8594 539.025 514.6875 539.025L516.09375 539.025L516.09375 538.35315Q516.09375 537.60315 515.6406 537.15Q515.1875 536.6969 514.2969 536.6969Q513.53125 536.6969 513.0 537.0875Q512.4844 537.47815 512.4844 538.04065L511.03125 538.04065Q511.03125 537.4 511.46875 536.8219Q511.92188 536.22815 512.6875 535.8844Q513.46875 535.54065 514.3906 535.54065Q515.84375 535.54065 516.6719 536.275Q517.5 536.9938 517.53125 538.275L517.53125 542.16565Q517.53125 543.3375 517.8281 544.025L517.8281 544.15L516.3125 544.15ZM513.9219 543.04065Q514.59375 543.04065 515.2031 542.6969Q515.8125 542.3375 516.09375 541.775L516.09375 540.04065L514.9531 540.04065Q512.2969 540.04065 512.2969 541.60315Q512.2969 542.275 512.75 542.66565Q513.2031 543.04065 513.9219 543.04065ZM524.1875 536.9938Q523.8594 536.9313 523.46875 536.9313Q522.0469 536.9313 521.5469 538.15L521.5469 544.15L520.09375 544.15L520.09375 535.6969L521.5 535.6969L521.53125 536.66565Q522.2344 535.54065 523.5469 535.54065Q523.96875 535.54065 524.1875 535.65L524.1875 536.9938ZM530.6719 544.15L529.21875 544.15L529.21875 535.6969L530.6719 535.6969L530.6719 544.15ZM529.1094 533.4469Q529.1094 533.10315 529.3125 532.8688Q529.53125 532.6188 529.9531 532.6188Q530.375 532.6188 530.59375 532.8688Q530.8125 533.10315 530.8125 533.4625Q530.8125 533.8063 530.59375 534.04065Q530.375 534.275 529.9531 534.275Q529.53125 534.275 529.3125 534.04065Q529.1094 533.8063 529.1094 533.4469ZM534.46875 535.6969L534.5156 536.7594Q535.4844 535.54065 537.0469 535.54065Q539.71875 535.54065 539.75 538.5563L539.75 544.15L538.2969 544.15L538.2969 538.5563Q538.2969 537.6344 537.875 537.1969Q537.46875 536.7594 536.6094 536.7594Q535.90625 536.7594 535.375 537.1344Q534.84375 537.5094 534.5469 538.1188L534.5469 544.15L533.09375 544.15L533.09375 535.6969L534.46875 535.6969ZM547.0156 541.9Q547.0156 541.3219 546.5781 540.9938Q546.1406 540.66565 545.03125 540.4313Q543.9375 540.1969 543.2969 539.8688Q542.65625 539.54065 542.34375 539.0875Q542.03125 538.6344 542.03125 538.0094Q542.03125 536.97815 542.90625 536.2594Q543.7969 535.54065 545.15625 535.54065Q546.59375 535.54065 547.4844 536.29065Q548.3906 537.025 548.3906 538.1813L546.9375 538.1813Q546.9375 537.5875 546.4219 537.16565Q545.9219 536.72815 545.15625 536.72815Q544.375 536.72815 543.9219 537.0719Q543.4844 537.41565 543.4844 537.9625Q543.4844 538.4938 543.8906 538.7594Q544.3125 539.025 545.3906 539.275Q546.46875 539.5094 547.1406 539.85315Q547.8125 540.1813 548.1406 540.65Q548.46875 541.1188 548.46875 541.8063Q548.46875 542.9313 547.5625 543.6188Q546.65625 544.3063 545.2031 544.3063Q544.1875 544.3063 543.40625 543.9469Q542.625 543.5875 542.1875 542.9469Q541.75 542.29065 541.75 541.54065L543.1875 541.54065Q543.2344 542.275 543.7656 542.6969Q544.3125 543.1188 545.2031 543.1188Q546.03125 543.1188 546.5156 542.79065Q547.0156 542.4625 547.0156 541.9ZM552.0625 533.65L552.0625 535.6969L553.6406 535.6969L553.6406 536.8063L552.0625 536.8063L552.0625 542.0563Q552.0625 542.5563 552.2656 542.8219Q552.4844 543.0719 552.9844 543.0719Q553.2344 543.0719 553.6719 542.97815L553.6719 544.15Q553.1094 544.3063 552.5625 544.3063Q551.59375 544.3063 551.09375 543.72815Q550.6094 543.1344 550.6094 542.0563L550.6094 536.8063L549.0781 536.8063L549.0781 535.6969L550.6094 535.6969L550.6094 533.65L552.0625 533.65ZM560.3125 544.15Q560.1875 543.9 560.1094 543.2594Q559.1094 544.3063 557.7031 544.3063Q556.4531 544.3063 555.65625 543.60315Q554.8594 542.8844 554.8594 541.8063Q554.8594 540.47815 555.8594 539.7594Q556.8594 539.025 558.6875 539.025L560.09375 539.025L560.09375 538.35315Q560.09375 537.60315 559.6406 537.15Q559.1875 536.6969 558.2969 536.6969Q557.53125 536.6969 557.0 537.0875Q556.4844 537.47815 556.4844 538.04065L555.03125 538.04065Q555.03125 537.4 555.46875 536.8219Q555.9219 536.22815 556.6875 535.8844Q557.46875 535.54065 558.3906 535.54065Q559.84375 535.54065 560.6719 536.275Q561.5 536.9938 561.53125 538.275L561.53125 542.16565Q561.53125 543.3375 561.8281 544.025L561.8281 544.15L560.3125 544.15ZM557.9219 543.04065Q558.59375 543.04065 559.2031 542.6969Q559.8125 542.3375 560.09375 541.775L560.09375 540.04065L558.9531 540.04065Q556.2969 540.04065 556.2969 541.60315Q556.2969 542.275 556.75 542.66565Q557.2031 543.04065 557.9219 543.04065ZM565.46875 535.6969L565.5156 536.7594Q566.4844 535.54065 568.0469 535.54065Q570.71875 535.54065 570.75 538.5563L570.75 544.15L569.2969 544.15L569.2969 538.5563Q569.2969 537.6344 568.875 537.1969Q568.46875 536.7594 567.6094 536.7594Q566.90625 536.7594 566.375 537.1344Q565.84375 537.5094 565.5469 538.1188L565.5469 544.15L564.09375 544.15L564.09375 535.6969L565.46875 535.6969ZM576.4844 543.1188Q577.2656 543.1188 577.84375 542.65Q578.4219 542.1813 578.4844 541.47815L579.84375 541.47815Q579.8125 542.2125 579.34375 542.8688Q578.8906 543.525 578.1094 543.91565Q577.34375 544.3063 576.4844 544.3063Q574.7656 544.3063 573.7344 543.15Q572.71875 541.9938 572.71875 539.9938L572.71875 539.7594Q572.71875 538.525 573.1719 537.5719Q573.625 536.60315 574.46875 536.0719Q575.3281 535.54065 576.4844 535.54065Q577.90625 535.54065 578.84375 536.4Q579.78125 537.2438 579.84375 538.60315L578.4844 538.60315Q578.4219 537.775 577.8594 537.2594Q577.2969 536.72815 576.4844 536.72815Q575.375 536.72815 574.7656 537.525Q574.1719 538.3063 574.1719 539.8063L574.1719 540.0875Q574.1719 541.54065 574.7656 542.3375Q575.375 543.1188 576.4844 543.1188ZM582.59375 535.6969L582.59375 545.1344Q582.59375 547.5719 580.375 547.5719Q579.8906 547.5719 579.4844 547.4313L579.4844 546.275Q579.7344 546.3375 580.15625 546.3375Q580.6406 546.3375 580.8906 546.0719Q581.1406 545.8063 581.1406 545.16565L581.1406 535.6969L582.59375 535.6969ZM581.0 533.4469Q581.0 533.10315 581.2031 532.8688Q581.4219 532.6188 581.84375 532.6188Q582.2656 532.6188 582.4844 532.8688Q582.7031 533.10315 582.7031 533.4625Q582.7031 533.8063 582.4844 534.04065Q582.2656 534.275 581.84375 534.275Q581.4219 534.275 581.2031 534.04065Q581.0 533.8063 581.0 533.4469ZM586.6719 544.15L585.21875 544.15L585.21875 535.6969L586.6719 535.6969L586.6719 544.15ZM585.1094 533.4469Q585.1094 533.10315 585.3125 532.8688Q585.53125 532.6188 585.9531 532.6188Q586.375 532.6188 586.59375 532.8688Q586.8125 533.10315 586.8125 533.4625Q586.8125 533.8063 586.59375 534.04065Q586.375 534.275 585.9531 534.275Q585.53125 534.275 585.3125 534.04065Q585.1094 533.8063 585.1094 533.4469Z" fill-rule="nonzero"/><path fill="#424242" d="M40.24065 358.92917Q42.037525 359.1323 43.0219 360.2573Q44.006275 361.3823 44.006275 363.24167Q44.006275 365.2573 42.568775 366.47604Q41.11565 367.67917 38.693775 367.67917L37.600025 367.67917Q36.006275 367.67917 34.80315 367.11667Q33.600025 366.55417 32.9594 365.52292Q32.318775 364.47604 32.318775 363.10104Q32.318775 361.28854 33.3344 360.1948Q34.3344 359.10104 36.131275 358.92917L36.131275 360.42917Q34.7719 360.6323 34.162525 361.28854Q33.55315 361.92917 33.55315 363.10104Q33.55315 364.53854 34.61565 365.36667Q35.67815 366.17917 37.631275 366.17917L38.74065 366.17917Q40.5844 366.17917 41.67815 365.41354Q42.7719 364.6323 42.7719 363.24167Q42.7719 361.99167 42.2094 361.3198Q41.6469 360.64792 40.24065 360.42917L40.24065 358.92917ZM42.662525 356.16354L42.662525 351.21042L43.850025 351.21042L43.850025 357.92917L42.787525 357.92917L36.5844 353.2573L36.5844 357.85104L35.3969 357.85104L35.3969 351.4448L36.412525 351.4448L42.662525 356.16354ZM43.850025 344.30417Q43.600025 344.42917 42.9594 344.5073Q44.006275 345.5073 44.006275 346.91354Q44.006275 348.16354 43.30315 348.96042Q42.5844 349.7573 41.506275 349.7573Q40.17815 349.7573 39.4594 348.7573Q38.725025 347.7573 38.725025 345.92917L38.725025 344.52292L38.05315 344.52292Q37.30315 344.52292 36.850025 344.97604Q36.3969 345.42917 36.3969 346.3198Q36.3969 347.08542 36.787525 347.61667Q37.17815 348.1323 37.74065 348.1323L37.74065 349.58542Q37.100025 349.58542 36.5219 349.14792Q35.92815 348.6948 35.5844 347.92917Q35.24065 347.14792 35.24065 346.22604Q35.24065 344.77292 35.975025 343.9448Q36.693775 343.11667 37.975025 343.08542L41.86565 343.08542Q43.037525 343.08542 43.725025 342.78854L43.850025 342.78854L43.850025 344.30417ZM42.74065 346.6948Q42.74065 346.02292 42.3969 345.41354Q42.037525 344.80417 41.475025 344.52292L39.74065 344.52292L39.74065 345.66354Q39.74065 348.3198 41.30315 348.3198Q41.975025 348.3198 42.36565 347.86667Q42.74065 347.41354 42.74065 346.6948ZM41.600025 335.60104Q41.0219 335.60104 40.693775 336.03854Q40.36565 336.47604 40.131275 337.58542Q39.8969 338.67917 39.568775 339.3198Q39.24065 339.96042 38.787525 340.27292Q38.3344 340.58542 37.7094 340.58542Q36.67815 340.58542 35.9594 339.71042Q35.24065 338.8198 35.24065 337.46042Q35.24065 336.02292 35.99065 335.1323Q36.725025 334.22604 37.881275 334.22604L37.881275 335.67917Q37.287525 335.67917 36.86565 336.1948Q36.42815 336.6948 36.42815 337.46042Q36.42815 338.24167 36.7719 338.6948Q37.11565 339.1323 37.662525 339.1323Q38.193775 339.1323 38.4594 338.72604Q38.725025 338.30417 38.975025 337.22604Q39.2094 336.14792 39.55315 335.47604Q39.881275 334.80417 40.350025 334.47604Q40.818775 334.14792 41.506275 334.14792Q42.631275 334.14792 43.318775 335.05417Q44.006275 335.96042 44.006275 337.41354Q44.006275 338.42917 43.6469 339.21042Q43.287525 339.99167 42.6469 340.42917Q41.99065 340.86667 41.24065 340.86667L41.24065 339.42917Q41.975025 339.3823 42.3969 338.85104Q42.818775 338.30417 42.818775 337.41354Q42.818775 336.58542 42.49065 336.10104Q42.162525 335.60104 41.600025 335.60104ZM41.850025 321.03854L35.3969 319.41354L35.3969 317.96042L43.850025 320.42917L43.850025 321.60104L37.443775 323.64792L43.850025 325.64792L43.850025 326.8198L35.3969 329.27292L35.3969 327.83542L41.725025 326.17917L35.3969 324.21042L35.3969 323.03854L41.850025 321.03854ZM41.725025 313.7573L35.3969 311.78854L35.3969 310.24167L45.162525 313.6323Q47.2719 314.42917 47.2719 316.14792L47.24065 316.41354L47.1469 316.96042L45.975025 316.96042L46.006275 316.5698Q46.006275 315.83542 45.7094 315.42917Q45.412525 315.0073 44.61565 314.74167L43.756275 314.42917L35.3969 317.4448L35.3969 315.86667L41.725025 313.7573ZM39.92815 306.16354L40.881275 307.0698L43.850025 307.0698L43.850025 308.5073L31.850025 308.5073L31.850025 307.0698L39.100025 307.0698L38.17815 306.28854L35.3969 303.66354L35.3969 301.89792L38.92815 305.1948L43.850025 301.52292L43.850025 303.21042L39.92815 306.16354ZM39.537525 300.89792Q38.30315 300.89792 37.318775 300.41354Q36.318775 299.92917 35.787525 299.05417Q35.24065 298.17917 35.24065 297.0698Q35.24065 295.33542 36.443775 294.27292Q37.631275 293.21042 39.61565 293.21042L39.7094 293.21042Q40.943775 293.21042 41.92815 293.67917Q42.912525 294.14792 43.4594 295.03854Q44.006275 295.91354 44.006275 297.05417Q44.006275 298.77292 42.818775 299.83542Q41.61565 300.89792 39.6469 300.89792L39.537525 300.89792ZM39.7094 299.4448Q41.11565 299.4448 41.975025 298.80417Q42.818775 298.14792 42.818775 297.05417Q42.818775 295.9448 41.9594 295.30417Q41.100025 294.64792 39.537525 294.64792Q38.1469 294.64792 37.287525 295.3198Q36.42815 295.97604 36.42815 297.0698Q36.42815 298.1323 37.287525 298.78854Q38.131275 299.4448 39.7094 299.4448ZM35.3969 290.14792L36.4594 290.10104Q35.24065 289.1323 35.24065 287.5698Q35.24065 284.89792 38.256275 284.86667L43.850025 284.86667L43.850025 286.3198L38.256275 286.3198Q37.3344 286.3198 36.8969 286.74167Q36.4594 287.14792 36.4594 288.0073Q36.4594 288.71042 36.8344 289.24167Q37.2094 289.77292 37.818775 290.0698L43.850025 290.0698L43.850025 291.52292L35.3969 291.52292L35.3969 290.14792ZM41.725025 279.7573L35.3969 277.78854L35.3969 276.24167L45.162525 279.6323Q47.2719 280.42917 47.2719 282.14792L47.24065 282.41354L47.1469 282.96042L45.975025 282.96042L46.006275 282.5698Q46.006275 281.83542 45.7094 281.42917Q45.412525 281.0073 44.61565 280.74167L43.756275 280.42917L35.3969 283.4448L35.3969 281.86667L41.725025 279.7573ZM41.850025 267.03854L35.3969 265.41354L35.3969 263.96042L43.850025 266.42917L43.850025 267.60104L37.443775 269.64792L43.850025 271.64792L43.850025 272.8198L35.3969 275.27292L35.3969 273.83542L41.725025 272.17917L35.3969 270.21042L35.3969 269.03854L41.850025 267.03854ZM43.850025 257.30417Q43.600025 257.42917 42.9594 257.5073Q44.006275 258.5073 44.006275 259.91354Q44.006275 261.16354 43.30315 261.96042Q42.5844 262.7573 41.506275 262.7573Q40.17815 262.7573 39.4594 261.7573Q38.725025 260.7573 38.725025 258.92917L38.725025 257.52292L38.05315 257.52292Q37.30315 257.52292 36.850025 257.97604Q36.3969 258.42917 36.3969 259.3198Q36.3969 260.08542 36.787525 260.61667Q37.17815 261.1323 37.74065 261.1323L37.74065 262.58542Q37.100025 262.58542 36.5219 262.14792Q35.92815 261.6948 35.5844 260.92917Q35.24065 260.14792 35.24065 259.22604Q35.24065 257.77292 35.975025 256.9448Q36.693775 256.11667 37.975025 256.08542L41.86565 256.08542Q43.037525 256.08542 43.725025 255.78854L43.850025 255.78854L43.850025 257.30417ZM42.74065 259.6948Q42.74065 259.02292 42.3969 258.41354Q42.037525 257.80417 41.475025 257.52292L39.74065 257.52292L39.74065 258.66354Q39.74065 261.3198 41.30315 261.3198Q41.975025 261.3198 42.36565 260.86667Q42.74065 260.41354 42.74065 259.6948ZM35.3969 252.14792L36.4594 252.10104Q35.24065 251.1323 35.24065 249.5698Q35.24065 246.89792 38.256275 246.86667L43.850025 246.86667L43.850025 248.3198L38.256275 248.3198Q37.3344 248.3198 36.8969 248.74167Q36.4594 249.14792 36.4594 250.0073Q36.4594 250.71042 36.8344 251.24167Q37.2094 251.77292 37.818775 252.0698L43.850025 252.0698L43.850025 253.52292L35.3969 253.52292L35.3969 252.14792ZM43.850025 242.9448L43.850025 244.39792L35.3969 244.39792L35.3969 242.9448L43.850025 242.9448ZM33.1469 244.5073Q32.80315 244.5073 32.568775 244.30417Q32.318775 244.08542 32.318775 243.66354Q32.318775 243.24167 32.568775 243.02292Q32.80315 242.80417 33.162525 242.80417Q33.506275 242.80417 33.74065 243.02292Q33.975025 243.24167 33.975025 243.66354Q33.975025 244.08542 33.74065 244.30417Q33.506275 244.5073 33.1469 244.5073ZM43.850025 235.30417Q43.600025 235.42917 42.9594 235.5073Q44.006275 236.5073 44.006275 237.91354Q44.006275 239.16354 43.30315 239.96042Q42.5844 240.7573 41.506275 240.7573Q40.17815 240.7573 39.4594 239.7573Q38.725025 238.7573 38.725025 236.92917L38.725025 235.52292L38.05315 235.52292Q37.30315 235.52292 36.850025 235.97604Q36.3969 236.42917 36.3969 237.3198Q36.3969 238.08542 36.787525 238.61667Q37.17815 239.1323 37.74065 239.1323L37.74065 240.58542Q37.100025 240.58542 36.5219 240.14792Q35.92815 239.6948 35.5844 238.92917Q35.24065 238.14792 35.24065 237.22604Q35.24065 235.77292 35.975025 234.9448Q36.693775 234.11667 37.975025 234.08542L41.86565 234.08542Q43.037525 234.08542 43.725025 233.78854L43.850025 233.78854L43.850025 235.30417ZM42.74065 237.6948Q42.74065 237.02292 42.3969 236.41354Q42.037525 235.80417 41.475025 235.52292L39.74065 235.52292L39.74065 236.66354Q39.74065 239.3198 41.30315 239.3198Q41.975025 239.3198 42.36565 238.86667Q42.74065 238.41354 42.74065 237.6948ZM32.037525 224.52292L32.037525 226.02292L45.100025 226.02292L45.100025 224.52292L46.287525 224.52292L46.287525 227.47604L30.850025 227.47604L30.850025 224.52292L32.037525 224.52292ZM35.3969 221.96042L40.3344 221.96042Q41.61565 221.96042 42.225025 221.55417Q42.8344 221.14792 42.8344 220.24167Q42.8344 218.6948 41.6469 218.21042L35.3969 218.21042L35.3969 216.7573L43.850025 216.7573L43.850025 218.05417L42.943775 218.1323Q44.006275 218.85104 44.006275 220.17917Q44.006275 221.33542 43.42815 221.96042L47.100025 221.96042L47.100025 223.41354L35.3969 223.41354L35.3969 221.96042ZM41.600025 209.60104Q41.0219 209.60104 40.693775 210.03854Q40.36565 210.47604 40.131275 211.58542Q39.8969 212.67917 39.568775 213.3198Q39.24065 213.96042 38.787525 214.27292Q38.3344 214.58542 37.7094 214.58542Q36.67815 214.58542 35.9594 213.71042Q35.24065 212.8198 35.24065 211.46042Q35.24065 210.02292 35.99065 209.1323Q36.725025 208.22604 37.881275 208.22604L37.881275 209.67917Q37.287525 209.67917 36.86565 210.1948Q36.42815 210.6948 36.42815 211.46042Q36.42815 212.24167 36.7719 212.6948Q37.11565 213.1323 37.662525 213.1323Q38.193775 213.1323 38.4594 212.72604Q38.725025 212.30417 38.975025 211.22604Q39.2094 210.14792 39.55315 209.47604Q39.881275 208.80417 40.350025 208.47604Q40.818775 208.14792 41.506275 208.14792Q42.631275 208.14792 43.318775 209.05417Q44.006275 209.96042 44.006275 211.41354Q44.006275 212.42917 43.6469 213.21042Q43.287525 213.99167 42.6469 214.42917Q41.99065 214.86667 41.24065 214.86667L41.24065 213.42917Q41.975025 213.3823 42.3969 212.85104Q42.818775 212.30417 42.818775 211.41354Q42.818775 210.58542 42.49065 210.10104Q42.162525 209.60104 41.600025 209.60104ZM30.850025 207.53854L30.850025 204.58542L46.287525 204.58542L46.287525 207.53854L45.100025 207.53854L45.100025 206.03854L32.037525 206.03854L32.037525 207.53854L30.850025 207.53854Z" fill-rule="nonzero"/><path fill="#757575" d="M130.83438 432.97195L129.56876 432.97195L129.56876 424.55008L127.00625 425.47195L127.00625 424.33133L130.63126 422.97195L130.83438 422.97195L130.83438 432.97195ZM140.9125 428.72195Q140.9125 430.9407 140.14688 432.03445Q139.39688 433.11258 137.7875 433.11258Q136.19376 433.11258 135.42813 432.0657Q134.6625 431.0032 134.63126 428.89383L134.63126 427.20633Q134.63126 425.01883 135.38126 423.95633Q136.14688 422.8782 137.77188 422.8782Q139.38126 422.8782 140.13126 423.90945Q140.89688 424.9407 140.9125 427.08133L140.9125 428.72195ZM139.64688 427.0032Q139.64688 425.39383 139.19376 424.65945Q138.75626 423.92508 137.77188 423.92508Q136.80313 423.92508 136.35 424.65945Q135.9125 425.3782 135.89688 426.89383L135.89688 428.92508Q135.89688 430.53445 136.36563 431.3157Q136.83438 432.08133 137.7875 432.08133Q138.725 432.08133 139.17813 431.36258Q139.63126 430.6282 139.64688 429.0657L139.64688 427.0032Z" fill-rule="nonzero"/><path fill="#757575" d="M111.83437 327.61588L110.56875 327.61588L110.56875 319.194L108.00625 320.11588L108.00625 318.97525L111.63125 317.61588L111.83437 317.61588L111.83437 327.61588ZM115.77187 329.60025L115.05312 329.10025Q115.69375 328.20963 115.725 327.2565L115.725 326.11588L116.95937 326.11588L116.95937 327.11588Q116.95937 327.80338 116.61562 328.49088Q116.27187 329.17838 115.77187 329.60025ZM124.9125 323.36588Q124.9125 325.58463 124.14687 326.67838Q123.39687 327.7565 121.7875 327.7565Q120.19375 327.7565 119.42812 326.70963Q118.6625 325.64713 118.63125 323.53775L118.63125 321.85025Q118.63125 319.66275 119.38125 318.60025Q120.14687 317.52213 121.77187 317.52213Q123.38125 317.52213 124.13125 318.55338Q124.89687 319.58463 124.9125 321.72525L124.9125 323.36588ZM123.64687 321.64713Q123.64687 320.03775 123.19375 319.30338Q122.75625 318.569 121.77187 318.569Q120.80312 318.569 120.35 319.30338Q119.9125 320.02213 119.89687 321.53775L119.89687 323.569Q119.89687 325.17838 120.36562 325.95963Q120.83437 326.72525 121.7875 326.72525Q122.725 326.72525 123.17812 326.0065Q123.63125 325.27213 123.64687 323.70963L123.64687 321.64713ZM132.9125 323.36588Q132.9125 325.58463 132.14688 326.67838Q131.39688 327.7565 129.7875 327.7565Q128.19376 327.7565 127.42812 326.70963Q126.6625 325.64713 126.63125 323.53775L126.63125 321.85025Q126.63125 319.66275 127.38125 318.60025Q128.14688 317.52213 129.77188 317.52213Q131.38126 317.52213 132.13126 318.55338Q132.89688 319.58463 132.9125 321.72525L132.9125 323.36588ZM131.64688 321.64713Q131.64688 320.03775 131.19376 319.30338Q130.75626 318.569 129.77188 318.569Q128.80313 318.569 128.35 319.30338Q127.9125 320.02213 127.89687 321.53775L127.89687 323.569Q127.89687 325.17838 128.36563 325.95963Q128.83438 326.72525 129.7875 326.72525Q130.725 326.72525 131.17813 326.0065Q131.63126 325.27213 131.64688 323.70963L131.64688 321.64713ZM140.9125 323.36588Q140.9125 325.58463 140.14688 326.67838Q139.39688 327.7565 137.7875 327.7565Q136.19376 327.7565 135.42813 326.70963Q134.6625 325.64713 134.63126 323.53775L134.63126 321.85025Q134.63126 319.66275 135.38126 318.60025Q136.14688 317.52213 137.77188 317.52213Q139.38126 317.52213 140.13126 318.55338Q140.89688 319.58463 140.9125 321.72525L140.9125 323.36588ZM139.64688 321.64713Q139.64688 320.03775 139.19376 319.30338Q138.75626 318.569 137.77188 318.569Q136.80313 318.569 136.35 319.30338Q135.9125 320.02213 135.89688 321.53775L135.89688 323.569Q135.89688 325.17838 136.36563 325.95963Q136.83438 326.72525 137.7875 326.72525Q138.725 326.72525 139.17813 326.0065Q139.63126 325.27213 139.64688 323.70963L139.64688 321.64713Z" fill-rule="nonzero"/><path fill="#757575" d="M95.83437 222.2598L94.56875 222.2598L94.56875 213.83792L92.00625 214.7598L92.00625 213.61917L95.63125 212.2598L95.83437 212.2598L95.83437 222.2598ZM105.9125 218.0098Q105.9125 220.22855 105.14687 221.3223Q104.39687 222.40042 102.7875 222.40042Q101.19375 222.40042 100.42812 221.35355Q99.6625 220.29105 99.63125 218.18167L99.63125 216.49417Q99.63125 214.30667 100.38125 213.24417Q101.14687 212.16605 102.77187 212.16605Q104.38125 212.16605 105.13125 213.1973Q105.89687 214.22855 105.9125 216.36917L105.9125 218.0098ZM104.64687 216.29105Q104.64687 214.68167 104.19375 213.9473Q103.75625 213.21292 102.77187 213.21292Q101.80312 213.21292 101.35 213.9473Q100.9125 214.66605 100.89687 216.18167L100.89687 218.21292Q100.89687 219.8223 101.36562 220.60355Q101.83437 221.36917 102.7875 221.36917Q103.725 221.36917 104.17812 220.65042Q104.63125 219.91605 104.64687 218.35355L104.64687 216.29105ZM113.9125 218.0098Q113.9125 220.22855 113.14687 221.3223Q112.39687 222.40042 110.7875 222.40042Q109.19375 222.40042 108.42812 221.35355Q107.6625 220.29105 107.63125 218.18167L107.63125 216.49417Q107.63125 214.30667 108.38125 213.24417Q109.14687 212.16605 110.77187 212.16605Q112.38125 212.16605 113.13125 213.1973Q113.89687 214.22855 113.9125 216.36917L113.9125 218.0098ZM112.64687 216.29105Q112.64687 214.68167 112.19375 213.9473Q111.75625 213.21292 110.77187 213.21292Q109.80312 213.21292 109.35 213.9473Q108.9125 214.66605 108.89687 216.18167L108.89687 218.21292Q108.89687 219.8223 109.36562 220.60355Q109.83437 221.36917 110.7875 221.36917Q111.725 221.36917 112.17812 220.65042Q112.63125 219.91605 112.64687 218.35355L112.64687 216.29105ZM115.77187 224.24417L115.05312 223.74417Q115.69375 222.85355 115.725 221.90042L115.725 220.7598L116.95937 220.7598L116.95937 221.7598Q116.95937 222.4473 116.61562 223.1348Q116.27187 223.8223 115.77187 224.24417ZM124.9125 218.0098Q124.9125 220.22855 124.14687 221.3223Q123.39687 222.40042 121.7875 222.40042Q120.19375 222.40042 119.42812 221.35355Q118.6625 220.29105 118.63125 218.18167L118.63125 216.49417Q118.63125 214.30667 119.38125 213.24417Q120.14687 212.16605 121.77187 212.16605Q123.38125 212.16605 124.13125 213.1973Q124.89687 214.22855 124.9125 216.36917L124.9125 218.0098ZM123.64687 216.29105Q123.64687 214.68167 123.19375 213.9473Q122.75625 213.21292 121.77187 213.21292Q120.80312 213.21292 120.35 213.9473Q119.9125 214.66605 119.89687 216.18167L119.89687 218.21292Q119.89687 219.8223 120.36562 220.60355Q120.83437 221.36917 121.7875 221.36917Q122.725 221.36917 123.17812 220.65042Q123.63125 219.91605 123.64687 218.35355L123.64687 216.29105ZM132.9125 218.0098Q132.9125 220.22855 132.14688 221.3223Q131.39688 222.40042 129.7875 222.40042Q128.19376 222.40042 127.42812 221.35355Q126.6625 220.29105 126.63125 218.18167L126.63125 216.49417Q126.63125 214.30667 127.38125 213.24417Q128.14688 212.16605 129.77188 212.16605Q131.38126 212.16605 132.13126 213.1973Q132.89688 214.22855 132.9125 216.36917L132.9125 218.0098ZM131.64688 216.29105Q131.64688 214.68167 131.19376 213.9473Q130.75626 213.21292 129.77188 213.21292Q128.80313 213.21292 128.35 213.9473Q127.9125 214.66605 127.89687 216.18167L127.89687 218.21292Q127.89687 219.8223 128.36563 220.60355Q128.83438 221.36917 129.7875 221.36917Q130.725 221.36917 131.17813 220.65042Q131.63126 219.91605 131.64688 218.35355L131.64688 216.29105ZM140.9125 218.0098Q140.9125 220.22855 140.14688 221.3223Q139.39688 222.40042 137.7875 222.40042Q136.19376 222.40042 135.42813 221.35355Q134.6625 220.29105 134.63126 218.18167L134.63126 216.49417Q134.63126 214.30667 135.38126 213.24417Q136.14688 212.16605 137.77188 212.16605Q139.38126 212.16605 140.13126 213.1973Q140.89688 214.22855 140.9125 216.36917L140.9125 218.0098ZM139.64688 216.29105Q139.64688 214.68167 139.19376 213.9473Q138.75626 213.21292 137.77188 213.21292Q136.80313 213.21292 136.35 213.9473Q135.9125 214.66605 135.89688 216.18167L135.89688 218.21292Q135.89688 219.8223 136.36563 220.60355Q136.83438 221.36917 137.7875 221.36917Q138.725 221.36917 139.17813 220.65042Q139.63126 219.91605 139.64688 218.35355L139.64688 216.29105Z" fill-rule="nonzero"/><path fill="#757575" d="M76.83437 116.9037L75.56875 116.9037L75.56875 108.48183L73.00625 109.4037L73.00625 108.26308L76.63125 106.9037L76.83437 106.9037L76.83437 116.9037ZM86.9125 112.6537Q86.9125 114.87245 86.14687 115.9662Q85.39687 117.04433 83.7875 117.04433Q82.19375 117.04433 81.42812 115.99745Q80.6625 114.93495 80.63125 112.82558L80.63125 111.13808Q80.63125 108.95058 81.38125 107.88808Q82.14687 106.80995 83.77187 106.80995Q85.38125 106.80995 86.13125 107.8412Q86.89687 108.87245 86.9125 111.01308L86.9125 112.6537ZM85.64687 110.93495Q85.64687 109.32558 85.19375 108.5912Q84.75625 107.85683 83.77187 107.85683Q82.80312 107.85683 82.35 108.5912Q81.9125 109.30995 81.89687 110.82558L81.89687 112.85683Q81.89687 114.4662 82.36562 115.24745Q82.83437 116.01308 83.7875 116.01308Q84.725 116.01308 85.17812 115.29433Q85.63125 114.55995 85.64687 112.99745L85.64687 110.93495ZM88.77187 118.88808L88.05312 118.38808Q88.69375 117.49745 88.725 116.54433L88.725 115.4037L89.95937 115.4037L89.95937 116.4037Q89.95937 117.0912 89.61562 117.7787Q89.27187 118.4662 88.77187 118.88808ZM97.9125 112.6537Q97.9125 114.87245 97.14687 115.9662Q96.39687 117.04433 94.7875 117.04433Q93.19375 117.04433 92.42812 115.99745Q91.6625 114.93495 91.63125 112.82558L91.63125 111.13808Q91.63125 108.95058 92.38125 107.88808Q93.14687 106.80995 94.77187 106.80995Q96.38125 106.80995 97.13125 107.8412Q97.89687 108.87245 97.9125 111.01308L97.9125 112.6537ZM96.64687 110.93495Q96.64687 109.32558 96.19375 108.5912Q95.75625 107.85683 94.77187 107.85683Q93.80312 107.85683 93.35 108.5912Q92.9125 109.30995 92.89687 110.82558L92.89687 112.85683Q92.89687 114.4662 93.36562 115.24745Q93.83437 116.01308 94.7875 116.01308Q95.725 116.01308 96.17812 115.29433Q96.63125 114.55995 96.64687 112.99745L96.64687 110.93495ZM105.9125 112.6537Q105.9125 114.87245 105.14687 115.9662Q104.39687 117.04433 102.7875 117.04433Q101.19375 117.04433 100.42812 115.99745Q99.6625 114.93495 99.63125 112.82558L99.63125 111.13808Q99.63125 108.95058 100.38125 107.88808Q101.14687 106.80995 102.77187 106.80995Q104.38125 106.80995 105.13125 107.8412Q105.89687 108.87245 105.9125 111.01308L105.9125 112.6537ZM104.64687 110.93495Q104.64687 109.32558 104.19375 108.5912Q103.75625 107.85683 102.77187 107.85683Q101.80312 107.85683 101.35 108.5912Q100.9125 109.30995 100.89687 110.82558L100.89687 112.85683Q100.89687 114.4662 101.36562 115.24745Q101.83437 116.01308 102.7875 116.01308Q103.725 116.01308 104.17812 115.29433Q104.63125 114.55995 104.64687 112.99745L104.64687 110.93495ZM113.9125 112.6537Q113.9125 114.87245 113.14687 115.9662Q112.39687 117.04433 110.7875 117.04433Q109.19375 117.04433 108.42812 115.99745Q107.6625 114.93495 107.63125 112.82558L107.63125 111.13808Q107.63125 108.95058 108.38125 107.88808Q109.14687 106.80995 110.77187 106.80995Q112.38125 106.80995 113.13125 107.8412Q113.89687 108.87245 113.9125 111.01308L113.9125 112.6537ZM112.64687 110.93495Q112.64687 109.32558 112.19375 108.5912Q111.75625 107.85683 110.77187 107.85683Q109.80312 107.85683 109.35 108.5912Q108.9125 109.30995 108.89687 110.82558L108.89687 112.85683Q108.89687 114.4662 109.36562 115.24745Q109.83437 116.01308 110.7875 116.01308Q111.725 116.01308 112.17812 115.29433Q112.63125 114.55995 112.64687 112.99745L112.64687 110.93495ZM115.77187 118.88808L115.05312 118.38808Q115.69375 117.49745 115.725 116.54433L115.725 115.4037L116.95937 115.4037L116.95937 116.4037Q116.95937 117.0912 116.61562 117.7787Q116.27187 118.4662 115.77187 118.88808ZM124.9125 112.6537Q124.9125 114.87245 124.14687 115.9662Q123.39687 117.04433 121.7875 117.04433Q120.19375 117.04433 119.42812 115.99745Q118.6625 114.93495 118.63125 112.82558L118.63125 111.13808Q118.63125 108.95058 119.38125 107.88808Q120.14687 106.80995 121.77187 106.80995Q123.38125 106.80995 124.13125 107.8412Q124.89687 108.87245 124.9125 111.01308L124.9125 112.6537ZM123.64687 110.93495Q123.64687 109.32558 123.19375 108.5912Q122.75625 107.85683 121.77187 107.85683Q120.80312 107.85683 120.35 108.5912Q119.9125 109.30995 119.89687 110.82558L119.89687 112.85683Q119.89687 114.4662 120.36562 115.24745Q120.83437 116.01308 121.7875 116.01308Q122.725 116.01308 123.17812 115.29433Q123.63125 114.55995 123.64687 112.99745L123.64687 110.93495ZM132.9125 112.6537Q132.9125 114.87245 132.14688 115.9662Q131.39688 117.04433 129.7875 117.04433Q128.19376 117.04433 127.42812 115.99745Q126.6625 114.93495 126.63125 112.82558L126.63125 111.13808Q126.63125 108.95058 127.38125 107.88808Q128.14688 106.80995 129.77188 106.80995Q131.38126 106.80995 132.13126 107.8412Q132.89688 108.87245 132.9125 111.01308L132.9125 112.6537ZM131.64688 110.93495Q131.64688 109.32558 131.19376 108.5912Q130.75626 107.85683 129.77188 107.85683Q128.80313 107.85683 128.35 108.5912Q127.9125 109.30995 127.89687 110.82558L127.89687 112.85683Q127.89687 114.4662 128.36563 115.24745Q128.83438 116.01308 129.7875 116.01308Q130.725 116.01308 131.17813 115.29433Q131.63126 114.55995 131.64688 112.99745L131.64688 110.93495ZM140.9125 112.6537Q140.9125 114.87245 140.14688 115.9662Q139.39688 117.04433 137.7875 117.04433Q136.19376 117.04433 135.42813 115.99745Q134.6625 114.93495 134.63126 112.82558L134.63126 111.13808Q134.63126 108.95058 135.38126 107.88808Q136.14688 106.80995 137.77188 106.80995Q139.38126 106.80995 140.13126 107.8412Q140.89688 108.87245 140.9125 111.01308L140.9125 112.6537ZM139.64688 110.93495Q139.64688 109.32558 139.19376 108.5912Q138.75626 107.85683 137.77188 107.85683Q136.80313 107.85683 136.35 108.5912Q135.9125 109.30995 135.89688 110.82558L135.89688 112.85683Q135.89688 114.4662 136.36563 115.24745Q136.83438 116.01308 137.7875 116.01308Q138.725 116.01308 139.17813 115.29433Q139.63126 114.55995 139.64688 112.99745L139.64688 110.93495Z" fill-rule="nonzero"/><path fill="#757575" d="M180.1662 501.15L178.90057 501.15L178.90057 492.72812L176.33807 493.65L176.33807 492.50937L179.96307 491.15L180.1662 491.15L180.1662 501.15ZM190.24432 496.9Q190.24432 499.11874 189.4787 500.2125Q188.7287 501.29062 187.11932 501.29062Q185.52557 501.29062 184.75995 500.24374Q183.99432 499.18124 183.96307 497.07187L183.96307 495.38437Q183.96307 493.19687 184.71307 492.13437Q185.4787 491.05624 187.1037 491.05624Q188.71307 491.05624 189.46307 492.0875Q190.2287 493.11874 190.24432 495.25937L190.24432 496.9ZM188.9787 495.18124Q188.9787 493.57187 188.52557 492.8375Q188.08807 492.10312 187.1037 492.10312Q186.13495 492.10312 185.68182 492.8375Q185.24432 493.55624 185.2287 495.07187L185.2287 497.10312Q185.2287 498.7125 185.69745 499.49374Q186.1662 500.25937 187.11932 500.25937Q188.05682 500.25937 188.50995 499.54062Q188.96307 498.80624 188.9787 497.24374L188.9787 495.18124Z" fill-rule="nonzero"/><path fill="#757575" d="M248.82983 501.15L247.56421 501.15L247.56421 492.72812L245.00171 493.65L245.00171 492.50937L248.62671 491.15L248.82983 491.15L248.82983 501.15ZM256.82983 501.15L255.56421 501.15L255.56421 492.72812L253.00171 493.65L253.00171 492.50937L256.6267 491.15L256.82983 491.15L256.82983 501.15Z" fill-rule="nonzero"/><path fill="#757575" d="M317.49347 501.15L316.22784 501.15L316.22784 492.72812L313.66534 493.65L313.66534 492.50937L317.29034 491.15L317.49347 491.15L317.49347 501.15ZM327.85284 501.15L321.33722 501.15L321.33722 500.24374L324.77472 496.41562Q325.54034 495.54062 325.83722 495.00937Q326.1341 494.4625 326.1341 493.86874Q326.1341 493.10312 325.64972 492.60312Q325.18097 492.10312 324.39972 492.10312Q323.46222 492.10312 322.93097 492.63437Q322.41534 493.16562 322.41534 494.13437L321.14972 494.13437Q321.14972 492.75937 322.02472 491.91562Q322.91534 491.05624 324.39972 491.05624Q325.79034 491.05624 326.58722 491.79062Q327.39972 492.50937 327.39972 493.72812Q327.39972 495.19687 325.52472 497.22812L322.86847 500.11874L327.85284 500.11874L327.85284 501.15Z" fill-rule="nonzero"/><path fill="#757575" d="M386.1571 501.15L384.89148 501.15L384.89148 492.72812L382.32898 493.65L382.32898 492.50937L385.95398 491.15L386.1571 491.15L386.1571 501.15ZM391.8446 495.55624L392.7821 495.55624Q393.68835 495.54062 394.18835 495.0875Q394.70398 494.63437 394.70398 493.85312Q394.70398 492.10312 392.9696 492.10312Q392.14148 492.10312 391.6571 492.57187Q391.17273 493.04062 391.17273 493.80624L389.9071 493.80624Q389.9071 492.61874 390.76648 491.8375Q391.64148 491.05624 392.9696 491.05624Q394.37585 491.05624 395.17273 491.80624Q395.9696 492.55624 395.9696 493.86874Q395.9696 494.525 395.54773 495.13437Q395.14148 495.74374 394.4071 496.04062Q395.23523 496.30624 395.67273 496.91562Q396.12585 497.50937 396.12585 498.36874Q396.12585 499.7125 395.25085 500.50937Q394.37585 501.29062 392.9696 501.29062Q391.57898 501.29062 390.68835 500.54062Q389.81335 499.775 389.81335 498.525L391.0946 498.525Q391.0946 499.30624 391.5946 499.79062Q392.11023 500.25937 392.9696 500.25937Q393.89148 500.25937 394.37585 499.775Q394.86023 499.29062 394.86023 498.4Q394.86023 497.54062 394.32898 497.07187Q393.79773 496.60312 392.7821 496.5875L391.8446 496.5875L391.8446 495.55624Z" fill-rule="nonzero"/><path fill="#757575" d="M454.82074 501.15L453.5551 501.15L453.5551 492.72812L450.9926 493.65L450.9926 492.50937L454.6176 491.15L454.82074 491.15L454.82074 501.15ZM464.00824 497.80624L465.38324 497.80624L465.38324 498.8375L464.00824 498.8375L464.00824 501.15L462.727 501.15L462.727 498.8375L458.19574 498.8375L458.19574 498.0875L462.64886 491.19687L464.00824 491.19687L464.00824 497.80624ZM459.63324 497.80624L462.727 497.80624L462.727 492.93124L462.58636 493.19687L459.63324 497.80624Z" fill-rule="nonzero"/><path fill="#757575" d="M523.4844 501.15L522.21875 501.15L522.21875 492.72812L519.65625 493.65L519.65625 492.50937L523.28125 491.15L523.4844 491.15L523.4844 501.15ZM527.90625 496.16562L528.4219 491.19687L533.5156 491.19687L533.5156 492.36874L529.4844 492.36874L529.1875 495.07187Q529.9219 494.65 530.84375 494.65Q532.2031 494.65 533.0 495.55624Q533.8125 496.44687 533.8125 497.97812Q533.8125 499.50937 532.96875 500.4Q532.1406 501.29062 530.65625 501.29062Q529.34375 501.29062 528.5 500.55624Q527.6719 499.82187 527.5469 498.525L528.75 498.525Q528.8594 499.38437 529.34375 499.82187Q529.84375 500.25937 530.65625 500.25937Q531.53125 500.25937 532.03125 499.66562Q532.5469 499.05624 532.5469 497.99374Q532.5469 496.99374 532.0 496.4Q531.4531 495.79062 530.5469 495.79062Q529.7344 495.79062 529.25 496.15L528.9219 496.41562L527.90625 496.16562Z" fill-rule="nonzero"/><path fill="#757575" d="M592.148 501.15L590.8824 501.15L590.8824 492.72812L588.3199 493.65L588.3199 492.50937L591.9449 491.15L592.148 491.15L592.148 501.15ZM600.9605 491.19687L600.9605 492.25937L600.72614 492.25937Q599.24176 492.29062 598.36676 493.13437Q597.49176 493.97812 597.35114 495.525Q598.148 494.61874 599.5074 494.61874Q600.80426 494.61874 601.5699 495.54062Q602.35114 496.44687 602.35114 497.9Q602.35114 499.44687 601.5074 500.36874Q600.67926 501.29062 599.273 501.29062Q597.85114 501.29062 596.9605 500.19687Q596.0699 499.0875 596.0699 497.36874L596.0699 496.88437Q596.0699 494.13437 597.24176 492.68124Q598.41364 491.22812 600.72614 491.19687L600.9605 491.19687ZM599.28864 495.68124Q598.648 495.68124 598.10114 496.07187Q597.55426 496.44687 597.3355 497.04062L597.3355 497.50937Q597.3355 498.74374 597.8824 499.49374Q598.4449 500.24374 599.273 500.24374Q600.1324 500.24374 600.61676 499.61874Q601.10114 498.97812 601.10114 497.9625Q601.10114 496.93124 600.60114 496.30624Q600.11676 495.68124 599.28864 495.68124Z" fill-rule="nonzero"/><path fill="#757575" d="M660.81165 501.15L659.546 501.15L659.546 492.72812L656.9835 493.65L656.9835 492.50937L660.6085 491.15L660.81165 491.15L660.81165 501.15ZM671.0773 491.9L666.9523 501.15L665.6398 501.15L669.7335 492.22812L664.3585 492.22812L664.3585 491.19687L671.0773 491.19687L671.0773 491.9Z" fill-rule="nonzero"/><path fill="#757575" d="M729.4753 501.15L728.20966 501.15L728.20966 492.72812L725.64716 493.65L725.64716 492.50937L729.27216 491.15L729.4753 491.15L729.4753 501.15ZM739.3503 493.79062Q739.3503 494.54062 738.95966 495.11874Q738.56903 495.69687 737.89716 496.025Q738.6784 496.36874 739.13153 497.00937Q739.58466 497.65 739.58466 498.4625Q739.58466 499.75937 738.70966 500.525Q737.8503 501.29062 736.4284 501.29062Q734.9909 501.29062 734.1159 500.525Q733.25653 499.74374 733.25653 498.4625Q733.25653 497.65 733.69403 497.00937Q734.13153 496.35312 734.9128 496.025Q734.25653 495.69687 733.8659 495.11874Q733.4909 494.525 733.4909 493.79062Q733.4909 492.54062 734.2878 491.80624Q735.1003 491.05624 736.4284 491.05624Q737.7409 491.05624 738.5378 491.80624Q739.3503 492.54062 739.3503 493.79062ZM738.31903 498.43124Q738.31903 497.60312 737.7878 497.0875Q737.25653 496.55624 736.39716 496.55624Q735.5534 496.55624 735.0378 497.07187Q734.52216 497.5875 734.52216 498.44687Q734.52216 499.29062 735.02216 499.775Q735.52216 500.25937 736.4284 500.25937Q737.3034 500.25937 737.8034 499.775Q738.31903 499.275 738.31903 498.43124ZM736.4284 492.10312Q735.6784 492.10312 735.20966 492.57187Q734.75653 493.025 734.75653 493.82187Q734.75653 494.57187 735.20966 495.04062Q735.6628 495.50937 736.4128 495.50937Q737.1784 495.50937 737.63153 495.04062Q738.08466 494.57187 738.08466 493.82187Q738.08466 493.05624 737.6159 492.5875Q737.14716 492.10312 736.4284 492.10312Z" fill-rule="nonzero"/><path fill="#757575" d="M800.4983 501.15L793.98267 501.15L793.98267 500.24374L797.42017 496.41562Q798.1858 495.54062 798.48267 495.00937Q798.77954 494.4625 798.77954 493.86874Q798.77954 493.10312 798.29517 492.60312Q797.8264 492.10312 797.04517 492.10312Q796.10767 492.10312 795.5764 492.63437Q795.0608 493.16562 795.0608 494.13437L793.79517 494.13437Q793.79517 492.75937 794.67017 491.91562Q795.5608 491.05624 797.04517 491.05624Q798.4358 491.05624 799.23267 491.79062Q800.04517 492.50937 800.04517 493.72812Q800.04517 495.19687 798.17017 497.22812L795.5139 500.11874L800.4983 500.11874L800.4983 501.15ZM808.21704 496.9Q808.21704 499.11874 807.4514 500.2125Q806.7014 501.29062 805.09204 501.29062Q803.4983 501.29062 802.73267 500.24374Q801.96704 499.18124 801.9358 497.07187L801.9358 495.38437Q801.9358 493.19687 802.6858 492.13437Q803.4514 491.05624 805.0764 491.05624Q806.6858 491.05624 807.4358 492.0875Q808.2014 493.11874 808.21704 495.25937L808.21704 496.9ZM806.9514 495.18124Q806.9514 493.57187 806.4983 492.8375Q806.0608 492.10312 805.0764 492.10312Q804.10767 492.10312 803.65454 492.8375Q803.21704 493.55624 803.2014 495.07187L803.2014 497.10312Q803.2014 498.7125 803.67017 499.49374Q804.1389 500.25937 805.09204 500.25937Q806.02954 500.25937 806.48267 499.54062Q806.9358 498.80624 806.9514 497.24374L806.9514 495.18124Z" fill-rule="nonzero"/><path fill="#757575" d="M867.99005 497.80624L869.36505 497.80624L869.36505 498.8375L867.99005 498.8375L867.99005 501.15L866.7088 501.15L866.7088 498.8375L862.17755 498.8375L862.17755 498.0875L866.6307 491.19687L867.99005 491.19687L867.99005 497.80624ZM863.61505 497.80624L866.7088 497.80624L866.7088 492.93124L866.5682 493.19687L863.61505 497.80624ZM876.8807 496.9Q876.8807 499.11874 876.11505 500.2125Q875.36505 501.29062 873.7557 501.29062Q872.1619 501.29062 871.3963 500.24374Q870.6307 499.18124 870.5994 497.07187L870.5994 495.38437Q870.5994 493.19687 871.3494 492.13437Q872.11505 491.05624 873.74005 491.05624Q875.3494 491.05624 876.0994 492.0875Q876.86505 493.11874 876.8807 495.25937L876.8807 496.9ZM875.61505 495.18124Q875.61505 493.57187 875.1619 492.8375Q874.7244 492.10312 873.74005 492.10312Q872.7713 492.10312 872.3182 492.8375Q871.8807 493.55624 871.86505 495.07187L871.86505 497.10312Q871.86505 498.7125 872.3338 499.49374Q872.80255 500.25937 873.7557 500.25937Q874.6932 500.25937 875.1463 499.54062Q875.5994 498.80624 875.61505 497.24374L875.61505 495.18124Z" fill-rule="nonzero"/><path fill="#e69138" d="M339.25735 34.10736L347.74265 34.10736L347.74265 42.59264L339.25735 42.59264Z" fill-rule="nonzero"/><path fill="#757575" d="M358.82812 43.85L358.82812 32.475L362.03125 32.475Q363.51562 32.475 364.65625 33.13125Q365.79688 33.7875 366.42188 35.00625Q367.04688 36.209373 367.04688 37.771873L367.04688 38.50625Q367.04688 40.115623 366.42188 41.334373Q365.8125 42.5375 364.65625 43.19375Q363.5 43.834373 361.96875 43.85L358.82812 43.85ZM360.32812 33.709373L360.32812 42.615623L361.90625 42.615623Q363.64062 42.615623 364.59375 41.5375Q365.5625 40.459373 365.5625 38.475L365.5625 37.803123Q365.5625 35.865623 364.65625 34.803123Q363.75 33.725 362.07812 33.709373L360.32812 33.709373ZM372.35938 41.725L374.32812 35.396873L375.875 35.396873L372.48438 45.1625Q371.6875 47.271873 369.96875 47.271873L369.70312 47.240623L369.15625 47.146873L369.15625 45.975L369.54688 46.00625Q370.28125 46.00625 370.6875 45.709373Q371.10938 45.4125 371.375 44.615623L371.6875 43.75625L368.67188 35.396873L370.25 35.396873L372.35938 41.725ZM378.96875 35.396873L379.01562 36.459373Q379.98438 35.240623 381.54688 35.240623Q384.21875 35.240623 384.25 38.25625L384.25 43.85L382.79688 43.85L382.79688 38.25625Q382.79688 37.334373 382.375 36.896873Q381.96875 36.459373 381.10938 36.459373Q380.40625 36.459373 379.875 36.834373Q379.34375 37.209373 379.04688 37.81875L379.04688 43.85L377.59375 43.85L377.59375 35.396873L378.96875 35.396873ZM391.8125 43.85Q391.6875 43.6 391.60938 42.959373Q390.60938 44.00625 389.20312 44.00625Q387.95312 44.00625 387.15625 43.303123Q386.35938 42.584373 386.35938 41.50625Q386.35938 40.178123 387.35938 39.459373Q388.35938 38.725 390.1875 38.725L391.59375 38.725L391.59375 38.053123Q391.59375 37.303123 391.14062 36.85Q390.6875 36.396873 389.79688 36.396873Q389.03125 36.396873 388.5 36.7875Q387.98438 37.178123 387.98438 37.740623L386.53125 37.740623Q386.53125 37.1 386.96875 36.521873Q387.42188 35.928123 388.1875 35.584373Q388.96875 35.240623 389.89062 35.240623Q391.34375 35.240623 392.17188 35.975Q393.0 36.69375 393.03125 37.975L393.03125 41.865623Q393.03125 43.0375 393.32812 43.725L393.32812 43.85L391.8125 43.85ZM389.42188 42.740623Q390.09375 42.740623 390.70312 42.396873Q391.3125 42.0375 391.59375 41.475L391.59375 39.740623L390.45312 39.740623Q387.79688 39.740623 387.79688 41.303123Q387.79688 41.975 388.25 42.365623Q388.70312 42.740623 389.42188 42.740623ZM396.95312 35.396873L397.0 36.334373Q397.92188 35.240623 399.5 35.240623Q401.28125 35.240623 401.92188 36.6Q402.34375 35.990623 403.01562 35.615623Q403.6875 35.240623 404.60938 35.240623Q407.39062 35.240623 407.4375 38.178123L407.4375 43.85L406.0 43.85L406.0 38.271873Q406.0 37.365623 405.57812 36.9125Q405.17188 36.459373 404.1875 36.459373Q403.39062 36.459373 402.85938 36.94375Q402.32812 37.428123 402.23438 38.240623L402.23438 43.85L400.78125 43.85L400.78125 38.303123Q400.78125 36.459373 398.98438 36.459373Q397.5625 36.459373 397.03125 37.678123L397.03125 43.85L395.59375 43.85L395.59375 35.396873L396.95312 35.396873ZM411.17188 43.85L409.71875 43.85L409.71875 35.396873L411.17188 35.396873L411.17188 43.85ZM409.60938 33.146873Q409.60938 32.803123 409.8125 32.56875Q410.03125 32.31875 410.45312 32.31875Q410.875 32.31875 411.09375 32.56875Q411.3125 32.803123 411.3125 33.1625Q411.3125 33.50625 411.09375 33.740623Q410.875 33.975 410.45312 33.975Q410.03125 33.975 409.8125 33.740623Q409.60938 33.50625 409.60938 33.146873ZM416.98438 42.81875Q417.76562 42.81875 418.34375 42.35Q418.92188 41.88125 418.98438 41.178123L420.34375 41.178123Q420.3125 41.9125 419.84375 42.56875Q419.39062 43.225 418.60938 43.615623Q417.84375 44.00625 416.98438 44.00625Q415.26562 44.00625 414.23438 42.85Q413.21875 41.69375 413.21875 39.69375L413.21875 39.459373Q413.21875 38.225 413.67188 37.271873Q414.125 36.303123 414.96875 35.771873Q415.82812 35.240623 416.98438 35.240623Q418.40625 35.240623 419.34375 36.1Q420.28125 36.94375 420.34375 38.303123L418.98438 38.303123Q418.92188 37.475 418.35938 36.959373Q417.79688 36.428123 416.98438 36.428123Q415.875 36.428123 415.26562 37.225Q414.67188 38.00625 414.67188 39.50625L414.67188 39.7875Q414.67188 41.240623 415.26562 42.0375Q415.875 42.81875 416.98438 42.81875ZM430.51562 41.6Q430.51562 41.021873 430.07812 40.69375Q429.64062 40.365623 428.53125 40.13125Q427.4375 39.896873 426.79688 39.56875Q426.15625 39.240623 425.84375 38.7875Q425.53125 38.334373 425.53125 37.709373Q425.53125 36.678123 426.40625 35.959373Q427.29688 35.240623 428.65625 35.240623Q430.09375 35.240623 430.98438 35.990623Q431.89062 36.725 431.89062 37.88125L430.4375 37.88125Q430.4375 37.2875 429.92188 36.865623Q429.42188 36.428123 428.65625 36.428123Q427.875 36.428123 427.42188 36.771873Q426.98438 37.115623 426.98438 37.6625Q426.98438 38.19375 427.39062 38.459373Q427.8125 38.725 428.89062 38.975Q429.96875 39.209373 430.64062 39.553123Q431.3125 39.88125 431.64062 40.35Q431.96875 40.81875 431.96875 41.50625Q431.96875 42.63125 431.0625 43.31875Q430.15625 44.00625 428.70312 44.00625Q427.6875 44.00625 426.90625 43.646873Q426.125 43.2875 425.6875 42.646873Q425.25 41.990623 425.25 41.240623L426.6875 41.240623Q426.73438 41.975 427.26562 42.396873Q427.8125 42.81875 428.70312 42.81875Q429.53125 42.81875 430.01562 42.490623Q430.51562 42.1625 430.51562 41.6ZM437.10938 44.00625Q435.39062 44.00625 434.3125 42.88125Q433.23438 41.740623 433.23438 39.85L433.23438 39.584373Q433.23438 38.334373 433.70312 37.35Q434.1875 36.35 435.04688 35.803123Q435.92188 35.240623 436.92188 35.240623Q438.57812 35.240623 439.48438 36.334373Q440.40625 37.4125 440.40625 39.428123L440.40625 40.0375L434.67188 40.0375Q434.70312 41.2875 435.40625 42.053123Q436.10938 42.81875 437.1875 42.81875Q437.95312 42.81875 438.48438 42.50625Q439.01562 42.19375 439.40625 41.678123L440.29688 42.365623Q439.23438 44.00625 437.10938 44.00625ZM436.92188 36.428123Q436.04688 36.428123 435.45312 37.06875Q434.85938 37.69375 434.71875 38.85L438.95312 38.85L438.95312 38.740623Q438.89062 37.63125 438.35938 37.0375Q437.82812 36.428123 436.92188 36.428123ZM446.8125 43.85Q446.6875 43.6 446.60938 42.959373Q445.60938 44.00625 444.20312 44.00625Q442.95312 44.00625 442.15625 43.303123Q441.35938 42.584373 441.35938 41.50625Q441.35938 40.178123 442.35938 39.459373Q443.35938 38.725 445.1875 38.725L446.59375 38.725L446.59375 38.053123Q446.59375 37.303123 446.14062 36.85Q445.6875 36.396873 444.79688 36.396873Q444.03125 36.396873 443.5 36.7875Q442.98438 37.178123 442.98438 37.740623L441.53125 37.740623Q441.53125 37.1 441.96875 36.521873Q442.42188 35.928123 443.1875 35.584373Q443.96875 35.240623 444.89062 35.240623Q446.34375 35.240623 447.17188 35.975Q448.0 36.69375 448.03125 37.975L448.03125 41.865623Q448.03125 43.0375 448.32812 43.725L448.32812 43.85L446.8125 43.85ZM444.42188 42.740623Q445.09375 42.740623 445.70312 42.396873Q446.3125 42.0375 446.59375 41.475L446.59375 39.740623L445.45312 39.740623Q442.79688 39.740623 442.79688 41.303123Q442.79688 41.975 443.25 42.365623Q443.70312 42.740623 444.42188 42.740623ZM454.6875 36.69375Q454.35938 36.63125 453.96875 36.63125Q452.54688 36.63125 452.04688 37.85L452.04688 43.85L450.59375 43.85L450.59375 35.396873L452.0 35.396873L452.03125 36.365623Q452.73438 35.240623 454.04688 35.240623Q454.46875 35.240623 454.6875 35.35L454.6875 36.69375ZM458.98438 42.81875Q459.76562 42.81875 460.34375 42.35Q460.92188 41.88125 460.98438 41.178123L462.34375 41.178123Q462.3125 41.9125 461.84375 42.56875Q461.39062 43.225 460.60938 43.615623Q459.84375 44.00625 458.98438 44.00625Q457.26562 44.00625 456.23438 42.85Q455.21875 41.69375 455.21875 39.69375L455.21875 39.459373Q455.21875 38.225 455.67188 37.271873Q456.125 36.303123 456.96875 35.771873Q457.82812 35.240623 458.98438 35.240623Q460.40625 35.240623 461.34375 36.1Q462.28125 36.94375 462.34375 38.303123L460.98438 38.303123Q460.92188 37.475 460.35938 36.959373Q459.79688 36.428123 458.98438 36.428123Q457.875 36.428123 457.26562 37.225Q456.67188 38.00625 456.67188 39.50625L456.67188 39.7875Q456.67188 41.240623 457.26562 42.0375Q457.875 42.81875 458.98438 42.81875ZM465.04688 36.4125Q466.0 35.240623 467.54688 35.240623Q470.21875 35.240623 470.25 38.25625L470.25 43.85L468.79688 43.85L468.79688 38.25625Q468.79688 37.334373 468.375 36.896873Q467.96875 36.459373 467.10938 36.459373Q466.40625 36.459373 465.875 36.834373Q465.34375 37.209373 465.04688 37.81875L465.04688 43.85L463.59375 43.85L463.59375 31.849998L465.04688 31.849998L465.04688 36.4125Z" fill-rule="nonzero"/><path fill="#3c78d8" d="M493.5 32.35L498.69617 41.35L488.30383 41.35Z" fill-rule="nonzero"/><path fill="#757575" d="M516.6875 33.709373L513.03125 33.709373L513.03125 43.85L511.53125 43.85L511.53125 33.709373L507.89062 33.709373L507.89062 32.475L516.6875 32.475L516.6875 33.709373ZM523.8125 43.85Q523.6875 43.6 523.6094 42.959373Q522.6094 44.00625 521.2031 44.00625Q519.9531 44.00625 519.15625 43.303123Q518.3594 42.584373 518.3594 41.50625Q518.3594 40.178123 519.3594 39.459373Q520.3594 38.725 522.1875 38.725L523.59375 38.725L523.59375 38.053123Q523.59375 37.303123 523.1406 36.85Q522.6875 36.396873 521.7969 36.396873Q521.03125 36.396873 520.5 36.7875Q519.9844 37.178123 519.9844 37.740623L518.53125 37.740623Q518.53125 37.1 518.96875 36.521873Q519.4219 35.928123 520.1875 35.584373Q520.96875 35.240623 521.8906 35.240623Q523.34375 35.240623 524.1719 35.975Q525.0 36.69375 525.03125 37.975L525.03125 41.865623Q525.03125 43.0375 525.3281 43.725L525.3281 43.85L523.8125 43.85ZM521.4219 42.740623Q522.09375 42.740623 522.7031 42.396873Q523.3125 42.0375 523.59375 41.475L523.59375 39.740623L522.4531 39.740623Q519.7969 39.740623 519.7969 41.303123Q519.7969 41.975 520.25 42.365623Q520.7031 42.740623 521.4219 42.740623ZM534.75 39.709373Q534.75 41.646873 533.8594 42.834373Q532.96875 44.00625 531.46875 44.00625Q529.875 44.00625 529.0 42.865623L528.9219 43.85L527.59375 43.85L527.59375 31.849998L529.0469 31.849998L529.0469 36.31875Q529.9219 35.240623 531.4531 35.240623Q533.0 35.240623 533.875 36.4125Q534.75 37.56875 534.75 39.584373L534.75 39.709373ZM533.3125 39.553123Q533.3125 38.06875 532.7344 37.271873Q532.1719 36.459373 531.09375 36.459373Q529.6719 36.459373 529.0469 37.7875L529.0469 41.44375Q529.7031 42.771873 531.1094 42.771873Q532.15625 42.771873 532.7344 41.975Q533.3125 41.1625 533.3125 39.553123ZM541.8125 43.00625Q540.96875 44.00625 539.34375 44.00625Q537.9844 44.00625 537.28125 43.225Q536.5781 42.428123 536.5625 40.896873L536.5625 35.396873L538.0156 35.396873L538.0156 40.85Q538.0156 42.771873 539.5781 42.771873Q541.2344 42.771873 541.78125 41.5375L541.78125 35.396873L543.21875 35.396873L543.21875 43.85L541.84375 43.85L541.8125 43.00625ZM554.5156 41.6Q554.5156 41.021873 554.0781 40.69375Q553.6406 40.365623 552.53125 40.13125Q551.4375 39.896873 550.7969 39.56875Q550.15625 39.240623 549.84375 38.7875Q549.53125 38.334373 549.53125 37.709373Q549.53125 36.678123 550.40625 35.959373Q551.2969 35.240623 552.65625 35.240623Q554.09375 35.240623 554.9844 35.990623Q555.8906 36.725 555.8906 37.88125L554.4375 37.88125Q554.4375 37.2875 553.9219 36.865623Q553.4219 36.428123 552.65625 36.428123Q551.875 36.428123 551.4219 36.771873Q550.9844 37.115623 550.9844 37.6625Q550.9844 38.19375 551.3906 38.459373Q551.8125 38.725 552.8906 38.975Q553.96875 39.209373 554.6406 39.553123Q555.3125 39.88125 555.6406 40.35Q555.96875 40.81875 555.96875 41.50625Q555.96875 42.63125 555.0625 43.31875Q554.15625 44.00625 552.7031 44.00625Q551.6875 44.00625 550.90625 43.646873Q550.125 43.2875 549.6875 42.646873Q549.25 41.990623 549.25 41.240623L550.6875 41.240623Q550.7344 41.975 551.2656 42.396873Q551.8125 42.81875 552.7031 42.81875Q553.53125 42.81875 554.0156 42.490623Q554.5156 42.1625 554.5156 41.6ZM561.1094 44.00625Q559.3906 44.00625 558.3125 42.88125Q557.2344 41.740623 557.2344 39.85L557.2344 39.584373Q557.2344 38.334373 557.7031 37.35Q558.1875 36.35 559.0469 35.803123Q559.9219 35.240623 560.9219 35.240623Q562.5781 35.240623 563.4844 36.334373Q564.40625 37.4125 564.40625 39.428123L564.40625 40.0375L558.6719 40.0375Q558.7031 41.2875 559.40625 42.053123Q560.1094 42.81875 561.1875 42.81875Q561.9531 42.81875 562.4844 42.50625Q563.0156 42.19375 563.40625 41.678123L564.2969 42.365623Q563.2344 44.00625 561.1094 44.00625ZM560.9219 36.428123Q560.0469 36.428123 559.4531 37.06875Q558.8594 37.69375 558.71875 38.85L562.9531 38.85L562.9531 38.740623Q562.8906 37.63125 562.3594 37.0375Q561.8281 36.428123 560.9219 36.428123ZM570.8125 43.85Q570.6875 43.6 570.6094 42.959373Q569.6094 44.00625 568.2031 44.00625Q566.9531 44.00625 566.15625 43.303123Q565.3594 42.584373 565.3594 41.50625Q565.3594 40.178123 566.3594 39.459373Q567.3594 38.725 569.1875 38.725L570.59375 38.725L570.59375 38.053123Q570.59375 37.303123 570.1406 36.85Q569.6875 36.396873 568.7969 36.396873Q568.03125 36.396873 567.5 36.7875Q566.9844 37.178123 566.9844 37.740623L565.53125 37.740623Q565.53125 37.1 565.96875 36.521873Q566.4219 35.928123 567.1875 35.584373Q567.96875 35.240623 568.8906 35.240623Q570.34375 35.240623 571.1719 35.975Q572.0 36.69375 572.03125 37.975L572.03125 41.865623Q572.03125 43.0375 572.3281 43.725L572.3281 43.85L570.8125 43.85ZM568.4219 42.740623Q569.09375 42.740623 569.7031 42.396873Q570.3125 42.0375 570.59375 41.475L570.59375 39.740623L569.4531 39.740623Q566.7969 39.740623 566.7969 41.303123Q566.7969 41.975 567.25 42.365623Q567.7031 42.740623 568.4219 42.740623ZM578.6875 36.69375Q578.3594 36.63125 577.96875 36.63125Q576.5469 36.63125 576.0469 37.85L576.0469 43.85L574.59375 43.85L574.59375 35.396873L576.0 35.396873L576.03125 36.365623Q576.7344 35.240623 578.0469 35.240623Q578.46875 35.240623 578.6875 35.35L578.6875 36.69375ZM582.9844 42.81875Q583.7656 42.81875 584.34375 42.35Q584.9219 41.88125 584.9844 41.178123L586.34375 41.178123Q586.3125 41.9125 585.84375 42.56875Q585.3906 43.225 584.6094 43.615623Q583.84375 44.00625 582.9844 44.00625Q581.2656 44.00625 580.2344 42.85Q579.21875 41.69375 579.21875 39.69375L579.21875 39.459373Q579.21875 38.225 579.6719 37.271873Q580.125 36.303123 580.96875 35.771873Q581.8281 35.240623 582.9844 35.240623Q584.40625 35.240623 585.34375 36.1Q586.28125 36.94375 586.34375 38.303123L584.9844 38.303123Q584.9219 37.475 584.3594 36.959373Q583.7969 36.428123 582.9844 36.428123Q581.875 36.428123 581.2656 37.225Q580.6719 38.00625 580.6719 39.50625L580.6719 39.7875Q580.6719 41.240623 581.2656 42.0375Q581.875 42.81875 582.9844 42.81875ZM589.0469 36.4125Q590.0 35.240623 591.5469 35.240623Q594.21875 35.240623 594.25 38.25625L594.25 43.85L592.7969 43.85L592.7969 38.25625Q592.7969 37.334373 592.375 36.896873Q591.96875 36.459373 591.1094 36.459373Q590.40625 36.459373 589.875 36.834373Q589.34375 37.209373 589.0469 37.81875L589.0469 43.85L587.59375 43.85L587.59375 31.849998L589.0469 31.849998L589.0469 36.4125Z" fill-rule="nonzero"/></svg>