<svg version="1.1" viewBox="0.0 0.0 933.0 577.0" fill="none" stroke="none" stroke-linecap="square" stroke-miterlimit="10" width="933" height="577" xmlns:xlink="http://www.w3.org/1999/xlink" xmlns="http://www.w3.org/2000/svg"><path fill="#ffffff" d="M0 0L933.0 0L933.0 577.0L0 577.0L0 0Z" fill-rule="nonzero"/><path fill="#ffffff" fill-opacity="0.0" d="M0 0L933.0 0L933.0 577.0L0 577.0L0 0Z" fill-rule="nonzero"/><path stroke="#333333" stroke-width="1.0" stroke-linecap="butt" d="M113.5 481.5L904.5 481.5" fill-rule="nonzero"/><path stroke="#cccccc" stroke-width="1.0" stroke-linecap="butt" d="M113.5 345.5L904.5 345.5" fill-rule="nonzero"/><path stroke="#cccccc" stroke-width="1.0" stroke-linecap="butt" d="M113.5 210.5L904.5 210.5" fill-rule="nonzero"/><path stroke="#cccccc" stroke-width="1.0" stroke-linecap="butt" d="M113.5 75.5L904.5 75.5" fill-rule="nonzero"/><path stroke="#e6e6e6" stroke-width="1.0" stroke-linecap="butt" d="M113.5 372.5L904.5 372.5" fill-rule="nonzero"/><path stroke="#e6e6e6" stroke-width="1.0" stroke-linecap="butt" d="M113.5 400.5L904.5 400.5" fill-rule="nonzero"/><path stroke="#e6e6e6" stroke-width="1.0" stroke-linecap="butt" d="M113.5 427.5L904.5 427.5" fill-rule="nonzero"/><path stroke="#e6e6e6" stroke-width="1.0" stroke-linecap="butt" d="M113.5 454.5L904.5 454.5" fill-rule="nonzero"/><path stroke="#e6e6e6" stroke-width="1.0" stroke-linecap="butt" d="M113.5 237.5L904.5 237.5" fill-rule="nonzero"/><path stroke="#e6e6e6" stroke-width="1.0" stroke-linecap="butt" d="M113.5 264.5L904.5 264.5" fill-rule="nonzero"/><path stroke="#e6e6e6" stroke-width="1.0" stroke-linecap="butt" d="M113.5 291.5L904.5 291.5" fill-rule="nonzero"/><path stroke="#e6e6e6" stroke-width="1.0" stroke-linecap="butt" d="M113.5 318.5L904.5 318.5" fill-rule="nonzero"/><path stroke="#e6e6e6" stroke-width="1.0" stroke-linecap="butt" d="M113.5 102.5L904.5 102.5" fill-rule="nonzero"/><path stroke="#e6e6e6" stroke-width="1.0" stroke-linecap="butt" d="M113.5 129.5L904.5 129.5" fill-rule="nonzero"/><path stroke="#e6e6e6" stroke-width="1.0" stroke-linecap="butt" d="M113.5 156.5L904.5 156.5" fill-rule="nonzero"/><path stroke="#e6e6e6" stroke-width="1.0" stroke-linecap="butt" d="M113.5 183.5L904.5 183.5" fill-rule="nonzero"/><clipPath id="id_0"><path d="M113.85 75.583336L904.15 75.583336L904.15 481.15L113.85 481.15L113.85 75.583336Z" clip-rule="nonzero"/></clipPath><path stroke="#e69138" stroke-width="4.0" stroke-linecap="butt" clip-path="url(#id_0)" d="M149.77272 480.54166L221.61818 480.54166L293.46362 480.40646L365.30908 480.81204L437.15454 480.74445L509.0 480.67685L580.84546 480.60925L652.6909 480.06848L724.5364 479.9333L796.38184 479.66293L868.2273 318.1122" fill-rule="nonzero"/><path stroke="#3c78d8" stroke-width="4.0" stroke-linecap="butt" clip-path="url(#id_0)" d="M149.77272 470.4025L221.61818 467.4959L293.46362 466.88757L365.30908 463.91342L437.15454 462.22354L509.0 460.2633L580.84546 457.62714L652.6909 454.1798L724.5364 449.3806L796.38184 442.4184L868.2273 92.48194" fill-rule="nonzero"/><path fill="#e69138" clip-path="url(#id_0)" d="M144.11588 474.8848L155.42958 474.8848L155.42958 486.19852L144.11588 486.19852Z" fill-rule="nonzero"/><path fill="#e69138" clip-path="url(#id_0)" d="M215.96133 474.8848L227.27504 474.8848L227.27504 486.19852L215.96133 486.19852Z" fill-rule="nonzero"/><path fill="#e69138" clip-path="url(#id_0)" d="M287.8068 474.7496L299.12048 474.7496L299.12048 486.06332L287.8068 486.06332Z" fill-rule="nonzero"/><path fill="#e69138" clip-path="url(#id_0)" d="M359.65222 475.15518L370.96594 475.15518L370.96594 486.46887L359.65222 486.46887Z" fill-rule="nonzero"/><path fill="#e69138" clip-path="url(#id_0)" d="M431.49768 475.0876L442.8114 475.0876L442.8114 486.40128L431.49768 486.40128Z" fill-rule="nonzero"/><path fill="#e69138" clip-path="url(#id_0)" d="M503.34314 475.02L514.65686 475.02L514.65686 486.33368L503.34314 486.33368Z" fill-rule="nonzero"/><path fill="#e69138" clip-path="url(#id_0)" d="M575.1886 474.9524L586.5023 474.9524L586.5023 486.2661L575.1886 486.2661Z" fill-rule="nonzero"/><path fill="#e69138" clip-path="url(#id_0)" d="M647.03406 474.41162L658.3478 474.41162L658.3478 485.72534L647.03406 485.72534Z" fill-rule="nonzero"/><path fill="#e69138" clip-path="url(#id_0)" d="M718.8795 474.27646L730.19324 474.27646L730.19324 485.59015L718.8795 485.59015Z" fill-rule="nonzero"/><path fill="#e69138" clip-path="url(#id_0)" d="M790.725 474.00607L802.0387 474.00607L802.0387 485.31976L790.725 485.31976Z" fill-rule="nonzero"/><path fill="#e69138" clip-path="url(#id_0)" d="M862.57043 312.45535L873.88416 312.45535L873.88416 323.76904L862.57043 323.76904Z" fill-rule="nonzero"/><path fill="#3c78d8" clip-path="url(#id_0)" d="M149.77272 462.4025L156.70093 474.4025L142.84453 474.4025Z" fill-rule="nonzero"/><path fill="#3c78d8" clip-path="url(#id_0)" d="M221.61818 459.4959L228.54639 471.4959L214.68997 471.4959Z" fill-rule="nonzero"/><path fill="#3c78d8" clip-path="url(#id_0)" d="M293.46362 458.88757L300.39185 470.88757L286.53543 470.88757Z" fill-rule="nonzero"/><path fill="#3c78d8" clip-path="url(#id_0)" d="M365.30908 455.91342L372.2373 467.91342L358.3809 467.91342Z" fill-rule="nonzero"/><path fill="#3c78d8" clip-path="url(#id_0)" d="M437.15454 454.22354L444.08276 466.22354L430.22635 466.22354Z" fill-rule="nonzero"/><path fill="#3c78d8" clip-path="url(#id_0)" d="M509.0 452.2633L515.9282 464.2633L502.0718 464.2633Z" fill-rule="nonzero"/><path fill="#3c78d8" clip-path="url(#id_0)" d="M580.84546 449.62714L587.7737 461.62714L573.91724 461.62714Z" fill-rule="nonzero"/><path fill="#3c78d8" clip-path="url(#id_0)" d="M652.6909 446.1798L659.61914 458.1798L645.7627 458.1798Z" fill-rule="nonzero"/><path fill="#3c78d8" clip-path="url(#id_0)" d="M724.5364 441.3806L731.46454 453.3806L717.60815 453.3806Z" fill-rule="nonzero"/><path fill="#3c78d8" clip-path="url(#id_0)" d="M796.38184 434.4184L803.31 446.4184L789.4536 446.4184Z" fill-rule="nonzero"/><path fill="#3c78d8" clip-path="url(#id_0)" d="M868.2273 84.48194L875.15546 96.48194L861.2991 96.48194Z" fill-rule="nonzero"/><path fill="#424242" d="M453.0 539.54065L450.32812 539.54065L450.32812 544.15L448.8125 544.15L448.8125 532.775L452.57812 532.775Q454.5 532.775 455.53125 533.65Q456.57812 534.525 456.57812 536.1969Q456.57812 537.2594 456.0 538.0563Q455.42188 538.8375 454.40625 539.22815L457.07812 544.0563L457.07812 544.15L455.46875 544.15L453.0 539.54065ZM450.32812 538.3219L452.625 538.3219Q453.75 538.3219 454.40625 537.7438Q455.0625 537.16565 455.0625 536.1969Q455.0625 535.1344 454.4375 534.5719Q453.8125 534.0094 452.625 534.0094L450.32812 534.0094L450.32812 538.3219ZM458.21875 539.8375Q458.21875 538.60315 458.70312 537.6188Q459.1875 536.6188 460.0625 536.0875Q460.9375 535.54065 462.04688 535.54065Q463.78125 535.54065 464.84375 536.7438Q465.90625 537.9313 465.90625 539.91565L465.90625 540.0094Q465.90625 541.2438 465.4375 542.22815Q464.96875 543.2125 464.07812 543.7594Q463.20312 544.3063 462.0625 544.3063Q460.34375 544.3063 459.28125 543.1188Q458.21875 541.91565 458.21875 539.9469L458.21875 539.8375ZM459.67188 540.0094Q459.67188 541.41565 460.3125 542.275Q460.96875 543.1188 462.0625 543.1188Q463.17188 543.1188 463.8125 542.2594Q464.46875 541.4 464.46875 539.8375Q464.46875 538.4469 463.79688 537.5875Q463.14062 536.72815 462.04688 536.72815Q460.98438 536.72815 460.32812 537.5875Q459.67188 538.4313 459.67188 540.0094ZM468.95312 542.9625L473.90625 542.9625L473.90625 544.15L467.1875 544.15L467.1875 543.0875L471.85938 536.8844L467.26562 536.8844L467.26562 535.6969L473.67188 535.6969L473.67188 536.7125L468.95312 542.9625ZM476.95312 535.6969L477.0 536.6344Q477.92188 535.54065 479.5 535.54065Q481.28125 535.54065 481.92188 536.9Q482.34375 536.29065 483.01562 535.91565Q483.6875 535.54065 484.60938 535.54065Q487.39062 535.54065 487.4375 538.47815L487.4375 544.15L486.0 544.15L486.0 538.5719Q486.0 537.66565 485.57812 537.2125Q485.17188 536.7594 484.1875 536.7594Q483.39062 536.7594 482.85938 537.2438Q482.32812 537.72815 482.23438 538.54065L482.23438 544.15L480.78125 544.15L480.78125 538.60315Q480.78125 536.7594 478.98438 536.7594Q477.5625 536.7594 477.03125 537.97815L477.03125 544.15L475.59375 544.15L475.59375 535.6969L476.95312 535.6969ZM491.17188 544.15L489.71875 544.15L489.71875 535.6969L491.17188 535.6969L491.17188 544.15ZM489.60938 533.4469Q489.60938 533.10315 489.8125 532.8688Q490.03125 532.6188 490.45312 532.6188Q490.875 532.6188 491.09375 532.8688Q491.3125 533.10315 491.3125 533.4625Q491.3125 533.8063 491.09375 534.04065Q490.875 534.275 490.45312 534.275Q490.03125 534.275 489.8125 534.04065Q489.60938 533.8063 489.60938 533.4469ZM498.8125 544.15Q498.6875 543.9 498.60938 543.2594Q497.60938 544.3063 496.20312 544.3063Q494.95312 544.3063 494.15625 543.60315Q493.35938 542.8844 493.35938 541.8063Q493.35938 540.47815 494.35938 539.7594Q495.35938 539.025 497.1875 539.025L498.59375 539.025L498.59375 538.35315Q498.59375 537.60315 498.14062 537.15Q497.6875 536.6969 496.79688 536.6969Q496.03125 536.6969 495.5 537.0875Q494.98438 537.47815 494.98438 538.04065L493.53125 538.04065Q493.53125 537.4 493.96875 536.8219Q494.42188 536.22815 495.1875 535.8844Q495.96875 535.54065 496.89062 535.54065Q498.34375 535.54065 499.17188 536.275Q500.0 536.9938 500.03125 538.275L500.03125 542.16565Q500.03125 543.3375 500.32812 544.025L500.32812 544.15L498.8125 544.15ZM496.42188 543.04065Q497.09375 543.04065 497.70312 542.6969Q498.3125 542.3375 498.59375 541.775L498.59375 540.04065L497.45312 540.04065Q494.79688 540.04065 494.79688 541.60315Q494.79688 542.275 495.25 542.66565Q495.70312 543.04065 496.42188 543.04065ZM506.6875 536.9938Q506.35938 536.9313 505.96875 536.9313Q504.54688 536.9313 504.04688 538.15L504.04688 544.15L502.59375 544.15L502.59375 535.6969L504.0 535.6969L504.03125 536.66565Q504.73438 535.54065 506.04688 535.54065Q506.46875 535.54065 506.6875 535.65L506.6875 536.9938ZM513.1719 544.15L511.71875 544.15L511.71875 535.6969L513.1719 535.6969L513.1719 544.15ZM511.60938 533.4469Q511.60938 533.10315 511.8125 532.8688Q512.03125 532.6188 512.4531 532.6188Q512.875 532.6188 513.09375 532.8688Q513.3125 533.10315 513.3125 533.4625Q513.3125 533.8063 513.09375 534.04065Q512.875 534.275 512.4531 534.275Q512.03125 534.275 511.8125 534.04065Q511.60938 533.8063 511.60938 533.4469ZM516.96875 535.6969L517.0156 536.7594Q517.9844 535.54065 519.5469 535.54065Q522.21875 535.54065 522.25 538.5563L522.25 544.15L520.7969 544.15L520.7969 538.5563Q520.7969 537.6344 520.375 537.1969Q519.96875 536.7594 519.1094 536.7594Q518.40625 536.7594 517.875 537.1344Q517.34375 537.5094 517.0469 538.1188L517.0469 544.15L515.59375 544.15L515.59375 535.6969L516.96875 535.6969ZM529.5156 541.9Q529.5156 541.3219 529.0781 540.9938Q528.6406 540.66565 527.53125 540.4313Q526.4375 540.1969 525.7969 539.8688Q525.15625 539.54065 524.84375 539.0875Q524.53125 538.6344 524.53125 538.0094Q524.53125 536.97815 525.40625 536.2594Q526.2969 535.54065 527.65625 535.54065Q529.09375 535.54065 529.9844 536.29065Q530.8906 537.025 530.8906 538.1813L529.4375 538.1813Q529.4375 537.5875 528.9219 537.16565Q528.4219 536.72815 527.65625 536.72815Q526.875 536.72815 526.4219 537.0719Q525.9844 537.41565 525.9844 537.9625Q525.9844 538.4938 526.3906 538.7594Q526.8125 539.025 527.8906 539.275Q528.96875 539.5094 529.6406 539.85315Q530.3125 540.1813 530.6406 540.65Q530.96875 541.1188 530.96875 541.8063Q530.96875 542.9313 530.0625 543.6188Q529.15625 544.3063 527.7031 544.3063Q526.6875 544.3063 525.90625 543.9469Q525.125 543.5875 524.6875 542.9469Q524.25 542.29065 524.25 541.54065L525.6875 541.54065Q525.7344 542.275 526.2656 542.6969Q526.8125 543.1188 527.7031 543.1188Q528.53125 543.1188 529.0156 542.79065Q529.5156 542.4625 529.5156 541.9ZM534.5625 533.65L534.5625 535.6969L536.1406 535.6969L536.1406 536.8063L534.5625 536.8063L534.5625 542.0563Q534.5625 542.5563 534.7656 542.8219Q534.9844 543.0719 535.4844 543.0719Q535.7344 543.0719 536.1719 542.97815L536.1719 544.15Q535.6094 544.3063 535.0625 544.3063Q534.09375 544.3063 533.59375 543.72815Q533.1094 543.1344 533.1094 542.0563L533.1094 536.8063L531.5781 536.8063L531.5781 535.6969L533.1094 535.6969L533.1094 533.65L534.5625 533.65ZM542.8125 544.15Q542.6875 543.9 542.6094 543.2594Q541.6094 544.3063 540.2031 544.3063Q538.9531 544.3063 538.15625 543.60315Q537.3594 542.8844 537.3594 541.8063Q537.3594 540.47815 538.3594 539.7594Q539.3594 539.025 541.1875 539.025L542.59375 539.025L542.59375 538.35315Q542.59375 537.60315 542.1406 537.15Q541.6875 536.6969 540.7969 536.6969Q540.03125 536.6969 539.5 537.0875Q538.9844 537.47815 538.9844 538.04065L537.53125 538.04065Q537.53125 537.4 537.96875 536.8219Q538.4219 536.22815 539.1875 535.8844Q539.96875 535.54065 540.8906 535.54065Q542.34375 535.54065 543.1719 536.275Q544.0 536.9938 544.03125 538.275L544.03125 542.16565Q544.03125 543.3375 544.3281 544.025L544.3281 544.15L542.8125 544.15ZM540.4219 543.04065Q541.09375 543.04065 541.7031 542.6969Q542.3125 542.3375 542.59375 541.775L542.59375 540.04065L541.4531 540.04065Q538.7969 540.04065 538.7969 541.60315Q538.7969 542.275 539.25 542.66565Q539.7031 543.04065 540.4219 543.04065ZM547.96875 535.6969L548.0156 536.7594Q548.9844 535.54065 550.5469 535.54065Q553.21875 535.54065 553.25 538.5563L553.25 544.15L551.7969 544.15L551.7969 538.5563Q551.7969 537.6344 551.375 537.1969Q550.96875 536.7594 550.1094 536.7594Q549.40625 536.7594 548.875 537.1344Q548.34375 537.5094 548.0469 538.1188L548.0469 544.15L546.59375 544.15L546.59375 535.6969L547.96875 535.6969ZM558.9844 543.1188Q559.7656 543.1188 560.34375 542.65Q560.9219 542.1813 560.9844 541.47815L562.34375 541.47815Q562.3125 542.2125 561.84375 542.8688Q561.3906 543.525 560.6094 543.91565Q559.84375 544.3063 558.9844 544.3063Q557.2656 544.3063 556.2344 543.15Q555.21875 541.9938 555.21875 539.9938L555.21875 539.7594Q555.21875 538.525 555.6719 537.5719Q556.125 536.60315 556.96875 536.0719Q557.8281 535.54065 558.9844 535.54065Q560.40625 535.54065 561.34375 536.4Q562.28125 537.2438 562.34375 538.60315L560.9844 538.60315Q560.9219 537.775 560.3594 537.2594Q559.7969 536.72815 558.9844 536.72815Q557.875 536.72815 557.2656 537.525Q556.6719 538.3063 556.6719 539.8063L556.6719 540.0875Q556.6719 541.54065 557.2656 542.3375Q557.875 543.1188 558.9844 543.1188ZM565.09375 535.6969L565.09375 545.1344Q565.09375 547.5719 562.875 547.5719Q562.3906 547.5719 561.9844 547.4313L561.9844 546.275Q562.2344 546.3375 562.65625 546.3375Q563.1406 546.3375 563.3906 546.0719Q563.6406 545.8063 563.6406 545.16565L563.6406 535.6969L565.09375 535.6969ZM563.5 533.4469Q563.5 533.10315 563.7031 532.8688Q563.9219 532.6188 564.34375 532.6188Q564.7656 532.6188 564.9844 532.8688Q565.2031 533.10315 565.2031 533.4625Q565.2031 533.8063 564.9844 534.04065Q564.7656 534.275 564.34375 534.275Q563.9219 534.275 563.7031 534.04065Q563.5 533.8063 563.5 533.4469ZM569.1719 544.15L567.71875 544.15L567.71875 535.6969L569.1719 535.6969L569.1719 544.15ZM567.6094 533.4469Q567.6094 533.10315 567.8125 532.8688Q568.03125 532.6188 568.4531 532.6188Q568.875 532.6188 569.09375 532.8688Q569.3125 533.10315 569.3125 533.4625Q569.3125 533.8063 569.09375 534.04065Q568.875 534.275 568.4531 534.275Q568.03125 534.275 567.8125 534.04065Q567.6094 533.8063 567.6094 533.4469Z" fill-rule="nonzero"/><path fill="#424242" d="M40.24065 358.92917Q42.037525 359.1323 43.0219 360.2573Q44.006275 361.3823 44.006275 363.24167Q44.006275 365.2573 42.568775 366.47604Q41.11565 367.67917 38.693775 367.67917L37.600025 367.67917Q36.006275 367.67917 34.80315 367.11667Q33.600025 366.55417 32.9594 365.52292Q32.318775 364.47604 32.318775 363.10104Q32.318775 361.28854 33.3344 360.1948Q34.3344 359.10104 36.131275 358.92917L36.131275 360.42917Q34.7719 360.6323 34.162525 361.28854Q33.55315 361.92917 33.55315 363.10104Q33.55315 364.53854 34.61565 365.36667Q35.67815 366.17917 37.631275 366.17917L38.74065 366.17917Q40.5844 366.17917 41.67815 365.41354Q42.7719 364.6323 42.7719 363.24167Q42.7719 361.99167 42.2094 361.3198Q41.6469 360.64792 40.24065 360.42917L40.24065 358.92917ZM42.662525 356.16354L42.662525 351.21042L43.850025 351.21042L43.850025 357.92917L42.787525 357.92917L36.5844 353.2573L36.5844 357.85104L35.3969 357.85104L35.3969 351.4448L36.412525 351.4448L42.662525 356.16354ZM43.850025 344.30417Q43.600025 344.42917 42.9594 344.5073Q44.006275 345.5073 44.006275 346.91354Q44.006275 348.16354 43.30315 348.96042Q42.5844 349.7573 41.506275 349.7573Q40.17815 349.7573 39.4594 348.7573Q38.725025 347.7573 38.725025 345.92917L38.725025 344.52292L38.05315 344.52292Q37.30315 344.52292 36.850025 344.97604Q36.3969 345.42917 36.3969 346.3198Q36.3969 347.08542 36.787525 347.61667Q37.17815 348.1323 37.74065 348.1323L37.74065 349.58542Q37.100025 349.58542 36.5219 349.14792Q35.92815 348.6948 35.5844 347.92917Q35.24065 347.14792 35.24065 346.22604Q35.24065 344.77292 35.975025 343.9448Q36.693775 343.11667 37.975025 343.08542L41.86565 343.08542Q43.037525 343.08542 43.725025 342.78854L43.850025 342.78854L43.850025 344.30417ZM42.74065 346.6948Q42.74065 346.02292 42.3969 345.41354Q42.037525 344.80417 41.475025 344.52292L39.74065 344.52292L39.74065 345.66354Q39.74065 348.3198 41.30315 348.3198Q41.975025 348.3198 42.36565 347.86667Q42.74065 347.41354 42.74065 346.6948ZM41.600025 335.60104Q41.0219 335.60104 40.693775 336.03854Q40.36565 336.47604 40.131275 337.58542Q39.8969 338.67917 39.568775 339.3198Q39.24065 339.96042 38.787525 340.27292Q38.3344 340.58542 37.7094 340.58542Q36.67815 340.58542 35.9594 339.71042Q35.24065 338.8198 35.24065 337.46042Q35.24065 336.02292 35.99065 335.1323Q36.725025 334.22604 37.881275 334.22604L37.881275 335.67917Q37.287525 335.67917 36.86565 336.1948Q36.42815 336.6948 36.42815 337.46042Q36.42815 338.24167 36.7719 338.6948Q37.11565 339.1323 37.662525 339.1323Q38.193775 339.1323 38.4594 338.72604Q38.725025 338.30417 38.975025 337.22604Q39.2094 336.14792 39.55315 335.47604Q39.881275 334.80417 40.350025 334.47604Q40.818775 334.14792 41.506275 334.14792Q42.631275 334.14792 43.318775 335.05417Q44.006275 335.96042 44.006275 337.41354Q44.006275 338.42917 43.6469 339.21042Q43.287525 339.99167 42.6469 340.42917Q41.99065 340.86667 41.24065 340.86667L41.24065 339.42917Q41.975025 339.3823 42.3969 338.85104Q42.818775 338.30417 42.818775 337.41354Q42.818775 336.58542 42.49065 336.10104Q42.162525 335.60104 41.600025 335.60104ZM41.850025 321.03854L35.3969 319.41354L35.3969 317.96042L43.850025 320.42917L43.850025 321.60104L37.443775 323.64792L43.850025 325.64792L43.850025 326.8198L35.3969 329.27292L35.3969 327.83542L41.725025 326.17917L35.3969 324.21042L35.3969 323.03854L41.850025 321.03854ZM41.725025 313.7573L35.3969 311.78854L35.3969 310.24167L45.162525 313.6323Q47.2719 314.42917 47.2719 316.14792L47.24065 316.41354L47.1469 316.96042L45.975025 316.96042L46.006275 316.5698Q46.006275 315.83542 45.7094 315.42917Q45.412525 315.0073 44.61565 314.74167L43.756275 314.42917L35.3969 317.4448L35.3969 315.86667L41.725025 313.7573ZM39.92815 306.16354L40.881275 307.0698L43.850025 307.0698L43.850025 308.5073L31.850025 308.5073L31.850025 307.0698L39.100025 307.0698L38.17815 306.28854L35.3969 303.66354L35.3969 301.89792L38.92815 305.1948L43.850025 301.52292L43.850025 303.21042L39.92815 306.16354ZM39.537525 300.89792Q38.30315 300.89792 37.318775 300.41354Q36.318775 299.92917 35.787525 299.05417Q35.24065 298.17917 35.24065 297.0698Q35.24065 295.33542 36.443775 294.27292Q37.631275 293.21042 39.61565 293.21042L39.7094 293.21042Q40.943775 293.21042 41.92815 293.67917Q42.912525 294.14792 43.4594 295.03854Q44.006275 295.91354 44.006275 297.05417Q44.006275 298.77292 42.818775 299.83542Q41.61565 300.89792 39.6469 300.89792L39.537525 300.89792ZM39.7094 299.4448Q41.11565 299.4448 41.975025 298.80417Q42.818775 298.14792 42.818775 297.05417Q42.818775 295.9448 41.9594 295.30417Q41.100025 294.64792 39.537525 294.64792Q38.1469 294.64792 37.287525 295.3198Q36.42815 295.97604 36.42815 297.0698Q36.42815 298.1323 37.287525 298.78854Q38.131275 299.4448 39.7094 299.4448ZM35.3969 290.14792L36.4594 290.10104Q35.24065 289.1323 35.24065 287.5698Q35.24065 284.89792 38.256275 284.86667L43.850025 284.86667L43.850025 286.3198L38.256275 286.3198Q37.3344 286.3198 36.8969 286.74167Q36.4594 287.14792 36.4594 288.0073Q36.4594 288.71042 36.8344 289.24167Q37.2094 289.77292 37.818775 290.0698L43.850025 290.0698L43.850025 291.52292L35.3969 291.52292L35.3969 290.14792ZM41.725025 279.7573L35.3969 277.78854L35.3969 276.24167L45.162525 279.6323Q47.2719 280.42917 47.2719 282.14792L47.24065 282.41354L47.1469 282.96042L45.975025 282.96042L46.006275 282.5698Q46.006275 281.83542 45.7094 281.42917Q45.412525 281.0073 44.61565 280.74167L43.756275 280.42917L35.3969 283.4448L35.3969 281.86667L41.725025 279.7573ZM41.850025 267.03854L35.3969 265.41354L35.3969 263.96042L43.850025 266.42917L43.850025 267.60104L37.443775 269.64792L43.850025 271.64792L43.850025 272.8198L35.3969 275.27292L35.3969 273.83542L41.725025 272.17917L35.3969 270.21042L35.3969 269.03854L41.850025 267.03854ZM43.850025 257.30417Q43.600025 257.42917 42.9594 257.5073Q44.006275 258.5073 44.006275 259.91354Q44.006275 261.16354 43.30315 261.96042Q42.5844 262.7573 41.506275 262.7573Q40.17815 262.7573 39.4594 261.7573Q38.725025 260.7573 38.725025 258.92917L38.725025 257.52292L38.05315 257.52292Q37.30315 257.52292 36.850025 257.97604Q36.3969 258.42917 36.3969 259.3198Q36.3969 260.08542 36.787525 260.61667Q37.17815 261.1323 37.74065 261.1323L37.74065 262.58542Q37.100025 262.58542 36.5219 262.14792Q35.92815 261.6948 35.5844 260.92917Q35.24065 260.14792 35.24065 259.22604Q35.24065 257.77292 35.975025 256.9448Q36.693775 256.11667 37.975025 256.08542L41.86565 256.08542Q43.037525 256.08542 43.725025 255.78854L43.850025 255.78854L43.850025 257.30417ZM42.74065 259.6948Q42.74065 259.02292 42.3969 258.41354Q42.037525 257.80417 41.475025 257.52292L39.74065 257.52292L39.74065 258.66354Q39.74065 261.3198 41.30315 261.3198Q41.975025 261.3198 42.36565 260.86667Q42.74065 260.41354 42.74065 259.6948ZM35.3969 252.14792L36.4594 252.10104Q35.24065 251.1323 35.24065 249.5698Q35.24065 246.89792 38.256275 246.86667L43.850025 246.86667L43.850025 248.3198L38.256275 248.3198Q37.3344 248.3198 36.8969 248.74167Q36.4594 249.14792 36.4594 250.0073Q36.4594 250.71042 36.8344 251.24167Q37.2094 251.77292 37.818775 252.0698L43.850025 252.0698L43.850025 253.52292L35.3969 253.52292L35.3969 252.14792ZM43.850025 242.9448L43.850025 244.39792L35.3969 244.39792L35.3969 242.9448L43.850025 242.9448ZM33.1469 244.5073Q32.80315 244.5073 32.568775 244.30417Q32.318775 244.08542 32.318775 243.66354Q32.318775 243.24167 32.568775 243.02292Q32.80315 242.80417 33.162525 242.80417Q33.506275 242.80417 33.74065 243.02292Q33.975025 243.24167 33.975025 243.66354Q33.975025 244.08542 33.74065 244.30417Q33.506275 244.5073 33.1469 244.5073ZM43.850025 235.30417Q43.600025 235.42917 42.9594 235.5073Q44.006275 236.5073 44.006275 237.91354Q44.006275 239.16354 43.30315 239.96042Q42.5844 240.7573 41.506275 240.7573Q40.17815 240.7573 39.4594 239.7573Q38.725025 238.7573 38.725025 236.92917L38.725025 235.52292L38.05315 235.52292Q37.30315 235.52292 36.850025 235.97604Q36.3969 236.42917 36.3969 237.3198Q36.3969 238.08542 36.787525 238.61667Q37.17815 239.1323 37.74065 239.1323L37.74065 240.58542Q37.100025 240.58542 36.5219 240.14792Q35.92815 239.6948 35.5844 238.92917Q35.24065 238.14792 35.24065 237.22604Q35.24065 235.77292 35.975025 234.9448Q36.693775 234.11667 37.975025 234.08542L41.86565 234.08542Q43.037525 234.08542 43.725025 233.78854L43.850025 233.78854L43.850025 235.30417ZM42.74065 237.6948Q42.74065 237.02292 42.3969 236.41354Q42.037525 235.80417 41.475025 235.52292L39.74065 235.52292L39.74065 236.66354Q39.74065 239.3198 41.30315 239.3198Q41.975025 239.3198 42.36565 238.86667Q42.74065 238.41354 42.74065 237.6948ZM32.037525 224.52292L32.037525 226.02292L45.100025 226.02292L45.100025 224.52292L46.287525 224.52292L46.287525 227.47604L30.850025 227.47604L30.850025 224.52292L32.037525 224.52292ZM35.3969 221.96042L40.3344 221.96042Q41.61565 221.96042 42.225025 221.55417Q42.8344 221.14792 42.8344 220.24167Q42.8344 218.6948 41.6469 218.21042L35.3969 218.21042L35.3969 216.7573L43.850025 216.7573L43.850025 218.05417L42.943775 218.1323Q44.006275 218.85104 44.006275 220.17917Q44.006275 221.33542 43.42815 221.96042L47.100025 221.96042L47.100025 223.41354L35.3969 223.41354L35.3969 221.96042ZM41.600025 209.60104Q41.0219 209.60104 40.693775 210.03854Q40.36565 210.47604 40.131275 211.58542Q39.8969 212.67917 39.568775 213.3198Q39.24065 213.96042 38.787525 214.27292Q38.3344 214.58542 37.7094 214.58542Q36.67815 214.58542 35.9594 213.71042Q35.24065 212.8198 35.24065 211.46042Q35.24065 210.02292 35.99065 209.1323Q36.725025 208.22604 37.881275 208.22604L37.881275 209.67917Q37.287525 209.67917 36.86565 210.1948Q36.42815 210.6948 36.42815 211.46042Q36.42815 212.24167 36.7719 212.6948Q37.11565 213.1323 37.662525 213.1323Q38.193775 213.1323 38.4594 212.72604Q38.725025 212.30417 38.975025 211.22604Q39.2094 210.14792 39.55315 209.47604Q39.881275 208.80417 40.350025 208.47604Q40.818775 208.14792 41.506275 208.14792Q42.631275 208.14792 43.318775 209.05417Q44.006275 209.96042 44.006275 211.41354Q44.006275 212.42917 43.6469 213.21042Q43.287525 213.99167 42.6469 214.42917Q41.99065 214.86667 41.24065 214.86667L41.24065 213.42917Q41.975025 213.3823 42.3969 212.85104Q42.818775 212.30417 42.818775 211.41354Q42.818775 210.58542 42.49065 210.10104Q42.162525 209.60104 41.600025 209.60104ZM30.850025 207.53854L30.850025 204.58542L46.287525 204.58542L46.287525 207.53854L45.100025 207.53854L45.100025 206.03854L32.037525 206.03854L32.037525 207.53854L30.850025 207.53854Z" fill-rule="nonzero"/><path fill="#757575" d="M105.9125 481.4Q105.9125 483.61874 105.14687 484.7125Q104.39687 485.79062 102.7875 485.79062Q101.19375 485.79062 100.42812 484.74374Q99.6625 483.68124 99.63125 481.57187L99.63125 479.88437Q99.63125 477.69687 100.38125 476.63437Q101.14687 475.55624 102.77187 475.55624Q104.38125 475.55624 105.13125 476.5875Q105.89687 477.61874 105.9125 479.75937L105.9125 481.4ZM104.64687 479.68124Q104.64687 478.07187 104.19375 477.3375Q103.75625 476.60312 102.77187 476.60312Q101.80312 476.60312 101.35 477.3375Q100.9125 478.05624 100.89687 479.57187L100.89687 481.60312Q100.89687 483.2125 101.36562 483.99374Q101.83437 484.75937 102.7875 484.75937Q103.725 484.75937 104.17812 484.04062Q104.63125 483.30624 104.64687 481.74374L104.64687 479.68124Z" fill-rule="nonzero"/><path fill="#757575" d="M79.19375 350.46112L72.67812 350.46112L72.67812 349.55487L76.11562 345.72675Q76.88125 344.85175 77.17812 344.3205Q77.475 343.77362 77.475 343.17987Q77.475 342.41425 76.99062 341.91425Q76.52187 341.41425 75.74062 341.41425Q74.80312 341.41425 74.27187 341.9455Q73.75625 342.47675 73.75625 343.4455L72.49062 343.4455Q72.49062 342.0705 73.36562 341.22675Q74.25625 340.36737 75.74062 340.36737Q77.13125 340.36737 77.92812 341.10175Q78.74062 341.8205 78.74062 343.03925Q78.74062 344.508 76.86562 346.53925L74.20937 349.42987L79.19375 349.42987L79.19375 350.46112ZM80.77187 352.4455L80.05312 351.9455Q80.69375 351.05487 80.725 350.10175L80.725 348.96112L81.95937 348.96112L81.95937 349.96112Q81.95937 350.64862 81.61562 351.33612Q81.27187 352.02362 80.77187 352.4455ZM89.9125 346.21112Q89.9125 348.42987 89.14687 349.52362Q88.39687 350.60175 86.7875 350.60175Q85.19375 350.60175 84.42812 349.55487Q83.6625 348.49237 83.63125 346.383L83.63125 344.6955Q83.63125 342.508 84.38125 341.4455Q85.14687 340.36737 86.77187 340.36737Q88.38125 340.36737 89.13125 341.39862Q89.89687 342.42987 89.9125 344.5705L89.9125 346.21112ZM88.64687 344.49237Q88.64687 342.883 88.19375 342.14862Q87.75625 341.41425 86.77187 341.41425Q85.80312 341.41425 85.35 342.14862Q84.9125 342.86737 84.89687 344.383L84.89687 346.41425Q84.89687 348.02362 85.36562 348.80487Q85.83437 349.5705 86.7875 349.5705Q87.725 349.5705 88.17812 348.85175Q88.63125 348.11737 88.64687 346.55487L88.64687 344.49237ZM97.9125 346.21112Q97.9125 348.42987 97.14687 349.52362Q96.39687 350.60175 94.7875 350.60175Q93.19375 350.60175 92.42812 349.55487Q91.6625 348.49237 91.63125 346.383L91.63125 344.6955Q91.63125 342.508 92.38125 341.4455Q93.14687 340.36737 94.77187 340.36737Q96.38125 340.36737 97.13125 341.39862Q97.89687 342.42987 97.9125 344.5705L97.9125 346.21112ZM96.64687 344.49237Q96.64687 342.883 96.19375 342.14862Q95.75625 341.41425 94.77187 341.41425Q93.80312 341.41425 93.35 342.14862Q92.9125 342.86737 92.89687 344.383L92.89687 346.41425Q92.89687 348.02362 93.36562 348.80487Q93.83437 349.5705 94.7875 349.5705Q95.725 349.5705 96.17812 348.85175Q96.63125 348.11737 96.64687 346.55487L96.64687 344.49237ZM105.9125 346.21112Q105.9125 348.42987 105.14687 349.52362Q104.39687 350.60175 102.7875 350.60175Q101.19375 350.60175 100.42812 349.55487Q99.6625 348.49237 99.63125 346.383L99.63125 344.6955Q99.63125 342.508 100.38125 341.4455Q101.14687 340.36737 102.77187 340.36737Q104.38125 340.36737 105.13125 341.39862Q105.89687 342.42987 105.9125 344.5705L105.9125 346.21112ZM104.64687 344.49237Q104.64687 342.883 104.19375 342.14862Q103.75625 341.41425 102.77187 341.41425Q101.80312 341.41425 101.35 342.14862Q100.9125 342.86737 100.89687 344.383L100.89687 346.41425Q100.89687 348.02362 101.36562 348.80487Q101.83437 349.5705 102.7875 349.5705Q103.725 349.5705 104.17812 348.85175Q104.63125 348.11737 104.64687 346.55487L104.64687 344.49237Z" fill-rule="nonzero"/><path fill="#757575" d="M78.02187 211.92847L79.39687 211.92847L79.39687 212.95972L78.02187 212.95972L78.02187 215.27222L76.74062 215.27222L76.74062 212.95972L72.20937 212.95972L72.20937 212.20972L76.6625 205.31909L78.02187 205.31909L78.02187 211.92847ZM73.64687 211.92847L76.74062 211.92847L76.74062 207.05347L76.6 207.31909L73.64687 211.92847ZM80.77187 217.25659L80.05312 216.75659Q80.69375 215.86597 80.725 214.91284L80.725 213.77222L81.95937 213.77222L81.95937 214.77222Q81.95937 215.45972 81.61562 216.14722Q81.27187 216.83472 80.77187 217.25659ZM89.9125 211.02222Q89.9125 213.24097 89.14687 214.33472Q88.39687 215.41284 86.7875 215.41284Q85.19375 215.41284 84.42812 214.36597Q83.6625 213.30347 83.63125 211.19409L83.63125 209.50659Q83.63125 207.31909 84.38125 206.25659Q85.14687 205.17847 86.77187 205.17847Q88.38125 205.17847 89.13125 206.20972Q89.89687 207.24097 89.9125 209.38159L89.9125 211.02222ZM88.64687 209.30347Q88.64687 207.69409 88.19375 206.95972Q87.75625 206.22534 86.77187 206.22534Q85.80312 206.22534 85.35 206.95972Q84.9125 207.67847 84.89687 209.19409L84.89687 211.22534Q84.89687 212.83472 85.36562 213.61597Q85.83437 214.38159 86.7875 214.38159Q87.725 214.38159 88.17812 213.66284Q88.63125 212.92847 88.64687 211.36597L88.64687 209.30347ZM97.9125 211.02222Q97.9125 213.24097 97.14687 214.33472Q96.39687 215.41284 94.7875 215.41284Q93.19375 215.41284 92.42812 214.36597Q91.6625 213.30347 91.63125 211.19409L91.63125 209.50659Q91.63125 207.31909 92.38125 206.25659Q93.14687 205.17847 94.77187 205.17847Q96.38125 205.17847 97.13125 206.20972Q97.89687 207.24097 97.9125 209.38159L97.9125 211.02222ZM96.64687 209.30347Q96.64687 207.69409 96.19375 206.95972Q95.75625 206.22534 94.77187 206.22534Q93.80312 206.22534 93.35 206.95972Q92.9125 207.67847 92.89687 209.19409L92.89687 211.22534Q92.89687 212.83472 93.36562 213.61597Q93.83437 214.38159 94.7875 214.38159Q95.725 214.38159 96.17812 213.66284Q96.63125 212.92847 96.64687 211.36597L96.64687 209.30347ZM105.9125 211.02222Q105.9125 213.24097 105.14687 214.33472Q104.39687 215.41284 102.7875 215.41284Q101.19375 215.41284 100.42812 214.36597Q99.6625 213.30347 99.63125 211.19409L99.63125 209.50659Q99.63125 207.31909 100.38125 206.25659Q101.14687 205.17847 102.77187 205.17847Q104.38125 205.17847 105.13125 206.20972Q105.89687 207.24097 105.9125 209.38159L105.9125 211.02222ZM104.64687 209.30347Q104.64687 207.69409 104.19375 206.95972Q103.75625 206.22534 102.77187 206.22534Q101.80312 206.22534 101.35 206.95972Q100.9125 207.67847 100.89687 209.19409L100.89687 211.22534Q100.89687 212.83472 101.36562 213.61597Q101.83437 214.38159 102.7875 214.38159Q103.725 214.38159 104.17812 213.66284Q104.63125 212.92847 104.64687 211.36597L104.64687 209.30347Z" fill-rule="nonzero"/><path fill="#757575" d="M77.64687 70.13021L77.64687 71.19271L77.4125 71.19271Q75.92812 71.22396 75.05312 72.06771Q74.17812 72.91146 74.0375 74.458336Q74.83437 73.552086 76.19375 73.552086Q77.49062 73.552086 78.25625 74.47396Q79.0375 75.38021 79.0375 76.833336Q79.0375 78.38021 78.19375 79.302086Q77.36562 80.22396 75.95937 80.22396Q74.5375 80.22396 73.64687 79.13021Q72.75625 78.020836 72.75625 76.302086L72.75625 75.81771Q72.75625 73.06771 73.92812 71.614586Q75.1 70.16146 77.4125 70.13021L77.64687 70.13021ZM75.975 74.614586Q75.33437 74.614586 74.7875 75.00521Q74.24062 75.38021 74.02187 75.97396L74.02187 76.44271Q74.02187 77.677086 74.56875 78.427086Q75.13125 79.177086 75.95937 79.177086Q76.81875 79.177086 77.30312 78.552086Q77.7875 77.91146 77.7875 76.895836Q77.7875 75.864586 77.2875 75.239586Q76.80312 74.614586 75.975 74.614586ZM80.77187 82.06771L80.05312 81.56771Q80.69375 80.677086 80.725 79.72396L80.725 78.583336L81.95937 78.583336L81.95937 79.583336Q81.95937 80.270836 81.61562 80.958336Q81.27187 81.645836 80.77187 82.06771ZM89.9125 75.833336Q89.9125 78.052086 89.14687 79.145836Q88.39687 80.22396 86.7875 80.22396Q85.19375 80.22396 84.42812 79.177086Q83.6625 78.114586 83.63125 76.00521L83.63125 74.31771Q83.63125 72.13021 84.38125 71.06771Q85.14687 69.989586 86.77187 69.989586Q88.38125 69.989586 89.13125 71.020836Q89.89687 72.052086 89.9125 74.19271L89.9125 75.833336ZM88.64687 74.114586Q88.64687 72.50521 88.19375 71.770836Q87.75625 71.03646 86.77187 71.03646Q85.80312 71.03646 85.35 71.770836Q84.9125 72.489586 84.89687 74.00521L84.89687 76.03646Q84.89687 77.645836 85.36562 78.427086Q85.83437 79.19271 86.7875 79.19271Q87.725 79.19271 88.17812 78.47396Q88.63125 77.739586 88.64687 76.177086L88.64687 74.114586ZM97.9125 75.833336Q97.9125 78.052086 97.14687 79.145836Q96.39687 80.22396 94.7875 80.22396Q93.19375 80.22396 92.42812 79.177086Q91.6625 78.114586 91.63125 76.00521L91.63125 74.31771Q91.63125 72.13021 92.38125 71.06771Q93.14687 69.989586 94.77187 69.989586Q96.38125 69.989586 97.13125 71.020836Q97.89687 72.052086 97.9125 74.19271L97.9125 75.833336ZM96.64687 74.114586Q96.64687 72.50521 96.19375 71.770836Q95.75625 71.03646 94.77187 71.03646Q93.80312 71.03646 93.35 71.770836Q92.9125 72.489586 92.89687 74.00521L92.89687 76.03646Q92.89687 77.645836 93.36562 78.427086Q93.83437 79.19271 94.7875 79.19271Q95.725 79.19271 96.17812 78.47396Q96.63125 77.739586 96.64687 76.177086L96.64687 74.114586ZM105.9125 75.833336Q105.9125 78.052086 105.14687 79.145836Q104.39687 80.22396 102.7875 80.22396Q101.19375 80.22396 100.42812 79.177086Q99.6625 78.114586 99.63125 76.00521L99.63125 74.31771Q99.63125 72.13021 100.38125 71.06771Q101.14687 69.989586 102.77187 69.989586Q104.38125 69.989586 105.13125 71.020836Q105.89687 72.052086 105.9125 74.19271L105.9125 75.833336ZM104.64687 74.114586Q104.64687 72.50521 104.19375 71.770836Q103.75625 71.03646 102.77187 71.03646Q101.80312 71.03646 101.35 71.770836Q100.9125 72.489586 100.89687 74.00521L100.89687 76.03646Q100.89687 77.645836 101.36562 78.427086Q101.83437 79.19271 102.7875 79.19271Q103.725 79.19271 104.17812 78.47396Q104.63125 77.739586 104.64687 76.177086L104.64687 74.114586Z" fill-rule="nonzero"/><path fill="#757575" d="M146.7571 501.15L145.49147 501.15L145.49147 492.72812L142.92897 493.65L142.92897 492.50937L146.55397 491.15L146.7571 491.15L146.7571 501.15ZM156.83522 496.9Q156.83522 499.11874 156.0696 500.2125Q155.3196 501.29062 153.71022 501.29062Q152.11647 501.29062 151.35085 500.24374Q150.58522 499.18124 150.55397 497.07187L150.55397 495.38437Q150.55397 493.19687 151.30397 492.13437Q152.0696 491.05624 153.6946 491.05624Q155.30397 491.05624 156.05397 492.0875Q156.8196 493.11874 156.83522 495.25937L156.83522 496.9ZM155.5696 495.18124Q155.5696 493.57187 155.11647 492.8375Q154.67897 492.10312 153.6946 492.10312Q152.72585 492.10312 152.27272 492.8375Q151.83522 493.55624 151.8196 495.07187L151.8196 497.10312Q151.8196 498.7125 152.28835 499.49374Q152.7571 500.25937 153.71022 500.25937Q154.64772 500.25937 155.10085 499.54062Q155.55397 498.80624 155.5696 497.24374L155.5696 495.18124Z" fill-rule="nonzero"/><path fill="#757575" d="M218.60255 501.15L217.33693 501.15L217.33693 492.72812L214.77443 493.65L214.77443 492.50937L218.39943 491.15L218.60255 491.15L218.60255 501.15ZM226.60255 501.15L225.33693 501.15L225.33693 492.72812L222.77443 493.65L222.77443 492.50937L226.39943 491.15L226.60255 491.15L226.60255 501.15Z" fill-rule="nonzero"/><path fill="#757575" d="M290.448 501.15L289.18237 501.15L289.18237 492.72812L286.61987 493.65L286.61987 492.50937L290.24487 491.15L290.448 491.15L290.448 501.15ZM300.80737 501.15L294.29175 501.15L294.29175 500.24374L297.72925 496.41562Q298.49487 495.54062 298.79175 495.00937Q299.08862 494.4625 299.08862 493.86874Q299.08862 493.10312 298.60425 492.60312Q298.1355 492.10312 297.35425 492.10312Q296.41675 492.10312 295.8855 492.63437Q295.36987 493.16562 295.36987 494.13437L294.10425 494.13437Q294.10425 492.75937 294.97925 491.91562Q295.86987 491.05624 297.35425 491.05624Q298.74487 491.05624 299.54175 491.79062Q300.35425 492.50937 300.35425 493.72812Q300.35425 495.19687 298.47925 497.22812L295.823 500.11874L300.80737 500.11874L300.80737 501.15Z" fill-rule="nonzero"/><path fill="#757575" d="M362.29346 501.15L361.02783 501.15L361.02783 492.72812L358.46533 493.65L358.46533 492.50937L362.09033 491.15L362.29346 491.15L362.29346 501.15ZM367.98096 495.55624L368.91846 495.55624Q369.8247 495.54062 370.3247 495.0875Q370.84033 494.63437 370.84033 493.85312Q370.84033 492.10312 369.10596 492.10312Q368.27783 492.10312 367.79346 492.57187Q367.30908 493.04062 367.30908 493.80624L366.04346 493.80624Q366.04346 492.61874 366.90283 491.8375Q367.77783 491.05624 369.10596 491.05624Q370.5122 491.05624 371.30908 491.80624Q372.10596 492.55624 372.10596 493.86874Q372.10596 494.525 371.68408 495.13437Q371.27783 495.74374 370.54346 496.04062Q371.37158 496.30624 371.80908 496.91562Q372.2622 497.50937 372.2622 498.36874Q372.2622 499.7125 371.3872 500.50937Q370.5122 501.29062 369.10596 501.29062Q367.71533 501.29062 366.8247 500.54062Q365.9497 499.775 365.9497 498.525L367.23096 498.525Q367.23096 499.30624 367.73096 499.79062Q368.24658 500.25937 369.10596 500.25937Q370.02783 500.25937 370.5122 499.775Q370.99658 499.29062 370.99658 498.4Q370.99658 497.54062 370.46533 497.07187Q369.93408 496.60312 368.91846 496.5875L367.98096 496.5875L367.98096 495.55624Z" fill-rule="nonzero"/><path fill="#757575" d="M434.13892 501.15L432.8733 501.15L432.8733 492.72812L430.3108 493.65L430.3108 492.50937L433.9358 491.15L434.13892 491.15L434.13892 501.15ZM443.32642 497.80624L444.70142 497.80624L444.70142 498.8375L443.32642 498.8375L443.32642 501.15L442.04517 501.15L442.04517 498.8375L437.51392 498.8375L437.51392 498.0875L441.96704 491.19687L443.32642 491.19687L443.32642 497.80624ZM438.95142 497.80624L442.04517 497.80624L442.04517 492.93124L441.90454 493.19687L438.95142 497.80624Z" fill-rule="nonzero"/><path fill="#757575" d="M505.98438 501.15L504.71875 501.15L504.71875 492.72812L502.15625 493.65L502.15625 492.50937L505.78125 491.15L505.98438 491.15L505.98438 501.15ZM510.40625 496.16562L510.92188 491.19687L516.0156 491.19687L516.0156 492.36874L511.98438 492.36874L511.6875 495.07187Q512.4219 494.65 513.34375 494.65Q514.7031 494.65 515.5 495.55624Q516.3125 496.44687 516.3125 497.97812Q516.3125 499.50937 515.46875 500.4Q514.6406 501.29062 513.15625 501.29062Q511.84375 501.29062 511.0 500.55624Q510.17188 499.82187 510.04688 498.525L511.25 498.525Q511.35938 499.38437 511.84375 499.82187Q512.34375 500.25937 513.15625 500.25937Q514.03125 500.25937 514.53125 499.66562Q515.0469 499.05624 515.0469 497.99374Q515.0469 496.99374 514.5 496.4Q513.9531 495.79062 513.0469 495.79062Q512.2344 495.79062 511.75 496.15L511.42188 496.41562L510.40625 496.16562Z" fill-rule="nonzero"/><path fill="#757575" d="M577.82983 501.15L576.5642 501.15L576.5642 492.72812L574.0017 493.65L574.0017 492.50937L577.6267 491.15L577.82983 491.15L577.82983 501.15ZM586.64233 491.19687L586.64233 492.25937L586.40796 492.25937Q584.9236 492.29062 584.0486 493.13437Q583.1736 493.97812 583.03296 495.525Q583.82983 494.61874 585.1892 494.61874Q586.4861 494.61874 587.2517 495.54062Q588.03296 496.44687 588.03296 497.9Q588.03296 499.44687 587.1892 500.36874Q586.3611 501.29062 584.95483 501.29062Q583.53296 501.29062 582.64233 500.19687Q581.7517 499.0875 581.7517 497.36874L581.7517 496.88437Q581.7517 494.13437 582.9236 492.68124Q584.09546 491.22812 586.40796 491.19687L586.64233 491.19687ZM584.97046 495.68124Q584.32983 495.68124 583.78296 496.07187Q583.2361 496.44687 583.01733 497.04062L583.01733 497.50937Q583.01733 498.74374 583.5642 499.49374Q584.1267 500.24374 584.95483 500.24374Q585.8142 500.24374 586.2986 499.61874Q586.78296 498.97812 586.78296 497.9625Q586.78296 496.93124 586.28296 496.30624Q585.7986 495.68124 584.97046 495.68124Z" fill-rule="nonzero"/><path fill="#757575" d="M649.6753 501.15L648.40967 501.15L648.40967 492.72812L645.84717 493.65L645.84717 492.50937L649.47217 491.15L649.6753 491.15L649.6753 501.15ZM659.9409 491.9L655.8159 501.15L654.5034 501.15L658.59717 492.22812L653.22217 492.22812L653.22217 491.19687L659.9409 491.19687L659.9409 491.9Z" fill-rule="nonzero"/><path fill="#757575" d="M721.52075 501.15L720.2551 501.15L720.2551 492.72812L717.6926 493.65L717.6926 492.50937L721.3176 491.15L721.52075 491.15L721.52075 501.15ZM731.39575 493.79062Q731.39575 494.54062 731.0051 495.11874Q730.6145 495.69687 729.9426 496.025Q730.7239 496.36874 731.177 497.00937Q731.6301 497.65 731.6301 498.4625Q731.6301 499.75937 730.7551 500.525Q729.89575 501.29062 728.4739 501.29062Q727.0364 501.29062 726.1614 500.525Q725.302 499.74374 725.302 498.4625Q725.302 497.65 725.7395 497.00937Q726.177 496.35312 726.95825 496.025Q726.302 495.69687 725.9114 495.11874Q725.5364 494.525 725.5364 493.79062Q725.5364 492.54062 726.33325 491.80624Q727.14575 491.05624 728.4739 491.05624Q729.7864 491.05624 730.58325 491.80624Q731.39575 492.54062 731.39575 493.79062ZM730.3645 498.43124Q730.3645 497.60312 729.83325 497.0875Q729.302 496.55624 728.4426 496.55624Q727.5989 496.55624 727.08325 497.07187Q726.5676 497.5875 726.5676 498.44687Q726.5676 499.29062 727.0676 499.775Q727.5676 500.25937 728.4739 500.25937Q729.3489 500.25937 729.8489 499.775Q730.3645 499.275 730.3645 498.43124ZM728.4739 492.10312Q727.7239 492.10312 727.2551 492.57187Q726.802 493.025 726.802 493.82187Q726.802 494.57187 727.2551 495.04062Q727.70825 495.50937 728.45825 495.50937Q729.2239 495.50937 729.677 495.04062Q730.1301 494.57187 730.1301 493.82187Q730.1301 493.05624 729.6614 492.5875Q729.1926 492.10312 728.4739 492.10312Z" fill-rule="nonzero"/><path fill="#757575" d="M795.7256 501.15L789.20996 501.15L789.20996 500.24374L792.64746 496.41562Q793.4131 495.54062 793.70996 495.00937Q794.00684 494.4625 794.00684 493.86874Q794.00684 493.10312 793.52246 492.60312Q793.0537 492.10312 792.27246 492.10312Q791.33496 492.10312 790.8037 492.63437Q790.2881 493.16562 790.2881 494.13437L789.02246 494.13437Q789.02246 492.75937 789.89746 491.91562Q790.7881 491.05624 792.27246 491.05624Q793.6631 491.05624 794.45996 491.79062Q795.27246 492.50937 795.27246 493.72812Q795.27246 495.19687 793.39746 497.22812L790.7412 500.11874L795.7256 500.11874L795.7256 501.15ZM803.44434 496.9Q803.44434 499.11874 802.6787 500.2125Q801.9287 501.29062 800.31934 501.29062Q798.7256 501.29062 797.95996 500.24374Q797.19434 499.18124 797.1631 497.07187L797.1631 495.38437Q797.1631 493.19687 797.9131 492.13437Q798.6787 491.05624 800.3037 491.05624Q801.9131 491.05624 802.6631 492.0875Q803.4287 493.11874 803.44434 495.25937L803.44434 496.9ZM802.1787 495.18124Q802.1787 493.57187 801.7256 492.8375Q801.2881 492.10312 800.3037 492.10312Q799.33496 492.10312 798.88184 492.8375Q798.44434 493.55624 798.4287 495.07187L798.4287 497.10312Q798.4287 498.7125 798.89746 499.49374Q799.3662 500.25937 800.31934 500.25937Q801.25684 500.25937 801.70996 499.54062Q802.1631 498.80624 802.1787 497.24374L802.1787 495.18124Z" fill-rule="nonzero"/><path fill="#757575" d="M866.3992 497.80624L867.7742 497.80624L867.7742 498.8375L866.3992 498.8375L866.3992 501.15L865.1179 501.15L865.1179 498.8375L860.5867 498.8375L860.5867 498.0875L865.0398 491.19687L866.3992 491.19687L866.3992 497.80624ZM862.0242 497.80624L865.1179 497.80624L865.1179 492.93124L864.9773 493.19687L862.0242 497.80624ZM875.2898 496.9Q875.2898 499.11874 874.5242 500.2125Q873.7742 501.29062 872.1648 501.29062Q870.57104 501.29062 869.8054 500.24374Q869.0398 499.18124 869.00854 497.07187L869.00854 495.38437Q869.00854 493.19687 869.75854 492.13437Q870.5242 491.05624 872.1492 491.05624Q873.75854 491.05624 874.50854 492.0875Q875.2742 493.11874 875.2898 495.25937L875.2898 496.9ZM874.0242 495.18124Q874.0242 493.57187 873.57104 492.8375Q873.13354 492.10312 872.1492 492.10312Q871.1804 492.10312 870.7273 492.8375Q870.2898 493.55624 870.2742 495.07187L870.2742 497.10312Q870.2742 498.7125 870.7429 499.49374Q871.2117 500.25937 872.1648 500.25937Q873.1023 500.25937 873.5554 499.54062Q874.00854 498.80624 874.0242 497.24374L874.0242 495.18124Z" fill-rule="nonzero"/><path fill="#e69138" d="M339.25735 34.10736L347.74265 34.10736L347.74265 42.59264L339.25735 42.59264Z" fill-rule="nonzero"/><path fill="#757575" d="M358.82812 43.85L358.82812 32.475L362.03125 32.475Q363.51562 32.475 364.65625 33.13125Q365.79688 33.7875 366.42188 35.00625Q367.04688 36.209373 367.04688 37.771873L367.04688 38.50625Q367.04688 40.115623 366.42188 41.334373Q365.8125 42.5375 364.65625 43.19375Q363.5 43.834373 361.96875 43.85L358.82812 43.85ZM360.32812 33.709373L360.32812 42.615623L361.90625 42.615623Q363.64062 42.615623 364.59375 41.5375Q365.5625 40.459373 365.5625 38.475L365.5625 37.803123Q365.5625 35.865623 364.65625 34.803123Q363.75 33.725 362.07812 33.709373L360.32812 33.709373ZM372.35938 41.725L374.32812 35.396873L375.875 35.396873L372.48438 45.1625Q371.6875 47.271873 369.96875 47.271873L369.70312 47.240623L369.15625 47.146873L369.15625 45.975L369.54688 46.00625Q370.28125 46.00625 370.6875 45.709373Q371.10938 45.4125 371.375 44.615623L371.6875 43.75625L368.67188 35.396873L370.25 35.396873L372.35938 41.725ZM378.96875 35.396873L379.01562 36.459373Q379.98438 35.240623 381.54688 35.240623Q384.21875 35.240623 384.25 38.25625L384.25 43.85L382.79688 43.85L382.79688 38.25625Q382.79688 37.334373 382.375 36.896873Q381.96875 36.459373 381.10938 36.459373Q380.40625 36.459373 379.875 36.834373Q379.34375 37.209373 379.04688 37.81875L379.04688 43.85L377.59375 43.85L377.59375 35.396873L378.96875 35.396873ZM391.8125 43.85Q391.6875 43.6 391.60938 42.959373Q390.60938 44.00625 389.20312 44.00625Q387.95312 44.00625 387.15625 43.303123Q386.35938 42.584373 386.35938 41.50625Q386.35938 40.178123 387.35938 39.459373Q388.35938 38.725 390.1875 38.725L391.59375 38.725L391.59375 38.053123Q391.59375 37.303123 391.14062 36.85Q390.6875 36.396873 389.79688 36.396873Q389.03125 36.396873 388.5 36.7875Q387.98438 37.178123 387.98438 37.740623L386.53125 37.740623Q386.53125 37.1 386.96875 36.521873Q387.42188 35.928123 388.1875 35.584373Q388.96875 35.240623 389.89062 35.240623Q391.34375 35.240623 392.17188 35.975Q393.0 36.69375 393.03125 37.975L393.03125 41.865623Q393.03125 43.0375 393.32812 43.725L393.32812 43.85L391.8125 43.85ZM389.42188 42.740623Q390.09375 42.740623 390.70312 42.396873Q391.3125 42.0375 391.59375 41.475L391.59375 39.740623L390.45312 39.740623Q387.79688 39.740623 387.79688 41.303123Q387.79688 41.975 388.25 42.365623Q388.70312 42.740623 389.42188 42.740623ZM396.95312 35.396873L397.0 36.334373Q397.92188 35.240623 399.5 35.240623Q401.28125 35.240623 401.92188 36.6Q402.34375 35.990623 403.01562 35.615623Q403.6875 35.240623 404.60938 35.240623Q407.39062 35.240623 407.4375 38.178123L407.4375 43.85L406.0 43.85L406.0 38.271873Q406.0 37.365623 405.57812 36.9125Q405.17188 36.459373 404.1875 36.459373Q403.39062 36.459373 402.85938 36.94375Q402.32812 37.428123 402.23438 38.240623L402.23438 43.85L400.78125 43.85L400.78125 38.303123Q400.78125 36.459373 398.98438 36.459373Q397.5625 36.459373 397.03125 37.678123L397.03125 43.85L395.59375 43.85L395.59375 35.396873L396.95312 35.396873ZM411.17188 43.85L409.71875 43.85L409.71875 35.396873L411.17188 35.396873L411.17188 43.85ZM409.60938 33.146873Q409.60938 32.803123 409.8125 32.56875Q410.03125 32.31875 410.45312 32.31875Q410.875 32.31875 411.09375 32.56875Q411.3125 32.803123 411.3125 33.1625Q411.3125 33.50625 411.09375 33.740623Q410.875 33.975 410.45312 33.975Q410.03125 33.975 409.8125 33.740623Q409.60938 33.50625 409.60938 33.146873ZM416.98438 42.81875Q417.76562 42.81875 418.34375 42.35Q418.92188 41.88125 418.98438 41.178123L420.34375 41.178123Q420.3125 41.9125 419.84375 42.56875Q419.39062 43.225 418.60938 43.615623Q417.84375 44.00625 416.98438 44.00625Q415.26562 44.00625 414.23438 42.85Q413.21875 41.69375 413.21875 39.69375L413.21875 39.459373Q413.21875 38.225 413.67188 37.271873Q414.125 36.303123 414.96875 35.771873Q415.82812 35.240623 416.98438 35.240623Q418.40625 35.240623 419.34375 36.1Q420.28125 36.94375 420.34375 38.303123L418.98438 38.303123Q418.92188 37.475 418.35938 36.959373Q417.79688 36.428123 416.98438 36.428123Q415.875 36.428123 415.26562 37.225Q414.67188 38.00625 414.67188 39.50625L414.67188 39.7875Q414.67188 41.240623 415.26562 42.0375Q415.875 42.81875 416.98438 42.81875ZM430.51562 41.6Q430.51562 41.021873 430.07812 40.69375Q429.64062 40.365623 428.53125 40.13125Q427.4375 39.896873 426.79688 39.56875Q426.15625 39.240623 425.84375 38.7875Q425.53125 38.334373 425.53125 37.709373Q425.53125 36.678123 426.40625 35.959373Q427.29688 35.240623 428.65625 35.240623Q430.09375 35.240623 430.98438 35.990623Q431.89062 36.725 431.89062 37.88125L430.4375 37.88125Q430.4375 37.2875 429.92188 36.865623Q429.42188 36.428123 428.65625 36.428123Q427.875 36.428123 427.42188 36.771873Q426.98438 37.115623 426.98438 37.6625Q426.98438 38.19375 427.39062 38.459373Q427.8125 38.725 428.89062 38.975Q429.96875 39.209373 430.64062 39.553123Q431.3125 39.88125 431.64062 40.35Q431.96875 40.81875 431.96875 41.50625Q431.96875 42.63125 431.0625 43.31875Q430.15625 44.00625 428.70312 44.00625Q427.6875 44.00625 426.90625 43.646873Q426.125 43.2875 425.6875 42.646873Q425.25 41.990623 425.25 41.240623L426.6875 41.240623Q426.73438 41.975 427.26562 42.396873Q427.8125 42.81875 428.70312 42.81875Q429.53125 42.81875 430.01562 42.490623Q430.51562 42.1625 430.51562 41.6ZM437.10938 44.00625Q435.39062 44.00625 434.3125 42.88125Q433.23438 41.740623 433.23438 39.85L433.23438 39.584373Q433.23438 38.334373 433.70312 37.35Q434.1875 36.35 435.04688 35.803123Q435.92188 35.240623 436.92188 35.240623Q438.57812 35.240623 439.48438 36.334373Q440.40625 37.4125 440.40625 39.428123L440.40625 40.0375L434.67188 40.0375Q434.70312 41.2875 435.40625 42.053123Q436.10938 42.81875 437.1875 42.81875Q437.95312 42.81875 438.48438 42.50625Q439.01562 42.19375 439.40625 41.678123L440.29688 42.365623Q439.23438 44.00625 437.10938 44.00625ZM436.92188 36.428123Q436.04688 36.428123 435.45312 37.06875Q434.85938 37.69375 434.71875 38.85L438.95312 38.85L438.95312 38.740623Q438.89062 37.63125 438.35938 37.0375Q437.82812 36.428123 436.92188 36.428123ZM446.8125 43.85Q446.6875 43.6 446.60938 42.959373Q445.60938 44.00625 444.20312 44.00625Q442.95312 44.00625 442.15625 43.303123Q441.35938 42.584373 441.35938 41.50625Q441.35938 40.178123 442.35938 39.459373Q443.35938 38.725 445.1875 38.725L446.59375 38.725L446.59375 38.053123Q446.59375 37.303123 446.14062 36.85Q445.6875 36.396873 444.79688 36.396873Q444.03125 36.396873 443.5 36.7875Q442.98438 37.178123 442.98438 37.740623L441.53125 37.740623Q441.53125 37.1 441.96875 36.521873Q442.42188 35.928123 443.1875 35.584373Q443.96875 35.240623 444.89062 35.240623Q446.34375 35.240623 447.17188 35.975Q448.0 36.69375 448.03125 37.975L448.03125 41.865623Q448.03125 43.0375 448.32812 43.725L448.32812 43.85L446.8125 43.85ZM444.42188 42.740623Q445.09375 42.740623 445.70312 42.396873Q446.3125 42.0375 446.59375 41.475L446.59375 39.740623L445.45312 39.740623Q442.79688 39.740623 442.79688 41.303123Q442.79688 41.975 443.25 42.365623Q443.70312 42.740623 444.42188 42.740623ZM454.6875 36.69375Q454.35938 36.63125 453.96875 36.63125Q452.54688 36.63125 452.04688 37.85L452.04688 43.85L450.59375 43.85L450.59375 35.396873L452.0 35.396873L452.03125 36.365623Q452.73438 35.240623 454.04688 35.240623Q454.46875 35.240623 454.6875 35.35L454.6875 36.69375ZM458.98438 42.81875Q459.76562 42.81875 460.34375 42.35Q460.92188 41.88125 460.98438 41.178123L462.34375 41.178123Q462.3125 41.9125 461.84375 42.56875Q461.39062 43.225 460.60938 43.615623Q459.84375 44.00625 458.98438 44.00625Q457.26562 44.00625 456.23438 42.85Q455.21875 41.69375 455.21875 39.69375L455.21875 39.459373Q455.21875 38.225 455.67188 37.271873Q456.125 36.303123 456.96875 35.771873Q457.82812 35.240623 458.98438 35.240623Q460.40625 35.240623 461.34375 36.1Q462.28125 36.94375 462.34375 38.303123L460.98438 38.303123Q460.92188 37.475 460.35938 36.959373Q459.79688 36.428123 458.98438 36.428123Q457.875 36.428123 457.26562 37.225Q456.67188 38.00625 456.67188 39.50625L456.67188 39.7875Q456.67188 41.240623 457.26562 42.0375Q457.875 42.81875 458.98438 42.81875ZM465.04688 36.4125Q466.0 35.240623 467.54688 35.240623Q470.21875 35.240623 470.25 38.25625L470.25 43.85L468.79688 43.85L468.79688 38.25625Q468.79688 37.334373 468.375 36.896873Q467.96875 36.459373 467.10938 36.459373Q466.40625 36.459373 465.875 36.834373Q465.34375 37.209373 465.04688 37.81875L465.04688 43.85L463.59375 43.85L463.59375 31.849998L465.04688 31.849998L465.04688 36.4125Z" fill-rule="nonzero"/><path fill="#3c78d8" d="M493.5 32.35L498.69617 41.35L488.30383 41.35Z" fill-rule="nonzero"/><path fill="#757575" d="M516.6875 33.709373L513.03125 33.709373L513.03125 43.85L511.53125 43.85L511.53125 33.709373L507.89062 33.709373L507.89062 32.475L516.6875 32.475L516.6875 33.709373ZM523.8125 43.85Q523.6875 43.6 523.6094 42.959373Q522.6094 44.00625 521.2031 44.00625Q519.9531 44.00625 519.15625 43.303123Q518.3594 42.584373 518.3594 41.50625Q518.3594 40.178123 519.3594 39.459373Q520.3594 38.725 522.1875 38.725L523.59375 38.725L523.59375 38.053123Q523.59375 37.303123 523.1406 36.85Q522.6875 36.396873 521.7969 36.396873Q521.03125 36.396873 520.5 36.7875Q519.9844 37.178123 519.9844 37.740623L518.53125 37.740623Q518.53125 37.1 518.96875 36.521873Q519.4219 35.928123 520.1875 35.584373Q520.96875 35.240623 521.8906 35.240623Q523.34375 35.240623 524.1719 35.975Q525.0 36.69375 525.03125 37.975L525.03125 41.865623Q525.03125 43.0375 525.3281 43.725L525.3281 43.85L523.8125 43.85ZM521.4219 42.740623Q522.09375 42.740623 522.7031 42.396873Q523.3125 42.0375 523.59375 41.475L523.59375 39.740623L522.4531 39.740623Q519.7969 39.740623 519.7969 41.303123Q519.7969 41.975 520.25 42.365623Q520.7031 42.740623 521.4219 42.740623ZM534.75 39.709373Q534.75 41.646873 533.8594 42.834373Q532.96875 44.00625 531.46875 44.00625Q529.875 44.00625 529.0 42.865623L528.9219 43.85L527.59375 43.85L527.59375 31.849998L529.0469 31.849998L529.0469 36.31875Q529.9219 35.240623 531.4531 35.240623Q533.0 35.240623 533.875 36.4125Q534.75 37.56875 534.75 39.584373L534.75 39.709373ZM533.3125 39.553123Q533.3125 38.06875 532.7344 37.271873Q532.1719 36.459373 531.09375 36.459373Q529.6719 36.459373 529.0469 37.7875L529.0469 41.44375Q529.7031 42.771873 531.1094 42.771873Q532.15625 42.771873 532.7344 41.975Q533.3125 41.1625 533.3125 39.553123ZM541.8125 43.00625Q540.96875 44.00625 539.34375 44.00625Q537.9844 44.00625 537.28125 43.225Q536.5781 42.428123 536.5625 40.896873L536.5625 35.396873L538.0156 35.396873L538.0156 40.85Q538.0156 42.771873 539.5781 42.771873Q541.2344 42.771873 541.78125 41.5375L541.78125 35.396873L543.21875 35.396873L543.21875 43.85L541.84375 43.85L541.8125 43.00625ZM554.5156 41.6Q554.5156 41.021873 554.0781 40.69375Q553.6406 40.365623 552.53125 40.13125Q551.4375 39.896873 550.7969 39.56875Q550.15625 39.240623 549.84375 38.7875Q549.53125 38.334373 549.53125 37.709373Q549.53125 36.678123 550.40625 35.959373Q551.2969 35.240623 552.65625 35.240623Q554.09375 35.240623 554.9844 35.990623Q555.8906 36.725 555.8906 37.88125L554.4375 37.88125Q554.4375 37.2875 553.9219 36.865623Q553.4219 36.428123 552.65625 36.428123Q551.875 36.428123 551.4219 36.771873Q550.9844 37.115623 550.9844 37.6625Q550.9844 38.19375 551.3906 38.459373Q551.8125 38.725 552.8906 38.975Q553.96875 39.209373 554.6406 39.553123Q555.3125 39.88125 555.6406 40.35Q555.96875 40.81875 555.96875 41.50625Q555.96875 42.63125 555.0625 43.31875Q554.15625 44.00625 552.7031 44.00625Q551.6875 44.00625 550.90625 43.646873Q550.125 43.2875 549.6875 42.646873Q549.25 41.990623 549.25 41.240623L550.6875 41.240623Q550.7344 41.975 551.2656 42.396873Q551.8125 42.81875 552.7031 42.81875Q553.53125 42.81875 554.0156 42.490623Q554.5156 42.1625 554.5156 41.6ZM561.1094 44.00625Q559.3906 44.00625 558.3125 42.88125Q557.2344 41.740623 557.2344 39.85L557.2344 39.584373Q557.2344 38.334373 557.7031 37.35Q558.1875 36.35 559.0469 35.803123Q559.9219 35.240623 560.9219 35.240623Q562.5781 35.240623 563.4844 36.334373Q564.40625 37.4125 564.40625 39.428123L564.40625 40.0375L558.6719 40.0375Q558.7031 41.2875 559.40625 42.053123Q560.1094 42.81875 561.1875 42.81875Q561.9531 42.81875 562.4844 42.50625Q563.0156 42.19375 563.40625 41.678123L564.2969 42.365623Q563.2344 44.00625 561.1094 44.00625ZM560.9219 36.428123Q560.0469 36.428123 559.4531 37.06875Q558.8594 37.69375 558.71875 38.85L562.9531 38.85L562.9531 38.740623Q562.8906 37.63125 562.3594 37.0375Q561.8281 36.428123 560.9219 36.428123ZM570.8125 43.85Q570.6875 43.6 570.6094 42.959373Q569.6094 44.00625 568.2031 44.00625Q566.9531 44.00625 566.15625 43.303123Q565.3594 42.584373 565.3594 41.50625Q565.3594 40.178123 566.3594 39.459373Q567.3594 38.725 569.1875 38.725L570.59375 38.725L570.59375 38.053123Q570.59375 37.303123 570.1406 36.85Q569.6875 36.396873 568.7969 36.396873Q568.03125 36.396873 567.5 36.7875Q566.9844 37.178123 566.9844 37.740623L565.53125 37.740623Q565.53125 37.1 565.96875 36.521873Q566.4219 35.928123 567.1875 35.584373Q567.96875 35.240623 568.8906 35.240623Q570.34375 35.240623 571.1719 35.975Q572.0 36.69375 572.03125 37.975L572.03125 41.865623Q572.03125 43.0375 572.3281 43.725L572.3281 43.85L570.8125 43.85ZM568.4219 42.740623Q569.09375 42.740623 569.7031 42.396873Q570.3125 42.0375 570.59375 41.475L570.59375 39.740623L569.4531 39.740623Q566.7969 39.740623 566.7969 41.303123Q566.7969 41.975 567.25 42.365623Q567.7031 42.740623 568.4219 42.740623ZM578.6875 36.69375Q578.3594 36.63125 577.96875 36.63125Q576.5469 36.63125 576.0469 37.85L576.0469 43.85L574.59375 43.85L574.59375 35.396873L576.0 35.396873L576.03125 36.365623Q576.7344 35.240623 578.0469 35.240623Q578.46875 35.240623 578.6875 35.35L578.6875 36.69375ZM582.9844 42.81875Q583.7656 42.81875 584.34375 42.35Q584.9219 41.88125 584.9844 41.178123L586.34375 41.178123Q586.3125 41.9125 585.84375 42.56875Q585.3906 43.225 584.6094 43.615623Q583.84375 44.00625 582.9844 44.00625Q581.2656 44.00625 580.2344 42.85Q579.21875 41.69375 579.21875 39.69375L579.21875 39.459373Q579.21875 38.225 579.6719 37.271873Q580.125 36.303123 580.96875 35.771873Q581.8281 35.240623 582.9844 35.240623Q584.40625 35.240623 585.34375 36.1Q586.28125 36.94375 586.34375 38.303123L584.9844 38.303123Q584.9219 37.475 584.3594 36.959373Q583.7969 36.428123 582.9844 36.428123Q581.875 36.428123 581.2656 37.225Q580.6719 38.00625 580.6719 39.50625L580.6719 39.7875Q580.6719 41.240623 581.2656 42.0375Q581.875 42.81875 582.9844 42.81875ZM589.0469 36.4125Q590.0 35.240623 591.5469 35.240623Q594.21875 35.240623 594.25 38.25625L594.25 43.85L592.7969 43.85L592.7969 38.25625Q592.7969 37.334373 592.375 36.896873Q591.96875 36.459373 591.1094 36.459373Q590.40625 36.459373 589.875 36.834373Q589.34375 37.209373 589.0469 37.81875L589.0469 43.85L587.59375 43.85L587.59375 31.849998L589.0469 31.849998L589.0469 36.4125Z" fill-rule="nonzero"/></svg>