<svg version="1.1" viewBox="0.0 0.0 933.0 577.0" fill="none" stroke="none" stroke-linecap="square" stroke-miterlimit="10" width="933" height="577" xmlns:xlink="http://www.w3.org/1999/xlink" xmlns="http://www.w3.org/2000/svg"><path fill="#ffffff" d="M0 0L933.0 0L933.0 577.0L0 577.0L0 0Z" fill-rule="nonzero"/><path fill="#ffffff" fill-opacity="0.0" d="M0 0L933.0 0L933.0 577.0L0 577.0L0 0Z" fill-rule="nonzero"/><path stroke="#333333" stroke-width="1.0" stroke-linecap="butt" d="M129.5 481.5L904.5 481.5" fill-rule="nonzero"/><path stroke="#cccccc" stroke-width="1.0" stroke-linecap="butt" d="M129.5 379.5L904.5 379.5" fill-rule="nonzero"/><path stroke="#cccccc" stroke-width="1.0" stroke-linecap="butt" d="M129.5 278.5L904.5 278.5" fill-rule="nonzero"/><path stroke="#cccccc" stroke-width="1.0" stroke-linecap="butt" d="M129.5 176.5L904.5 176.5" fill-rule="nonzero"/><path stroke="#cccccc" stroke-width="1.0" stroke-linecap="butt" d="M129.5 75.5L904.5 75.5" fill-rule="nonzero"/><path stroke="#e6e6e6" stroke-width="1.0" stroke-linecap="butt" d="M129.5 400.5L904.5 400.5" fill-rule="nonzero"/><path stroke="#e6e6e6" stroke-width="1.0" stroke-linecap="butt" d="M129.5 420.5L904.5 420.5" fill-rule="nonzero"/><path stroke="#e6e6e6" stroke-width="1.0" stroke-linecap="butt" d="M129.5 440.5L904.5 440.5" fill-rule="nonzero"/><path stroke="#e6e6e6" stroke-width="1.0" stroke-linecap="butt" d="M129.5 460.5L904.5 460.5" fill-rule="nonzero"/><path stroke="#e6e6e6" stroke-width="1.0" stroke-linecap="butt" d="M129.5 298.5L904.5 298.5" fill-rule="nonzero"/><path stroke="#e6e6e6" stroke-width="1.0" stroke-linecap="butt" d="M129.5 318.5L904.5 318.5" fill-rule="nonzero"/><path stroke="#e6e6e6" stroke-width="1.0" stroke-linecap="butt" d="M129.5 339.5L904.5 339.5" fill-rule="nonzero"/><path stroke="#e6e6e6" stroke-width="1.0" stroke-linecap="butt" d="M129.5 359.5L904.5 359.5" fill-rule="nonzero"/><path stroke="#e6e6e6" stroke-width="1.0" stroke-linecap="butt" d="M129.5 197.5L904.5 197.5" fill-rule="nonzero"/><path stroke="#e6e6e6" stroke-width="1.0" stroke-linecap="butt" d="M129.5 217.5L904.5 217.5" fill-rule="nonzero"/><path stroke="#e6e6e6" stroke-width="1.0" stroke-linecap="butt" d="M129.5 237.5L904.5 237.5" fill-rule="nonzero"/><path stroke="#e6e6e6" stroke-width="1.0" stroke-linecap="butt" d="M129.5 258.5L904.5 258.5" fill-rule="nonzero"/><path stroke="#e6e6e6" stroke-width="1.0" stroke-linecap="butt" d="M129.5 95.5L904.5 95.5" fill-rule="nonzero"/><path stroke="#e6e6e6" stroke-width="1.0" stroke-linecap="butt" d="M129.5 116.5L904.5 116.5" fill-rule="nonzero"/><path stroke="#e6e6e6" stroke-width="1.0" stroke-linecap="butt" d="M129.5 136.5L904.5 136.5" fill-rule="nonzero"/><path stroke="#e6e6e6" stroke-width="1.0" stroke-linecap="butt" d="M129.5 156.5L904.5 156.5" fill-rule="nonzero"/><clipPath id="id_0"><path d="M129.85 75.583336L904.15 75.583336L904.15 481.15L129.85 481.15L129.85 75.583336Z" clip-rule="nonzero"/></clipPath><path stroke="#e69138" stroke-width="4.0" stroke-linecap="butt" clip-path="url(#id_0)" d="M165.04546 480.82758L235.43637 480.7404L305.82727 480.72214L376.21817 480.6329L446.6091 480.5822L517.0 480.5234L587.3909 480.4443L657.7818 480.34088L728.1727 480.19693L798.56366 479.98804L868.9545 469.48996" fill-rule="nonzero"/><path stroke="#3c78d8" stroke-width="4.0" stroke-linecap="butt" clip-path="url(#id_0)" d="M165.04546 457.25604L235.43637 451.9999L305.82727 445.6467L376.21817 441.8019L446.6091 438.383L517.0 444.54355L587.3909 434.17322L657.7818 383.1002L728.1727 401.80493L798.56366 377.7163L868.9545 152.24963" fill-rule="nonzero"/><path fill="#e69138" clip-path="url(#id_0)" d="M159.3886 475.17072L170.70232 475.17072L170.70232 486.48444L159.3886 486.48444Z" fill-rule="nonzero"/><path fill="#e69138" clip-path="url(#id_0)" d="M229.77951 475.08353L241.09322 475.08353L241.09322 486.39722L229.77951 486.39722Z" fill-rule="nonzero"/><path fill="#e69138" clip-path="url(#id_0)" d="M300.1704 475.06528L311.48413 475.06528L311.48413 486.37897L300.1704 486.37897Z" fill-rule="nonzero"/><path fill="#e69138" clip-path="url(#id_0)" d="M370.56134 474.97604L381.87503 474.97604L381.87503 486.28976L370.56134 486.28976Z" fill-rule="nonzero"/><path fill="#e69138" clip-path="url(#id_0)" d="M440.95224 474.92535L452.26593 474.92535L452.26593 486.23907L440.95224 486.23907Z" fill-rule="nonzero"/><path fill="#e69138" clip-path="url(#id_0)" d="M511.34314 474.86655L522.65686 474.86655L522.65686 486.18027L511.34314 486.18027Z" fill-rule="nonzero"/><path fill="#e69138" clip-path="url(#id_0)" d="M581.7341 474.78745L593.0478 474.78745L593.0478 486.10117L581.7341 486.10117Z" fill-rule="nonzero"/><path fill="#e69138" clip-path="url(#id_0)" d="M652.12494 474.68405L663.43866 474.68405L663.43866 485.99774L652.12494 485.99774Z" fill-rule="nonzero"/><path fill="#e69138" clip-path="url(#id_0)" d="M722.51587 474.54007L733.8296 474.54007L733.8296 485.85376L722.51587 485.85376Z" fill-rule="nonzero"/><path fill="#e69138" clip-path="url(#id_0)" d="M792.9068 474.3312L804.2205 474.3312L804.2205 485.6449L792.9068 485.6449Z" fill-rule="nonzero"/><path fill="#e69138" clip-path="url(#id_0)" d="M863.29767 463.8331L874.6114 463.8331L874.6114 475.14682L863.29767 475.14682Z" fill-rule="nonzero"/><path fill="#3c78d8" clip-path="url(#id_0)" d="M165.04546 449.25604L171.97366 461.25604L158.11725 461.25604Z" fill-rule="nonzero"/><path fill="#3c78d8" clip-path="url(#id_0)" d="M235.43637 443.9999L242.36456 455.9999L228.50816 455.9999Z" fill-rule="nonzero"/><path fill="#3c78d8" clip-path="url(#id_0)" d="M305.82727 437.6467L312.75546 449.6467L298.89908 449.6467Z" fill-rule="nonzero"/><path fill="#3c78d8" clip-path="url(#id_0)" d="M376.21817 433.8019L383.1464 445.8019L369.28998 445.8019Z" fill-rule="nonzero"/><path fill="#3c78d8" clip-path="url(#id_0)" d="M446.6091 430.383L453.5373 442.383L439.68088 442.383Z" fill-rule="nonzero"/><path fill="#3c78d8" clip-path="url(#id_0)" d="M517.0 436.54355L523.9282 448.54355L510.0718 448.54355Z" fill-rule="nonzero"/><path fill="#3c78d8" clip-path="url(#id_0)" d="M587.3909 426.17322L594.3191 438.17322L580.4627 438.17322Z" fill-rule="nonzero"/><path fill="#3c78d8" clip-path="url(#id_0)" d="M657.7818 375.1002L664.71 387.1002L650.85364 387.1002Z" fill-rule="nonzero"/><path fill="#3c78d8" clip-path="url(#id_0)" d="M728.1727 393.80493L735.10095 405.80493L721.2445 405.80493Z" fill-rule="nonzero"/><path fill="#3c78d8" clip-path="url(#id_0)" d="M798.56366 369.7163L805.4918 381.7163L791.63544 381.7163Z" fill-rule="nonzero"/><path fill="#3c78d8" clip-path="url(#id_0)" d="M868.9545 144.24963L875.88275 156.24963L862.02637 156.24963Z" fill-rule="nonzero"/><path fill="#424242" d="M461.0 539.54065L458.32812 539.54065L458.32812 544.15L456.8125 544.15L456.8125 532.775L460.57812 532.775Q462.5 532.775 463.53125 533.65Q464.57812 534.525 464.57812 536.1969Q464.57812 537.2594 464.0 538.0563Q463.42188 538.8375 462.40625 539.22815L465.07812 544.0563L465.07812 544.15L463.46875 544.15L461.0 539.54065ZM458.32812 538.3219L460.625 538.3219Q461.75 538.3219 462.40625 537.7438Q463.0625 537.16565 463.0625 536.1969Q463.0625 535.1344 462.4375 534.5719Q461.8125 534.0094 460.625 534.0094L458.32812 534.0094L458.32812 538.3219ZM466.21875 539.8375Q466.21875 538.60315 466.70312 537.6188Q467.1875 536.6188 468.0625 536.0875Q468.9375 535.54065 470.04688 535.54065Q471.78125 535.54065 472.84375 536.7438Q473.90625 537.9313 473.90625 539.91565L473.90625 540.0094Q473.90625 541.2438 473.4375 542.22815Q472.96875 543.2125 472.07812 543.7594Q471.20312 544.3063 470.0625 544.3063Q468.34375 544.3063 467.28125 543.1188Q466.21875 541.91565 466.21875 539.9469L466.21875 539.8375ZM467.67188 540.0094Q467.67188 541.41565 468.3125 542.275Q468.96875 543.1188 470.0625 543.1188Q471.17188 543.1188 471.8125 542.2594Q472.46875 541.4 472.46875 539.8375Q472.46875 538.4469 471.79688 537.5875Q471.14062 536.72815 470.04688 536.72815Q468.98438 536.72815 468.32812 537.5875Q467.67188 538.4313 467.67188 540.0094ZM476.95312 542.9625L481.90625 542.9625L481.90625 544.15L475.1875 544.15L475.1875 543.0875L479.85938 536.8844L475.26562 536.8844L475.26562 535.6969L481.67188 535.6969L481.67188 536.7125L476.95312 542.9625ZM484.95312 535.6969L485.0 536.6344Q485.92188 535.54065 487.5 535.54065Q489.28125 535.54065 489.92188 536.9Q490.34375 536.29065 491.01562 535.91565Q491.6875 535.54065 492.60938 535.54065Q495.39062 535.54065 495.4375 538.47815L495.4375 544.15L494.0 544.15L494.0 538.5719Q494.0 537.66565 493.57812 537.2125Q493.17188 536.7594 492.1875 536.7594Q491.39062 536.7594 490.85938 537.2438Q490.32812 537.72815 490.23438 538.54065L490.23438 544.15L488.78125 544.15L488.78125 538.60315Q488.78125 536.7594 486.98438 536.7594Q485.5625 536.7594 485.03125 537.97815L485.03125 544.15L483.59375 544.15L483.59375 535.6969L484.95312 535.6969ZM499.17188 544.15L497.71875 544.15L497.71875 535.6969L499.17188 535.6969L499.17188 544.15ZM497.60938 533.4469Q497.60938 533.10315 497.8125 532.8688Q498.03125 532.6188 498.45312 532.6188Q498.875 532.6188 499.09375 532.8688Q499.3125 533.10315 499.3125 533.4625Q499.3125 533.8063 499.09375 534.04065Q498.875 534.275 498.45312 534.275Q498.03125 534.275 497.8125 534.04065Q497.60938 533.8063 497.60938 533.4469ZM506.8125 544.15Q506.6875 543.9 506.60938 543.2594Q505.60938 544.3063 504.20312 544.3063Q502.95312 544.3063 502.15625 543.60315Q501.35938 542.8844 501.35938 541.8063Q501.35938 540.47815 502.35938 539.7594Q503.35938 539.025 505.1875 539.025L506.59375 539.025L506.59375 538.35315Q506.59375 537.60315 506.14062 537.15Q505.6875 536.6969 504.79688 536.6969Q504.03125 536.6969 503.5 537.0875Q502.98438 537.47815 502.98438 538.04065L501.53125 538.04065Q501.53125 537.4 501.96875 536.8219Q502.42188 536.22815 503.1875 535.8844Q503.96875 535.54065 504.89062 535.54065Q506.34375 535.54065 507.17188 536.275Q508.0 536.9938 508.03125 538.275L508.03125 542.16565Q508.03125 543.3375 508.32812 544.025L508.32812 544.15L506.8125 544.15ZM504.42188 543.04065Q505.09375 543.04065 505.70312 542.6969Q506.3125 542.3375 506.59375 541.775L506.59375 540.04065L505.45312 540.04065Q502.79688 540.04065 502.79688 541.60315Q502.79688 542.275 503.25 542.66565Q503.70312 543.04065 504.42188 543.04065ZM514.6875 536.9938Q514.3594 536.9313 513.96875 536.9313Q512.5469 536.9313 512.0469 538.15L512.0469 544.15L510.59375 544.15L510.59375 535.6969L512.0 535.6969L512.03125 536.66565Q512.7344 535.54065 514.0469 535.54065Q514.46875 535.54065 514.6875 535.65L514.6875 536.9938ZM521.1719 544.15L519.71875 544.15L519.71875 535.6969L521.1719 535.6969L521.1719 544.15ZM519.6094 533.4469Q519.6094 533.10315 519.8125 532.8688Q520.03125 532.6188 520.4531 532.6188Q520.875 532.6188 521.09375 532.8688Q521.3125 533.10315 521.3125 533.4625Q521.3125 533.8063 521.09375 534.04065Q520.875 534.275 520.4531 534.275Q520.03125 534.275 519.8125 534.04065Q519.6094 533.8063 519.6094 533.4469ZM524.96875 535.6969L525.0156 536.7594Q525.9844 535.54065 527.5469 535.54065Q530.21875 535.54065 530.25 538.5563L530.25 544.15L528.7969 544.15L528.7969 538.5563Q528.7969 537.6344 528.375 537.1969Q527.96875 536.7594 527.1094 536.7594Q526.40625 536.7594 525.875 537.1344Q525.34375 537.5094 525.0469 538.1188L525.0469 544.15L523.59375 544.15L523.59375 535.6969L524.96875 535.6969ZM537.5156 541.9Q537.5156 541.3219 537.0781 540.9938Q536.6406 540.66565 535.53125 540.4313Q534.4375 540.1969 533.7969 539.8688Q533.15625 539.54065 532.84375 539.0875Q532.53125 538.6344 532.53125 538.0094Q532.53125 536.97815 533.40625 536.2594Q534.2969 535.54065 535.65625 535.54065Q537.09375 535.54065 537.9844 536.29065Q538.8906 537.025 538.8906 538.1813L537.4375 538.1813Q537.4375 537.5875 536.9219 537.16565Q536.4219 536.72815 535.65625 536.72815Q534.875 536.72815 534.4219 537.0719Q533.9844 537.41565 533.9844 537.9625Q533.9844 538.4938 534.3906 538.7594Q534.8125 539.025 535.8906 539.275Q536.96875 539.5094 537.6406 539.85315Q538.3125 540.1813 538.6406 540.65Q538.96875 541.1188 538.96875 541.8063Q538.96875 542.9313 538.0625 543.6188Q537.15625 544.3063 535.7031 544.3063Q534.6875 544.3063 533.90625 543.9469Q533.125 543.5875 532.6875 542.9469Q532.25 542.29065 532.25 541.54065L533.6875 541.54065Q533.7344 542.275 534.2656 542.6969Q534.8125 543.1188 535.7031 543.1188Q536.53125 543.1188 537.0156 542.79065Q537.5156 542.4625 537.5156 541.9ZM542.5625 533.65L542.5625 535.6969L544.1406 535.6969L544.1406 536.8063L542.5625 536.8063L542.5625 542.0563Q542.5625 542.5563 542.7656 542.8219Q542.9844 543.0719 543.4844 543.0719Q543.7344 543.0719 544.1719 542.97815L544.1719 544.15Q543.6094 544.3063 543.0625 544.3063Q542.09375 544.3063 541.59375 543.72815Q541.1094 543.1344 541.1094 542.0563L541.1094 536.8063L539.5781 536.8063L539.5781 535.6969L541.1094 535.6969L541.1094 533.65L542.5625 533.65ZM550.8125 544.15Q550.6875 543.9 550.6094 543.2594Q549.6094 544.3063 548.2031 544.3063Q546.9531 544.3063 546.15625 543.60315Q545.3594 542.8844 545.3594 541.8063Q545.3594 540.47815 546.3594 539.7594Q547.3594 539.025 549.1875 539.025L550.59375 539.025L550.59375 538.35315Q550.59375 537.60315 550.1406 537.15Q549.6875 536.6969 548.7969 536.6969Q548.03125 536.6969 547.5 537.0875Q546.9844 537.47815 546.9844 538.04065L545.53125 538.04065Q545.53125 537.4 545.96875 536.8219Q546.4219 536.22815 547.1875 535.8844Q547.96875 535.54065 548.8906 535.54065Q550.34375 535.54065 551.1719 536.275Q552.0 536.9938 552.03125 538.275L552.03125 542.16565Q552.03125 543.3375 552.3281 544.025L552.3281 544.15L550.8125 544.15ZM548.4219 543.04065Q549.09375 543.04065 549.7031 542.6969Q550.3125 542.3375 550.59375 541.775L550.59375 540.04065L549.4531 540.04065Q546.7969 540.04065 546.7969 541.60315Q546.7969 542.275 547.25 542.66565Q547.7031 543.04065 548.4219 543.04065ZM555.96875 535.6969L556.0156 536.7594Q556.9844 535.54065 558.5469 535.54065Q561.21875 535.54065 561.25 538.5563L561.25 544.15L559.7969 544.15L559.7969 538.5563Q559.7969 537.6344 559.375 537.1969Q558.96875 536.7594 558.1094 536.7594Q557.40625 536.7594 556.875 537.1344Q556.34375 537.5094 556.0469 538.1188L556.0469 544.15L554.59375 544.15L554.59375 535.6969L555.96875 535.6969ZM566.9844 543.1188Q567.7656 543.1188 568.34375 542.65Q568.9219 542.1813 568.9844 541.47815L570.34375 541.47815Q570.3125 542.2125 569.84375 542.8688Q569.3906 543.525 568.6094 543.91565Q567.84375 544.3063 566.9844 544.3063Q565.2656 544.3063 564.2344 543.15Q563.21875 541.9938 563.21875 539.9938L563.21875 539.7594Q563.21875 538.525 563.6719 537.5719Q564.125 536.60315 564.96875 536.0719Q565.8281 535.54065 566.9844 535.54065Q568.40625 535.54065 569.34375 536.4Q570.28125 537.2438 570.34375 538.60315L568.9844 538.60315Q568.9219 537.775 568.3594 537.2594Q567.7969 536.72815 566.9844 536.72815Q565.875 536.72815 565.2656 537.525Q564.6719 538.3063 564.6719 539.8063L564.6719 540.0875Q564.6719 541.54065 565.2656 542.3375Q565.875 543.1188 566.9844 543.1188ZM573.09375 535.6969L573.09375 545.1344Q573.09375 547.5719 570.875 547.5719Q570.3906 547.5719 569.9844 547.4313L569.9844 546.275Q570.2344 546.3375 570.65625 546.3375Q571.1406 546.3375 571.3906 546.0719Q571.6406 545.8063 571.6406 545.16565L571.6406 535.6969L573.09375 535.6969ZM571.5 533.4469Q571.5 533.10315 571.7031 532.8688Q571.9219 532.6188 572.34375 532.6188Q572.7656 532.6188 572.9844 532.8688Q573.2031 533.10315 573.2031 533.4625Q573.2031 533.8063 572.9844 534.04065Q572.7656 534.275 572.34375 534.275Q571.9219 534.275 571.7031 534.04065Q571.5 533.8063 571.5 533.4469ZM577.1719 544.15L575.71875 544.15L575.71875 535.6969L577.1719 535.6969L577.1719 544.15ZM575.6094 533.4469Q575.6094 533.10315 575.8125 532.8688Q576.03125 532.6188 576.4531 532.6188Q576.875 532.6188 577.09375 532.8688Q577.3125 533.10315 577.3125 533.4625Q577.3125 533.8063 577.09375 534.04065Q576.875 534.275 576.4531 534.275Q576.03125 534.275 575.8125 534.04065Q575.6094 533.8063 575.6094 533.4469Z" fill-rule="nonzero"/><path fill="#424242" d="M40.24065 358.92917Q42.037525 359.1323 43.0219 360.2573Q44.006275 361.3823 44.006275 363.24167Q44.006275 365.2573 42.568775 366.47604Q41.11565 367.67917 38.693775 367.67917L37.600025 367.67917Q36.006275 367.67917 34.80315 367.11667Q33.600025 366.55417 32.9594 365.52292Q32.318775 364.47604 32.318775 363.10104Q32.318775 361.28854 33.3344 360.1948Q34.3344 359.10104 36.131275 358.92917L36.131275 360.42917Q34.7719 360.6323 34.162525 361.28854Q33.55315 361.92917 33.55315 363.10104Q33.55315 364.53854 34.61565 365.36667Q35.67815 366.17917 37.631275 366.17917L38.74065 366.17917Q40.5844 366.17917 41.67815 365.41354Q42.7719 364.6323 42.7719 363.24167Q42.7719 361.99167 42.2094 361.3198Q41.6469 360.64792 40.24065 360.42917L40.24065 358.92917ZM42.662525 356.16354L42.662525 351.21042L43.850025 351.21042L43.850025 357.92917L42.787525 357.92917L36.5844 353.2573L36.5844 357.85104L35.3969 357.85104L35.3969 351.4448L36.412525 351.4448L42.662525 356.16354ZM43.850025 344.30417Q43.600025 344.42917 42.9594 344.5073Q44.006275 345.5073 44.006275 346.91354Q44.006275 348.16354 43.30315 348.96042Q42.5844 349.7573 41.506275 349.7573Q40.17815 349.7573 39.4594 348.7573Q38.725025 347.7573 38.725025 345.92917L38.725025 344.52292L38.05315 344.52292Q37.30315 344.52292 36.850025 344.97604Q36.3969 345.42917 36.3969 346.3198Q36.3969 347.08542 36.787525 347.61667Q37.17815 348.1323 37.74065 348.1323L37.74065 349.58542Q37.100025 349.58542 36.5219 349.14792Q35.92815 348.6948 35.5844 347.92917Q35.24065 347.14792 35.24065 346.22604Q35.24065 344.77292 35.975025 343.9448Q36.693775 343.11667 37.975025 343.08542L41.86565 343.08542Q43.037525 343.08542 43.725025 342.78854L43.850025 342.78854L43.850025 344.30417ZM42.74065 346.6948Q42.74065 346.02292 42.3969 345.41354Q42.037525 344.80417 41.475025 344.52292L39.74065 344.52292L39.74065 345.66354Q39.74065 348.3198 41.30315 348.3198Q41.975025 348.3198 42.36565 347.86667Q42.74065 347.41354 42.74065 346.6948ZM41.600025 335.60104Q41.0219 335.60104 40.693775 336.03854Q40.36565 336.47604 40.131275 337.58542Q39.8969 338.67917 39.568775 339.3198Q39.24065 339.96042 38.787525 340.27292Q38.3344 340.58542 37.7094 340.58542Q36.67815 340.58542 35.9594 339.71042Q35.24065 338.8198 35.24065 337.46042Q35.24065 336.02292 35.99065 335.1323Q36.725025 334.22604 37.881275 334.22604L37.881275 335.67917Q37.287525 335.67917 36.86565 336.1948Q36.42815 336.6948 36.42815 337.46042Q36.42815 338.24167 36.7719 338.6948Q37.11565 339.1323 37.662525 339.1323Q38.193775 339.1323 38.4594 338.72604Q38.725025 338.30417 38.975025 337.22604Q39.2094 336.14792 39.55315 335.47604Q39.881275 334.80417 40.350025 334.47604Q40.818775 334.14792 41.506275 334.14792Q42.631275 334.14792 43.318775 335.05417Q44.006275 335.96042 44.006275 337.41354Q44.006275 338.42917 43.6469 339.21042Q43.287525 339.99167 42.6469 340.42917Q41.99065 340.86667 41.24065 340.86667L41.24065 339.42917Q41.975025 339.3823 42.3969 338.85104Q42.818775 338.30417 42.818775 337.41354Q42.818775 336.58542 42.49065 336.10104Q42.162525 335.60104 41.600025 335.60104ZM41.850025 321.03854L35.3969 319.41354L35.3969 317.96042L43.850025 320.42917L43.850025 321.60104L37.443775 323.64792L43.850025 325.64792L43.850025 326.8198L35.3969 329.27292L35.3969 327.83542L41.725025 326.17917L35.3969 324.21042L35.3969 323.03854L41.850025 321.03854ZM41.725025 313.7573L35.3969 311.78854L35.3969 310.24167L45.162525 313.6323Q47.2719 314.42917 47.2719 316.14792L47.24065 316.41354L47.1469 316.96042L45.975025 316.96042L46.006275 316.5698Q46.006275 315.83542 45.7094 315.42917Q45.412525 315.0073 44.61565 314.74167L43.756275 314.42917L35.3969 317.4448L35.3969 315.86667L41.725025 313.7573ZM39.92815 306.16354L40.881275 307.0698L43.850025 307.0698L43.850025 308.5073L31.850025 308.5073L31.850025 307.0698L39.100025 307.0698L38.17815 306.28854L35.3969 303.66354L35.3969 301.89792L38.92815 305.1948L43.850025 301.52292L43.850025 303.21042L39.92815 306.16354ZM39.537525 300.89792Q38.30315 300.89792 37.318775 300.41354Q36.318775 299.92917 35.787525 299.05417Q35.24065 298.17917 35.24065 297.0698Q35.24065 295.33542 36.443775 294.27292Q37.631275 293.21042 39.61565 293.21042L39.7094 293.21042Q40.943775 293.21042 41.92815 293.67917Q42.912525 294.14792 43.4594 295.03854Q44.006275 295.91354 44.006275 297.05417Q44.006275 298.77292 42.818775 299.83542Q41.61565 300.89792 39.6469 300.89792L39.537525 300.89792ZM39.7094 299.4448Q41.11565 299.4448 41.975025 298.80417Q42.818775 298.14792 42.818775 297.05417Q42.818775 295.9448 41.9594 295.30417Q41.100025 294.64792 39.537525 294.64792Q38.1469 294.64792 37.287525 295.3198Q36.42815 295.97604 36.42815 297.0698Q36.42815 298.1323 37.287525 298.78854Q38.131275 299.4448 39.7094 299.4448ZM35.3969 290.14792L36.4594 290.10104Q35.24065 289.1323 35.24065 287.5698Q35.24065 284.89792 38.256275 284.86667L43.850025 284.86667L43.850025 286.3198L38.256275 286.3198Q37.3344 286.3198 36.8969 286.74167Q36.4594 287.14792 36.4594 288.0073Q36.4594 288.71042 36.8344 289.24167Q37.2094 289.77292 37.818775 290.0698L43.850025 290.0698L43.850025 291.52292L35.3969 291.52292L35.3969 290.14792ZM41.725025 279.7573L35.3969 277.78854L35.3969 276.24167L45.162525 279.6323Q47.2719 280.42917 47.2719 282.14792L47.24065 282.41354L47.1469 282.96042L45.975025 282.96042L46.006275 282.5698Q46.006275 281.83542 45.7094 281.42917Q45.412525 281.0073 44.61565 280.74167L43.756275 280.42917L35.3969 283.4448L35.3969 281.86667L41.725025 279.7573ZM41.850025 267.03854L35.3969 265.41354L35.3969 263.96042L43.850025 266.42917L43.850025 267.60104L37.443775 269.64792L43.850025 271.64792L43.850025 272.8198L35.3969 275.27292L35.3969 273.83542L41.725025 272.17917L35.3969 270.21042L35.3969 269.03854L41.850025 267.03854ZM43.850025 257.30417Q43.600025 257.42917 42.9594 257.5073Q44.006275 258.5073 44.006275 259.91354Q44.006275 261.16354 43.30315 261.96042Q42.5844 262.7573 41.506275 262.7573Q40.17815 262.7573 39.4594 261.7573Q38.725025 260.7573 38.725025 258.92917L38.725025 257.52292L38.05315 257.52292Q37.30315 257.52292 36.850025 257.97604Q36.3969 258.42917 36.3969 259.3198Q36.3969 260.08542 36.787525 260.61667Q37.17815 261.1323 37.74065 261.1323L37.74065 262.58542Q37.100025 262.58542 36.5219 262.14792Q35.92815 261.6948 35.5844 260.92917Q35.24065 260.14792 35.24065 259.22604Q35.24065 257.77292 35.975025 256.9448Q36.693775 256.11667 37.975025 256.08542L41.86565 256.08542Q43.037525 256.08542 43.725025 255.78854L43.850025 255.78854L43.850025 257.30417ZM42.74065 259.6948Q42.74065 259.02292 42.3969 258.41354Q42.037525 257.80417 41.475025 257.52292L39.74065 257.52292L39.74065 258.66354Q39.74065 261.3198 41.30315 261.3198Q41.975025 261.3198 42.36565 260.86667Q42.74065 260.41354 42.74065 259.6948ZM35.3969 252.14792L36.4594 252.10104Q35.24065 251.1323 35.24065 249.5698Q35.24065 246.89792 38.256275 246.86667L43.850025 246.86667L43.850025 248.3198L38.256275 248.3198Q37.3344 248.3198 36.8969 248.74167Q36.4594 249.14792 36.4594 250.0073Q36.4594 250.71042 36.8344 251.24167Q37.2094 251.77292 37.818775 252.0698L43.850025 252.0698L43.850025 253.52292L35.3969 253.52292L35.3969 252.14792ZM43.850025 242.9448L43.850025 244.39792L35.3969 244.39792L35.3969 242.9448L43.850025 242.9448ZM33.1469 244.5073Q32.80315 244.5073 32.568775 244.30417Q32.318775 244.08542 32.318775 243.66354Q32.318775 243.24167 32.568775 243.02292Q32.80315 242.80417 33.162525 242.80417Q33.506275 242.80417 33.74065 243.02292Q33.975025 243.24167 33.975025 243.66354Q33.975025 244.08542 33.74065 244.30417Q33.506275 244.5073 33.1469 244.5073ZM43.850025 235.30417Q43.600025 235.42917 42.9594 235.5073Q44.006275 236.5073 44.006275 237.91354Q44.006275 239.16354 43.30315 239.96042Q42.5844 240.7573 41.506275 240.7573Q40.17815 240.7573 39.4594 239.7573Q38.725025 238.7573 38.725025 236.92917L38.725025 235.52292L38.05315 235.52292Q37.30315 235.52292 36.850025 235.97604Q36.3969 236.42917 36.3969 237.3198Q36.3969 238.08542 36.787525 238.61667Q37.17815 239.1323 37.74065 239.1323L37.74065 240.58542Q37.100025 240.58542 36.5219 240.14792Q35.92815 239.6948 35.5844 238.92917Q35.24065 238.14792 35.24065 237.22604Q35.24065 235.77292 35.975025 234.9448Q36.693775 234.11667 37.975025 234.08542L41.86565 234.08542Q43.037525 234.08542 43.725025 233.78854L43.850025 233.78854L43.850025 235.30417ZM42.74065 237.6948Q42.74065 237.02292 42.3969 236.41354Q42.037525 235.80417 41.475025 235.52292L39.74065 235.52292L39.74065 236.66354Q39.74065 239.3198 41.30315 239.3198Q41.975025 239.3198 42.36565 238.86667Q42.74065 238.41354 42.74065 237.6948ZM32.037525 224.52292L32.037525 226.02292L45.100025 226.02292L45.100025 224.52292L46.287525 224.52292L46.287525 227.47604L30.850025 227.47604L30.850025 224.52292L32.037525 224.52292ZM35.3969 221.96042L40.3344 221.96042Q41.61565 221.96042 42.225025 221.55417Q42.8344 221.14792 42.8344 220.24167Q42.8344 218.6948 41.6469 218.21042L35.3969 218.21042L35.3969 216.7573L43.850025 216.7573L43.850025 218.05417L42.943775 218.1323Q44.006275 218.85104 44.006275 220.17917Q44.006275 221.33542 43.42815 221.96042L47.100025 221.96042L47.100025 223.41354L35.3969 223.41354L35.3969 221.96042ZM41.600025 209.60104Q41.0219 209.60104 40.693775 210.03854Q40.36565 210.47604 40.131275 211.58542Q39.8969 212.67917 39.568775 213.3198Q39.24065 213.96042 38.787525 214.27292Q38.3344 214.58542 37.7094 214.58542Q36.67815 214.58542 35.9594 213.71042Q35.24065 212.8198 35.24065 211.46042Q35.24065 210.02292 35.99065 209.1323Q36.725025 208.22604 37.881275 208.22604L37.881275 209.67917Q37.287525 209.67917 36.86565 210.1948Q36.42815 210.6948 36.42815 211.46042Q36.42815 212.24167 36.7719 212.6948Q37.11565 213.1323 37.662525 213.1323Q38.193775 213.1323 38.4594 212.72604Q38.725025 212.30417 38.975025 211.22604Q39.2094 210.14792 39.55315 209.47604Q39.881275 208.80417 40.350025 208.47604Q40.818775 208.14792 41.506275 208.14792Q42.631275 208.14792 43.318775 209.05417Q44.006275 209.96042 44.006275 211.41354Q44.006275 212.42917 43.6469 213.21042Q43.287525 213.99167 42.6469 214.42917Q41.99065 214.86667 41.24065 214.86667L41.24065 213.42917Q41.975025 213.3823 42.3969 212.85104Q42.818775 212.30417 42.818775 211.41354Q42.818775 210.58542 42.49065 210.10104Q42.162525 209.60104 41.600025 209.60104ZM30.850025 207.53854L30.850025 204.58542L46.287525 204.58542L46.287525 207.53854L45.100025 207.53854L45.100025 206.03854L32.037525 206.03854L32.037525 207.53854L30.850025 207.53854Z" fill-rule="nonzero"/><path fill="#757575" d="M121.9125 481.4Q121.9125 483.61874 121.14687 484.7125Q120.39687 485.79062 118.7875 485.79062Q117.19375 485.79062 116.42812 484.74374Q115.6625 483.68124 115.63125 481.57187L115.63125 479.88437Q115.63125 477.69687 116.38125 476.63437Q117.14687 475.55624 118.77187 475.55624Q120.38125 475.55624 121.13125 476.5875Q121.89687 477.61874 121.9125 479.75937L121.9125 481.4ZM120.64687 479.68124Q120.64687 478.07187 120.19375 477.3375Q119.75625 476.60312 118.77187 476.60312Q117.80312 476.60312 117.35 477.3375Q116.9125 478.05624 116.89687 479.57187L116.89687 481.60312Q116.89687 483.2125 117.36562 483.99374Q117.83437 484.75937 118.7875 484.75937Q119.725 484.75937 120.17812 484.04062Q120.63125 483.30624 120.64687 481.74374L120.64687 479.68124Z" fill-rule="nonzero"/><path fill="#757575" d="M81.25625 379.27396L81.77187 374.3052L86.86562 374.3052L86.86562 375.47708L82.83437 375.47708L82.5375 378.1802Q83.27187 377.75833 84.19375 377.75833Q85.55312 377.75833 86.35 378.66458Q87.1625 379.5552 87.1625 381.08646Q87.1625 382.6177 86.31875 383.50833Q85.49062 384.39896 84.00625 384.39896Q82.69375 384.39896 81.85 383.66458Q81.02187 382.9302 80.89687 381.63333L82.1 381.63333Q82.20937 382.4927 82.69375 382.9302Q83.19375 383.3677 84.00625 383.3677Q84.88125 383.3677 85.38125 382.77396Q85.89687 382.16458 85.89687 381.10208Q85.89687 380.10208 85.35 379.50833Q84.80312 378.89896 83.89687 378.89896Q83.08437 378.89896 82.6 379.25833L82.27187 379.52396L81.25625 379.27396ZM94.9125 380.00833Q94.9125 382.22708 94.14687 383.32083Q93.39687 384.39896 91.7875 384.39896Q90.19375 384.39896 89.42812 383.35208Q88.6625 382.28958 88.63125 380.1802L88.63125 378.4927Q88.63125 376.3052 89.38125 375.2427Q90.14687 374.16458 91.77187 374.16458Q93.38125 374.16458 94.13125 375.19583Q94.89687 376.22708 94.9125 378.3677L94.9125 380.00833ZM93.64687 378.28958Q93.64687 376.6802 93.19375 375.94583Q92.75625 375.21146 91.77187 375.21146Q90.80312 375.21146 90.35 375.94583Q89.9125 376.66458 89.89687 378.1802L89.89687 380.21146Q89.89687 381.82083 90.36562 382.60208Q90.83437 383.3677 91.7875 383.3677Q92.725 383.3677 93.17812 382.64896Q93.63125 381.91458 93.64687 380.35208L93.64687 378.28958ZM96.77187 386.2427L96.05312 385.7427Q96.69375 384.85208 96.725 383.89896L96.725 382.75833L97.95937 382.75833L97.95937 383.75833Q97.95937 384.44583 97.61562 385.13333Q97.27187 385.82083 96.77187 386.2427ZM105.9125 380.00833Q105.9125 382.22708 105.14687 383.32083Q104.39687 384.39896 102.7875 384.39896Q101.19375 384.39896 100.42812 383.35208Q99.6625 382.28958 99.63125 380.1802L99.63125 378.4927Q99.63125 376.3052 100.38125 375.2427Q101.14687 374.16458 102.77187 374.16458Q104.38125 374.16458 105.13125 375.19583Q105.89687 376.22708 105.9125 378.3677L105.9125 380.00833ZM104.64687 378.28958Q104.64687 376.6802 104.19375 375.94583Q103.75625 375.21146 102.77187 375.21146Q101.80312 375.21146 101.35 375.94583Q100.9125 376.66458 100.89687 378.1802L100.89687 380.21146Q100.89687 381.82083 101.36562 382.60208Q101.83437 383.3677 102.7875 383.3677Q103.725 383.3677 104.17812 382.64896Q104.63125 381.91458 104.64687 380.35208L104.64687 378.28958ZM113.9125 380.00833Q113.9125 382.22708 113.14687 383.32083Q112.39687 384.39896 110.7875 384.39896Q109.19375 384.39896 108.42812 383.35208Q107.6625 382.28958 107.63125 380.1802L107.63125 378.4927Q107.63125 376.3052 108.38125 375.2427Q109.14687 374.16458 110.77187 374.16458Q112.38125 374.16458 113.13125 375.19583Q113.89687 376.22708 113.9125 378.3677L113.9125 380.00833ZM112.64687 378.28958Q112.64687 376.6802 112.19375 375.94583Q111.75625 375.21146 110.77187 375.21146Q109.80312 375.21146 109.35 375.94583Q108.9125 376.66458 108.89687 378.1802L108.89687 380.21146Q108.89687 381.82083 109.36562 382.60208Q109.83437 383.3677 110.7875 383.3677Q111.725 383.3677 112.17812 382.64896Q112.63125 381.91458 112.64687 380.35208L112.64687 378.28958ZM121.9125 380.00833Q121.9125 382.22708 121.14687 383.32083Q120.39687 384.39896 118.7875 384.39896Q117.19375 384.39896 116.42812 383.35208Q115.6625 382.28958 115.63125 380.1802L115.63125 378.4927Q115.63125 376.3052 116.38125 375.2427Q117.14687 374.16458 118.77187 374.16458Q120.38125 374.16458 121.13125 375.19583Q121.89687 376.22708 121.9125 378.3677L121.9125 380.00833ZM120.64687 378.28958Q120.64687 376.6802 120.19375 375.94583Q119.75625 375.21146 118.77187 375.21146Q117.80312 375.21146 117.35 375.94583Q116.9125 376.66458 116.89687 378.1802L116.89687 380.21146Q116.89687 381.82083 117.36562 382.60208Q117.83437 383.3677 118.7875 383.3677Q119.725 383.3677 120.17812 382.64896Q120.63125 381.91458 120.64687 380.35208L120.64687 378.28958Z" fill-rule="nonzero"/><path fill="#757575" d="M76.83437 282.86667L75.56875 282.86667L75.56875 274.4448L73.00625 275.36667L73.00625 274.22604L76.63125 272.86667L76.83437 272.86667L76.83437 282.86667ZM86.9125 278.61667Q86.9125 280.83542 86.14687 281.92917Q85.39687 283.0073 83.7875 283.0073Q82.19375 283.0073 81.42812 281.96042Q80.6625 280.89792 80.63125 278.78854L80.63125 277.10104Q80.63125 274.91354 81.38125 273.85104Q82.14687 272.77292 83.77187 272.77292Q85.38125 272.77292 86.13125 273.80417Q86.89687 274.83542 86.9125 276.97604L86.9125 278.61667ZM85.64687 276.89792Q85.64687 275.28854 85.19375 274.55417Q84.75625 273.8198 83.77187 273.8198Q82.80312 273.8198 82.35 274.55417Q81.9125 275.27292 81.89687 276.78854L81.89687 278.8198Q81.89687 280.42917 82.36562 281.21042Q82.83437 281.97604 83.7875 281.97604Q84.725 281.97604 85.17812 281.2573Q85.63125 280.52292 85.64687 278.96042L85.64687 276.89792ZM94.9125 278.61667Q94.9125 280.83542 94.14687 281.92917Q93.39687 283.0073 91.7875 283.0073Q90.19375 283.0073 89.42812 281.96042Q88.6625 280.89792 88.63125 278.78854L88.63125 277.10104Q88.63125 274.91354 89.38125 273.85104Q90.14687 272.77292 91.77187 272.77292Q93.38125 272.77292 94.13125 273.80417Q94.89687 274.83542 94.9125 276.97604L94.9125 278.61667ZM93.64687 276.89792Q93.64687 275.28854 93.19375 274.55417Q92.75625 273.8198 91.77187 273.8198Q90.80312 273.8198 90.35 274.55417Q89.9125 275.27292 89.89687 276.78854L89.89687 278.8198Q89.89687 280.42917 90.36562 281.21042Q90.83437 281.97604 91.7875 281.97604Q92.725 281.97604 93.17812 281.2573Q93.63125 280.52292 93.64687 278.96042L93.64687 276.89792ZM96.77187 284.85104L96.05312 284.35104Q96.69375 283.46042 96.725 282.5073L96.725 281.36667L97.95937 281.36667L97.95937 282.36667Q97.95937 283.05417 97.61562 283.74167Q97.27187 284.42917 96.77187 284.85104ZM105.9125 278.61667Q105.9125 280.83542 105.14687 281.92917Q104.39687 283.0073 102.7875 283.0073Q101.19375 283.0073 100.42812 281.96042Q99.6625 280.89792 99.63125 278.78854L99.63125 277.10104Q99.63125 274.91354 100.38125 273.85104Q101.14687 272.77292 102.77187 272.77292Q104.38125 272.77292 105.13125 273.80417Q105.89687 274.83542 105.9125 276.97604L105.9125 278.61667ZM104.64687 276.89792Q104.64687 275.28854 104.19375 274.55417Q103.75625 273.8198 102.77187 273.8198Q101.80312 273.8198 101.35 274.55417Q100.9125 275.27292 100.89687 276.78854L100.89687 278.8198Q100.89687 280.42917 101.36562 281.21042Q101.83437 281.97604 102.7875 281.97604Q103.725 281.97604 104.17812 281.2573Q104.63125 280.52292 104.64687 278.96042L104.64687 276.89792ZM113.9125 278.61667Q113.9125 280.83542 113.14687 281.92917Q112.39687 283.0073 110.7875 283.0073Q109.19375 283.0073 108.42812 281.96042Q107.6625 280.89792 107.63125 278.78854L107.63125 277.10104Q107.63125 274.91354 108.38125 273.85104Q109.14687 272.77292 110.77187 272.77292Q112.38125 272.77292 113.13125 273.80417Q113.89687 274.83542 113.9125 276.97604L113.9125 278.61667ZM112.64687 276.89792Q112.64687 275.28854 112.19375 274.55417Q111.75625 273.8198 110.77187 273.8198Q109.80312 273.8198 109.35 274.55417Q108.9125 275.27292 108.89687 276.78854L108.89687 278.8198Q108.89687 280.42917 109.36562 281.21042Q109.83437 281.97604 110.7875 281.97604Q111.725 281.97604 112.17812 281.2573Q112.63125 280.52292 112.64687 278.96042L112.64687 276.89792ZM121.9125 278.61667Q121.9125 280.83542 121.14687 281.92917Q120.39687 283.0073 118.7875 283.0073Q117.19375 283.0073 116.42812 281.96042Q115.6625 280.89792 115.63125 278.78854L115.63125 277.10104Q115.63125 274.91354 116.38125 273.85104Q117.14687 272.77292 118.77187 272.77292Q120.38125 272.77292 121.13125 273.80417Q121.89687 274.83542 121.9125 276.97604L121.9125 278.61667ZM120.64687 276.89792Q120.64687 275.28854 120.19375 274.55417Q119.75625 273.8198 118.77187 273.8198Q117.80312 273.8198 117.35 274.55417Q116.9125 275.27292 116.89687 276.78854L116.89687 278.8198Q116.89687 280.42917 117.36562 281.21042Q117.83437 281.97604 118.7875 281.97604Q119.725 281.97604 120.17812 281.2573Q120.63125 280.52292 120.64687 278.96042L120.64687 276.89792Z" fill-rule="nonzero"/><path fill="#757575" d="M76.83437 181.475L75.56875 181.475L75.56875 173.05313L73.00625 173.975L73.00625 172.83438L76.63125 171.475L76.83437 171.475L76.83437 181.475ZM81.25625 176.49063L81.77187 171.52188L86.86562 171.52188L86.86562 172.69376L82.83437 172.69376L82.5375 175.39688Q83.27187 174.975 84.19375 174.975Q85.55312 174.975 86.35 175.88126Q87.1625 176.77188 87.1625 178.30313Q87.1625 179.83438 86.31875 180.725Q85.49062 181.61563 84.00625 181.61563Q82.69375 181.61563 81.85 180.88126Q81.02187 180.14688 80.89687 178.85L82.1 178.85Q82.20937 179.70938 82.69375 180.14688Q83.19375 180.58438 84.00625 180.58438Q84.88125 180.58438 85.38125 179.99063Q85.89687 179.38126 85.89687 178.31876Q85.89687 177.31876 85.35 176.725Q84.80312 176.11563 83.89687 176.11563Q83.08437 176.11563 82.6 176.475L82.27187 176.74063L81.25625 176.49063ZM94.9125 177.225Q94.9125 179.44376 94.14687 180.5375Q93.39687 181.61563 91.7875 181.61563Q90.19375 181.61563 89.42812 180.56876Q88.6625 179.50626 88.63125 177.39688L88.63125 175.70938Q88.63125 173.52188 89.38125 172.45938Q90.14687 171.38126 91.77187 171.38126Q93.38125 171.38126 94.13125 172.4125Q94.89687 173.44376 94.9125 175.58438L94.9125 177.225ZM93.64687 175.50626Q93.64687 173.89688 93.19375 173.1625Q92.75625 172.42813 91.77187 172.42813Q90.80312 172.42813 90.35 173.1625Q89.9125 173.88126 89.89687 175.39688L89.89687 177.42813Q89.89687 179.0375 90.36562 179.81876Q90.83437 180.58438 91.7875 180.58438Q92.725 180.58438 93.17812 179.86563Q93.63125 179.13126 93.64687 177.56876L93.64687 175.50626ZM96.77187 183.45938L96.05312 182.95938Q96.69375 182.06876 96.725 181.11563L96.725 179.975L97.95937 179.975L97.95937 180.975Q97.95937 181.6625 97.61562 182.35Q97.27187 183.0375 96.77187 183.45938ZM105.9125 177.225Q105.9125 179.44376 105.14687 180.5375Q104.39687 181.61563 102.7875 181.61563Q101.19375 181.61563 100.42812 180.56876Q99.6625 179.50626 99.63125 177.39688L99.63125 175.70938Q99.63125 173.52188 100.38125 172.45938Q101.14687 171.38126 102.77187 171.38126Q104.38125 171.38126 105.13125 172.4125Q105.89687 173.44376 105.9125 175.58438L105.9125 177.225ZM104.64687 175.50626Q104.64687 173.89688 104.19375 173.1625Q103.75625 172.42813 102.77187 172.42813Q101.80312 172.42813 101.35 173.1625Q100.9125 173.88126 100.89687 175.39688L100.89687 177.42813Q100.89687 179.0375 101.36562 179.81876Q101.83437 180.58438 102.7875 180.58438Q103.725 180.58438 104.17812 179.86563Q104.63125 179.13126 104.64687 177.56876L104.64687 175.50626ZM113.9125 177.225Q113.9125 179.44376 113.14687 180.5375Q112.39687 181.61563 110.7875 181.61563Q109.19375 181.61563 108.42812 180.56876Q107.6625 179.50626 107.63125 177.39688L107.63125 175.70938Q107.63125 173.52188 108.38125 172.45938Q109.14687 171.38126 110.77187 171.38126Q112.38125 171.38126 113.13125 172.4125Q113.89687 173.44376 113.9125 175.58438L113.9125 177.225ZM112.64687 175.50626Q112.64687 173.89688 112.19375 173.1625Q111.75625 172.42813 110.77187 172.42813Q109.80312 172.42813 109.35 173.1625Q108.9125 173.88126 108.89687 175.39688L108.89687 177.42813Q108.89687 179.0375 109.36562 179.81876Q109.83437 180.58438 110.7875 180.58438Q111.725 180.58438 112.17812 179.86563Q112.63125 179.13126 112.64687 177.56876L112.64687 175.50626ZM121.9125 177.225Q121.9125 179.44376 121.14687 180.5375Q120.39687 181.61563 118.7875 181.61563Q117.19375 181.61563 116.42812 180.56876Q115.6625 179.50626 115.63125 177.39688L115.63125 175.70938Q115.63125 173.52188 116.38125 172.45938Q117.14687 171.38126 118.77187 171.38126Q120.38125 171.38126 121.13125 172.4125Q121.89687 173.44376 121.9125 175.58438L121.9125 177.225ZM120.64687 175.50626Q120.64687 173.89688 120.19375 173.1625Q119.75625 172.42813 118.77187 172.42813Q117.80312 172.42813 117.35 173.1625Q116.9125 173.88126 116.89687 175.39688L116.89687 177.42813Q116.89687 179.0375 117.36562 179.81876Q117.83437 180.58438 118.7875 180.58438Q119.725 180.58438 120.17812 179.86563Q120.63125 179.13126 120.64687 177.56876L120.64687 175.50626Z" fill-rule="nonzero"/><path fill="#757575" d="M79.19375 80.083336L72.67812 80.083336L72.67812 79.177086L76.11562 75.34896Q76.88125 74.47396 77.17812 73.94271Q77.475 73.395836 77.475 72.802086Q77.475 72.03646 76.99062 71.53646Q76.52187 71.03646 75.74062 71.03646Q74.80312 71.03646 74.27187 71.56771Q73.75625 72.09896 73.75625 73.06771L72.49062 73.06771Q72.49062 71.69271 73.36562 70.84896Q74.25625 69.989586 75.74062 69.989586Q77.13125 69.989586 77.92812 70.72396Q78.74062 71.44271 78.74062 72.66146Q78.74062 74.13021 76.86562 76.16146L74.20937 79.052086L79.19375 79.052086L79.19375 80.083336ZM86.9125 75.833336Q86.9125 78.052086 86.14687 79.145836Q85.39687 80.22396 83.7875 80.22396Q82.19375 80.22396 81.42812 79.177086Q80.6625 78.114586 80.63125 76.00521L80.63125 74.31771Q80.63125 72.13021 81.38125 71.06771Q82.14687 69.989586 83.77187 69.989586Q85.38125 69.989586 86.13125 71.020836Q86.89687 72.052086 86.9125 74.19271L86.9125 75.833336ZM85.64687 74.114586Q85.64687 72.50521 85.19375 71.770836Q84.75625 71.03646 83.77187 71.03646Q82.80312 71.03646 82.35 71.770836Q81.9125 72.489586 81.89687 74.00521L81.89687 76.03646Q81.89687 77.645836 82.36562 78.427086Q82.83437 79.19271 83.7875 79.19271Q84.725 79.19271 85.17812 78.47396Q85.63125 77.739586 85.64687 76.177086L85.64687 74.114586ZM94.9125 75.833336Q94.9125 78.052086 94.14687 79.145836Q93.39687 80.22396 91.7875 80.22396Q90.19375 80.22396 89.42812 79.177086Q88.6625 78.114586 88.63125 76.00521L88.63125 74.31771Q88.63125 72.13021 89.38125 71.06771Q90.14687 69.989586 91.77187 69.989586Q93.38125 69.989586 94.13125 71.020836Q94.89687 72.052086 94.9125 74.19271L94.9125 75.833336ZM93.64687 74.114586Q93.64687 72.50521 93.19375 71.770836Q92.75625 71.03646 91.77187 71.03646Q90.80312 71.03646 90.35 71.770836Q89.9125 72.489586 89.89687 74.00521L89.89687 76.03646Q89.89687 77.645836 90.36562 78.427086Q90.83437 79.19271 91.7875 79.19271Q92.725 79.19271 93.17812 78.47396Q93.63125 77.739586 93.64687 76.177086L93.64687 74.114586ZM96.77187 82.06771L96.05312 81.56771Q96.69375 80.677086 96.725 79.72396L96.725 78.583336L97.95937 78.583336L97.95937 79.583336Q97.95937 80.270836 97.61562 80.958336Q97.27187 81.645836 96.77187 82.06771ZM105.9125 75.833336Q105.9125 78.052086 105.14687 79.145836Q104.39687 80.22396 102.7875 80.22396Q101.19375 80.22396 100.42812 79.177086Q99.6625 78.114586 99.63125 76.00521L99.63125 74.31771Q99.63125 72.13021 100.38125 71.06771Q101.14687 69.989586 102.77187 69.989586Q104.38125 69.989586 105.13125 71.020836Q105.89687 72.052086 105.9125 74.19271L105.9125 75.833336ZM104.64687 74.114586Q104.64687 72.50521 104.19375 71.770836Q103.75625 71.03646 102.77187 71.03646Q101.80312 71.03646 101.35 71.770836Q100.9125 72.489586 100.89687 74.00521L100.89687 76.03646Q100.89687 77.645836 101.36562 78.427086Q101.83437 79.19271 102.7875 79.19271Q103.725 79.19271 104.17812 78.47396Q104.63125 77.739586 104.64687 76.177086L104.64687 74.114586ZM113.9125 75.833336Q113.9125 78.052086 113.14687 79.145836Q112.39687 80.22396 110.7875 80.22396Q109.19375 80.22396 108.42812 79.177086Q107.6625 78.114586 107.63125 76.00521L107.63125 74.31771Q107.63125 72.13021 108.38125 71.06771Q109.14687 69.989586 110.77187 69.989586Q112.38125 69.989586 113.13125 71.020836Q113.89687 72.052086 113.9125 74.19271L113.9125 75.833336ZM112.64687 74.114586Q112.64687 72.50521 112.19375 71.770836Q111.75625 71.03646 110.77187 71.03646Q109.80312 71.03646 109.35 71.770836Q108.9125 72.489586 108.89687 74.00521L108.89687 76.03646Q108.89687 77.645836 109.36562 78.427086Q109.83437 79.19271 110.7875 79.19271Q111.725 79.19271 112.17812 78.47396Q112.63125 77.739586 112.64687 76.177086L112.64687 74.114586ZM121.9125 75.833336Q121.9125 78.052086 121.14687 79.145836Q120.39687 80.22396 118.7875 80.22396Q117.19375 80.22396 116.42812 79.177086Q115.6625 78.114586 115.63125 76.00521L115.63125 74.31771Q115.63125 72.13021 116.38125 71.06771Q117.14687 69.989586 118.77187 69.989586Q120.38125 69.989586 121.13125 71.020836Q121.89687 72.052086 121.9125 74.19271L121.9125 75.833336ZM120.64687 74.114586Q120.64687 72.50521 120.19375 71.770836Q119.75625 71.03646 118.77187 71.03646Q117.80312 71.03646 117.35 71.770836Q116.9125 72.489586 116.89687 74.00521L116.89687 76.03646Q116.89687 77.645836 117.36562 78.427086Q117.83437 79.19271 118.7875 79.19271Q119.725 79.19271 120.17812 78.47396Q120.63125 77.739586 120.64687 76.177086L120.64687 74.114586Z" fill-rule="nonzero"/><path fill="#757575" d="M162.02983 501.15L160.7642 501.15L160.7642 492.72812L158.2017 493.65L158.2017 492.50937L161.8267 491.15L162.02983 491.15L162.02983 501.15ZM172.10796 496.9Q172.10796 499.11874 171.34233 500.2125Q170.59233 501.29062 168.98296 501.29062Q167.3892 501.29062 166.62358 500.24374Q165.85796 499.18124 165.8267 497.07187L165.8267 495.38437Q165.8267 493.19687 166.5767 492.13437Q167.34233 491.05624 168.96733 491.05624Q170.5767 491.05624 171.3267 492.0875Q172.09233 493.11874 172.10796 495.25937L172.10796 496.9ZM170.84233 495.18124Q170.84233 493.57187 170.3892 492.8375Q169.9517 492.10312 168.96733 492.10312Q167.99858 492.10312 167.54546 492.8375Q167.10796 493.55624 167.09233 495.07187L167.09233 497.10312Q167.09233 498.7125 167.56108 499.49374Q168.02983 500.25937 168.98296 500.25937Q169.92046 500.25937 170.37358 499.54062Q170.8267 498.80624 170.84233 497.24374L170.84233 495.18124Z" fill-rule="nonzero"/><path fill="#757575" d="M232.42075 501.15L231.15512 501.15L231.15512 492.72812L228.59262 493.65L228.59262 492.50937L232.21762 491.15L232.42075 491.15L232.42075 501.15ZM240.42075 501.15L239.15512 501.15L239.15512 492.72812L236.59262 493.65L236.59262 492.50937L240.21762 491.15L240.42075 491.15L240.42075 501.15Z" fill-rule="nonzero"/><path fill="#757575" d="M302.81165 501.15L301.54602 501.15L301.54602 492.72812L298.98352 493.65L298.98352 492.50937L302.60852 491.15L302.81165 491.15L302.81165 501.15ZM313.17102 501.15L306.6554 501.15L306.6554 500.24374L310.0929 496.41562Q310.85852 495.54062 311.1554 495.00937Q311.45227 494.4625 311.45227 493.86874Q311.45227 493.10312 310.9679 492.60312Q310.49915 492.10312 309.7179 492.10312Q308.7804 492.10312 308.24915 492.63437Q307.73352 493.16562 307.73352 494.13437L306.4679 494.13437Q306.4679 492.75937 307.3429 491.91562Q308.23352 491.05624 309.7179 491.05624Q311.10852 491.05624 311.9054 491.79062Q312.7179 492.50937 312.7179 493.72812Q312.7179 495.19687 310.8429 497.22812L308.18665 500.11874L313.17102 500.11874L313.17102 501.15Z" fill-rule="nonzero"/><path fill="#757575" d="M373.20255 501.15L371.93692 501.15L371.93692 492.72812L369.37442 493.65L369.37442 492.50937L372.99942 491.15L373.20255 491.15L373.20255 501.15ZM378.89005 495.55624L379.82755 495.55624Q380.7338 495.54062 381.2338 495.0875Q381.74942 494.63437 381.74942 493.85312Q381.74942 492.10312 380.01505 492.10312Q379.18692 492.10312 378.70255 492.57187Q378.21817 493.04062 378.21817 493.80624L376.95255 493.80624Q376.95255 492.61874 377.81192 491.8375Q378.68692 491.05624 380.01505 491.05624Q381.4213 491.05624 382.21817 491.80624Q383.01505 492.55624 383.01505 493.86874Q383.01505 494.525 382.59317 495.13437Q382.18692 495.74374 381.45255 496.04062Q382.28067 496.30624 382.71817 496.91562Q383.1713 497.50937 383.1713 498.36874Q383.1713 499.7125 382.2963 500.50937Q381.4213 501.29062 380.01505 501.29062Q378.62442 501.29062 377.7338 500.54062Q376.8588 499.775 376.8588 498.525L378.14005 498.525Q378.14005 499.30624 378.64005 499.79062Q379.15567 500.25937 380.01505 500.25937Q380.93692 500.25937 381.4213 499.775Q381.90567 499.29062 381.90567 498.4Q381.90567 497.54062 381.37442 497.07187Q380.84317 496.60312 379.82755 496.5875L378.89005 496.5875L378.89005 495.55624Z" fill-rule="nonzero"/><path fill="#757575" d="M443.59348 501.15L442.32785 501.15L442.32785 492.72812L439.76535 493.65L439.76535 492.50937L443.39035 491.15L443.59348 491.15L443.59348 501.15ZM452.78098 497.80624L454.15598 497.80624L454.15598 498.8375L452.78098 498.8375L452.78098 501.15L451.49973 501.15L451.49973 498.8375L446.96848 498.8375L446.96848 498.0875L451.4216 491.19687L452.78098 491.19687L452.78098 497.80624ZM448.40598 497.80624L451.49973 497.80624L451.49973 492.93124L451.3591 493.19687L448.40598 497.80624Z" fill-rule="nonzero"/><path fill="#757575" d="M513.9844 501.15L512.71875 501.15L512.71875 492.72812L510.15625 493.65L510.15625 492.50937L513.78125 491.15L513.9844 491.15L513.9844 501.15ZM518.40625 496.16562L518.9219 491.19687L524.0156 491.19687L524.0156 492.36874L519.9844 492.36874L519.6875 495.07187Q520.4219 494.65 521.34375 494.65Q522.7031 494.65 523.5 495.55624Q524.3125 496.44687 524.3125 497.97812Q524.3125 499.50937 523.46875 500.4Q522.6406 501.29062 521.15625 501.29062Q519.84375 501.29062 519.0 500.55624Q518.1719 499.82187 518.0469 498.525L519.25 498.525Q519.3594 499.38437 519.84375 499.82187Q520.34375 500.25937 521.15625 500.25937Q522.03125 500.25937 522.53125 499.66562Q523.0469 499.05624 523.0469 497.99374Q523.0469 496.99374 522.5 496.4Q521.9531 495.79062 521.0469 495.79062Q520.2344 495.79062 519.75 496.15L519.4219 496.41562L518.40625 496.16562Z" fill-rule="nonzero"/><path fill="#757575" d="M584.3753 501.15L583.1097 501.15L583.1097 492.72812L580.5472 493.65L580.5472 492.50937L584.1722 491.15L584.3753 491.15L584.3753 501.15ZM593.1878 491.19687L593.1878 492.25937L592.9534 492.25937Q591.46906 492.29062 590.59406 493.13437Q589.71906 493.97812 589.5784 495.525Q590.3753 494.61874 591.7347 494.61874Q593.03156 494.61874 593.7972 495.54062Q594.5784 496.44687 594.5784 497.9Q594.5784 499.44687 593.7347 500.36874Q592.90656 501.29062 591.5003 501.29062Q590.0784 501.29062 589.1878 500.19687Q588.2972 499.0875 588.2972 497.36874L588.2972 496.88437Q588.2972 494.13437 589.46906 492.68124Q590.6409 491.22812 592.9534 491.19687L593.1878 491.19687ZM591.5159 495.68124Q590.8753 495.68124 590.3284 496.07187Q589.78156 496.44687 589.5628 497.04062L589.5628 497.50937Q589.5628 498.74374 590.1097 499.49374Q590.6722 500.24374 591.5003 500.24374Q592.3597 500.24374 592.84406 499.61874Q593.3284 498.97812 593.3284 497.9625Q593.3284 496.93124 592.8284 496.30624Q592.34406 495.68124 591.5159 495.68124Z" fill-rule="nonzero"/><path fill="#757575" d="M654.7662 501.15L653.50055 501.15L653.50055 492.72812L650.93805 493.65L650.93805 492.50937L654.56305 491.15L654.7662 491.15L654.7662 501.15ZM665.0318 491.9L660.9068 501.15L659.5943 501.15L663.68805 492.22812L658.31305 492.22812L658.31305 491.19687L665.0318 491.19687L665.0318 491.9Z" fill-rule="nonzero"/><path fill="#757575" d="M725.1571 501.15L723.8915 501.15L723.8915 492.72812L721.329 493.65L721.329 492.50937L724.954 491.15L725.1571 491.15L725.1571 501.15ZM735.0321 493.79062Q735.0321 494.54062 734.6415 495.11874Q734.25085 495.69687 733.579 496.025Q734.3602 496.36874 734.81335 497.00937Q735.2665 497.65 735.2665 498.4625Q735.2665 499.75937 734.3915 500.525Q733.5321 501.29062 732.1102 501.29062Q730.6727 501.29062 729.7977 500.525Q728.93835 499.74374 728.93835 498.4625Q728.93835 497.65 729.37585 497.00937Q729.81335 496.35312 730.5946 496.025Q729.93835 495.69687 729.5477 495.11874Q729.1727 494.525 729.1727 493.79062Q729.1727 492.54062 729.9696 491.80624Q730.7821 491.05624 732.1102 491.05624Q733.4227 491.05624 734.2196 491.80624Q735.0321 492.54062 735.0321 493.79062ZM734.00085 498.43124Q734.00085 497.60312 733.4696 497.0875Q732.93835 496.55624 732.079 496.55624Q731.2352 496.55624 730.7196 497.07187Q730.204 497.5875 730.204 498.44687Q730.204 499.29062 730.704 499.775Q731.204 500.25937 732.1102 500.25937Q732.9852 500.25937 733.4852 499.775Q734.00085 499.275 734.00085 498.43124ZM732.1102 492.10312Q731.3602 492.10312 730.8915 492.57187Q730.43835 493.025 730.43835 493.82187Q730.43835 494.57187 730.8915 495.04062Q731.3446 495.50937 732.0946 495.50937Q732.8602 495.50937 733.31335 495.04062Q733.7665 494.57187 733.7665 493.82187Q733.7665 493.05624 733.2977 492.5875Q732.829 492.10312 732.1102 492.10312Z" fill-rule="nonzero"/><path fill="#757575" d="M797.9074 501.15L791.3918 501.15L791.3918 500.24374L794.8293 496.41562Q795.5949 495.54062 795.8918 495.00937Q796.18866 494.4625 796.18866 493.86874Q796.18866 493.10312 795.7043 492.60312Q795.23553 492.10312 794.4543 492.10312Q793.5168 492.10312 792.98553 492.63437Q792.4699 493.16562 792.4699 494.13437L791.2043 494.13437Q791.2043 492.75937 792.0793 491.91562Q792.9699 491.05624 794.4543 491.05624Q795.8449 491.05624 796.6418 491.79062Q797.4543 492.50937 797.4543 493.72812Q797.4543 495.19687 795.5793 497.22812L792.92303 500.11874L797.9074 500.11874L797.9074 501.15ZM805.62616 496.9Q805.62616 499.11874 804.86053 500.2125Q804.11053 501.29062 802.50116 501.29062Q800.9074 501.29062 800.1418 500.24374Q799.37616 499.18124 799.3449 497.07187L799.3449 495.38437Q799.3449 493.19687 800.0949 492.13437Q800.86053 491.05624 802.48553 491.05624Q804.0949 491.05624 804.8449 492.0875Q805.61053 493.11874 805.62616 495.25937L805.62616 496.9ZM804.36053 495.18124Q804.36053 493.57187 803.9074 492.8375Q803.4699 492.10312 802.48553 492.10312Q801.5168 492.10312 801.06366 492.8375Q800.62616 493.55624 800.61053 495.07187L800.61053 497.10312Q800.61053 498.7125 801.0793 499.49374Q801.54803 500.25937 802.50116 500.25937Q803.43866 500.25937 803.8918 499.54062Q804.3449 498.80624 804.36053 497.24374L804.36053 495.18124Z" fill-rule="nonzero"/><path fill="#757575" d="M867.1264 497.80624L868.5014 497.80624L868.5014 498.8375L867.1264 498.8375L867.1264 501.15L865.84515 501.15L865.84515 498.8375L861.3139 498.8375L861.3139 498.0875L865.767 491.19687L867.1264 491.19687L867.1264 497.80624ZM862.7514 497.80624L865.84515 497.80624L865.84515 492.93124L865.7045 493.19687L862.7514 497.80624ZM876.017 496.9Q876.017 499.11874 875.2514 500.2125Q874.5014 501.29062 872.892 501.29062Q871.2983 501.29062 870.53265 500.24374Q869.767 499.18124 869.7358 497.07187L869.7358 495.38437Q869.7358 493.19687 870.4858 492.13437Q871.2514 491.05624 872.8764 491.05624Q874.4858 491.05624 875.2358 492.0875Q876.0014 493.11874 876.017 495.25937L876.017 496.9ZM874.7514 495.18124Q874.7514 493.57187 874.2983 492.8375Q873.8608 492.10312 872.8764 492.10312Q871.90765 492.10312 871.4545 492.8375Q871.017 493.55624 871.0014 495.07187L871.0014 497.10312Q871.0014 498.7125 871.47015 499.49374Q871.9389 500.25937 872.892 500.25937Q873.8295 500.25937 874.28265 499.54062Q874.7358 498.80624 874.7514 497.24374L874.7514 495.18124Z" fill-rule="nonzero"/><path fill="#e69138" d="M312.25735 34.10736L320.74265 34.10736L320.74265 42.59264L312.25735 42.59264Z" fill-rule="nonzero"/><path fill="#757575" d="M339.6875 33.709373L336.03125 33.709373L336.03125 43.85L334.53125 43.85L334.53125 33.709373L330.89062 33.709373L330.89062 32.475L339.6875 32.475L339.6875 33.709373ZM346.8125 43.85Q346.6875 43.6 346.60938 42.959373Q345.60938 44.00625 344.20312 44.00625Q342.95312 44.00625 342.15625 43.303123Q341.35938 42.584373 341.35938 41.50625Q341.35938 40.178123 342.35938 39.459373Q343.35938 38.725 345.1875 38.725L346.59375 38.725L346.59375 38.053123Q346.59375 37.303123 346.14062 36.85Q345.6875 36.396873 344.79688 36.396873Q344.03125 36.396873 343.5 36.7875Q342.98438 37.178123 342.98438 37.740623L341.53125 37.740623Q341.53125 37.1 341.96875 36.521873Q342.42188 35.928123 343.1875 35.584373Q343.96875 35.240623 344.89062 35.240623Q346.34375 35.240623 347.17188 35.975Q348.0 36.69375 348.03125 37.975L348.03125 41.865623Q348.03125 43.0375 348.32812 43.725L348.32812 43.85L346.8125 43.85ZM344.42188 42.740623Q345.09375 42.740623 345.70312 42.396873Q346.3125 42.0375 346.59375 41.475L346.59375 39.740623L345.45312 39.740623Q342.79688 39.740623 342.79688 41.303123Q342.79688 41.975 343.25 42.365623Q343.70312 42.740623 344.42188 42.740623ZM357.75 39.709373Q357.75 41.646873 356.85938 42.834373Q355.96875 44.00625 354.46875 44.00625Q352.875 44.00625 352.0 42.865623L351.92188 43.85L350.59375 43.85L350.59375 31.849998L352.04688 31.849998L352.04688 36.31875Q352.92188 35.240623 354.45312 35.240623Q356.0 35.240623 356.875 36.4125Q357.75 37.56875 357.75 39.584373L357.75 39.709373ZM356.3125 39.553123Q356.3125 38.06875 355.73438 37.271873Q355.17188 36.459373 354.09375 36.459373Q352.67188 36.459373 352.04688 37.7875L352.04688 41.44375Q352.70312 42.771873 354.10938 42.771873Q355.15625 42.771873 355.73438 41.975Q356.3125 41.1625 356.3125 39.553123ZM364.8125 43.00625Q363.96875 44.00625 362.34375 44.00625Q360.98438 44.00625 360.28125 43.225Q359.57812 42.428123 359.5625 40.896873L359.5625 35.396873L361.01562 35.396873L361.01562 40.85Q361.01562 42.771873 362.57812 42.771873Q364.23438 42.771873 364.78125 41.5375L364.78125 35.396873L366.21875 35.396873L366.21875 43.85L364.84375 43.85L364.8125 43.00625ZM377.51562 41.6Q377.51562 41.021873 377.07812 40.69375Q376.64062 40.365623 375.53125 40.13125Q374.4375 39.896873 373.79688 39.56875Q373.15625 39.240623 372.84375 38.7875Q372.53125 38.334373 372.53125 37.709373Q372.53125 36.678123 373.40625 35.959373Q374.29688 35.240623 375.65625 35.240623Q377.09375 35.240623 377.98438 35.990623Q378.89062 36.725 378.89062 37.88125L377.4375 37.88125Q377.4375 37.2875 376.92188 36.865623Q376.42188 36.428123 375.65625 36.428123Q374.875 36.428123 374.42188 36.771873Q373.98438 37.115623 373.98438 37.6625Q373.98438 38.19375 374.39062 38.459373Q374.8125 38.725 375.89062 38.975Q376.96875 39.209373 377.64062 39.553123Q378.3125 39.88125 378.64062 40.35Q378.96875 40.81875 378.96875 41.50625Q378.96875 42.63125 378.0625 43.31875Q377.15625 44.00625 375.70312 44.00625Q374.6875 44.00625 373.90625 43.646873Q373.125 43.2875 372.6875 42.646873Q372.25 41.990623 372.25 41.240623L373.6875 41.240623Q373.73438 41.975 374.26562 42.396873Q374.8125 42.81875 375.70312 42.81875Q376.53125 42.81875 377.01562 42.490623Q377.51562 42.1625 377.51562 41.6ZM384.10938 44.00625Q382.39062 44.00625 381.3125 42.88125Q380.23438 41.740623 380.23438 39.85L380.23438 39.584373Q380.23438 38.334373 380.70312 37.35Q381.1875 36.35 382.04688 35.803123Q382.92188 35.240623 383.92188 35.240623Q385.57812 35.240623 386.48438 36.334373Q387.40625 37.4125 387.40625 39.428123L387.40625 40.0375L381.67188 40.0375Q381.70312 41.2875 382.40625 42.053123Q383.10938 42.81875 384.1875 42.81875Q384.95312 42.81875 385.48438 42.50625Q386.01562 42.19375 386.40625 41.678123L387.29688 42.365623Q386.23438 44.00625 384.10938 44.00625ZM383.92188 36.428123Q383.04688 36.428123 382.45312 37.06875Q381.85938 37.69375 381.71875 38.85L385.95312 38.85L385.95312 38.740623Q385.89062 37.63125 385.35938 37.0375Q384.82812 36.428123 383.92188 36.428123ZM393.8125 43.85Q393.6875 43.6 393.60938 42.959373Q392.60938 44.00625 391.20312 44.00625Q389.95312 44.00625 389.15625 43.303123Q388.35938 42.584373 388.35938 41.50625Q388.35938 40.178123 389.35938 39.459373Q390.35938 38.725 392.1875 38.725L393.59375 38.725L393.59375 38.053123Q393.59375 37.303123 393.14062 36.85Q392.6875 36.396873 391.79688 36.396873Q391.03125 36.396873 390.5 36.7875Q389.98438 37.178123 389.98438 37.740623L388.53125 37.740623Q388.53125 37.1 388.96875 36.521873Q389.42188 35.928123 390.1875 35.584373Q390.96875 35.240623 391.89062 35.240623Q393.34375 35.240623 394.17188 35.975Q395.0 36.69375 395.03125 37.975L395.03125 41.865623Q395.03125 43.0375 395.32812 43.725L395.32812 43.85L393.8125 43.85ZM391.42188 42.740623Q392.09375 42.740623 392.70312 42.396873Q393.3125 42.0375 393.59375 41.475L393.59375 39.740623L392.45312 39.740623Q389.79688 39.740623 389.79688 41.303123Q389.79688 41.975 390.25 42.365623Q390.70312 42.740623 391.42188 42.740623ZM401.6875 36.69375Q401.35938 36.63125 400.96875 36.63125Q399.54688 36.63125 399.04688 37.85L399.04688 43.85L397.59375 43.85L397.59375 35.396873L399.0 35.396873L399.03125 36.365623Q399.73438 35.240623 401.04688 35.240623Q401.46875 35.240623 401.6875 35.35L401.6875 36.69375ZM405.98438 42.81875Q406.76562 42.81875 407.34375 42.35Q407.92188 41.88125 407.98438 41.178123L409.34375 41.178123Q409.3125 41.9125 408.84375 42.56875Q408.39062 43.225 407.60938 43.615623Q406.84375 44.00625 405.98438 44.00625Q404.26562 44.00625 403.23438 42.85Q402.21875 41.69375 402.21875 39.69375L402.21875 39.459373Q402.21875 38.225 402.67188 37.271873Q403.125 36.303123 403.96875 35.771873Q404.82812 35.240623 405.98438 35.240623Q407.40625 35.240623 408.34375 36.1Q409.28125 36.94375 409.34375 38.303123L407.98438 38.303123Q407.92188 37.475 407.35938 36.959373Q406.79688 36.428123 405.98438 36.428123Q404.875 36.428123 404.26562 37.225Q403.67188 38.00625 403.67188 39.50625L403.67188 39.7875Q403.67188 41.240623 404.26562 42.0375Q404.875 42.81875 405.98438 42.81875ZM412.04688 36.4125Q413.0 35.240623 414.54688 35.240623Q417.21875 35.240623 417.25 38.25625L417.25 43.85L415.79688 43.85L415.79688 38.25625Q415.79688 37.334373 415.375 36.896873Q414.96875 36.459373 414.10938 36.459373Q413.40625 36.459373 412.875 36.834373Q412.34375 37.209373 412.04688 37.81875L412.04688 43.85L410.59375 43.85L410.59375 31.849998L412.04688 31.849998L412.04688 36.4125Z" fill-rule="nonzero"/><path fill="#3c78d8" d="M440.5 32.35L445.69617 41.35L435.30383 41.35Z" fill-rule="nonzero"/><path fill="#757575" d="M462.10938 40.88125L457.34375 40.88125L456.26562 43.85L454.71875 43.85L459.0625 32.475L460.375 32.475L464.73438 43.85L463.1875 43.85L462.10938 40.88125ZM457.79688 39.646873L461.65625 39.646873L459.71875 34.31875L457.79688 39.646873ZM466.96875 35.396873L467.01562 36.459373Q467.98438 35.240623 469.54688 35.240623Q472.21875 35.240623 472.25 38.25625L472.25 43.85L470.79688 43.85L470.79688 38.25625Q470.79688 37.334373 470.375 36.896873Q469.96875 36.459373 469.10938 36.459373Q468.40625 36.459373 467.875 36.834373Q467.34375 37.209373 467.04688 37.81875L467.04688 43.85L465.59375 43.85L465.59375 35.396873L466.96875 35.396873ZM476.5625 33.35L476.5625 35.396873L478.14062 35.396873L478.14062 36.50625L476.5625 36.50625L476.5625 41.75625Q476.5625 42.25625 476.76562 42.521873Q476.98438 42.771873 477.48438 42.771873Q477.73438 42.771873 478.17188 42.678123L478.17188 43.85Q477.60938 44.00625 477.0625 44.00625Q476.09375 44.00625 475.59375 43.428123Q475.10938 42.834373 475.10938 41.75625L475.10938 36.50625L473.57812 36.50625L473.57812 35.396873L475.10938 35.396873L475.10938 33.35L476.5625 33.35ZM486.98438 42.81875Q487.76562 42.81875 488.34375 42.35Q488.92188 41.88125 488.98438 41.178123L490.34375 41.178123Q490.3125 41.9125 489.84375 42.56875Q489.39062 43.225 488.60938 43.615623Q487.84375 44.00625 486.98438 44.00625Q485.26562 44.00625 484.23438 42.85Q483.21875 41.69375 483.21875 39.69375L483.21875 39.459373Q483.21875 38.225 483.67188 37.271873Q484.125 36.303123 484.96875 35.771873Q485.82812 35.240623 486.98438 35.240623Q488.40625 35.240623 489.34375 36.1Q490.28125 36.94375 490.34375 38.303123L488.98438 38.303123Q488.92188 37.475 488.35938 36.959373Q487.79688 36.428123 486.98438 36.428123Q485.875 36.428123 485.26562 37.225Q484.67188 38.00625 484.67188 39.50625L484.67188 39.7875Q484.67188 41.240623 485.26562 42.0375Q485.875 42.81875 486.98438 42.81875ZM491.21875 39.5375Q491.21875 38.303123 491.70312 37.31875Q492.1875 36.31875 493.0625 35.7875Q493.9375 35.240623 495.04688 35.240623Q496.78125 35.240623 497.84375 36.44375Q498.90625 37.63125 498.90625 39.615623L498.90625 39.709373Q498.90625 40.94375 498.4375 41.928123Q497.96875 42.9125 497.07812 43.459373Q496.20312 44.00625 495.0625 44.00625Q493.34375 44.00625 492.28125 42.81875Q491.21875 41.615623 491.21875 39.646873L491.21875 39.5375ZM492.67188 39.709373Q492.67188 41.115623 493.3125 41.975Q493.96875 42.81875 495.0625 42.81875Q496.17188 42.81875 496.8125 41.959373Q497.46875 41.1 497.46875 39.5375Q497.46875 38.146873 496.79688 37.2875Q496.14062 36.428123 495.04688 36.428123Q493.98438 36.428123 493.32812 37.2875Q492.67188 38.13125 492.67188 39.709373ZM502.17188 43.85L500.71875 43.85L500.71875 31.849998L502.17188 31.849998L502.17188 43.85ZM504.21875 39.5375Q504.21875 38.303123 504.70312 37.31875Q505.1875 36.31875 506.0625 35.7875Q506.9375 35.240623 508.04688 35.240623Q509.78125 35.240623 510.84375 36.44375Q511.90625 37.63125 511.90625 39.615623L511.90625 39.709373Q511.90625 40.94375 511.4375 41.928123Q510.96875 42.9125 510.07812 43.459373Q509.20312 44.00625 508.0625 44.00625Q506.34375 44.00625 505.28125 42.81875Q504.21875 41.615623 504.21875 39.646873L504.21875 39.5375ZM505.67188 39.709373Q505.67188 41.115623 506.3125 41.975Q506.96875 42.81875 508.0625 42.81875Q509.17188 42.81875 509.8125 41.959373Q510.46875 41.1 510.46875 39.5375Q510.46875 38.146873 509.79688 37.2875Q509.14062 36.428123 508.04688 36.428123Q506.98438 36.428123 506.32812 37.2875Q505.67188 38.13125 505.67188 39.709373ZM514.96875 35.396873L515.0156 36.459373Q515.9844 35.240623 517.5469 35.240623Q520.21875 35.240623 520.25 38.25625L520.25 43.85L518.7969 43.85L518.7969 38.25625Q518.7969 37.334373 518.375 36.896873Q517.96875 36.459373 517.1094 36.459373Q516.40625 36.459373 515.875 36.834373Q515.34375 37.209373 515.0469 37.81875L515.0469 43.85L513.59375 43.85L513.59375 35.396873L514.96875 35.396873ZM525.3594 41.725L527.3281 35.396873L528.875 35.396873L525.4844 45.1625Q524.6875 47.271873 522.96875 47.271873L522.7031 47.240623L522.15625 47.146873L522.15625 45.975L522.5469 46.00625Q523.28125 46.00625 523.6875 45.709373Q524.1094 45.4125 524.375 44.615623L524.6875 43.75625L521.6719 35.396873L523.25 35.396873L525.3594 41.725ZM534.21875 39.5375Q534.21875 38.303123 534.7031 37.31875Q535.1875 36.31875 536.0625 35.7875Q536.9375 35.240623 538.0469 35.240623Q539.78125 35.240623 540.84375 36.44375Q541.90625 37.63125 541.90625 39.615623L541.90625 39.709373Q541.90625 40.94375 541.4375 41.928123Q540.96875 42.9125 540.0781 43.459373Q539.2031 44.00625 538.0625 44.00625Q536.34375 44.00625 535.28125 42.81875Q534.21875 41.615623 534.21875 39.646873L534.21875 39.5375ZM535.6719 39.709373Q535.6719 41.115623 536.3125 41.975Q536.96875 42.81875 538.0625 42.81875Q539.1719 42.81875 539.8125 41.959373Q540.46875 41.1 540.46875 39.5375Q540.46875 38.146873 539.7969 37.2875Q539.1406 36.428123 538.0469 36.428123Q536.9844 36.428123 536.3281 37.2875Q535.6719 38.13125 535.6719 39.709373ZM550.7344 39.709373Q550.7344 41.646873 549.84375 42.834373Q548.96875 44.00625 547.46875 44.00625Q545.9219 44.00625 545.0469 43.021873L545.0469 47.1L543.59375 47.1L543.59375 35.396873L544.9219 35.396873L544.9844 36.334373Q545.875 35.240623 547.4375 35.240623Q548.96875 35.240623 549.84375 36.396873Q550.7344 37.5375 550.7344 39.584373L550.7344 39.709373ZM549.2969 39.553123Q549.2969 38.115623 548.6875 37.2875Q548.0781 36.459373 547.0156 36.459373Q545.7031 36.459373 545.0469 37.63125L545.0469 41.6625Q545.6875 42.81875 547.03125 42.81875Q548.0625 42.81875 548.6719 42.00625Q549.2969 41.178123 549.2969 39.553123ZM554.5625 33.35L554.5625 35.396873L556.1406 35.396873L556.1406 36.50625L554.5625 36.50625L554.5625 41.75625Q554.5625 42.25625 554.7656 42.521873Q554.9844 42.771873 555.4844 42.771873Q555.7344 42.771873 556.1719 42.678123L556.1719 43.85Q555.6094 44.00625 555.0625 44.00625Q554.09375 44.00625 553.59375 43.428123Q553.1094 42.834373 553.1094 41.75625L553.1094 36.50625L551.5781 36.50625L551.5781 35.396873L553.1094 35.396873L553.1094 33.35L554.5625 33.35ZM559.1719 43.85L557.71875 43.85L557.71875 35.396873L559.1719 35.396873L559.1719 43.85ZM557.6094 33.146873Q557.6094 32.803123 557.8125 32.56875Q558.03125 32.31875 558.4531 32.31875Q558.875 32.31875 559.09375 32.56875Q559.3125 32.803123 559.3125 33.1625Q559.3125 33.50625 559.09375 33.740623Q558.875 33.975 558.4531 33.975Q558.03125 33.975 557.8125 33.740623Q557.6094 33.50625 557.6094 33.146873ZM562.9531 35.396873L563.0 36.334373Q563.9219 35.240623 565.5 35.240623Q567.28125 35.240623 567.9219 36.6Q568.34375 35.990623 569.0156 35.615623Q569.6875 35.240623 570.6094 35.240623Q573.3906 35.240623 573.4375 38.178123L573.4375 43.85L572.0 43.85L572.0 38.271873Q572.0 37.365623 571.5781 36.9125Q571.1719 36.459373 570.1875 36.459373Q569.3906 36.459373 568.8594 36.94375Q568.3281 37.428123 568.2344 38.240623L568.2344 43.85L566.78125 43.85L566.78125 38.303123Q566.78125 36.459373 564.9844 36.459373Q563.5625 36.459373 563.03125 37.678123L563.03125 43.85L561.59375 43.85L561.59375 35.396873L562.9531 35.396873ZM577.1719 43.85L575.71875 43.85L575.71875 35.396873L577.1719 35.396873L577.1719 43.85ZM575.6094 33.146873Q575.6094 32.803123 575.8125 32.56875Q576.03125 32.31875 576.4531 32.31875Q576.875 32.31875 577.09375 32.56875Q577.3125 32.803123 577.3125 33.1625Q577.3125 33.50625 577.09375 33.740623Q576.875 33.975 576.4531 33.975Q576.03125 33.975 575.8125 33.740623Q575.6094 33.50625 575.6094 33.146873ZM580.9531 42.6625L585.90625 42.6625L585.90625 43.85L579.1875 43.85L579.1875 42.7875L583.8594 36.584373L579.2656 36.584373L579.2656 35.396873L585.6719 35.396873L585.6719 36.4125L580.9531 42.6625ZM592.8125 43.85Q592.6875 43.6 592.6094 42.959373Q591.6094 44.00625 590.2031 44.00625Q588.9531 44.00625 588.15625 43.303123Q587.3594 42.584373 587.3594 41.50625Q587.3594 40.178123 588.3594 39.459373Q589.3594 38.725 591.1875 38.725L592.59375 38.725L592.59375 38.053123Q592.59375 37.303123 592.1406 36.85Q591.6875 36.396873 590.7969 36.396873Q590.03125 36.396873 589.5 36.7875Q588.9844 37.178123 588.9844 37.740623L587.53125 37.740623Q587.53125 37.1 587.96875 36.521873Q588.4219 35.928123 589.1875 35.584373Q589.96875 35.240623 590.8906 35.240623Q592.34375 35.240623 593.1719 35.975Q594.0 36.69375 594.03125 37.975L594.03125 41.865623Q594.03125 43.0375 594.3281 43.725L594.3281 43.85L592.8125 43.85ZM590.4219 42.740623Q591.09375 42.740623 591.7031 42.396873Q592.3125 42.0375 592.59375 41.475L592.59375 39.740623L591.4531 39.740623Q588.7969 39.740623 588.7969 41.303123Q588.7969 41.975 589.25 42.365623Q589.7031 42.740623 590.4219 42.740623ZM598.5625 33.35L598.5625 35.396873L600.1406 35.396873L600.1406 36.50625L598.5625 36.50625L598.5625 41.75625Q598.5625 42.25625 598.7656 42.521873Q598.9844 42.771873 599.4844 42.771873Q599.7344 42.771873 600.1719 42.678123L600.1719 43.85Q599.6094 44.00625 599.0625 44.00625Q598.09375 44.00625 597.59375 43.428123Q597.1094 42.834373 597.1094 41.75625L597.1094 36.50625L595.5781 36.50625L595.5781 35.396873L597.1094 35.396873L597.1094 33.35L598.5625 33.35ZM603.1719 43.85L601.71875 43.85L601.71875 35.396873L603.1719 35.396873L603.1719 43.85ZM601.6094 33.146873Q601.6094 32.803123 601.8125 32.56875Q602.03125 32.31875 602.4531 32.31875Q602.875 32.31875 603.09375 32.56875Q603.3125 32.803123 603.3125 33.1625Q603.3125 33.50625 603.09375 33.740623Q602.875 33.975 602.4531 33.975Q602.03125 33.975 601.8125 33.740623Q601.6094 33.50625 601.6094 33.146873ZM605.21875 39.5375Q605.21875 38.303123 605.7031 37.31875Q606.1875 36.31875 607.0625 35.7875Q607.9375 35.240623 609.0469 35.240623Q610.78125 35.240623 611.84375 36.44375Q612.90625 37.63125 612.90625 39.615623L612.90625 39.709373Q612.90625 40.94375 612.4375 41.928123Q611.96875 42.9125 611.0781 43.459373Q610.2031 44.00625 609.0625 44.00625Q607.34375 44.00625 606.28125 42.81875Q605.21875 41.615623 605.21875 39.646873L605.21875 39.5375ZM606.6719 39.709373Q606.6719 41.115623 607.3125 41.975Q607.96875 42.81875 609.0625 42.81875Q610.1719 42.81875 610.8125 41.959373Q611.46875 41.1 611.46875 39.5375Q611.46875 38.146873 610.7969 37.2875Q610.1406 36.428123 609.0469 36.428123Q607.9844 36.428123 607.3281 37.2875Q606.6719 38.13125 606.6719 39.709373ZM615.96875 35.396873L616.0156 36.459373Q616.9844 35.240623 618.5469 35.240623Q621.21875 35.240623 621.25 38.25625L621.25 43.85L619.7969 43.85L619.7969 38.25625Q619.7969 37.334373 619.375 36.896873Q618.96875 36.459373 618.1094 36.459373Q617.40625 36.459373 616.875 36.834373Q616.34375 37.209373 616.0469 37.81875L616.0469 43.85L614.59375 43.85L614.59375 35.396873L615.96875 35.396873Z" fill-rule="nonzero"/></svg>